<svg xmlns="http://www.w3.org/2000/svg" width="18.531" height="31" viewBox="0 0 18.531 31">
  <g id="arrow-down-sign-to-navigate_2_" data-name="arrow-down-sign-to-navigate (2)" transform="translate(-96.141 30.001) rotate(-90)">
    <g id="Path_265" data-name="Path 265" transform="translate(0)" fill="#fff">
      <path d="M 14.50072383880615 114.1714019775391 C 13.82498359680176 114.1714019775391 13.18958377838135 113.9082870483398 12.71159362792969 113.4305267333984 L 0.2421039789915085 100.9609069824219 C -0.2359660267829895 100.4828491210938 -0.4992560148239136 99.84723663330078 -0.4992460310459137 99.17115783691406 C -0.4992460310459137 98.49504852294922 -0.2359360307455063 97.85948944091797 0.2421839684247971 97.38156890869141 C 0.7200239896774292 96.90370941162109 1.35551393032074 96.64051055908203 2.031513929367065 96.64051055908203 C 2.707463979721069 96.64051055908203 3.343024015426636 96.90367889404297 3.821114063262939 97.38154602050781 L 14.5007266998291 108.0618209838867 L 25.18031311035156 97.38202667236328 C 25.65845489501953 96.90407562255859 26.29397392272949 96.64089965820313 26.96988487243652 96.64089965820313 C 27.64583396911621 96.64089965820313 28.28128433227539 96.90410614013672 28.75917434692383 97.38204193115234 C 29.23736381530762 97.85980987548828 29.50080490112305 98.49539947509766 29.50080490112305 99.17154693603516 C 29.50080490112305 99.84764862060547 29.23738479614258 100.4832992553711 28.75907325744629 100.9613876342773 L 16.28995323181152 113.4308395385742 C 15.81194400787354 113.908447265625 15.17657375335693 114.1714019775391 14.50072383880615 114.1714019775391 Z" stroke="none"/>
      <path d="M 14.50072383880615 113.6714019775391 C 15.02027416229248 113.6714019775391 15.53994369506836 113.4734115600586 15.93639373779297 113.0772857666016 L 28.40560340881348 100.6077575683594 C 29.19920349121094 99.81452178955078 29.19920349121094 98.52848815917969 28.40560340881348 97.73558044433594 C 28.00918960571289 97.33912658691406 27.48956108093262 97.14089965820313 26.96988487243652 97.14089965820313 C 26.45020866394043 97.14089965820313 25.93048477172852 97.33912658691406 25.53387451171875 97.73558044433594 L 14.50072383880615 108.7689361572266 L 3.467643976211548 97.73519134521484 C 3.071003913879395 97.33873748779297 2.551234006881714 97.1405029296875 2.031511545181274 97.1405029296875 C 1.511788964271545 97.1405029296875 0.9921139478683472 97.33873748779297 0.5956639647483826 97.73519134521484 C -0.1975560188293457 98.52809143066406 -0.1975560188293457 99.81415557861328 0.5956639647483826 100.6073608398438 L 13.06505393981934 113.0768890380859 C 13.46131420135498 113.4729461669922 13.98098373413086 113.6714019775391 14.50072383880615 113.6714019775391 M 14.50072383880615 114.6714019775391 C 13.69147396087646 114.6714019775391 12.93055438995361 114.3563079833984 12.35812377929688 113.7841796875 L -0.1114460229873657 101.3144607543945 C -0.6839560270309448 100.7419662475586 -0.9992460012435913 99.98079681396484 -0.9992460012435913 99.17115783691406 C -0.9992460012435913 98.36145782470703 -0.6839060187339783 97.60031127929688 -0.1112960278987885 97.02793884277344 C 0.4609139859676361 96.45571899414063 1.221964001655579 96.14051055908203 2.031513929367065 96.14051055908203 C 2.840964078903198 96.14051055908203 3.602053880691528 96.45565795898438 4.174583911895752 97.02790832519531 L 14.5007438659668 107.3546981811523 L 24.82676315307617 97.02848052978516 C 25.3994140625 96.45606231689453 26.16046333312988 96.14089965820313 26.96988487243652 96.14089965820313 C 27.77940368652344 96.14089965820313 28.54042434692383 96.45613098144531 29.11274337768555 97.02851104736328 C 29.68529319763184 97.60055541992188 30.00080490112305 98.36175537109375 30.00080490112305 99.17154693603516 C 30.00080490112305 99.98124694824219 29.68535423278809 100.7424926757813 29.1125545501709 101.3150253295898 L 16.64351463317871 113.7843856811523 C 16.07092475891113 114.3564910888672 15.31004428863525 114.6714019775391 14.50072383880615 114.6714019775391 Z" stroke="none" fill="#fff"/>
    </g>
  </g>
</svg>
