<svg height="512" viewBox="0 0 512 512" width="512" xmlns="http://www.w3.org/2000/svg" xmlns:xlink="http://www.w3.org/1999/xlink"><linearGradient id="New_Gradient_Swatch_14" gradientUnits="userSpaceOnUse" x1="378.779" x2="575.75" y1="348.007" y2="151.036"><stop offset=".015" stop-color="#a6a6b9"/><stop offset="1" stop-color="#cacad5"/></linearGradient><linearGradient id="New_Gradient_Swatch_15" gradientUnits="userSpaceOnUse" x1="86.779" x2="451.75" y1="432.007" y2="67.036"><stop offset=".015" stop-color="#cacad5"/><stop offset="1" stop-color="#dcdce3"/></linearGradient><linearGradient id="New_Gradient_Swatch_10" gradientUnits="userSpaceOnUse" x1="52.779" x2="421.75" y1="406.007" y2="37.036"><stop offset=".015" stop-color="#bfe8e5"/><stop offset="1" stop-color="#dff4f2"/></linearGradient><linearGradient id="New_Gradient_Swatch_11" gradientUnits="userSpaceOnUse" x1="15.26" x2="384.231" y1="368.488" y2="-.483"><stop offset=".011" stop-color="#60c6be"/><stop offset="1" stop-color="#80d1cb"/></linearGradient><linearGradient id="New_Gradient_Swatch_5" gradientUnits="userSpaceOnUse" x1="333.118" x2="468.882" y1="465.056" y2="329.292"><stop offset=".011" stop-color="#f8c73f"/><stop offset="1" stop-color="#fada7f"/></linearGradient><g id="_30-appointment" data-name="30-appointment"><g id="gradient"><path d="m193.265 89.521a12 12 0 0 1 -12-12 28.032 28.032 0 0 0 -28-28 12 12 0 0 1 0-24 52.059 52.059 0 0 1 52 52 12 12 0 0 1 -12 12z" fill="#9595ac"/><path d="m313.265 89.521a12 12 0 0 1 -12-12 28.032 28.032 0 0 0 -28-28 12 12 0 0 1 0-24 52.059 52.059 0 0 1 52 52 12 12 0 0 1 -12 12z" fill="#9595ac"/><path d="m433.265 89.521a12 12 0 0 1 -12-12 28.032 28.032 0 0 0 -28-28 12 12 0 0 1 0-24 52.059 52.059 0 0 1 52 52 12 12 0 0 1 -12 12z" fill="#9595ac"/><rect fill="url(#New_Gradient_Swatch_14)" height="344" rx="12" width="64" x="445.265" y="77.522"/><rect fill="url(#New_Gradient_Swatch_15)" height="344" rx="12" width="400" x="69.265" y="77.522"/><path d="m466.7 82.1a12 12 0 0 0 -9.432-4.581h-376a12 12 0 0 0 -11.668 9.181l-64 264a12 12 0 0 0 11.662 14.827h376a12 12 0 0 0 11.662-9.173l64-264a12 12 0 0 0 -2.224-10.254z" fill="url(#New_Gradient_Swatch_10)"/><path d="m468.927 92.349a12 12 0 0 0 -11.662-14.827h-376a12 12 0 0 0 -11.665 9.178l-18.14 74.827h400.7z" fill="url(#New_Gradient_Swatch_11)"/><g fill="#a0ddd8"><path d="m293.265 225.521h-32a12 12 0 0 1 0-24h32a12 12 0 0 1 0 24z"/><path d="m213.265 225.521h-32a12 12 0 0 1 0-24h32a12 12 0 0 1 0 24z"/><path d="m133.265 225.521h-32a12 12 0 0 1 0-24h32a12 12 0 0 1 0 24z"/><path d="m373.265 225.521h-32a12 12 0 0 1 0-24h32a12 12 0 0 1 0 24z"/><path d="m277.265 273.521h-32a12 12 0 0 1 0-24h32a12 12 0 0 1 0 24z"/><path d="m197.265 273.521h-32a12 12 0 1 1 0-24h32a12 12 0 0 1 0 24z"/><path d="m117.265 273.521h-32a12 12 0 1 1 0-24h32a12 12 0 0 1 0 24z"/><path d="m357.265 273.521h-32a12 12 0 1 1 0-24h32a12 12 0 0 1 0 24z"/><path d="m269.265 321.521h-32a12 12 0 0 1 0-24h32a12 12 0 0 1 0 24z"/><path d="m189.265 321.521h-32a12 12 0 0 1 0-24h32a12 12 0 0 1 0 24z"/><path d="m109.265 321.521h-32a12 12 0 1 1 0-24h32a12 12 0 0 1 0 24z"/><path d="m349.265 321.521h-32a12 12 0 0 1 0-24h32a12 12 0 0 1 0 24z"/></g><path d="m393.265 129.521a52 52 0 0 1 0-104 12 12 0 0 1 0 24 28 28 0 0 0 0 56 12 12 0 1 1 0 24z" fill="#9595ac"/><path d="m273.265 129.521a52 52 0 0 1 0-104 12 12 0 0 1 0 24 28 28 0 0 0 0 56 12 12 0 1 1 0 24z" fill="#9595ac"/><path d="m153.265 129.521a52 52 0 1 1 0-104 12 12 0 0 1 0 24 28 28 0 1 0 0 56 12 12 0 1 1 0 24z" fill="#9595ac"/><circle cx="401" cy="397.174" fill="url(#New_Gradient_Swatch_5)" r="96"/><path d="m401 289.174a108 108 0 1 0 108 108 108.122 108.122 0 0 0 -108-108zm12 191.126v-11.126a12 12 0 0 0 -24 0v11.126a84.171 84.171 0 0 1 -71.129-71.129h11.129a12 12 0 0 0 0-24h-11.129a84.17 84.17 0 0 1 71.129-71.126v11.129a12 12 0 0 0 24 0v-11.129a84.17 84.17 0 0 1 71.129 71.129h-11.129a12 12 0 0 0 0 24h11.129a84.171 84.171 0 0 1 -71.129 71.126z" fill="#fdecbf"/><path d="m401 409.174a11.969 11.969 0 0 1 -5.362-1.267l-32-16a12 12 0 0 1 10.732-21.467l24.265 12.132 25.884-25.884a12 12 0 0 1 16.97 16.971l-32 32a12 12 0 0 1 -8.489 3.515z" fill="#83839e"/></g></g></svg>