<svg xmlns="http://www.w3.org/2000/svg" xmlns:xlink="http://www.w3.org/1999/xlink" width="48.949" height="45.985" viewBox="0 0 48.949 45.985">
  <defs>
    <linearGradient id="linear-gradient" x1="0.5" x2="0.5" y2="1" gradientUnits="objectBoundingBox">
      <stop offset="0" stop-color="#0a4bff"/>
      <stop offset="1" stop-color="#7d46ff"/>
    </linearGradient>
  </defs>
  <g id="booking_3_" data-name="booking (3)" transform="translate(0)">
    <path id="Path_242" data-name="Path 242" d="M38.883,15.5H10.066a10.066,10.066,0,1,0,0,20.132H17.4v8.132l-.358-.3a4.659,4.659,0,0,0-6.17.269,4.025,4.025,0,0,0,.262,5.992L17.4,54.984v5.067a1.434,1.434,0,0,0,1.434,1.434H36.038a1.434,1.434,0,0,0,1.434-1.434V43.937a4.309,4.309,0,0,0-3.77-4.269l-7.7-.96V35.631H38.883a10.066,10.066,0,1,0,0-20.132ZM20.263,58.617V55.749H34.6v2.868Zm13.084-16.1A1.436,1.436,0,0,1,34.6,43.937v8.944H19.351l-6.379-5.352a1.161,1.161,0,0,1-.077-1.767,1.782,1.782,0,0,1,2.3-.1l2.714,2.277a1.435,1.435,0,0,0,2.356-1.1V28.5a1.434,1.434,0,0,1,2.868,0V39.974A1.434,1.434,0,0,0,24.388,41.4Zm5.536-9.75H26V28.5a4.3,4.3,0,0,0-8.6,0v4.262H10.066a7.2,7.2,0,1,1,0-14.4H38.883a7.2,7.2,0,0,1,0,14.4Z" transform="translate(0 -15.5)" fill="url(#linear-gradient)"/>
    <path id="Path_243" data-name="Path 243" d="M309.924,75.92,305.2,80.642l-1.854-1.854a1.434,1.434,0,1,0-2.028,2.028l2.868,2.868a1.434,1.434,0,0,0,2.028,0l5.736-5.736a1.434,1.434,0,0,0-2.028-2.028Z" transform="translate(-272.132 -69.764)" fill="url(#linear-gradient)"/>
  </g>
</svg>
