<?xml version="1.0" encoding="utf-8"?>
<!-- Generator: Adobe Illustrator 16.0.0, SVG Export Plug-In . SVG Version: 6.00 Build 0)  -->
<!DOCTYPE svg PUBLIC "-//W3C//DTD SVG 1.1//EN" "http://www.w3.org/Graphics/SVG/1.1/DTD/svg11.dtd">
<svg version="1.1" xmlns="http://www.w3.org/2000/svg" xmlns:xlink="http://www.w3.org/1999/xlink" x="0px" y="0px" width="500px"
	 height="372.609px" viewBox="0 0 500 372.609" enable-background="new 0 0 500 372.609" xml:space="preserve">
<g id="Background_Complete">
	<g>
		<rect y="327.446" fill="#EBEBEB" width="500" height="0.25"/>
		<rect x="416.779" y="343.542" fill="#EBEBEB" width="33.122" height="0.25"/>
		<rect x="322.527" y="346.255" fill="#EBEBEB" width="8.693" height="0.25"/>
		<rect x="396.586" y="334.255" fill="#EBEBEB" width="19.192" height="0.25"/>
		<rect x="52.459" y="335.936" fill="#EBEBEB" width="43.193" height="0.25"/>
		<rect x="104.556" y="335.936" fill="#EBEBEB" width="6.333" height="0.25"/>
		<rect x="131.471" y="340.158" fill="#EBEBEB" width="93.676" height="0.25"/>
		<path fill="#EBEBEB" d="M237.014,282.847H43.915c-3.147,0-5.708-2.561-5.708-5.708V5.708C38.207,2.561,40.768,0,43.915,0h193.099
			c3.146,0,5.707,2.561,5.707,5.708v271.432C242.721,280.287,240.16,282.847,237.014,282.847z M43.915,0.25
			c-3.01,0-5.458,2.448-5.458,5.458v271.432c0,3.01,2.448,5.458,5.458,5.458h193.099c3.009,0,5.457-2.448,5.457-5.458V5.708
			c0-3.009-2.448-5.458-5.457-5.458H43.915z"/>
		<path fill="#EBEBEB" d="M453.311,282.847H260.212c-3.146,0-5.707-2.561-5.707-5.708V5.708c0-3.147,2.561-5.708,5.707-5.708
			h193.099c3.147,0,5.708,2.561,5.708,5.708v271.432C459.019,280.287,456.458,282.847,453.311,282.847z M260.212,0.25
			c-3.009,0-5.457,2.448-5.457,5.458v271.432c0,3.01,2.448,5.458,5.457,5.458h193.099c3.01,0,5.458-2.448,5.458-5.458V5.708
			c0-3.009-2.448-5.458-5.458-5.458H260.212z"/>
	</g>
	<g>
		<g>
			<rect x="317.13" y="244.594" fill="#E6E6E6" width="6.1" height="81.964"/>
			<rect x="425.13" y="244.594" fill="#E6E6E6" width="6.1" height="81.964"/>
			<rect x="317.765" y="314.43" fill="#E6E6E6" width="110.415" height="6.099"/>
			<rect x="317.765" y="274.43" fill="#E6E6E6" width="110.415" height="6.099"/>
			<g>
				<path fill="#EBEBEB" d="M398.688,303.172c-0.017-0.734-9.038-0.159-9.038-0.159s-5.549,5.645-10.94,6.913
					s-2.378,4.504,3.647,4.504c6.025,0,10.623,0,14.904,0C401.542,314.43,398.866,310.783,398.688,303.172z"/>
				<g>
					<path fill="#EBEBEB" d="M384.108,305.106c-0.174-0.144-0.354-0.427-0.218-0.962c0.065-0.258,0.228-0.464,0.482-0.61
						c0.479-0.274,1.259-0.296,2.023-0.221c-0.733-0.392-1.376-0.867-1.403-1.342c-0.018-0.309,0.182-0.563,0.593-0.758
						c0.386-0.183,0.779-0.193,1.167-0.032c1.224,0.509,1.981,2.614,2.013,2.704c0.022,0.062,0.017,0.127-0.009,0.183
						c-0.009,0.017-0.02,0.034-0.032,0.05l0,0l0,0c-0.021,0.025-0.048,0.047-0.08,0.062c-0.475,0.226-2.479,1.144-3.739,1.144
						C384.574,305.323,384.295,305.26,384.108,305.106z M384.608,303.947c-0.141,0.08-0.225,0.184-0.258,0.315
						c-0.09,0.354,0.022,0.445,0.06,0.477c0.425,0.35,2.078-0.148,3.407-0.711C386.805,303.803,385.258,303.574,384.608,303.947z
						 M385.788,301.644c-0.124,0.058-0.329,0.175-0.321,0.301c0.023,0.405,1.314,1.107,2.65,1.615
						c-0.312-0.682-0.881-1.663-1.548-1.939c-0.123-0.051-0.244-0.077-0.365-0.077C386.065,301.543,385.927,301.578,385.788,301.644
						z"/>
				</g>
			</g>
			<g>
				<path fill="#EBEBEB" d="M420.228,303.306c-0.018-0.733-9.038-0.158-9.038-0.158s-5.549,5.645-10.94,6.913
					c-5.391,1.269-2.378,4.503,3.646,4.503c6.025,0,10.624,0,14.905,0S420.406,310.917,420.228,303.306z"/>
				<g>
					<path fill="#EBEBEB" d="M405.647,305.241c-0.174-0.144-0.354-0.428-0.218-0.962c0.065-0.259,0.228-0.464,0.481-0.61
						c0.479-0.275,1.26-0.296,2.023-0.222c-0.733-0.391-1.376-0.867-1.403-1.341c-0.018-0.309,0.182-0.563,0.593-0.759
						c0.386-0.182,0.779-0.193,1.167-0.032c1.224,0.509,1.981,2.615,2.013,2.704c0.022,0.062,0.017,0.127-0.009,0.183
						c-0.009,0.018-0.02,0.035-0.032,0.051h0l0,0c-0.021,0.025-0.048,0.047-0.08,0.062c-0.474,0.226-2.478,1.143-3.739,1.143
						C406.114,305.457,405.835,305.394,405.647,305.241z M406.148,304.081c-0.141,0.081-0.225,0.184-0.258,0.315
						c-0.09,0.354,0.022,0.446,0.06,0.478c0.425,0.35,2.079-0.148,3.407-0.711C408.345,303.937,406.798,303.708,406.148,304.081z
						 M407.327,301.778c-0.123,0.058-0.328,0.175-0.321,0.301c0.023,0.406,1.314,1.107,2.65,1.616
						c-0.312-0.683-0.882-1.663-1.548-1.94c-0.123-0.051-0.244-0.076-0.365-0.076C407.605,301.678,407.467,301.711,407.327,301.778z
						"/>
				</g>
			</g>
			<path fill="#EBEBEB" d="M396.773,273.443c1.017-0.823,2.176-1.454,3.42-1.86l0,0c0,0,3.72-3.689,5.51-14.8l4.87-1.27
				c1.693-0.411,3.463,0.28,4.43,1.729c0.135,0.196,0.24,0.412,0.31,0.641c0.251,1.19,0.424,2.396,0.52,3.609
				c0.49,3.761,0.07,12.2,0.07,12.2h-0.88l-0.35-7.66c-0.13-2.6-2.12,0.45-2.69,3.25c-0.57,2.801-1.78,5.78-7.48,5.92
				C397.854,275.333,395.094,275.073,396.773,273.443z"/>
			<path fill="#EBEBEB" d="M375.213,273.443c1.018-0.823,2.176-1.454,3.42-1.86l0,0c0,0,3.72-3.689,5.51-14.8l4.87-1.27
				c1.693-0.411,3.463,0.28,4.43,1.729c0.135,0.196,0.239,0.412,0.31,0.641c0.251,1.19,0.425,2.396,0.521,3.609
				c0.49,3.761,0.069,12.2,0.069,12.2h-0.88l-0.35-7.66c-0.13-2.6-2.12,0.45-2.69,3.25c-0.57,2.801-1.78,5.78-7.479,5.92
				C376.293,275.333,373.533,275.073,375.213,273.443z"/>
			<path fill="#EBEBEB" d="M350.353,313.525c1.018-0.823,2.176-1.453,3.42-1.859l0,0c0,0,3.721-3.69,5.51-14.8l4.87-1.271
				c1.693-0.41,3.463,0.28,4.43,1.73c0.135,0.196,0.239,0.412,0.31,0.64c0.251,1.191,0.425,2.396,0.521,3.61
				c0.49,3.76,0.07,12.2,0.07,12.2h-0.88l-0.35-7.66c-0.13-2.601-2.12,0.449-2.69,3.25c-0.569,2.8-1.78,5.779-7.479,5.92
				C351.433,315.416,348.673,315.155,350.353,313.525z"/>
			<path fill="#EBEBEB" d="M328.792,313.525c1.017-0.823,2.176-1.453,3.42-1.859l0,0c0,0,3.72-3.69,5.51-14.8l4.87-1.271
				c1.694-0.41,3.463,0.28,4.43,1.73c0.135,0.196,0.24,0.412,0.31,0.64c0.25,1.191,0.424,2.396,0.52,3.61
				c0.49,3.76,0.07,12.2,0.07,12.2h-0.88l-0.35-7.66c-0.13-2.601-2.12,0.449-2.69,3.25c-0.57,2.8-1.78,5.779-7.48,5.92
				C329.872,315.416,327.112,315.155,328.792,313.525z"/>
			<path fill="#EBEBEB" d="M372.188,261.251c-0.039-0.196-0.108-0.386-0.204-0.563c-3.628-0.768-6.537,7.214-8.329,9.462
				c-1.792,2.247-5.306,1.25-5.306,1.25c-1.075,0.232-2.1,0.659-3.022,1.26c-1.547,1.218,0.74,1.675,6.314,2.144
				c4.781,0.377,6.052-2.011,6.771-4.304s2.649-4.673,2.533-2.486l-0.372,6.439l0.736,0.076c0,0,1.083-7.024,1-10.213
				C372.335,263.293,372.295,262.27,372.188,261.251z"/>
			<path fill="#EBEBEB" d="M353.188,261.251c-0.039-0.196-0.108-0.386-0.204-0.563c-3.628-0.768-6.537,7.214-8.329,9.462
				c-1.792,2.247-5.306,1.25-5.306,1.25c-1.075,0.232-2.1,0.659-3.022,1.26c-1.547,1.218,0.74,1.675,6.314,2.144
				c4.781,0.377,6.052-2.011,6.771-4.304s2.649-4.673,2.533-2.486l-0.372,6.439l0.736,0.076c0,0,1.083-7.024,1-10.213
				C353.335,263.293,353.295,262.27,353.188,261.251z"/>
		</g>
		<g>
			<polygon fill="#E0E0E0" points="241.069,229.558 241.069,326.558 235.069,326.558 235.069,241.558 129.069,241.558 
				129.069,326.558 122.069,326.558 122.069,229.558 			"/>
			<polygon fill="#F5F5F5" points="175.069,229.558 175.069,326.558 169.069,326.558 169.069,241.558 63.069,241.558 
				63.069,326.558 56.069,326.558 56.069,229.558 			"/>
		</g>
		<g>
			<g>
				<path fill="#E0E0E0" d="M63.329,187.607c0,0,2.671,0.617,3.915,3.945c1.241,3.328,5.029,5.389,7.467,5.27
					c0.982-0.049,1.901,0.415,2.988,1.041c0.299,0.171,0.609,0.354,0.939,0.546c-0.042-0.33-0.074-0.672-0.093-1.025
					c-0.262-0.201-0.521-0.417-0.774-0.65c-0.058-0.056-0.115-0.108-0.173-0.164c-2.938-2.826-3.023-5.798-6.452-8.473
					C67.652,185.37,63.329,187.607,63.329,187.607z"/>
				<path fill="#E0E0E0" d="M91.848,184.655c0,0-2.558,0.987-3.319,4.458c-0.759,3.471-4.219,6.044-6.649,6.27
					c-0.979,0.091-1.823,0.68-2.811,1.452c-0.272,0.212-0.553,0.438-0.852,0.674c-0.005-0.333-0.022-0.677-0.052-1.028
					c0.23-0.237,0.456-0.487,0.674-0.754c0.049-0.063,0.099-0.124,0.148-0.187c2.511-3.212,2.176-6.166,5.192-9.298
					C87.252,183.049,91.848,184.655,91.848,184.655z"/>
				<path fill="#E0E0E0" d="M79.068,196.834c0.063,1.608-0.038,3.438-0.574,5.527c-1.65,6.416-0.916,0.091-0.916,0.091
					s0.69-2.073,0.638-4.944c-0.005-0.333-0.022-0.677-0.052-1.028c-0.094-1.175-0.322-2.447-0.771-3.743
					c-1.74-5.043-5.225-6.6-6.6-12.009s3.391-9.259,3.391-9.259s-0.641,3.394,2.568,6.509c3.207,3.115,3.666,8.524,2.291,11.275
					c-0.803,1.603-0.294,3.613-0.058,6.286C79.021,195.955,79.052,196.386,79.068,196.834z"/>
			</g>
			<polygon fill="#EBEBEB" points="86.838,229.558 83.053,207.869 84.122,201.558 72.192,201.558 73.263,207.869 69.478,229.558 			
				"/>
		</g>
		<g>
			<rect x="297.385" y="27.362" fill="#E9E9E9" width="130.126" height="143.991"/>
			<rect x="303.11" y="33.065" fill="#F5F5F5" width="119.015" height="132.881"/>
			<polygon fill="#FFFFFF" points="336.747,33.065 303.11,159.036 303.11,90.839 318.502,33.065 			"/>
			<polygon fill="#FFFFFF" points="351.78,33.065 316.306,165.946 309.616,165.946 345.089,33.065 			"/>
			<polygon fill="#FFFFFF" points="422.125,69.301 422.125,137.509 414.592,165.946 396.347,165.946 			"/>
			<rect x="360.137" y="27.362" fill="#E9E9E9" width="4.622" height="143.991"/>
			<rect x="299.645" y="56.579" fill="#E9E9E9" width="125.37" height="4.623"/>
		</g>
		<g>
			<circle fill="#E0E0E0" cx="152.538" cy="43.768" r="23.554"/>
			<circle fill="#F0F0F0" cx="152.539" cy="43.768" r="20.027"/>
			<g>
				<polyline fill="#F0F0F0" points="153.483,30.03 153.483,44.03 162.761,38.78 				"/>
				<path fill="#E0E0E0" d="M153.483,45.03c-0.174,0-0.348-0.045-0.504-0.136c-0.307-0.179-0.496-0.508-0.496-0.864v-14
					c0-0.552,0.448-1,1-1s1,0.448,1,1v12.285l7.785-4.405c0.481-0.273,1.091-0.103,1.363,0.377c0.272,0.481,0.103,1.091-0.377,1.363
					l-9.277,5.25C153.823,44.987,153.653,45.03,153.483,45.03z"/>
			</g>
		</g>
	</g>
</g>
<g id="Background_Simple" display="none">
	<g display="inline">
		<path fill="#407BFF" d="M419.038,261.393c-14.954,63.953-113.671,76.354-159.783,43.413
			c-46.112-32.942-63.847-56.565-94.359-34.117c-30.514,22.448-74.426,27.509-87.205-20.487s14.584-113.778,73.753-144.09
			c59.169-30.311,46.391-90.374,132.05-95.908c46.703-3.017,58.148,45.774,60.365,87.669
			C346.074,139.769,436.38,187.226,419.038,261.393z"/>
		<path opacity="0.9" fill="#FFFFFF" d="M419.038,261.393c-14.954,63.953-113.671,76.354-159.783,43.413
			c-46.112-32.942-63.847-56.565-94.359-34.117c-30.514,22.448-74.426,27.509-87.205-20.487s14.584-113.778,73.753-144.09
			c59.169-30.311,46.391-90.374,132.05-95.908c46.703-3.017,58.148,45.774,60.365,87.669
			C346.074,139.769,436.38,187.226,419.038,261.393z"/>
	</g>
</g>
<g id="Shadow_1_">
	<ellipse id="_x3C_Path_x3E__359_" fill="#F5F5F5" cx="250" cy="361.286" rx="193.889" ry="11.323"/>
</g>
<g id="Plant">
	<g>
		<g>
			<path fill="#407BFF" d="M113.211,288.895c0.21,1.47-3.777,2.438-7.028,2.979c0.266,2.67,2.042,5.367,4.494,7.886
				c3.085-1.738,7.49-4.036,8.302-3.475c0.886,0.613-3.625,3.529-6.445,5.244c1.984,1.761,4.217,3.402,6.389,4.84
				c1.383-1.292,3.002-2.427,3.967-1.813c1,0.637,0.729,2.636,0.236,4.42c3.356,1.957,5.87,3.147,5.87,3.147s1.409-4.271,2.242-9.53
				c-0.169-0.334-0.337-0.672-0.492-1.029c-0.541-1.251-0.014-1.783,0.879-1.959c0.231-2.302,0.298-4.669,0.056-6.865
				c-3.799-0.797-8.419-2.271-6.688-4.55c1.043-1.374,2.954-1.529,4.941-1.186c-0.278-0.458-0.585-0.89-0.938-1.278
				c-6.915-7.618-11.737,0-11.737,0c-4.018-3.349-9.662-2.442-10.882,2.79C108.633,287.939,112.951,287.079,113.211,288.895z"/>
			<path opacity="0.3" fill="#FFFFFF" enable-background="new    " d="M113.211,288.895c0.21,1.47-3.777,2.438-7.028,2.979
				c0.266,2.67,2.042,5.367,4.494,7.886c3.085-1.738,7.49-4.036,8.302-3.475c0.886,0.613-3.625,3.529-6.445,5.244
				c1.984,1.761,4.217,3.402,6.389,4.84c1.383-1.292,3.002-2.427,3.967-1.813c1,0.637,0.729,2.636,0.236,4.42
				c3.356,1.957,5.87,3.147,5.87,3.147s1.409-4.271,2.242-9.53c-0.169-0.334-0.337-0.672-0.492-1.029
				c-0.541-1.251-0.014-1.783,0.879-1.959c0.231-2.302,0.298-4.669,0.056-6.865c-3.799-0.797-8.419-2.271-6.688-4.55
				c1.043-1.374,2.954-1.529,4.941-1.186c-0.278-0.458-0.585-0.89-0.938-1.278c-6.915-7.618-11.737,0-11.737,0
				c-4.018-3.349-9.662-2.442-10.882,2.79C108.633,287.939,112.951,287.079,113.211,288.895z"/>
		</g>
		<g>
			<g>
				<path fill="#407BFF" d="M121.837,344.881l-0.997-0.082c0.042-0.515,4.094-51.525-7.354-56.334
					c-1.229-0.517-2.365-0.488-3.47,0.087c-4.136,2.151-6.119,11.082-6.138,11.173l-0.978-0.213
					c0.084-0.386,2.102-9.479,6.653-11.847c1.367-0.711,2.82-0.752,4.32-0.122C125.984,292.63,122.012,342.75,121.837,344.881z"/>
			</g>
			<g>
				<path fill="#407BFF" d="M123.28,343.776c-0.203-2.295-4.875-56.268,3.862-61.997c2.095-1.373,3.961-1.667,5.549-0.863
					c4.129,2.082,4.671,10.91,4.692,11.284l-0.998,0.057c-0.005-0.086-0.529-8.626-4.145-10.449
					c-1.244-0.625-2.775-0.356-4.55,0.808c-8.242,5.405-3.463,60.517-3.414,61.073L123.28,343.776z"/>
			</g>
			<g>
				<path fill="#407BFF" d="M124.594,348.139c-0.065-1.757-1.504-43.071,6.452-46.688c1.573-0.715,3.166-0.728,4.732-0.038
					c5.46,2.402,8.832,12.577,8.973,13.009l-0.951,0.311c-0.033-0.102-3.374-10.183-8.425-12.404
					c-1.313-0.576-2.595-0.567-3.915,0.033c-6.101,2.773-6.304,33.958-5.867,45.74L124.594,348.139z"/>
			</g>
			<g>
				<path fill="#407BFF" d="M122.569,346.25l-0.993-0.113c1.402-12.296,4.083-45.062-0.297-48.97
					c-0.653-0.584-1.238-0.764-1.792-0.554c-2.935,1.126-4.722,11.783-5.163,15.795l-0.994-0.109
					c0.169-1.538,1.769-15.073,5.798-16.619c0.922-0.354,1.869-0.105,2.816,0.741C127.604,301.471,122.777,344.423,122.569,346.25z"
					/>
			</g>
		</g>
		<g>
			<polygon fill="#407BFF" points="105.882,322.939 141.809,322.939 138.809,363.183 108.882,363.183 			"/>
			<polygon opacity="0.2" fill="#FFFFFF" enable-background="new    " points="116.794,322.939 117.794,363.182 138.809,363.182 
				141.809,322.939 			"/>
		</g>
		<g>
			<path fill="#407BFF" d="M110.775,308.17c-0.375,0.979-3.165,0.209-5.355-0.571c-0.752,1.737-0.581,4.01,0.067,6.404
				c2.499-0.015,6.003,0.078,6.311,0.703c0.336,0.682-3.445,0.934-5.772,1.024c0.619,1.767,1.435,3.544,2.281,5.176
				c1.295-0.323,2.684-0.468,3.068,0.242c0.398,0.735-0.454,1.875-1.37,2.807c1.399,2.357,2.541,3.953,2.541,3.953
				s2.333-2.15,4.65-5.108c0.01-0.265,0.022-0.53,0.05-0.804c0.095-0.957,0.603-1.104,1.214-0.906
				c0.932-1.341,1.784-2.777,2.388-4.216c-2.07-1.793-4.413-4.287-2.565-5.099c1.115-0.489,2.346,0.069,3.454,0.963
				c-0.014-0.378-0.056-0.749-0.14-1.11c-1.652-7.068-7.239-4.023-7.239-4.023c-1.33-3.442-5.121-4.819-7.667-2.01
				C108.28,306.012,111.238,306.962,110.775,308.17z"/>
			<path opacity="0.3" fill="#FFFFFF" enable-background="new    " d="M110.775,308.17c-0.375,0.979-3.165,0.209-5.355-0.571
				c-0.752,1.737-0.581,4.01,0.067,6.404c2.499-0.015,6.003,0.078,6.311,0.703c0.336,0.682-3.445,0.934-5.772,1.024
				c0.619,1.767,1.435,3.544,2.281,5.176c1.295-0.323,2.684-0.468,3.068,0.242c0.398,0.735-0.454,1.875-1.37,2.807
				c1.399,2.357,2.541,3.953,2.541,3.953s2.333-2.15,4.65-5.108c0.01-0.265,0.022-0.53,0.05-0.804
				c0.095-0.957,0.603-1.104,1.214-0.906c0.932-1.341,1.784-2.777,2.388-4.216c-2.07-1.793-4.413-4.287-2.565-5.099
				c1.115-0.489,2.346,0.069,3.454,0.963c-0.014-0.378-0.056-0.749-0.14-1.11c-1.652-7.068-7.239-4.023-7.239-4.023
				c-1.33-3.442-5.121-4.819-7.667-2.01C108.28,306.012,111.238,306.962,110.775,308.17z"/>
		</g>
		<g>
			<path fill="#407BFF" d="M137.451,312.949c-1.133,0.084-2.221,0.344-3.283,0.691c-0.277-0.759-0.458-1.55-0.484-2.377
				c-0.228-7.246,4.958-4.19,7.7-6.32c1.367-1.062,3.041-1.744,4.585-1.438c-0.231,0.399-0.443,0.812-0.62,1.24
				c-0.287,0.694,0.165,1.417,0.877,1.55c0.669,0.126,1.42,0.067,2.034-0.241c0.192-0.096,0.353-0.235,0.523-0.361
				c0.383,0.646,0.722,1.438,0.995,2.423c0.279,1.007,0.424,2.051,0.469,3.099c-0.408,0.091-0.813,0.2-1.212,0.342
				c-0.623,0.222-0.956,1.218-0.453,1.722c0.44,0.443,0.945,0.795,1.495,1.05c-0.18,1.193-0.512,2.325-0.912,3.396
				c-0.123,0.02-0.247,0.032-0.369,0.057c-0.264,0.052-0.523,0.12-0.782,0.193c-0.148,0.042-0.295,0.093-0.434,0.158
				c-0.359,0.171-0.621,0.478-0.678,0.879c-0.056,0.396,0.109,0.804,0.427,1.047c0.169,0.128,0.354,0.229,0.539,0.331
				c-0.826,1.308-1.802,2.344-2.87,2.896c0,0-1.322-0.576-3.052-1.612c0.216-0.291,0.433-0.581,0.634-0.88
				c0.237-0.354,0.343-0.716,0.308-1.139c-0.034-0.409-0.282-0.766-0.587-1.022c-0.294-0.247-0.764-0.355-1.139-0.307
				c-0.366,0.047-0.811,0.271-1.022,0.587c-0.24,0.357-0.505,0.696-0.767,1.037c-1.324-0.997-2.641-2.202-3.68-3.573
				c0.041-0.012,0.083-0.023,0.11-0.032c0.669-0.175,1.353-0.288,2.042-0.339c0.861-0.064,1.397-0.931,1.331-1.726
				C139.104,313.417,138.253,312.889,137.451,312.949z"/>
			<path opacity="0.5" fill="#FFFFFF" enable-background="new    " d="M137.451,312.949c-1.133,0.084-2.221,0.344-3.283,0.691
				c-0.277-0.759-0.458-1.55-0.484-2.377c-0.228-7.246,4.958-4.19,7.7-6.32c1.367-1.062,3.041-1.744,4.585-1.438
				c-0.231,0.399-0.443,0.812-0.62,1.24c-0.287,0.694,0.165,1.417,0.877,1.55c0.669,0.126,1.42,0.067,2.034-0.241
				c0.192-0.096,0.353-0.235,0.523-0.361c0.383,0.646,0.722,1.438,0.995,2.423c0.279,1.007,0.424,2.051,0.469,3.099
				c-0.408,0.091-0.813,0.2-1.212,0.342c-0.623,0.222-0.956,1.218-0.453,1.722c0.44,0.443,0.945,0.795,1.495,1.05
				c-0.18,1.193-0.512,2.325-0.912,3.396c-0.123,0.02-0.247,0.032-0.369,0.057c-0.264,0.052-0.523,0.12-0.782,0.193
				c-0.148,0.042-0.295,0.093-0.434,0.158c-0.359,0.171-0.621,0.478-0.678,0.879c-0.056,0.396,0.109,0.804,0.427,1.047
				c0.169,0.128,0.354,0.229,0.539,0.331c-0.826,1.308-1.802,2.344-2.87,2.896c0,0-1.322-0.576-3.052-1.612
				c0.216-0.291,0.433-0.581,0.634-0.88c0.237-0.354,0.343-0.716,0.308-1.139c-0.034-0.409-0.282-0.766-0.587-1.022
				c-0.294-0.247-0.764-0.355-1.139-0.307c-0.366,0.047-0.811,0.271-1.022,0.587c-0.24,0.357-0.505,0.696-0.767,1.037
				c-1.324-0.997-2.641-2.202-3.68-3.573c0.041-0.012,0.083-0.023,0.11-0.032c0.669-0.175,1.353-0.288,2.042-0.339
				c0.861-0.064,1.397-0.931,1.331-1.726C139.104,313.417,138.253,312.889,137.451,312.949z"/>
		</g>
		<g>
			<path fill="#407BFF" d="M139.524,287.967c0.632-0.453,1.317-0.794,2.028-1.078c-0.188-0.521-0.44-1.015-0.789-1.461
				c-3.061-3.906-4.444-0.025-6.818,0.06c-1.184,0.042-2.363,0.418-3.04,1.257c0.297,0.108,0.589,0.232,0.87,0.38
				c0.455,0.238,0.535,0.816,0.219,1.199c-0.296,0.359-0.716,0.658-1.174,0.766c-0.144,0.034-0.289,0.031-0.434,0.04
				c0.083,0.508,0.252,1.072,0.541,1.709c0.295,0.652,0.678,1.264,1.114,1.834c0.254-0.131,0.515-0.252,0.786-0.353
				c0.425-0.157,1.037,0.22,0.994,0.706c-0.037,0.426-0.148,0.832-0.325,1.207c0.618,0.549,1.29,0.997,1.97,1.384
				c0.073-0.044,0.144-0.091,0.218-0.132c0.162-0.089,0.328-0.167,0.496-0.242c0.097-0.042,0.195-0.08,0.298-0.106
				c0.263-0.068,0.535-0.022,0.741,0.164c0.203,0.184,0.296,0.47,0.235,0.737c-0.032,0.142-0.086,0.276-0.138,0.41
				c1.007,0.324,1.975,0.44,2.778,0.262c0,0,0.441-0.883,0.896-2.187c-0.241-0.058-0.482-0.115-0.72-0.185
				c-0.279-0.081-0.494-0.225-0.66-0.463c-0.162-0.229-0.188-0.525-0.141-0.794c0.046-0.26,0.245-0.522,0.463-0.661
				c0.213-0.136,0.545-0.213,0.795-0.141c0.283,0.082,0.571,0.145,0.858,0.209c0.257-1.105,0.42-2.316,0.365-3.493
				c-0.027,0.012-0.054,0.024-0.072,0.032c-0.429,0.201-0.837,0.441-1.222,0.718c-0.48,0.344-1.142,0.124-1.456-0.322
				C138.862,288.939,139.077,288.288,139.524,287.967z"/>
			<path opacity="0.3" fill="#FFFFFF" enable-background="new    " d="M139.524,287.967c0.632-0.453,1.317-0.794,2.028-1.078
				c-0.188-0.521-0.44-1.015-0.789-1.461c-3.061-3.906-4.444-0.025-6.818,0.06c-1.184,0.042-2.363,0.418-3.04,1.257
				c0.297,0.108,0.589,0.232,0.87,0.38c0.455,0.238,0.535,0.816,0.219,1.199c-0.296,0.359-0.716,0.658-1.174,0.766
				c-0.144,0.034-0.289,0.031-0.434,0.04c0.083,0.508,0.252,1.072,0.541,1.709c0.295,0.652,0.678,1.264,1.114,1.834
				c0.254-0.131,0.515-0.252,0.786-0.353c0.425-0.157,1.037,0.22,0.994,0.706c-0.037,0.426-0.148,0.832-0.325,1.207
				c0.618,0.549,1.29,0.997,1.97,1.384c0.073-0.044,0.144-0.091,0.218-0.132c0.162-0.089,0.328-0.167,0.496-0.242
				c0.097-0.042,0.195-0.08,0.298-0.106c0.263-0.068,0.535-0.022,0.741,0.164c0.203,0.184,0.296,0.47,0.235,0.737
				c-0.032,0.142-0.086,0.276-0.138,0.41c1.007,0.324,1.975,0.44,2.778,0.262c0,0,0.441-0.883,0.896-2.187
				c-0.241-0.058-0.482-0.115-0.72-0.185c-0.279-0.081-0.494-0.225-0.66-0.463c-0.162-0.229-0.188-0.525-0.141-0.794
				c0.046-0.26,0.245-0.522,0.463-0.661c0.213-0.136,0.545-0.213,0.795-0.141c0.283,0.082,0.571,0.145,0.858,0.209
				c0.257-1.105,0.42-2.316,0.365-3.493c-0.027,0.012-0.054,0.024-0.072,0.032c-0.429,0.201-0.837,0.441-1.222,0.718
				c-0.48,0.344-1.142,0.124-1.456-0.322C138.862,288.939,139.077,288.288,139.524,287.967z"/>
		</g>
		<g>
			<path fill="#407BFF" d="M110.252,295.219c-0.21,1.471,3.777,2.438,7.028,2.98c-0.266,2.669-2.042,5.366-4.494,7.886
				c-3.085-1.738-7.49-4.036-8.302-3.475c-0.886,0.612,3.625,3.529,6.445,5.243c-1.984,1.762-4.217,3.402-6.389,4.84
				c-1.383-1.292-3.002-2.426-3.967-1.813c-1,0.637-0.729,2.636-0.236,4.42c-3.356,1.957-5.87,3.147-5.87,3.147
				s-1.409-4.271-2.242-9.529c0.169-0.334,0.337-0.672,0.492-1.029c0.541-1.251,0.014-1.783-0.879-1.959
				c-0.231-2.302-0.298-4.669-0.055-6.866c3.798-0.796,8.418-2.271,6.688-4.55c-1.043-1.374-2.954-1.529-4.941-1.186
				c0.278-0.458,0.585-0.89,0.938-1.278c6.915-7.618,11.737,0,11.737,0c4.018-3.348,9.662-2.441,10.882,2.791
				C114.83,294.264,110.512,293.404,110.252,295.219z"/>
			<path opacity="0.5" fill="#FFFFFF" enable-background="new    " d="M110.252,295.219c-0.21,1.471,3.777,2.438,7.028,2.98
				c-0.266,2.669-2.042,5.366-4.494,7.886c-3.085-1.738-7.49-4.036-8.302-3.475c-0.886,0.612,3.625,3.529,6.445,5.243
				c-1.984,1.762-4.217,3.402-6.389,4.84c-1.383-1.292-3.002-2.426-3.967-1.813c-1,0.637-0.729,2.636-0.236,4.42
				c-3.356,1.957-5.87,3.147-5.87,3.147s-1.409-4.271-2.242-9.529c0.169-0.334,0.337-0.672,0.492-1.029
				c0.541-1.251,0.014-1.783-0.879-1.959c-0.231-2.302-0.298-4.669-0.055-6.866c3.798-0.796,8.418-2.271,6.688-4.55
				c-1.043-1.374-2.954-1.529-4.941-1.186c0.278-0.458,0.585-0.89,0.938-1.278c6.915-7.618,11.737,0,11.737,0
				c4.018-3.348,9.662-2.441,10.882,2.791C114.83,294.264,110.512,293.404,110.252,295.219z"/>
		</g>
	</g>
</g>
<g id="Screen">
	<g>
		<g>
			<path fill="#407BFF" d="M90.692,212.271h199.945c3.654,0,6.616-2.962,6.616-6.616V64.245c0-3.654-2.962-6.616-6.616-6.616H90.692
				c-3.653,0-6.615,2.962-6.615,6.616v141.41C84.077,209.309,87.039,212.271,90.692,212.271z"/>
			<path opacity="0.6" fill="#FFFFFF" d="M297.25,64.248v141.41c0,3.649-2.96,6.609-6.61,6.609H90.69c-3.65,0-6.61-2.96-6.61-6.609
				V64.248c0-3.66,2.96-6.62,6.61-6.62h199.95C294.29,57.627,297.25,60.587,297.25,64.248z"/>
		</g>
		<g>
			<path opacity="0.4" fill="#FFFFFF" d="M242.895,206.413c-5.51,0-9.993-4.483-9.993-9.993c0-5.511,4.483-9.993,9.993-9.993h38.171
				c5.51,0,9.993,4.482,9.993,9.993c0,5.51-4.483,9.993-9.993,9.993H242.895z"/>
			<path fill="#407BFF" d="M281.065,187.426h-38.171c-4.966,0-8.993,4.026-8.993,8.993s4.026,8.993,8.993,8.993h38.171
				c4.967,0,8.993-4.026,8.993-8.993S286.032,187.426,281.065,187.426z"/>
			<g>
				<path fill="#FFFFFF" d="M247.165,196.013c0-1.492,1.139-2.581,2.675-2.581c0.779,0,1.457,0.267,1.919,0.786l-0.469,0.454
					c-0.39-0.411-0.865-0.599-1.421-0.599c-1.14,0-1.983,0.822-1.983,1.939c0,1.119,0.844,1.94,1.983,1.94
					c0.556,0,1.031-0.194,1.421-0.605l0.469,0.454c-0.462,0.52-1.14,0.794-1.926,0.794
					C248.304,198.596,247.165,197.507,247.165,196.013z"/>
				<path fill="#FFFFFF" d="M255.88,197.276h-2.683l-0.556,1.262h-0.743l2.287-5.048h0.714l2.293,5.048h-0.757L255.88,197.276z
					 M255.627,196.699l-1.089-2.474l-1.089,2.474H255.627z"/>
				<path fill="#FFFFFF" d="M262.28,193.49v5.048h-0.591l-3.029-3.765v3.765h-0.721v-5.048h0.592l3.028,3.765v-3.765H262.28z"/>
				<path fill="#FFFFFF" d="M263.378,196.013c0-1.492,1.14-2.581,2.676-2.581c0.779,0,1.457,0.267,1.918,0.786l-0.469,0.454
					c-0.389-0.411-0.865-0.599-1.42-0.599c-1.14,0-1.984,0.822-1.984,1.939c0,1.119,0.844,1.94,1.984,1.94
					c0.555,0,1.031-0.194,1.42-0.605l0.469,0.454c-0.461,0.52-1.14,0.794-1.926,0.794
					C264.518,198.596,263.378,197.507,263.378,196.013z"/>
				<path fill="#FFFFFF" d="M272.664,197.911v0.627H269v-5.048h3.563v0.627h-2.842v1.551h2.532v0.613h-2.532v1.63H272.664z"/>
				<path fill="#FFFFFF" d="M273.828,193.49h0.721v4.421h2.734v0.627h-3.455V193.49z"/>
			</g>
		</g>
		<g>
			<path opacity="0.7" fill="#407BFF" d="M222.344,205.413h-38.171c-4.966,0-8.993-4.026-8.993-8.993l0,0
				c0-4.967,4.026-8.993,8.993-8.993h38.171c4.967,0,8.993,4.026,8.993,8.993l0,0C231.337,201.386,227.311,205.413,222.344,205.413z
				"/>
			<g>
				<path fill="#FFFFFF" d="M183.766,196.013c0-1.492,1.139-2.581,2.675-2.581c0.779,0,1.457,0.267,1.919,0.786l-0.469,0.454
					c-0.39-0.411-0.865-0.599-1.421-0.599c-1.14,0-1.983,0.822-1.983,1.939c0,1.119,0.844,1.94,1.983,1.94
					c0.556,0,1.031-0.194,1.421-0.605l0.469,0.454c-0.462,0.52-1.14,0.794-1.926,0.794
					C184.905,198.596,183.766,197.507,183.766,196.013z"/>
				<path fill="#FFFFFF" d="M188.868,196.013c0-1.478,1.14-2.581,2.689-2.581c1.537,0,2.676,1.096,2.676,2.581
					c0,1.486-1.14,2.583-2.676,2.583C190.008,198.596,188.868,197.492,188.868,196.013z M193.513,196.013
					c0-1.117-0.836-1.939-1.955-1.939c-1.132,0-1.968,0.822-1.968,1.939c0,1.119,0.836,1.94,1.968,1.94
					C192.676,197.954,193.513,197.132,193.513,196.013z"/>
				<path fill="#FFFFFF" d="M199.674,193.49v5.048h-0.591l-3.029-3.765v3.765h-0.721v-5.048h0.591l3.029,3.765v-3.765H199.674z"/>
				<path fill="#FFFFFF" d="M202.187,194.117h-1.731v-0.627h4.176v0.627H202.9v4.421h-0.714V194.117z"/>
				<path fill="#FFFFFF" d="M205.414,193.49h0.721v5.048h-0.721V193.49z"/>
				<path fill="#FFFFFF" d="M211.99,193.49v5.048h-0.591l-3.029-3.765v3.765h-0.721v-5.048h0.591l3.029,3.765v-3.765H211.99z"/>
				<path fill="#FFFFFF" d="M213.456,196.36v-2.87h0.722v2.841c0,1.118,0.512,1.623,1.42,1.623s1.428-0.505,1.428-1.623v-2.841
					h0.699v2.87c0,1.465-0.801,2.236-2.135,2.236C214.264,198.596,213.456,197.825,213.456,196.36z"/>
				<path fill="#FFFFFF" d="M222.863,197.911v0.627h-3.664v-5.048h3.563v0.627h-2.841v1.551h2.531v0.613h-2.531v1.63H222.863z"/>
			</g>
		</g>
		<path opacity="0.7" d="M289.228,125.752H94.826c-0.459,0-0.831,0.373-0.831,0.832v11.286c0,0.459,0.372,0.832,0.831,0.832h194.401
			c0.459,0,0.831-0.372,0.831-0.832v-11.286C290.059,126.125,289.687,125.752,289.228,125.752z"/>
		<g>
			<rect x="96.077" y="127.81" fill="#407BFF" width="4.747" height="8.833"/>
			<rect x="147.791" y="127.81" fill="#407BFF" width="4.747" height="8.833"/>
			<rect x="154.256" y="127.81" fill="#407BFF" width="4.747" height="8.833"/>
			<rect x="160.72" y="127.81" fill="#407BFF" width="4.747" height="8.833"/>
			<rect x="167.184" y="127.81" fill="#407BFF" width="4.748" height="8.833"/>
			<rect x="173.648" y="127.81" fill="#407BFF" width="4.747" height="8.833"/>
			<rect x="180.112" y="127.81" opacity="0.9" fill="#407BFF" width="4.748" height="8.833"/>
			<rect x="186.577" y="127.81" opacity="0.8" fill="#407BFF" width="4.747" height="8.833"/>
			<rect x="193.041" y="127.81" opacity="0.7" fill="#407BFF" width="4.747" height="8.833"/>
			<rect x="199.506" y="127.81" opacity="0.6" fill="#407BFF" width="4.747" height="8.833"/>
			<rect x="205.97" y="127.81" opacity="0.5" fill="#407BFF" width="4.747" height="8.833"/>
			<rect x="212.434" y="127.81" opacity="0.4" fill="#407BFF" width="4.748" height="8.833"/>
			<rect x="218.898" y="127.81" opacity="0.3" fill="#407BFF" width="4.747" height="8.833"/>
			<rect x="225.362" y="127.81" opacity="0.2" fill="#407BFF" width="4.748" height="8.833"/>
			<rect x="141.327" y="127.81" fill="#407BFF" width="4.747" height="8.833"/>
			<rect x="134.863" y="127.81" fill="#407BFF" width="4.747" height="8.833"/>
			<rect x="128.398" y="127.81" fill="#407BFF" width="4.747" height="8.833"/>
			<rect x="121.934" y="127.81" fill="#407BFF" width="4.748" height="8.833"/>
			<rect x="115.47" y="127.81" fill="#407BFF" width="4.747" height="8.833"/>
			<rect x="109.006" y="127.81" fill="#407BFF" width="4.747" height="8.833"/>
			<rect x="102.541" y="127.81" fill="#407BFF" width="4.747" height="8.833"/>
		</g>
		<path opacity="0.7" fill="#407BFF" d="M127.39,115.322H96.166c-1.199,0-2.17,0.972-2.17,2.17l0,0c0,1.199,0.972,2.171,2.17,2.171
			h31.224c1.199,0,2.171-0.972,2.171-2.171l0,0C129.561,116.294,128.589,115.322,127.39,115.322z"/>
		<path fill="#407BFF" d="M297.25,64.248v16.24H84.08v-16.24c0-3.66,2.96-6.62,6.61-6.62h199.95
			C294.29,57.627,297.25,60.587,297.25,64.248z"/>
		<circle opacity="0.6" fill="#FFFFFF" cx="288.33" cy="69.41" r="3.428"/>
		<circle opacity="0.6" fill="#FFFFFF" cx="278.33" cy="69.41" r="3.428"/>
		<circle opacity="0.6" fill="#FFFFFF" cx="268.33" cy="69.41" r="3.428"/>
		<rect x="84.08" y="80.487" opacity="0.7" width="213.17" height="26.09"/>
		<path opacity="0.6" fill="#FFFFFF" d="M197.39,87.322H96.166c-1.199,0-2.17,0.972-2.17,2.17l0,0c0,1.199,0.972,2.171,2.17,2.171
			H197.39c1.199,0,2.171-0.972,2.171-2.171l0,0C199.561,88.294,198.589,87.322,197.39,87.322z"/>
		<path opacity="0.6" fill="#FFFFFF" d="M167.39,96.322H96.166c-1.199,0-2.17,0.972-2.17,2.17l0,0c0,1.199,0.972,2.171,2.17,2.171
			h71.224c1.199,0,2.171-0.972,2.171-2.171l0,0C169.561,97.294,168.589,96.322,167.39,96.322z"/>
		<rect x="267.973" y="87.322" opacity="0.6" fill="#FFFFFF" width="22.086" height="13.341"/>
		<rect x="93.995" y="146.05" fill="#FFFFFF" width="194.763" height="32.305"/>
		<g>
			<path opacity="0.2" d="M171.374,149.322H99.535c-0.851,0-1.54,0.689-1.54,1.541l0,0c0,0.851,0.689,1.54,1.54,1.54h71.839
				c0.851,0,1.541-0.689,1.541-1.54l0,0C172.915,150.012,172.225,149.322,171.374,149.322z"/>
			<path opacity="0.2" d="M150.083,156.451H99.535c-0.851,0-1.54,0.689-1.54,1.541l0,0c0,0.851,0.689,1.541,1.54,1.541h50.548
				c0.851,0,1.541-0.69,1.541-1.541l0,0C151.624,157.141,150.934,156.451,150.083,156.451z"/>
			<path opacity="0.2" d="M200.083,163.58H99.535c-0.851,0-1.54,0.69-1.54,1.541l0,0c0,0.851,0.689,1.541,1.54,1.541h100.548
				c0.851,0,1.541-0.689,1.541-1.541l0,0C201.624,164.27,200.934,163.58,200.083,163.58z"/>
			<path opacity="0.2" d="M140.083,170.709H99.535c-0.851,0-1.54,0.689-1.54,1.54l0,0c0,0.851,0.689,1.541,1.54,1.541h40.548
				c0.851,0,1.541-0.69,1.541-1.541l0,0C141.624,171.399,140.934,170.709,140.083,170.709z"/>
		</g>
		<rect x="284.89" y="146.05" opacity="0.4" width="3.868" height="32.305"/>
		<rect x="284.89" y="146.05" fill="#407BFF" width="3.868" height="10.973"/>
		<path opacity="0.6" fill="#FFFFFF" d="M127.39,67.322H96.166c-1.199,0-2.17,0.972-2.17,2.17l0,0c0,1.199,0.972,2.171,2.17,2.171
			h31.224c1.199,0,2.171-0.972,2.171-2.171l0,0C129.561,68.294,128.589,67.322,127.39,67.322z"/>
		<path opacity="0.1" fill="#FFFFFF" d="M297.25,80.487v26.09h-96.24c13.24-13.73,31.9-21.68,46.32-26.09H297.25z"/>
	</g>
</g>
<g id="Character">
	<g>
		<g>
			<g>
				<path fill="#407BFF" d="M418.363,241.008H309.9c-4.878,0-8.833,3.955-8.833,8.834l-12.007,76.462h126.129l12.008-76.462
					C427.196,244.963,423.241,241.008,418.363,241.008z"/>
				<path opacity="0.4" fill="#FFFFFF" enable-background="new    " d="M418.363,241.008H309.9c-4.878,0-8.833,3.955-8.833,8.834
					l-12.007,76.462h126.129l12.008-76.462C427.196,244.963,423.241,241.008,418.363,241.008z"/>
				<path opacity="0.2" enable-background="new    " d="M397.522,327.436h17.667l12.008-77.594c0-4.879-3.955-8.834-8.833-8.834l0,0
					c-4.878,0-8.833,3.955-8.833,8.834L397.522,327.436z"/>
			</g>
			<g>
				<path fill="#407BFF" d="M289.383,270.579l-41.865-0.001c-0.148-0.006-0.294-0.022-0.444-0.022
					c-5.953,0-10.778,4.826-10.778,10.778v81.85h11.222h10.334h41.666v-81.85C299.519,275.537,295.119,270.823,289.383,270.579z"/>
				<path opacity="0.5" fill="#FFFFFF" enable-background="new    " d="M289.383,270.579l-41.865-0.001
					c-0.148-0.006-0.294-0.022-0.444-0.022c-5.953,0-10.778,4.826-10.778,10.778v81.85h11.222h10.334h41.666v-81.85
					C299.519,275.537,295.119,270.823,289.383,270.579z"/>
				<path opacity="0.6" fill="#FFFFFF" enable-background="new    " d="M247.075,270.555L247.075,270.555
					c-5.953,0-10.778,4.826-10.778,10.778v81.85h21.555v-81.85C257.852,275.381,253.027,270.555,247.075,270.555z"/>
			</g>
			<g>
				<rect x="264.89" y="297.683" fill="#407BFF" width="92.407" height="65.5"/>
				<rect x="264.89" y="297.683" opacity="0.4" fill="#FFFFFF" enable-background="new    " width="92.407" height="65.5"/>
			</g>
			<g>
				<path fill="#407BFF" d="M374.859,313.683H270.906c-6.271,0-11.356-5.085-11.356-11.356l0,0c0-6.271,5.084-11.356,11.356-11.356
					h103.953V313.683z"/>
				<path opacity="0.6" fill="#FFFFFF" enable-background="new    " d="M374.859,313.683H270.906
					c-6.271,0-11.356-5.085-11.356-11.356l0,0c0-6.271,5.084-11.356,11.356-11.356h103.953V313.683z"/>
			</g>
		</g>
		<g>
			<g>
				<path fill="#EBB376" d="M325.347,262.57l29.354,7.903c2.25-7.771,6.586-21.481,11.047-30.355c1.434-2.868,3.139-6.05,5.23-9.7
					c1.118-1.95,2.339-4.04,3.684-6.282c1.013-1.702,2.1-3.508,3.278-5.405c-4.011-2.332-8.167-4.374-12.462-6.104
					c-4.515-1.88-9.171-3.438-13.912-4.662c-6.16-1.418-13.407-2.301-13.407-2.301s-1.063,0.017-3.15,6.421
					C333.068,218.097,329.04,239.941,325.347,262.57z"/>
			</g>
			<g>
				<path fill="#407BFF" d="M303.133,264.039c4.761-4.066,16.954-0.608,18.747-0.07l1.241-7.094l0.271-1.54l32,2.471
					c0.26,0.609,0.52,1.22,0.77,1.84c0.559,1.387,1.066,2.792,1.55,4.201c13.656-0.043,21.288,8.463,18.167,17.743
					c-3.493,10.387-13.114,21.208-25.278,21.208c-2.626,0-4.994-0.494-7.091-1.375c-4.837-2.033-10.234-1.989-15.312-0.669
					c-2.677,0.696-6.049,0.783-10.215,0.066C288.113,295.676,296.616,269.604,303.133,264.039z"/>
				<circle opacity="0.6" fill="#FFFFFF" enable-background="new    " cx="334.395" cy="259.427" r="1.62"/>
				<polygon enable-background="new    " points="355.39,257.808 356.738,261.138 322.674,259.428 323.39,255.336 				"/>
				<path fill="#E0E0E0" d="M337.406,256.57l-0.398,3.74c-0.043,0.41-0.406,0.711-0.817,0.679l-4.987-0.396
					c-0.424-0.034-0.738-0.408-0.698-0.831l0.352-3.688c0.039-0.41,0.397-0.715,0.809-0.688l5.035,0.344
					C337.132,255.759,337.452,256.14,337.406,256.57z"/>
				<polygon fill="#407BFF" points="345.763,257.02 346.158,261.42 347.395,261.42 347.197,257.02 				"/>
				<polygon fill="#407BFF" points="327.813,255.678 327.317,260.284 326.18,260.284 326.576,255.487 				"/>
				<path opacity="0.1" enable-background="new    " d="M317.984,300.818c4.16,0.72,7.53,0.63,10.21-0.06
					c5.08-1.32,10.48-1.37,15.31,0.66c2.1,0.89,4.47,1.38,7.1,1.38c12.16,0,21.78-10.82,25.271-21.21
					c0.7-2.091,0.86-4.131,0.52-6.051l-38.37,5.801c1.84-11.36,13.58-14.94,13.58-14.94c-6.72-0.19-18.83,8.31-18.83,8.31
					s-2.972-2.959-5.78-4.029c0,0,1.607,2.162,1.929,3.469l-2.739,0.561c-3.47-8.109-7.97-11.67-18.61-12.35l-7.55,5.75
					C294.874,277.398,292.884,296.498,317.984,300.818z"/>
			</g>
			<path fill="#EBB376" d="M271.614,271.378c15.41,12.069,49.5,26.079,49.5,26.079s6.68-10.399,2.44-23.51
				c-0.59-1.81-1.39-3.68-2.44-5.58c0,0-40.64-20.87-54.96-10.13C261.884,261.448,265.054,266.228,271.614,271.378z"/>
			<g>
				<path fill="#EBB376" d="M374.872,271.759c-6.518-14.739-25.998-5.374-32.541,3.313c-7.076,9.395-2.625,23.696,8.224,23.571
					C359.617,298.539,380.704,284.948,374.872,271.759z"/>
				<path opacity="0.1" enable-background="new    " d="M341.273,293.648c1.99,3.03,5.18,5.05,9.28,5
					c6.35-0.08,18.61-6.78,23.36-15.32c2.04-3.64,2.7-7.62,0.96-11.569c-0.07-0.16-0.15-0.32-0.23-0.48c0-0.01,0-0.02-0.01-0.03
					c-2.13-4.43-5.48-6.529-9.29-7.069c-8.24-1.16-18.58,5.02-23,10.89c-0.01,0-0.01,0.01-0.01,0.01
					C337.934,280.917,337.984,288.658,341.273,293.648z"/>
			</g>
			<path opacity="0.2" enable-background="new    " d="M271.614,271.378c15.41,12.069,49.5,26.079,49.5,26.079
				s6.68-10.399,2.44-23.51c-1.69,0.78-4.96,1.94-10.06,2.44c0,0-20.7-16.38-33.62-13.74
				C276.244,263.388,273.254,266.798,271.614,271.378z"/>
			<path fill="#EBB376" d="M290.434,287.428c11.74,5.819,24.96,11,34.76,14.569c8.6,3.141,14.55,5.04,14.55,5.04l3.63-8.25
				c-1.88-0.649-3.75-1.369-5.61-2.16c-8.16-3.459-16.06-8.189-23.49-13.17c-22.68-15.21-40.99-32.8-49.16-24.239
				C257.104,267.608,271.934,278.298,290.434,287.428z"/>
			<path fill="#263238" d="M333.957,294.226l-4.281,10.32c0,0,9.721,3.625,11.935,5.102c2.949,1.967,6.019,7.938,8.381,7.549
				c2.361-0.39,5.71-4.337,2.794-9.43c-2.916-5.093-3.453-8.384-5.925-9.844c-2.473-1.46-3.831-0.122-8.284-1.2
				C337.16,296.38,333.957,294.226,333.957,294.226z"/>
			<g>
				<path fill="#407BFF" d="M340.015,307.835c0.022-0.022,0.049-0.04,0.078-0.051h0.001l0,0c0.023-0.01,0.049-0.015,0.075-0.017l0,0
					h0c0.025-0.001,0.05,0.002,0.075,0.01l0,0h0.001c0,0,0,0,0.001,0l0,0c0.032,0.01,0.061,0.025,0.084,0.046
					c0.087,0.072,1.772,1.493,1.827,2.801c0.017,0.417-0.129,0.778-0.43,1.075c-0.322,0.316-0.628,0.414-0.91,0.293
					c-0.432-0.188-0.654-0.95-0.768-1.767c-0.193,0.733-0.48,1.455-0.899,1.808c-0.223,0.186-0.47,0.267-0.733,0.239
					c-0.544-0.057-0.747-0.321-0.82-0.533c-0.079-0.228-0.042-0.509,0.071-0.814C338.101,309.751,339.642,308.2,340.015,307.835z
					 M339.873,308.656c-0.981,1.045-2.01,2.413-1.83,2.929c0.016,0.045,0.063,0.182,0.424,0.219
					c0.134,0.015,0.259-0.029,0.382-0.132c0.219-0.184,0.4-0.52,0.548-0.923C339.635,310.102,339.788,309.284,339.873,308.656z
					 M341.686,310.644c-0.03-0.759-0.794-1.63-1.274-2.104c0.015,1.418,0.226,2.858,0.596,3.02c0.114,0.05,0.294-0.102,0.391-0.196
					c0.109-0.107,0.188-0.225,0.235-0.353C341.674,310.898,341.691,310.776,341.686,310.644z"/>
			</g>
			<path opacity="0.1" enable-background="new    " d="M290.434,287.428c11.74,5.819,24.96,11,34.76,14.569
				c4.8-1.68,9.1-3.62,12.57-5.37c-8.16-3.459-16.06-8.189-23.49-13.17C303.454,283.758,295.174,285.868,290.434,287.428z"/>
			<path fill="#EBB376" d="M285.934,291.418l1.59,8.869c0,0,29.03-1.43,53.75-6.64c13.521-2.84,25.75-6.82,31.22-12.3
				c2.78-2.79,3.82-5.97,2.38-9.59c-0.07-0.16-0.15-0.32-0.23-0.48c0-0.01,0-0.02-0.01-0.03c-1.36-2.449-4.87-3.01-9.86-2.35
				c-5.82,0.76-13.66,3.17-22.43,6.17C324.384,281.188,302.504,289.728,285.934,291.418z"/>
			<path fill="#263238" d="M288.311,290.105l0.791,10.912c0,0-10.332,0.938-12.856,1.78c-3.363,1.121-7.896,6.074-10.072,5.077
				c-2.176-0.998-4.367-5.688-0.214-9.833c4.154-4.146,5.539-7.179,8.308-7.937c2.77-0.758,3.728,0.891,8.308,1.022
				C284.03,291.169,288.311,290.105,288.311,290.105z"/>
			<path fill="#EBB376" d="M338.163,205.661c-7.846,0.28-21.377,14.137-28.499,17.014c-7.122,2.876-13.687-16.071-13.687-16.071
				s1.137-4.008-4.636-7.314c-5.772-3.308-7.228-4.526-8.217-1.491c-0.989,3.036-1.911,6.953-0.266,7.858
				c1.645,0.906,6.482,4.093,7.954,4.093c0,0,8.232,26.528,18.307,25.181c10.074-1.347,17.554-9.806,25.184-12.704L338.163,205.661z
				"/>
			<path fill="#263238" d="M376.956,217.498c-5.483-2.938-13.936-6.463-18.563-8.106c-5.185-1.838-16.435-4.366-21.618-4.042
				c-5.186,0.334-25.725,15.665-25.725,15.665l6.041,12.469l4.631-2.456l8.387-4.325c0,0-5.112,14.958-6.911,23.062l34.949,12.597
				c0,0-0.004-2.57,8.063-19.479c1.785-3.74,3.454-7.069,4.631-8.354L376.956,217.498z"/>
			<path fill="#EBB376" d="M370.818,215.944c0,0-10.834,5.411-19.354,3.394s-9.39-12.296-9.39-12.296
				S356.202,206.059,370.818,215.944z"/>
			<path fill="#263238" d="M372.479,176.325c0,0-2.373-5.209-14.367-2.559c-11.994,2.65-14.165,18.513-11.103,24.191
				c3.063,5.678,19.486,5.32,19.486,5.32l4.027-1.292c0,0,5.23-0.885,6.361-12.658C378.015,177.554,372.479,176.325,372.479,176.325
				z"/>
			<path fill="#263238" d="M371.754,179.86c0,0,0.888-5.548,6.628-5.471c5.741,0.077,9.571,2.181,10.079,8.782
				c0.509,6.602-4.906,13.021-5.591,15.509c-0.686,2.487,3.828,2.421,2.647,4.823c-1.18,2.401-4.117,2.395-4.33,3.951
				s2.927,1.191,1.168,5.521c-1.759,4.33-6.433,3.814-6.997,2.165c-0.564-1.65,2.73-0.917,1.167-3.459
				c-1.563-2.543-3.835-2.133-2.207-5.753s1.733-5.362-1.552-8.201C369.481,194.889,371.754,179.86,371.754,179.86z"/>
			<g>
				<path fill="#FFFFFF" d="M357.459,226.29c0,0,1.041-0.465,1.317-0.403c0.277,0.062,1.549,7.638,2.55,9.481l-0.881-0.632
					l0.42,2.708c0,0-1.188-2.239-2.003-5.055l0.417,2.087C359.279,234.476,357.71,228.358,357.459,226.29z"/>
				<path fill="#FFFFFF" d="M355.28,231.867c0,0,7.58-4.329,7.866-4.096c0.286,0.231,0.267,0.903,0.327,1.254
					s-5.074,2.791-6.858,3.678l0.854-0.654c0,0-1.445,0.726-2.713,1.424c0,0,0.99-0.962,1.705-1.445l-0.958,0.361
					c0,0,1.025-0.819,2.206-1.57C357.708,230.818,356.527,231.265,355.28,231.867z"/>
			</g>
			<path opacity="0.2" enable-background="new    " d="M370.841,234.527c-1.177,1.285-2.894,4.592-4.631,8.354
				c-0.86-8.304,4.205-15.107,4.205-15.107C369.665,231.151,370.841,234.527,370.841,234.527z"/>
			<path opacity="0.2" enable-background="new    " d="M333.618,216.756c-1.373,3.321-3.509,9.945-3.509,9.945l-8.387,4.325
				C325.677,222.348,333.618,216.756,333.618,216.756z"/>
			<path fill="#263238" d="M376.956,217.498c3.362,1.85,15.23,15.975,15.23,15.975l-12.445,11.392l-11.265-9.966
				c0,0-0.168-6.264,1.387-11.006C371.417,219.15,376.956,217.498,376.956,217.498z"/>
			<path fill="#EBB376" d="M367.36,204.067c-0.78,0.671-1.43,1.83-1.97,3.131c-1.3,3.21-1.92,7.319-1.92,7.319s-7.18,1.96-9.14,0.58
				c-1.95-1.39-2.69-4.649-2.69-4.649c0.57-0.21,1.07-0.44,1.51-0.69c4.12-2.26,2.76-5.69,2.76-5.69S370.03,201.748,367.36,204.067z
				"/>
			<path opacity="0.2" enable-background="new    " d="M367.36,204.067c-0.78,0.671-1.43,1.83-1.97,3.131
				c-2.94,2.79-7.35,5.33-12.23,2.569c0,0-0.01,0-0.01-0.01c4.12-2.26,2.76-5.69,2.76-5.69S370.03,201.748,367.36,204.067z"/>
			<g>
				<path fill="#EBB376" d="M372.26,197.448c-1.06,4.64-3.85,8.72-8.52,10.26c-0.21,0.07-0.43,0.13-0.65,0.189
					c-10.38,2.78-13.12-4.779-12.84-15.619c0.22-8.67,2.72-13.28,11.1-13.65C370.28,178.227,374.26,188.797,372.26,197.448z"/>
				<path fill="#D58745" d="M355.646,191.567c0,0-1.063,2.242-2.282,3.588c0,0,0.769,1.107,2.253,0.849L355.646,191.567z"/>
				<path fill="#263238" d="M363.979,186.508c-0.677,0-2.564-0.141-3.64-1.619c-0.118-0.161-0.082-0.388,0.08-0.506
					c0.163-0.118,0.389-0.082,0.506,0.08c1.059,1.454,3.227,1.316,3.247,1.314c0.211-0.016,0.374,0.137,0.388,0.335
					c0.015,0.199-0.134,0.373-0.333,0.388C364.209,186.501,364.121,186.508,363.979,186.508z"/>
				<path fill="#263238" d="M351.477,185.951c-0.23,0-0.371-0.025-0.39-0.028c-0.196-0.037-0.326-0.227-0.289-0.423
					c0.037-0.196,0.227-0.325,0.421-0.29c0.065,0.012,1.412,0.222,2.866-1.152c0.146-0.136,0.375-0.13,0.513,0.015
					c0.137,0.146,0.13,0.375-0.015,0.513C353.319,185.778,352.085,185.951,351.477,185.951z"/>
				<path fill="#263238" d="M371.152,192.34c0,0-4.231-6.712-3.877-12.057c0,0-16.922-6.037-16.98,10.864
					c0,0-2.299-14.901,12.098-15.886c14.375-0.983,15.289,20.104,8.129,26.723C370.522,201.985,373.772,196.54,371.152,192.34z"/>
				<path fill="#EBB376" d="M369.863,194.172c-0.005-1.353,1.285-3.7,3.808-3.54c2.611,0.166,4.09,5.444-2.314,7.019
					C370.438,197.876,369.873,196.994,369.863,194.172z"/>
				<path fill="#263238" d="M355.906,199.584c-0.053,0-0.107-0.012-0.159-0.037c-0.18-0.088-0.254-0.305-0.167-0.484
					c1.107-2.268,3.7-2.148,4.915-1.771c0.191,0.06,0.297,0.262,0.238,0.453c-0.06,0.19-0.261,0.3-0.453,0.238
					c-0.119-0.035-2.938-0.876-4.048,1.397C356.169,199.51,356.04,199.584,355.906,199.584z"/>
				<path opacity="0.2" enable-background="new    " d="M372.26,197.448c-1.06,4.64-3.85,8.72-8.52,10.26
					c-0.28-4.07,2.939-12.811,4.729-12.34C369.69,195.687,371.21,196.677,372.26,197.448z"/>
				<path fill="#263238" d="M360.148,191c-0.042,0.684,0.371,1.242,0.828,1.237s0.808-0.571,0.806-1.257s-0.381-1.243-0.828-1.237
					S360.148,190.304,360.148,191z"/>
				<path fill="#263238" d="M352.023,190.625c-0.042,0.684,0.371,1.242,0.828,1.237s0.808-0.571,0.806-1.257
					s-0.381-1.243-0.828-1.237S352.023,189.929,352.023,190.625z"/>
			</g>
			<path fill="#EBB376" d="M368.471,196.238c1.493-0.684,5.223,2.097,5.599,2.765c1.065,1.894-1.188,7.601-1.188,7.601
				s22.547,23.426,23.299,32.327c0.752,8.9-13.464,3.21-13.464,3.21l1.793-1.642c0,0-4.138-12.13-16.034-30.234
				c0,0-2.365-0.609-2.993-1.994C364.855,206.885,366.97,196.924,368.471,196.238z"/>
			<path fill="#EBB376" d="M286.75,196.672c0,0-8.75-4.125-9.375-2.875s6.375,4,6.375,4L286.75,196.672z"/>
		</g>
		<g>
			<path fill="#407BFF" d="M410.383,270.579l-41.865-0.001c-0.148-0.006-0.294-0.022-0.444-0.022
				c-5.953,0-10.778,4.826-10.778,10.778v81.85h11.222h10.334h41.666v-81.85C420.519,275.537,416.119,270.823,410.383,270.579z"/>
			<path opacity="0.5" fill="#FFFFFF" enable-background="new    " d="M410.383,270.579l-41.865-0.001
				c-0.148-0.006-0.294-0.022-0.444-0.022c-5.953,0-10.778,4.826-10.778,10.778v81.85h11.222h10.334h41.666v-81.85
				C420.519,275.537,416.119,270.823,410.383,270.579z"/>
			<path opacity="0.6" fill="#FFFFFF" enable-background="new    " d="M368.075,270.555L368.075,270.555
				c-5.953,0-10.778,4.826-10.778,10.778v81.85h21.555v-81.85C378.852,275.381,374.027,270.555,368.075,270.555z"/>
		</g>
	</g>
</g>
<g id="Trash_can">
	<g>
		<g>
			<path fill="#263238" d="M422.854,344.184c0.774-1.298-0.317-3.252-1.828-3.274c0.662-1.863,0.009-4.115-1.548-5.335
				c-0.196-0.154-0.422-0.298-0.672-0.299c-0.267,0-0.504,0.162-0.722,0.318c-1.424,1.023-2.848,2.046-4.272,3.069
				c-0.325,0.234-0.663,0.481-0.847,0.838c-0.873,1.692,2.274,3.86,0.98,5.256c-0.371,0.401-0.97,0.484-1.434,0.774
				c-1.017,0.635-1.139,2.031-1.613,3.133c-0.474,1.101-2.125,1.956-2.758,0.937c0.466-1.057-0.946-1.967-2.093-2.101
				c-1.131-0.133-2.345-0.197-2.979-1.273c-1.627,1.422-5.272-2.547-5.188-4.146c-1.338,0.102-2.249,1.354-2.542,2.607
				c-0.304,1.3-0.116,2.655-0.137,3.988c-0.041,2.591-0.877,5.129-0.832,7.72c0.036,2.017,0.814,4.256,2.661,5.066
				c0.889,0.391,1.893,0.392,2.863,0.385c7.007-0.045,14.013-0.09,21.02-0.135c0.504-0.003,1.031-0.012,1.478-0.245
				c0.948-0.495,1.149-1.74,1.237-2.807c0.376-4.566,0.752-9.134,1.128-13.7C424.122,344.702,423.488,344.443,422.854,344.184z"/>
			<path opacity="0.7" fill="#FFFFFF" enable-background="new    " d="M422.854,344.184c0.774-1.298-0.317-3.252-1.828-3.274
				c0.662-1.863,0.009-4.115-1.548-5.335c-0.196-0.154-0.422-0.298-0.672-0.299c-0.267,0-0.504,0.162-0.722,0.318
				c-1.424,1.023-2.848,2.046-4.272,3.069c-0.325,0.234-0.663,0.481-0.847,0.838c-0.873,1.692,2.274,3.86,0.98,5.256
				c-0.371,0.401-0.97,0.484-1.434,0.774c-1.017,0.635-1.139,2.031-1.613,3.133c-0.474,1.101-2.125,1.956-2.758,0.937
				c0.466-1.057-0.946-1.967-2.093-2.101c-1.131-0.133-2.345-0.197-2.979-1.273c-1.627,1.422-5.272-2.547-5.188-4.146
				c-1.338,0.102-2.249,1.354-2.542,2.607c-0.304,1.3-0.116,2.655-0.137,3.988c-0.041,2.591-0.877,5.129-0.832,7.72
				c0.036,2.017,0.814,4.256,2.661,5.066c0.889,0.391,1.893,0.392,2.863,0.385c7.007-0.045,14.013-0.09,21.02-0.135
				c0.504-0.003,1.031-0.012,1.478-0.245c0.948-0.495,1.149-1.74,1.237-2.807c0.376-4.566,0.752-9.134,1.128-13.7
				C424.122,344.702,423.488,344.443,422.854,344.184z"/>
		</g>
		<g>
			<g>
				<path fill="#263238" d="M424.081,321.966h-2.36h-6.499h-2.368h-6.491h-2.368h-6.491h-2.368h-3.671l0.269,3.295l0.191,2.353
					l0.498,6.123l0.284,3.518l0.375,4.683l0.161,2.008l0.054,0.598l0.191,2.36l0.261,3.234l0.161,2.008l0.168,2.038l0.192,2.36
					l0.146,1.785l0.161,2.008l0.069,0.874h4.291h3.625h5.234h3.625h5.234h3.625h4.299l0.069-0.874l0.161-2l0.146-1.801l0.191-2.36
					l0.169-2.03l0.161-2.008l0.26-3.242l0.192-2.353l0.046-0.598l0.161-2.008l0.383-4.683l0.284-3.51l0.49-6.131l0.191-2.353
					l0.269-3.295H424.081z M426.043,324.127L426.043,324.127l-0.629-0.629h0.683L426.043,324.127z M425.882,326.127l-0.062,0.797
					l-2.92,2.92l-3.349-3.35l2.996-2.996h0.705L425.882,326.127z M425.039,336.565l-2.139,2.138l-3.349-3.349l3.349-3.341
					l2.314,2.313L425.039,336.565z M394.002,334.327L394.002,334.327l2.314-2.313l3.349,3.341l-3.349,3.349l-2.131-2.138
					L394.002,334.327z M421.82,330.924l-3.349,3.35l-3.349-3.35l3.349-3.349L421.82,330.924z M416.556,323.499h3.831l-1.916,1.916
					L416.556,323.499z M417.383,335.354l-3.341,3.349l-3.349-3.349l3.349-3.341L417.383,335.354z M406.263,339.784l3.349-3.342
					l3.341,3.342l-3.341,3.349L406.263,339.784z M408.524,344.213l-3.349,3.349l-3.341-3.342l3.349-3.349L408.524,344.213z
					 M414.042,340.872l3.341,3.349l-3.341,3.342l-3.349-3.349L414.042,340.872z M409.612,334.274l-3.349-3.35l3.349-3.349
					l3.341,3.349L409.612,334.274z M408.524,335.354l-3.341,3.349l-3.349-3.349l3.349-3.341L408.524,335.354z M400.746,334.274
					l-3.341-3.35l3.341-3.349l3.349,3.349L400.746,334.274z M400.746,336.442l3.349,3.342l-3.349,3.349l-3.341-3.349
					L400.746,336.442z M404.095,348.65l-3.349,3.342l-3.341-3.342l3.341-3.349L404.095,348.65z M405.175,349.731l3.349,3.349
					l-3.341,3.349l-3.349-3.349L405.175,349.731z M406.263,348.65l3.349-3.349l3.341,3.349l-3.341,3.342L406.263,348.65z
					 M414.042,349.731l3.341,3.349l-3.341,3.349l-3.349-3.349L414.042,349.731z M418.471,354.16l3.349,3.35l-2.169,2.169h-2.36
					l-2.169-2.169L418.471,354.16z M415.122,348.65l3.349-3.349l3.349,3.349l-3.349,3.342L415.122,348.65z M415.122,339.784
					l3.349-3.342l3.349,3.342l-3.349,3.349L415.122,339.784z M417.383,326.495l-3.341,3.35l-3.349-3.35l2.997-2.996h0.705
					L417.383,326.495z M409.612,325.415l-1.916-1.916h3.824L409.612,325.415z M408.524,326.495l-3.341,3.35l-3.349-3.35l2.996-2.996
					h0.705L408.524,326.495z M402.662,323.499l-1.916,1.916l-1.908-1.916H402.662z M396.669,323.499l2.996,2.996l-3.349,3.35
					l-2.913-2.92l-0.061-0.797l2.621-2.629H396.669z M393.803,323.499l-0.621,0.621l0,0l-0.054-0.621H393.803z M393.596,329.285
					l1.64,1.64l-1.395,1.395L393.596,329.285z M394.508,340.511l-0.131-1.586l0,0l0.858,0.858L394.508,340.511L394.508,340.511z
					 M394.668,342.527l1.648-1.655l3.349,3.349l-3.349,3.342l-1.349-1.349L394.668,342.527z M395.167,348.719l-0.008-0.146
					l0.076,0.076L395.167,348.719L395.167,348.719z M395.749,355.854l-0.421-5.135l0.989-0.988l3.349,3.349l-3.349,3.341
					L395.749,355.854L395.749,355.854z M396.056,359.678l-0.062-0.767l0.322-0.322l1.088,1.089H396.056z M397.404,357.509
					l3.341-3.35l3.349,3.35l-2.169,2.169h-2.36L397.404,357.509z M404.095,359.678l1.088-1.089l1.088,1.089H404.095z
					 M408.432,359.678l-2.168-2.169l3.349-3.35l3.341,3.35l-2.162,2.169H408.432z M412.954,359.678l1.088-1.089l1.088,1.089H412.954
					z M423.161,359.678h-1.349l1.088-1.089l0.322,0.322L423.161,359.678z M423.476,355.854l-0.575,0.566l-3.349-3.341l3.349-3.349
					l0.989,0.988L423.476,355.854z M424.065,348.566l-0.016,0.153l-0.068-0.069L424.065,348.566L424.065,348.566z M424.257,346.213
					l-1.356,1.349l-3.349-3.342l3.349-3.349l1.655,1.655L424.257,346.213z M424.717,340.519l-0.735-0.735l0.866-0.858
					L424.717,340.519z M425.629,329.277l-0.245,3.05l-1.402-1.402L425.629,329.277L425.629,329.277z"/>
			</g>
			<g opacity="0.4" enable-background="new    ">
				<path fill="#FFFFFF" d="M424.081,321.966h-2.36h-6.499h-2.368h-6.491h-2.368h-6.491h-2.368h-3.671l0.269,3.295l0.191,2.353
					l0.498,6.123l0.284,3.518l0.375,4.683l0.161,2.008l0.054,0.598l0.191,2.36l0.261,3.234l0.161,2.008l0.168,2.038l0.192,2.36
					l0.146,1.785l0.161,2.008l0.069,0.874h4.291h3.625h5.234h3.625h5.234h3.625h4.299l0.069-0.874l0.161-2l0.146-1.801l0.191-2.36
					l0.169-2.03l0.161-2.008l0.26-3.242l0.192-2.353l0.046-0.598l0.161-2.008l0.383-4.683l0.284-3.51l0.49-6.131l0.191-2.353
					l0.269-3.295H424.081z M426.043,324.127L426.043,324.127l-0.629-0.629h0.683L426.043,324.127z M425.882,326.127l-0.062,0.797
					l-2.92,2.92l-3.349-3.35l2.996-2.996h0.705L425.882,326.127z M425.039,336.565l-2.139,2.138l-3.349-3.349l3.349-3.341
					l2.314,2.313L425.039,336.565z M394.002,334.327L394.002,334.327l2.314-2.313l3.349,3.341l-3.349,3.349l-2.131-2.138
					L394.002,334.327z M421.82,330.924l-3.349,3.35l-3.349-3.35l3.349-3.349L421.82,330.924z M416.556,323.499h3.831l-1.916,1.916
					L416.556,323.499z M417.383,335.354l-3.341,3.349l-3.349-3.349l3.349-3.341L417.383,335.354z M406.263,339.784l3.349-3.342
					l3.341,3.342l-3.341,3.349L406.263,339.784z M408.524,344.213l-3.349,3.349l-3.341-3.342l3.349-3.349L408.524,344.213z
					 M414.042,340.872l3.341,3.349l-3.341,3.342l-3.349-3.349L414.042,340.872z M409.612,334.274l-3.349-3.35l3.349-3.349
					l3.341,3.349L409.612,334.274z M408.524,335.354l-3.341,3.349l-3.349-3.349l3.349-3.341L408.524,335.354z M400.746,334.274
					l-3.341-3.35l3.341-3.349l3.349,3.349L400.746,334.274z M400.746,336.442l3.349,3.342l-3.349,3.349l-3.341-3.349
					L400.746,336.442z M404.095,348.65l-3.349,3.342l-3.341-3.342l3.341-3.349L404.095,348.65z M405.175,349.731l3.349,3.349
					l-3.341,3.349l-3.349-3.349L405.175,349.731z M406.263,348.65l3.349-3.349l3.341,3.349l-3.341,3.342L406.263,348.65z
					 M414.042,349.731l3.341,3.349l-3.341,3.349l-3.349-3.349L414.042,349.731z M418.471,354.16l3.349,3.35l-2.169,2.169h-2.36
					l-2.169-2.169L418.471,354.16z M415.122,348.65l3.349-3.349l3.349,3.349l-3.349,3.342L415.122,348.65z M415.122,339.784
					l3.349-3.342l3.349,3.342l-3.349,3.349L415.122,339.784z M417.383,326.495l-3.341,3.35l-3.349-3.35l2.997-2.996h0.705
					L417.383,326.495z M409.612,325.415l-1.916-1.916h3.824L409.612,325.415z M408.524,326.495l-3.341,3.35l-3.349-3.35l2.996-2.996
					h0.705L408.524,326.495z M402.662,323.499l-1.916,1.916l-1.908-1.916H402.662z M396.669,323.499l2.996,2.996l-3.349,3.35
					l-2.913-2.92l-0.061-0.797l2.621-2.629H396.669z M393.803,323.499l-0.621,0.621l0,0l-0.054-0.621H393.803z M393.596,329.285
					l1.64,1.64l-1.395,1.395L393.596,329.285z M394.508,340.511l-0.131-1.586l0,0l0.858,0.858L394.508,340.511L394.508,340.511z
					 M394.668,342.527l1.648-1.655l3.349,3.349l-3.349,3.342l-1.349-1.349L394.668,342.527z M395.167,348.719l-0.008-0.146
					l0.076,0.076L395.167,348.719L395.167,348.719z M395.749,355.854l-0.421-5.135l0.989-0.988l3.349,3.349l-3.349,3.341
					L395.749,355.854L395.749,355.854z M396.056,359.678l-0.062-0.767l0.322-0.322l1.088,1.089H396.056z M397.404,357.509
					l3.341-3.35l3.349,3.35l-2.169,2.169h-2.36L397.404,357.509z M404.095,359.678l1.088-1.089l1.088,1.089H404.095z
					 M408.432,359.678l-2.168-2.169l3.349-3.35l3.341,3.35l-2.162,2.169H408.432z M412.954,359.678l1.088-1.089l1.088,1.089H412.954
					z M423.161,359.678h-1.349l1.088-1.089l0.322,0.322L423.161,359.678z M423.476,355.854l-0.575,0.566l-3.349-3.341l3.349-3.349
					l0.989,0.988L423.476,355.854z M424.065,348.566l-0.016,0.153l-0.068-0.069L424.065,348.566L424.065,348.566z M424.257,346.213
					l-1.356,1.349l-3.349-3.342l3.349-3.349l1.655,1.655L424.257,346.213z M424.717,340.519l-0.735-0.735l0.866-0.858
					L424.717,340.519z M425.629,329.277l-0.245,3.05l-1.402-1.402L425.629,329.277L425.629,329.277z"/>
			</g>
		</g>
		<path fill="#263238" d="M391.02,324.866h37.178c0.908,0,1.644-0.736,1.644-1.644v-0.979c0-0.908-0.735-1.644-1.644-1.644H391.02
			c-0.908,0-1.643,0.735-1.643,1.644v0.979C389.377,324.129,390.112,324.866,391.02,324.866z"/>
		<path fill="#263238" d="M425.281,363.183h-31.343c-0.907,0-1.643-0.736-1.643-1.644v-0.98c0-0.907,0.735-1.643,1.643-1.643h31.343
			c0.908,0,1.643,0.735,1.643,1.643v0.98C426.924,362.447,426.188,363.183,425.281,363.183z"/>
	</g>
</g>
</svg>
