<svg xmlns="http://www.w3.org/2000/svg" xmlns:xlink="http://www.w3.org/1999/xlink" width="45.985" height="45.985" viewBox="0 0 45.985 45.985">
  <defs>
    <linearGradient id="linear-gradient" x1="0.5" x2="0.5" y2="1" gradientUnits="objectBoundingBox">
      <stop offset="0" stop-color="#0a4bff"/>
      <stop offset="1" stop-color="#7d46ff"/>
    </linearGradient>
  </defs>
  <g id="buy-online_2_" data-name="buy-online (2)" transform="translate(0)">
    <g id="Group_59" data-name="Group 59" transform="translate(0 0)">
      <path id="Path_241" data-name="Path 241" d="M11.448,28.67H43.195a1.347,1.347,0,0,0,1.344-1.251l1.443-20.2a1.347,1.347,0,0,0-1.344-1.443H28.669V2.791a1.347,1.347,0,0,0-2.694,0V5.773H11l-.378-4.537A1.347,1.347,0,0,0,9.284,0H1.347a1.347,1.347,0,1,0,0,2.694h6.7l.395,4.733L10,26.163a5.676,5.676,0,0,0,1.449,11.165h.224a5.676,5.676,0,1,0,9.654,0H34.039a5.677,5.677,0,1,0,9.6-.078,1.346,1.346,0,0,0-.448-2.616H11.448a2.982,2.982,0,0,1,0-5.964Zm14.526-20.2v8.387l-2.029-2.029a1.347,1.347,0,1,0-1.905,1.905l4.329,4.329a1.347,1.347,0,0,0,1.905,0L32.6,16.731A1.347,1.347,0,1,0,30.7,14.826l-2.029,2.029V8.468H43.191L41.94,25.975H12.688L11.229,8.468Zm12.891,28.86a2.982,2.982,0,1,1-2.982,2.982A2.985,2.985,0,0,1,38.866,37.328Zm-22.367,0a2.982,2.982,0,1,1-2.982,2.982A2.985,2.985,0,0,1,16.5,37.328Z" transform="translate(0 -0.001)" fill="url(#linear-gradient)"/>
    </g>
  </g>
</svg>
