<svg xmlns="http://www.w3.org/2000/svg" xmlns:xlink="http://www.w3.org/1999/xlink" width="110.261" height="110.261" viewBox="0 0 110.261 110.261">
  <defs>
    <linearGradient id="linear-gradient" x1="0.5" x2="0.5" y2="1" gradientUnits="objectBoundingBox">
      <stop offset="0" stop-color="#0a4bff"/>
      <stop offset="1" stop-color="#7d46ff"/>
    </linearGradient>
  </defs>
  <g id="Group_298" data-name="Group 298" transform="translate(-354.04 -1318.283)">
    <ellipse id="Ellipse_38" data-name="Ellipse 38" cx="35" cy="35.5" rx="35" ry="35.5" transform="translate(374 1338)" fill="url(#linear-gradient)"/>
    <g id="business" transform="translate(354.04 1318.283)">
      <g id="Group_212" data-name="Group 212">
        <g id="Group_211" data-name="Group 211">
          <path id="Path_542" data-name="Path 542" d="M108.228,43.659,96.846,42.4a43.218,43.218,0,0,0-3.216-7.753l7.153-8.94a2.3,2.3,0,0,0-.17-3.057l-13-12.983a2.3,2.3,0,0,0-3.057-.17l-8.941,7.151a43.2,43.2,0,0,0-7.753-3.216L66.6,2.045A2.3,2.3,0,0,0,64.319,0H45.942a2.3,2.3,0,0,0-2.283,2.044L42.4,13.415a43.218,43.218,0,0,0-7.753,3.216L25.7,9.478a2.3,2.3,0,0,0-3.057.17l-13,13A2.3,2.3,0,0,0,9.48,25.7l7.162,8.94A43.2,43.2,0,0,0,13.427,42.4L2.045,43.659A2.3,2.3,0,0,0,0,45.942V64.319A2.3,2.3,0,0,0,2.044,66.6l11.371,1.263a43.218,43.218,0,0,0,3.216,7.753l-7.153,8.94a2.3,2.3,0,0,0,.17,3.057l13,13a2.3,2.3,0,0,0,3.057.156l8.94-7.151A43.2,43.2,0,0,0,42.4,96.834l1.263,11.382a2.3,2.3,0,0,0,2.283,2.044H64.319a2.3,2.3,0,0,0,2.283-2.033l1.263-11.382a43.218,43.218,0,0,0,7.753-3.216l8.94,7.153a2.3,2.3,0,0,0,3.057-.17l12.983-13a2.3,2.3,0,0,0,.17-3.057l-7.151-8.94a43.2,43.2,0,0,0,3.216-7.753L108.216,66.6a2.3,2.3,0,0,0,2.044-2.283V45.942A2.3,2.3,0,0,0,108.228,43.659Zm-2.561,18.6h0L94.809,63.471a2.3,2.3,0,0,0-1.966,1.693A38.818,38.818,0,0,1,88.9,74.7a2.3,2.3,0,0,0,.193,2.589l6.829,8.536L85.834,95.909,77.3,89.079a2.3,2.3,0,0,0-2.589-.193,38.827,38.827,0,0,1-9.533,3.944A2.3,2.3,0,0,0,63.483,94.8l-1.208,10.87H48.01L46.79,94.8A2.3,2.3,0,0,0,45.1,92.83a38.818,38.818,0,0,1-9.533-3.944,2.3,2.3,0,0,0-2.589.193l-8.536,6.829L14.353,85.822,21.182,77.3a2.3,2.3,0,0,0,.193-2.589,38.827,38.827,0,0,1-3.944-9.533,2.3,2.3,0,0,0-1.966-1.693L4.594,62.274V48.009l10.87-1.22A2.3,2.3,0,0,0,17.431,45.1a38.818,38.818,0,0,1,3.944-9.533,2.3,2.3,0,0,0-.193-2.589l-6.829-8.536L24.439,14.352l8.548,6.829a2.3,2.3,0,0,0,2.589.193,38.827,38.827,0,0,1,9.533-3.944A2.3,2.3,0,0,0,46.8,15.464L48.01,4.594H62.263l1.208,10.87a2.3,2.3,0,0,0,1.693,1.966A38.818,38.818,0,0,1,74.7,21.375a2.3,2.3,0,0,0,2.589-.193l8.536-6.829,10.087,10.1L89.08,32.987a2.3,2.3,0,0,0-.193,2.589,38.827,38.827,0,0,1,3.944,9.533A2.3,2.3,0,0,0,94.8,46.8l10.87,1.208Z"/>
        </g>
      </g>
      <g id="Group_214" data-name="Group 214" transform="translate(22.96 22.965)">
        <g id="Group_213" data-name="Group 213">
          <path id="Path_543" data-name="Path 543" d="M166.844,123.1a32.159,32.159,0,1,0-56.13,31.406,2.3,2.3,0,0,0,3.627.5L129.349,140l5.3,7.07a2.3,2.3,0,0,0,3.462.246l14.456-14.456V141.1h4.594V127.32h0a2.3,2.3,0,0,0-2.3-2.3H141.082v4.594h8.237L136.736,142.2l-5.3-7.07a2.3,2.3,0,0,0-1.675-.919,2.339,2.339,0,0,0-1.787.673l-14.605,14.6a27.5,27.5,0,1,1,43.794,9.774V145.7h-4.594v16.92a27.39,27.39,0,0,1-4.594,2.13V150.291h-4.594v15.656a27.668,27.668,0,0,1-4.594.4v-9.16h-4.594v8.787a27.361,27.361,0,0,1-4.594-1.181v-12.2H125v10.086a27.72,27.72,0,0,1-3.71-2.565l-2.92,3.549A32.158,32.158,0,0,0,166.844,123.1Z" transform="translate(-106.614 -106.64)" fill="#fff"/>
        </g>
      </g>
    </g>
  </g>
</svg>
