<svg id="delivery-truck" xmlns="http://www.w3.org/2000/svg" width="50.738" height="37.308" viewBox="0 0 50.738 37.308">
  <path id="Path_488" data-name="Path 488" d="M341.185,164.8H330.709v19.072h17.165v-8.584l-2-6.949a4.882,4.882,0,0,0-4.687-3.538" transform="translate(-297.939 -155.225)" fill="#ff7058"/>
  <path id="Path_489" data-name="Path 489" d="M367.047,196.869l-1.784-6.195a2.512,2.512,0,0,0-2.4-1.81h-8.092v8Z" transform="translate(-319.619 -176.894)" fill="#84dbff"/>
  <path id="Path_490" data-name="Path 490" d="M367.012,196.837H354.731v-8Z" transform="translate(-319.581 -176.865)" fill="#cdd6e0"/>
  <path id="Path_491" data-name="Path 491" d="M367.047,196.869l-1.784-6.195a2.512,2.512,0,0,0-2.4-1.81h-8.092Z" transform="translate(-319.619 -176.894)" fill="#f2f2f2"/>
  <path id="Path_492" data-name="Path 492" d="M3.171,68.6H29.6a3.178,3.178,0,0,1,3.171,3.185V97.243H0V71.782A3.178,3.178,0,0,1,3.171,68.6" transform="translate(0 -68.597)" fill="#ffd15c"/>
  <path id="Path_493" data-name="Path 493" d="M124.09,68.651v8.415l-1.226-1.231-1.285,1.291-1.284-1.291-1.284,1.291-1.286-1.291-1.3,1.291-1.283-1.291L113.9,77.081v-8.43Z" transform="translate(-102.613 -68.646)" fill="#f2f2f2"/>
  <path id="Path_494" data-name="Path 494" d="M50.776,322.595v3.6H.043v-3.6h5.3a7.25,7.25,0,0,1,12.683,0H35.06a7.24,7.24,0,0,1,12.672,0Z" transform="translate(-0.039 -293.95)" fill="#334a5e"/>
  <path id="Path_495" data-name="Path 495" d="M376.355,346.323a5.063,5.063,0,1,1-5.064-5.086,5.075,5.075,0,0,1,5.064,5.086" transform="translate(-329.94 -314.102)" fill="#40596b"/>
  <path id="Path_496" data-name="Path 496" d="M400.858,373.861a2.035,2.035,0,1,1-2.034-2.043,2.038,2.038,0,0,1,2.034,2.043" transform="translate(-357.472 -341.639)" fill="#acb3ba"/>
  <path id="Path_497" data-name="Path 497" d="M76.464,346.323a5.064,5.064,0,1,1-5.064-5.086,5.076,5.076,0,0,1,5.064,5.086" transform="translate(-59.763 -314.102)" fill="#40596b"/>
  <path id="Path_498" data-name="Path 498" d="M100.975,373.861a2.034,2.034,0,1,1-2.034-2.043,2.038,2.038,0,0,1,2.034,2.043" transform="translate(-87.305 -341.639)" fill="#acb3ba"/>
</svg>
