<svg height="512" viewBox="0 0 192 192" width="512" xmlns="http://www.w3.org/2000/svg"><g id="_06-location" data-name="06-location"><path d="m96 0a72.081 72.081 0 0 0 -72 72c0 50.73 63.634 114.948 66.343 117.657a8.078 8.078 0 0 0 11.314 0c2.709-2.709 66.343-66.927 66.343-117.657a72.081 72.081 0 0 0 -72-72zm0 172.366c-15.243-16.589-56-64.321-56-100.366a56 56 0 0 1 112 0c0 36.045-40.758 83.778-56 100.366z"/><path d="m99.578 40.845a8 8 0 0 0 -7.156 0l-32 16 7.156 14.31 4.422-2.211v19.056a8 8 0 0 0 8 8h32a8 8 0 0 0 8-8v-19.056l4.422 2.211 7.156-14.31zm4.422 20.099v19.056h-16v-19.056l8-4z"/></g></svg>