<?xml version="1.0" encoding="utf-8"?>
<!-- Generator: Adobe Illustrator 16.0.0, SVG Export Plug-In . SVG Version: 6.00 Build 0)  -->
<!DOCTYPE svg PUBLIC "-//W3C//DTD SVG 1.1//EN" "http://www.w3.org/Graphics/SVG/1.1/DTD/svg11.dtd">
<svg version="1.1" id="Capa_1" xmlns="http://www.w3.org/2000/svg" xmlns:xlink="http://www.w3.org/1999/xlink" x="0px" y="0px"
	 width="398px" height="520px" viewBox="57 -4 398 520" enable-background="new 57 -4 398 520" xml:space="preserve">
<path stroke="#000000" stroke-width="8" stroke-miterlimit="10" d="M433.798,106.268l-96.423-91.222
	C327.118,5.343,313.695,0,299.577,0H116C85.673,0,61,24.673,61,55v402c0,30.327,24.673,55,55,55h280c30.326,0,55-24.673,55-55
	V146.222C451,131.173,444.73,116.61,433.798,106.268z M404.66,120H330c-2.758,0-5-2.243-5-5V44.636L404.66,120z M396,482H116
	c-13.785,0-25-11.215-25-25V55c0-13.785,11.215-25,25-25h179v85c0,19.299,15.7,35,35,35h91v307C421,470.785,409.784,482,396,482z"/>
<path stroke="#000000" stroke-width="8" stroke-miterlimit="10" d="M363,200H143c-8.284,0-15,6.716-15,15s6.716,15,15,15h220
	c8.283,0,15-6.716,15-15S371.283,200,363,200z"/>
<path stroke="#000000" stroke-width="8" stroke-miterlimit="10" d="M363,280H143c-8.284,0-15,6.716-15,15s6.716,15,15,15h220
	c8.283,0,15-6.716,15-15S371.283,280,363,280z"/>
<path stroke="#000000" stroke-width="8" stroke-miterlimit="10" d="M215.72,360H143c-8.284,0-15,6.716-15,15s6.716,15,15,15h72.72
	c8.284,0,15-6.716,15-15S224.004,360,215.72,360z"/>
</svg>
