<?xml version="1.0" encoding="iso-8859-1"?>
<!-- Generator: Adobe Illustrator 19.0.0, SVG Export Plug-In . SVG Version: 6.00 Build 0)  -->
<svg version="1.1" id="Layer_1" xmlns="http://www.w3.org/2000/svg" xmlns:xlink="http://www.w3.org/1999/xlink" x="0px" y="0px"
	 viewBox="0 0 330 330" style="enable-background:new 0 0 330 330;" xml:space="preserve">
<g id="XMLID_446_">
	<path id="XMLID_447_" d="M115,125.5c34.601,0,62.751-28.149,62.751-62.75S149.601,0,115,0C80.399,0,52.25,28.149,52.25,62.75
		S80.399,125.5,115,125.5z M115,30c18.059,0,32.751,14.691,32.751,32.75S133.059,95.5,115,95.5
		c-18.059,0-32.751-14.691-32.751-32.75S96.941,30,115,30z"/>
	<path id="XMLID_450_" d="M325.606,179.727l-45.333-45.333c-2.813-2.813-6.628-4.394-10.606-4.394
		c-3.978,0-7.794,1.581-10.607,4.394l-58.854,58.854c-21.63-23.9-52.364-37.747-85.206-37.747c-63.411,0-115,51.589-115,115
		c0,8.284,6.716,15,15,15h115V315c0,8.284,6.716,15,15,15h45.333c3.978,0,7.793-1.581,10.606-4.394L325.606,200.94
		C331.464,195.082,331.464,185.585,325.606,179.727z M115,185.5c24.769,0,47.912,10.665,63.95,29.004L137.954,255.5H31.325
		C38.431,215.761,73.249,185.5,115,185.5z M184.12,300H160v-24.12l49.227-49.228c0.09-0.087,0.178-0.176,0.265-0.265l60.174-60.174
		l24.12,24.12L184.12,300z"/>
</g>
<g>
</g>
<g>
</g>
<g>
</g>
<g>
</g>
<g>
</g>
<g>
</g>
<g>
</g>
<g>
</g>
<g>
</g>
<g>
</g>
<g>
</g>
<g>
</g>
<g>
</g>
<g>
</g>
<g>
</g>
</svg>
