<?xml version="1.0" encoding="utf-8"?>
<!-- Generator: Adobe Illustrator 16.0.0, SVG Export Plug-In . SVG Version: 6.00 Build 0)  -->
<!DOCTYPE svg PUBLIC "-//W3C//DTD SVG 1.1//EN" "http://www.w3.org/Graphics/SVG/1.1/DTD/svg11.dtd">
<svg version="1.1" id="Layer_1" xmlns="http://www.w3.org/2000/svg" xmlns:xlink="http://www.w3.org/1999/xlink" x="0px" y="0px"
	 width="22px" height="16.115px" viewBox="0 0 22 16.115" enable-background="new 0 0 22 16.115" xml:space="preserve">
<g id="email" transform="translate(0 -24.61)">
	<path id="Path_129" d="M19.221,24.61H2.78C1.246,24.612,0.002,25.856,0,27.39v10.555c0.002,1.535,1.246,2.777,2.78,2.78h16.441
		c1.533-0.003,2.777-1.245,2.779-2.78V27.39C21.998,25.856,20.754,24.612,19.221,24.61z M18.785,26.4L11,32.417L3.215,26.4H18.785z
		 M19.219,38.927H2.78c-0.544,0-0.986-0.441-0.987-0.986V27.572l8.658,6.688c0.324,0.251,0.776,0.251,1.1,0l8.658-6.688v10.373
		c0,0.546-0.443,0.988-0.988,0.987l0,0L19.219,38.927z"/>
</g>
</svg>
