<svg id="facebook_1_" data-name="facebook (1)" xmlns="http://www.w3.org/2000/svg" width="19.252" height="19.252" viewBox="0 0 19.252 19.252">
  <path id="Path_115" data-name="Path 115" d="M16.846,0H2.407A2.409,2.409,0,0,0,0,2.407V16.846a2.409,2.409,0,0,0,2.407,2.407H16.846a2.409,2.409,0,0,0,2.407-2.407V2.407A2.409,2.409,0,0,0,16.846,0Z" fill="#1976d2"/>
  <path id="Path_116" data-name="Path 116" d="M201.025,102.016h-3.008V99.61c0-.664.539-.6,1.2-.6h1.2V96h-2.407a3.61,3.61,0,0,0-3.61,3.61v2.407H192v3.008h2.407v6.618h3.61v-6.618h1.8Z" transform="translate(-184.78 -92.39)" fill="#fafafa"/>
</svg>
