<svg xmlns="http://www.w3.org/2000/svg" xmlns:xlink="http://www.w3.org/1999/xlink" width="98.3" height="106.483" viewBox="0 0 98.3 106.483">
  <defs>
    <linearGradient id="linear-gradient" x1="0.5" x2="0.5" y2="1" gradientUnits="objectBoundingBox">
      <stop offset="0"/>
      <stop offset="1"/>
    </linearGradient>
    <linearGradient id="linear-gradient-3" x1="0.5" x2="0.5" y2="1" gradientUnits="objectBoundingBox">
      <stop offset="0" stop-color="#7d46ff"/>
      <stop offset="1" stop-color="#0a4bff"/>
    </linearGradient>
  </defs>
  <g id="Group_296" data-name="Group 296" transform="translate(-367.7 -967.517)">
    <g id="surface1" transform="translate(367.7 967.517)">
      <path id="Path_530" data-name="Path 530" d="M72.368,45.966v-20.1a2.326,2.326,0,0,0-.641-1.527L49.2.686A2.246,2.246,0,0,0,47.581,0H11.862A11.9,11.9,0,0,0,0,11.973V79.516A11.826,11.826,0,0,0,11.862,91.4h28.2A30.435,30.435,0,1,0,72.368,45.966ZM49.795,7.768,64.91,23.68h-9.8a5.345,5.345,0,0,1-5.311-5.333ZM11.862,86.974a7.414,7.414,0,0,1-7.435-7.458V11.973a7.475,7.475,0,0,1,7.435-7.546H45.368v13.92a9.757,9.757,0,0,0,9.738,9.759H67.941V45.39c-.664-.022-1.195-.088-1.77-.088a30.88,30.88,0,0,0-20.183,7.613H17.882a2.213,2.213,0,1,0,0,4.426h23.99A35.212,35.212,0,0,0,37.977,64.2H17.882a2.213,2.213,0,0,0,0,4.427H36.538A30.372,30.372,0,0,0,37.866,87h-26ZM66.149,101.78a26,26,0,1,1,26-26A26.031,26.031,0,0,1,66.149,101.78Zm0,0" fill="url(#linear-gradient)"/>
      <path id="Path_531" data-name="Path 531" d="M77.764,206.11h22.418a2.213,2.213,0,1,0,0-4.426H77.764a2.213,2.213,0,1,0,0,4.426Zm0,0" transform="translate(-59.882 -159.857)" fill="url(#linear-gradient)"/>
    </g>
    <circle id="Ellipse_37" data-name="Ellipse 37" cx="31.5" cy="31.5" r="31.5" transform="translate(403 1011)" fill="url(#linear-gradient-3)"/>
    <path id="Path_544" data-name="Path 544" d="M280.673,270.335a2.487,2.487,0,0,0,.6.075,2.152,2.152,0,0,0,.7-.1,6.378,6.378,0,0,1,5.854,6.353,2.491,2.491,0,0,0,4.982,0,11.384,11.384,0,0,0-9.042-11.136v-1.594a2.491,2.491,0,1,0-4.983,0v1.694a11.356,11.356,0,0,0,2.665,22.4,6.39,6.39,0,1,1-6.377,6.4,2.491,2.491,0,0,0-4.983,0,11.355,11.355,0,0,0,8.694,11.036v2.566a2.491,2.491,0,1,0,4.983,0v-2.491a11.367,11.367,0,0,0-2.317-22.494,6.376,6.376,0,0,1-.772-12.7Zm0,0" transform="translate(152.847 757.113)" fill="#fff"/>
  </g>
</svg>
