<?xml version="1.0" encoding="utf-8"?>
<!-- Generator: Adobe Illustrator 16.0.0, SVG Export Plug-In . SVG Version: 6.00 Build 0)  -->
<!DOCTYPE svg PUBLIC "-//W3C//DTD SVG 1.1//EN" "http://www.w3.org/Graphics/SVG/1.1/DTD/svg11.dtd">
<svg version="1.1" id="Слой_1" xmlns="http://www.w3.org/2000/svg" xmlns:xlink="http://www.w3.org/1999/xlink" x="0px" y="0px"
	 width="1717.352px" height="1440.513px" viewBox="0 0 1717.352 1440.513" enable-background="new 0 0 1717.352 1440.513"
	 xml:space="preserve">
<g>
	<g>
		<path fill="#9CD499" d="M1168.321,848.671c124.907-147.572,152.258-210.323,149.213-391.192
			c-3.045-180.869,133.367-435.708,60.771-379.715s-174.646,242.783-131.078,386.995c43.567,144.212,33.301,191.654,17.983,231.336
			s-98.971,140.598-98.971,140.598L1168.321,848.671z"/>
		<path fill="#74B570" d="M1244.506,751.093c0.413-0.604,0.816-1.206,1.225-1.81c6.02-14.541,36.494-89.597,39.072-124.647
			c2.862-38.909-30.94-128.956-10.686-205.923c20.255-76.966,21.329-145.036,26.754-197.897
			c7.162-69.794,63.19-135.816,97.484-148.001c-0.307-0.616-0.679-1.126-1.104-1.55l-9.175,0.195
			c-2.713,1.281-5.949,3.357-9.771,6.305c-72.596,55.993-174.646,242.783-131.078,386.995
			c43.567,144.212,33.301,191.654,17.983,231.336c-4.132,10.704-13.24,25.866-24.333,42.299L1244.506,751.093z"/>
		<path fill="#9CD499" d="M1145.09,1055.813c86.928-207.532,100.185-284.243,102.012-469.872
			c1.828-185.629,427.287-486.689,397.775-421.843c-29.513,64.846-111.311,223.744-227.792,304.583
			c-116.48,80.839-147.948,164.809-157.729,260.426c-9.78,95.617-90.797,301.281-90.797,301.281l-20.906,35.117L1145.09,1055.813z"
			/>
		<g>
			<path fill="#74B570" d="M1182.918,970.824c-0.312,0-0.63-0.049-0.942-0.152c-1.573-0.521-2.426-2.218-1.906-3.791
				c0.217-0.654,21.829-66.106,36.315-120.769c14.49-54.678,26.716-152.017,27.02-186.58
				c0.277-31.598,18.349-132.591,97.575-219.298c39.405-43.124,68.432-69.189,108.605-105.264
				c39.682-35.632,89.066-79.978,170.154-159.803c1.181-1.161,3.08-1.147,4.242,0.034c1.162,1.181,1.147,3.08-0.033,4.243
				c-81.187,79.92-130.628,124.317-170.354,159.991c-40.046,35.96-68.979,61.942-108.185,104.847
				c-77.955,85.315-95.733,184.345-96.005,215.304c-0.307,34.862-12.623,132.984-27.221,188.064
				c-14.532,54.84-36.2,120.46-36.417,121.116C1185.35,970.025,1184.177,970.824,1182.918,970.824z"/>
		</g>
		<path fill="#9CD499" d="M1257.117,1147.819c28.785-147.604,24.769-73.896-21.069-282.071
			c-52.463-238.264,227.407-420.489,262.688-332.734c35.282,87.755,61.274,355.937,43.205,345.684
			c-18.068-10.253-121.102-266.36-125.449-256.393c-4.348,9.967-178.145,80.684-179.133,168.636
			c-0.989,87.952,49.924,232.352,49.924,232.352l-13.194,127.776L1257.117,1147.819z"/>
		<g>
			<path fill="#74B570" d="M1274.438,1150.179c-0.188,0-0.377-0.018-0.564-0.054l-16.972-3.25c-0.783-0.149-1.475-0.605-1.921-1.266
				c-0.446-0.661-0.611-1.473-0.459-2.255c3.326-17.057,6.271-31.406,8.638-42.937c12.81-62.415,12.81-62.415-1.909-118.175
				c-6.676-25.289-15.818-59.925-28.133-115.851c-9.234-41.938-8.773-84.498,1.371-126.497c8.941-37.02,25.137-72.85,48.137-106.494
				c39.445-57.702,97.653-105.09,148.29-120.726c35.545-10.976,61.28-3.972,70.604,19.219
				c15.002,37.313,30.204,112.273,40.667,200.519c4.389,37.021,7.34,72.094,8.31,98.758c1.609,44.268-2.681,48.018-4.512,49.619
				c-1.584,1.386-3.649,1.58-5.522,0.517c-10.084-5.722-38.786-68.936-78.233-157.615c-19.2-43.163-39.002-87.679-45.396-97.383
				c-3.338,2.75-10.341,6.691-24.077,14.313c-49.225,27.307-151.651,84.129-152.396,150.354
				c-0.972,86.407,49.246,229.881,49.753,231.32c0.147,0.418,0.201,0.864,0.155,1.307l-12.845,123.887
				c-0.087,0.836-0.521,1.597-1.195,2.099C1275.707,1149.974,1275.078,1150.179,1274.438,1150.179z M1260.989,1141.549l10.803,2.068
				l12.438-119.97c-3.684-10.615-50.821-148.26-49.871-232.741c0.783-69.711,105.271-127.676,155.484-155.532
				c11.535-6.399,22.436-12.446,23.964-14.41c0.582-1.197,1.729-1.938,3.027-1.942c0.043-0.001,0.086-0.001,0.129-0.001
				c2.473,0,4.341,0.521,18.997,31.826c8.631,18.433,19.86,43.679,31.75,70.406c15.088,33.918,32.188,72.36,46.299,101.982
				c18.263,38.338,25.588,49.311,28.512,52.138c1.061-2.61,3.192-12.06,1.938-45.045c-1.012-26.627-3.978-61.503-8.351-98.204
				c-10.402-87.307-25.414-161.322-40.156-197.991c-8.016-19.934-31.075-25.666-63.267-15.725
				c-88.243,27.249-232.541,170.334-193.709,346.693c12.288,55.805,21.412,90.371,28.074,115.61
				c15.078,57.12,15.078,57.12,1.985,120.912C1266.696,1113.032,1264.061,1125.873,1260.989,1141.549z"/>
		</g>
		<g>
			<path fill="#74B570" d="M1171.017,859.111l1.993-1.923c0.222-18.933,1.213-37.563,3.347-54.631
				C1170.104,834.187,1171.017,859.111,1171.017,859.111z"/>
			<path fill="#74B570" d="M1255.878,727.749c-6.19,12.172-10.454,25.047-13.316,37.889
				c29.73-73.234,163.599-129.692,172.931-140.409l1.734-2.752C1370.459,604.75,1287.659,665.255,1255.878,727.749z"/>
		</g>
		<g>
			<path fill="#74B570" d="M1542.669,874.917c-1.457,0.001-2.735-1.063-2.962-2.547l-12.352-80.844
				c-0.786-5.145-1.58-10.375-2.385-15.671c-11.475-75.565-25.756-169.609-47.337-212.757c-3.476-6.949-20.575-17.458-46.237-17.94
				c-34.91-0.646-104.035,17.368-174.258,145.481c-0.797,1.452-2.619,1.985-4.073,1.188c-1.452-0.797-1.984-2.62-1.188-4.073
				c71.741-130.88,143.388-149.279,179.632-148.596c28.45,0.535,47.238,12.752,51.491,21.256
				c22.005,43.994,35.764,134.6,47.903,214.539c0.804,5.295,1.598,10.522,2.384,15.666l12.352,80.844
				c0.25,1.638-0.875,3.169-2.513,3.419C1542.973,874.906,1542.819,874.917,1542.669,874.917z"/>
		</g>
		<g>
			<path fill="#74B570" d="M1485.655,745.621c-0.203,0-0.408-0.021-0.615-0.063c-1.622-0.338-2.662-1.927-2.324-3.549
				c0.159-0.765,15.788-77.467,2.733-160.761c-0.257-1.637,0.862-3.172,2.499-3.429c1.641-0.252,3.173,0.862,3.429,2.499
				c13.23,84.415-2.626,162.14-2.788,162.915C1488.294,744.648,1487.046,745.621,1485.655,745.621z"/>
		</g>
		<g>
			<path fill="#74B570" d="M1465.972,695.491c-0.204,0-0.412-0.021-0.62-0.065c-1.621-0.341-2.659-1.931-2.318-3.553
				c0.147-0.702,14.758-70.947,14.284-130.092c-0.013-1.657,1.319-3.011,2.976-3.024c1.671,0,3.011,1.327,3.024,2.976
				c0.479,59.805-14.264,130.666-14.413,131.375C1468.607,694.521,1467.36,695.491,1465.972,695.491z"/>
		</g>
		<g>
			<path fill="#74B570" d="M1450.675,340.837c-1.439,0-2.71-1.04-2.954-2.506c-0.273-1.634,0.83-3.18,2.464-3.453
				c0.675-0.113,68.061-11.909,120.547-65.42c1.159-1.185,3.06-1.201,4.242-0.041s1.201,3.06,0.041,4.242
				c-53.901,54.955-123.149,67.021-123.843,67.137C1451.005,340.823,1450.839,340.837,1450.675,340.837z"/>
		</g>
		<g>
			<path fill="#74B570" d="M1392.338,403.41c-4.401,0-6.945-0.185-7.389-0.22c-1.65-0.132-2.882-1.576-2.752-3.227
				c0.131-1.651,1.576-2.882,3.227-2.754c0.511,0.039,51.881,3.661,122.802-26.167c1.526-0.645,3.286,0.075,3.929,1.602
				c0.642,1.527-0.075,3.286-1.603,3.928C1453.175,400.705,1409.175,403.41,1392.338,403.41z"/>
		</g>
		<g>
			<path fill="#74B570" d="M1350.791,467.89c-16.163,0-24.482-2.954-25.162-3.207c-1.553-0.577-2.345-2.304-1.768-3.857
				c0.578-1.553,2.306-2.341,3.857-1.767c0.314,0.115,33.048,11.482,97.906-13.058c1.554-0.586,3.281,0.195,3.867,1.744
				c0.587,1.549-0.194,3.281-1.744,3.867C1393.322,464.639,1367.743,467.89,1350.791,467.89z"/>
		</g>
	</g>
	<g>
		<path fill="#9CD499" d="M431.235,1253.407c-2.18-6.619-154.409-200.63-147.224-360.166
			c5.032-111.706-28.247-232.806-28.247-232.806s108.126,81.044,111.453,258.229c2.047,109.055-1.39,140.587,5.554,170.581
			c6.943,29.995,69.458,170.813,69.458,170.813L431.235,1253.407z"/>
		<g>
			<path fill="#74B570" d="M442.229,1263.058c-0.534,0-1.071-0.143-1.552-0.434l-10.994-6.649c-0.576-0.349-1.018-0.881-1.254-1.508
				c-0.472-0.955-3.475-5.262-6.944-10.239c-15.55-22.305-51.965-74.54-84.012-139.136
				c-40.153-80.934-59.148-152.256-56.458-211.985c4.951-109.931-27.811-230.669-28.142-231.876
				c-0.34-1.236,0.144-2.553,1.204-3.274c1.058-0.723,2.461-0.692,3.487,0.079c1.122,0.84,27.775,21.069,55.198,63.44
				c25.255,39.021,55.723,104.897,57.454,197.132c0.692,36.891,0.758,64.678,0.81,87.005c0.102,43.554,0.148,63.432,4.668,82.956
				c6.8,29.376,68.653,168.866,69.277,170.272c0.531,1.197,0.225,2.602-0.759,3.468
				C443.65,1262.804,442.942,1263.058,442.229,1263.058z M428.386,1254.346c0.008,0.024,0.018,0.052,0.029,0.083
				C428.404,1254.401,428.396,1254.373,428.386,1254.346z M433.521,1251.284l2.118,1.281
				c-13.839-31.429-59.789-136.715-65.791-162.644c-4.673-20.186-4.72-40.276-4.822-84.296c-0.052-22.306-0.116-50.065-0.808-86.905
				c-1.703-90.682-31.576-155.41-56.336-193.743c-18.567-28.744-37.113-47.356-46.875-56.169
				c7.514,30.42,30.202,131.29,26.001,224.567c-4.14,91.91,42.761,208.8,139.397,347.421
				C430.855,1247.178,432.703,1249.856,433.521,1251.284z"/>
		</g>
		<path fill="#9CD499" d="M382.138,1223.325c5.741,10.424,10.766,28.413,15.02,48.832h10.089
			c-34.9-171.374-107.938-271.931-219.979-348.173C48.521,829.569,39.225,801.264,39.225,801.264s47.347,213.094,128.907,278.394
			C249.691,1144.957,361.909,1186.602,382.138,1223.325z"/>
		<path fill="#9CD499" d="M322.636,1252.133c13.665,0.556,26.479,8.634,37.872,20.024h23.481
			c-25.805-44.242-59.502-80.749-100.195-81.034c-102.687-0.719-123.132,25.827-193.672,23.744
			C39.797,1213.381,0,1202.679,0,1202.679s34.826,63.216,128.299,78.906C194.388,1292.679,273.186,1250.122,322.636,1252.133z"/>
		<g>
			<path fill="#74B570" d="M410.332,1293.296c-1.37,0-2.607-0.945-2.923-2.339c-16.233-71.744-43.154-134.543-77.853-181.606
				c-44.163-59.9-88.246-92.347-130.878-123.725c-40.428-29.756-78.613-57.861-111.273-106.348
				c-0.925-1.374-0.562-3.238,0.813-4.164c1.374-0.924,3.238-0.562,4.164,0.813c32.079,47.623,69.856,75.429,109.853,104.867
				c42.992,31.643,87.448,64.363,132.151,124.996c35.688,48.407,62.226,110.261,78.874,183.843c0.366,1.616-0.647,3.223-2.264,3.588
				C410.774,1293.271,410.552,1293.296,410.332,1293.296z"/>
		</g>
		<g>
			<path fill="#74B570" d="M400.778,1305.382c-1.063,0-2.091-0.565-2.636-1.563c-32.141-58.865-63.644-90.935-99.141-100.925
				c-31.313-8.813-61.68,0.713-93.827,10.8c-9.12,2.861-18.551,5.82-28.001,8.329c-82.828,21.993-125.656,7.044-127.438,6.398
				c-1.558-0.565-2.362-2.286-1.796-3.844c0.565-1.559,2.288-2.359,3.843-1.797c0.417,0.149,43.064,14.893,123.852-6.557
				c9.32-2.476,18.687-5.414,27.744-8.256c33.021-10.36,64.215-20.147,97.248-10.85c37.156,10.457,69.815,43.448,102.781,103.825
				c0.794,1.454,0.259,3.276-1.195,4.07C401.757,1305.263,401.264,1305.382,400.778,1305.382z"/>
		</g>
		<g>
			<path fill="#74B570" d="M249.699,1023.579c-0.513,0-1.032-0.132-1.508-0.408c-0.526-0.307-53.468-30.728-122.008-34.879
				c-1.653-0.1-2.913-1.521-2.813-3.176c0.1-1.654,1.526-2.922,3.176-2.813c70.021,4.24,124.128,35.37,124.667,35.684
				c1.431,0.835,1.914,2.671,1.08,4.103C251.736,1023.046,250.731,1023.579,249.699,1023.579z"/>
		</g>
		<g>
			<path fill="#74B570" d="M342.24,1124.696c-0.891,0-1.772-0.395-2.363-1.15c-42.61-54.403-86.047-64.041-180.235-80.656
				c-1.631-0.287-2.721-1.844-2.433-3.476s1.846-2.722,3.476-2.433c95.758,16.891,139.946,26.725,183.916,82.865
				c1.021,1.304,0.792,3.189-0.513,4.212C343.539,1124.488,342.888,1124.696,342.24,1124.696z"/>
		</g>
	</g>
	<g>
		<path fill="#9CD499" d="M1130.475,1304.313c116.452-230.379,239.302-322.479,403.438-357.466s183.439-57.681,183.439-57.681
			s-124.358,179.403-224.547,209.043c-100.188,29.639-219.822,25.791-252.428,52.148s-92.47,143.021-92.47,143.021l-20.187,15.782
			L1130.475,1304.313z"/>
		<path fill="#9CD499" d="M1184.681,1385.479c-0.996-4.293,48.93-237.572,151.526-241.926
			c102.598-4.354,123.969,21.452,194.392,16.873c50.241-3.267,89.635-15.371,89.635-15.371s-32.566,64.409-125.426,83.398
			c-65.655,13.426-145.909-26.314-195.258-22.555c-49.348,3.761-84.106,105.481-84.106,105.481l-13.412,53.333L1184.681,1385.479z"
			/>
		<g>
			<path fill="#74B570" d="M1136.834,1293.295c-0.413,0-0.833-0.086-1.233-0.268c-1.51-0.683-2.181-2.459-1.498-3.969
				c0.172-0.382,17.636-38.736,50.203-85.904c30.082-43.569,79.604-103.846,144.696-143.573
				c64.3-39.245,117.824-52.741,169.586-65.793c48.155-12.143,93.639-23.611,141.335-55.582c1.375-0.923,3.238-0.556,4.162,0.822
				c0.922,1.376,0.555,3.239-0.822,4.162c-48.56,32.55-94.534,44.143-143.208,56.415c-51.328,12.942-104.403,26.326-167.928,65.097
				c-64.153,39.156-113.071,98.699-142.812,141.756c-32.286,46.741-49.575,84.693-49.746,85.071
				C1139.068,1292.639,1137.977,1293.295,1136.834,1293.295z"/>
		</g>
		<g>
			<path fill="#74B570" d="M1198.27,1318.365c-0.366,0-0.739-0.067-1.101-0.211c-1.541-0.608-2.297-2.351-1.688-3.892
				c35.208-89.159,70.779-139.779,111.944-159.306c36.854-17.481,72.259-7.735,109.743,2.582c9.152,2.52,18.617,5.125,28.021,7.269
				c81.733,18.633,123.592,2.336,124.005,2.169c1.537-0.618,3.285,0.124,3.905,1.659c0.62,1.536-0.123,3.285-1.659,3.905
				c-1.759,0.709-44.028,17.163-127.585-1.884c-9.533-2.173-19.063-4.796-28.278-7.333c-36.38-10.013-70.74-19.471-105.58-2.946
				c-39.705,18.834-74.32,68.433-108.936,156.088C1200.595,1317.646,1199.465,1318.365,1198.27,1318.365z"/>
		</g>
		<g>
			<path fill="#74B570" d="M1567.13,1029.629c-0.319,0-0.645-0.052-0.964-0.16c-65.028-22.058-125.538-13.896-126.142-13.812
				c-1.642,0.224-3.158-0.91-3.389-2.552c-0.231-1.641,0.909-3.157,2.55-3.39c0.615-0.087,62.477-8.464,128.908,14.071
				c1.569,0.532,2.409,2.235,1.877,3.805C1569.547,1028.841,1568.38,1029.629,1567.13,1029.629z"/>
		</g>
		<g>
			<path fill="#74B570" d="M1315.725,1074.342c-1.042,0-2.055-0.544-2.608-1.514c-0.821-1.438-0.321-3.271,1.118-4.093
				c61.92-35.362,106.55-27.771,201.592-7.225c1.619,0.351,2.648,1.947,2.299,3.566c-0.352,1.62-1.944,2.646-3.566,2.299
				c-93.485-20.209-137.343-27.7-197.35,6.57C1316.74,1074.214,1316.229,1074.341,1315.725,1074.342z"/>
		</g>
	</g>
	<g>
		<path fill="#93B1C2" d="M519.478,148.985h546.749c0-37.232-30.182-67.414-67.414-67.414h-411.92
			C549.661,81.571,519.478,111.753,519.478,148.985L519.478,148.985z"/>
		<rect x="341.968" y="116.482" fill="#BDCCD4" width="891.25" height="1198.912"/>
		<rect x="379.975" y="167.608" fill="#FFFFFF" width="815.236" height="1096.659"/>
		<g>
			<path opacity="0.7" fill="#9EC8FF" d="M1132.646,412.809h-677.34c-5.297,0-9.631-4.334-9.631-9.631v-0.66
				c0-5.297,4.334-9.631,9.631-9.631h677.34c5.298,0,9.632,4.334,9.632,9.631v0.66
				C1142.278,408.475,1137.944,412.809,1132.646,412.809z"/>
			<path opacity="0.7" fill="#9EC8FF" d="M1132.646,451.471h-677.34c-5.297,0-9.631-4.334-9.631-9.631v-0.66
				c0-5.297,4.334-9.631,9.631-9.631h677.34c5.298,0,9.632,4.334,9.632,9.631v0.66
				C1142.278,447.137,1137.944,451.471,1132.646,451.471z"/>
			<path opacity="0.7" fill="#9EC8FF" d="M989.01,541.663H455.376c-5.336,0-9.701-4.365-9.701-9.701
				c0-5.336,4.365-9.701,9.701-9.701H989.01c5.336,0,9.701,4.365,9.701,9.701C998.711,537.298,994.346,541.663,989.01,541.663z"/>
			<path opacity="0.7" fill="#9EC8FF" d="M989.01,576.43H455.376c-5.336,0-9.701-4.365-9.701-9.701s4.365-9.701,9.701-9.701H989.01
				c5.336,0,9.701,4.366,9.701,9.701S994.346,576.43,989.01,576.43z"/>
			<path opacity="0.7" fill="#9EC8FF" d="M989.01,676.966H455.376c-5.336,0-9.701-4.365-9.701-9.701
				c0-5.335,4.365-9.701,9.701-9.701H989.01c5.336,0,9.701,4.365,9.701,9.701C998.711,672.601,994.346,676.966,989.01,676.966z"/>
			<path opacity="0.7" fill="#9EC8FF" d="M989.01,711.733H455.376c-5.336,0-9.701-4.366-9.701-9.701s4.365-9.701,9.701-9.701H989.01
				c5.336,0,9.701,4.365,9.701,9.701S994.346,711.733,989.01,711.733z"/>
			<path opacity="0.7" fill="#9EC8FF" d="M989.01,836.226H455.376c-5.336,0-9.701-4.366-9.701-9.701
				c0-5.336,4.365-9.701,9.701-9.701H989.01c5.336,0,9.701,4.365,9.701,9.701C998.711,831.859,994.346,836.226,989.01,836.226z"/>
			<path opacity="0.7" fill="#9EC8FF" d="M989.01,870.992H455.376c-5.336,0-9.701-4.365-9.701-9.701
				c0-5.335,4.365-9.701,9.701-9.701H989.01c5.336,0,9.701,4.366,9.701,9.701C998.711,866.627,994.346,870.992,989.01,870.992z"/>
			<path opacity="0.7" fill="#9EC8FF" d="M989.01,960.585H455.376c-5.336,0-9.701-4.365-9.701-9.701
				c0-5.335,4.365-9.701,9.701-9.701H989.01c5.336,0,9.701,4.366,9.701,9.701C998.711,956.22,994.346,960.585,989.01,960.585z"/>
			<path opacity="0.7" fill="#9EC8FF" d="M989.01,995.353H455.376c-5.336,0-9.701-4.366-9.701-9.701
				c0-5.336,4.365-9.701,9.701-9.701H989.01c5.336,0,9.701,4.365,9.701,9.701C998.711,990.986,994.346,995.353,989.01,995.353z"/>
			<path opacity="0.7" fill="#9EC8FF" d="M1154.371,1169.736H620.737c-5.335,0-9.701-4.365-9.701-9.701s4.366-9.701,9.701-9.701
				h533.634c5.336,0,9.701,4.365,9.701,9.701S1159.707,1169.736,1154.371,1169.736z"/>
			<path opacity="0.7" fill="#9EC8FF" d="M1154.371,1218.188H620.737c-5.335,0-9.701-4.365-9.701-9.701
				c0-5.335,4.366-9.701,9.701-9.701h533.634c5.336,0,9.701,4.366,9.701,9.701
				C1164.072,1213.823,1159.707,1218.188,1154.371,1218.188z"/>
		</g>
		<g>
			<g opacity="0.8">
				<path fill="#9EC8FF" d="M1080.245,589.287h-31.003c-13.476,0-24.439-10.964-24.439-24.439v-31.004
					c0-13.476,10.964-24.439,24.439-24.439h31.003c13.476,0,24.439,10.964,24.439,24.439v31.004
					C1104.685,578.323,1093.721,589.287,1080.245,589.287z M1049.242,523.404c-5.756,0-10.439,4.684-10.439,10.439v31.004
					c0,5.756,4.684,10.439,10.439,10.439h31.003c5.756,0,10.439-4.684,10.439-10.439v-31.004c0-5.756-4.684-10.439-10.439-10.439
					H1049.242z"/>
			</g>
			<g opacity="0.8">
				<path fill="#9EC8FF" d="M1080.245,721.053h-31.003c-13.476,0-24.439-10.964-24.439-24.44v-31.003
					c0-13.476,10.964-24.439,24.439-24.439h31.003c13.476,0,24.439,10.964,24.439,24.439v31.003
					C1104.685,710.089,1093.721,721.053,1080.245,721.053z M1049.242,655.17c-5.756,0-10.439,4.684-10.439,10.439v31.003
					c0,5.757,4.684,10.44,10.439,10.44h31.003c5.756,0,10.439-4.684,10.439-10.44v-31.003c0-5.756-4.684-10.439-10.439-10.439
					H1049.242z"/>
			</g>
			<g>
				<path fill="#F37168" d="M1066.682,570.848c-0.097,0-0.193-0.002-0.29-0.007c-1.763-0.086-3.398-0.942-4.472-2.343
					l-22.284-29.066c-2.016-2.63-1.519-6.396,1.111-8.412c2.628-2.016,6.395-1.52,8.412,1.111l17.972,23.441l49.42-52.95
					c2.262-2.422,6.06-2.553,8.48-0.293c2.423,2.262,2.554,6.058,0.293,8.48l-54.256,58.132
					C1069.931,570.16,1068.341,570.848,1066.682,570.848z"/>
			</g>
			<g>
				<path fill="#F37168" d="M1066.682,702.612c-0.097,0-0.193-0.002-0.29-0.007c-1.763-0.086-3.398-0.942-4.472-2.343
					l-22.284-29.065c-2.016-2.63-1.519-6.396,1.111-8.412c2.628-2.015,6.395-1.52,8.412,1.111l17.972,23.44l49.42-52.949
					c2.262-2.425,6.06-2.553,8.48-0.293c2.423,2.262,2.554,6.059,0.293,8.48l-54.256,58.131
					C1069.931,701.925,1068.341,702.612,1066.682,702.612z"/>
			</g>
			<g>
				<path fill="#9EC8FF" d="M1080.245,876.277h-31.003c-12.925,0-23.439-10.515-23.439-23.439v-31.004
					c0-12.925,10.515-23.439,23.439-23.439h31.003c12.925,0,23.439,10.515,23.439,23.439v31.004
					C1103.685,865.763,1093.17,876.277,1080.245,876.277z M1049.242,810.395c-6.308,0-11.439,5.132-11.439,11.439v31.004
					c0,6.308,5.132,11.439,11.439,11.439h31.003c6.308,0,11.439-5.132,11.439-11.439v-31.004c0-6.308-5.132-11.439-11.439-11.439
					H1049.242z"/>
			</g>
			<g opacity="0.8">
				<path fill="#9EC8FF" d="M1080.245,1009.042h-31.003c-13.476,0-24.439-10.964-24.439-24.439V953.6
					c0-13.476,10.964-24.439,24.439-24.439h31.003c13.476,0,24.439,10.964,24.439,24.439v31.003
					C1104.685,998.078,1093.721,1009.042,1080.245,1009.042z M1049.242,943.16c-5.756,0-10.439,4.684-10.439,10.439v31.003
					c0,5.756,4.684,10.439,10.439,10.439h31.003c5.756,0,10.439-4.684,10.439-10.439V953.6c0-5.756-4.684-10.439-10.439-10.439
					H1049.242z"/>
			</g>
			<g>
				<path fill="#F37168" d="M1066.682,858.838c-0.097,0-0.193-0.002-0.29-0.007c-1.763-0.086-3.398-0.942-4.472-2.343
					l-22.284-29.066c-2.016-2.63-1.519-6.396,1.111-8.412c2.628-2.015,6.395-1.52,8.412,1.111l17.972,23.441l49.42-52.95
					c2.262-2.423,6.06-2.552,8.48-0.293c2.423,2.262,2.554,6.058,0.293,8.48l-54.256,58.132
					C1069.931,858.15,1068.341,858.838,1066.682,858.838z"/>
			</g>
			<g>
				<path fill="#F37168" d="M1066.682,990.603c-0.097,0-0.193-0.002-0.29-0.007c-1.763-0.086-3.398-0.942-4.472-2.343
					l-22.284-29.065c-2.016-2.63-1.519-6.396,1.111-8.412c2.628-2.016,6.395-1.52,8.412,1.111l17.972,23.44l49.42-52.949
					c2.262-2.425,6.06-2.553,8.48-0.293c2.423,2.262,2.554,6.059,0.293,8.48l-54.256,58.131
					C1069.931,989.915,1068.341,990.603,1066.682,990.603z"/>
			</g>
		</g>
		<path fill="#93B1C2" d="M903.455,197.138H671.731c-52.608,0-95.256-42.647-95.256-95.256c0-11.217,9.094-20.311,20.312-20.311
			H978.4c11.217,0,20.311,9.094,20.311,20.311C998.711,154.491,956.063,197.138,903.455,197.138z"/>
		<path fill="#D6E7F0" d="M925.013,167.608H661.856c-35.6,0-64.459-28.859-64.459-64.459v-0.611c0-7.591,6.154-13.745,13.745-13.745
			h364.584c7.592,0,13.745,6.154,13.745,13.745v0.611C989.472,138.749,960.612,167.608,925.013,167.608z"/>
		<rect x="418.082" y="216.38" opacity="0.7" fill="#9EC8FF" width="739.024" height="132.421"/>
		<g>
			<path fill="#FFFFFF" d="M554.984,251.601v64.843h-14.72v-64.843H554.984z"/>
			<path fill="#FFFFFF" d="M567.681,316.444v-64.843h17.125l13.469,23.763c3.849,6.831,7.696,14.912,10.583,22.224h0.288
				c-0.962-8.563-1.25-17.317-1.25-27.034v-18.953h13.469v64.843h-15.394l-13.854-25.014c-3.849-6.927-8.081-15.297-11.256-22.897
				l-0.289,0.096c0.385,8.563,0.577,17.702,0.577,28.285v19.53H567.681z"/>
			<path fill="#FFFFFF" d="M634.54,301.34c3.944,2.021,10.005,4.041,16.259,4.041c6.734,0,10.294-2.79,10.294-7.023
				c0-4.041-3.079-6.35-10.871-9.14c-10.775-3.752-17.799-9.717-17.799-19.145c0-11.064,9.236-19.53,24.533-19.53
				c7.312,0,12.699,1.539,16.547,3.271l-3.271,11.833c-2.598-1.251-7.216-3.079-13.565-3.079s-9.428,2.886-9.428,6.254
				c0,4.137,3.655,5.964,12.025,9.14c11.448,4.233,16.836,10.198,16.836,19.337c0,10.871-8.369,20.107-26.168,20.107
				c-7.408,0-14.72-1.924-18.375-3.944L634.54,301.34z"/>
			<path fill="#FFFFFF" d="M700.63,251.601v37.328c0,11.16,4.233,16.836,11.737,16.836c7.697,0,11.93-5.388,11.93-16.836v-37.328
				h14.624v36.366c0,20.011-10.103,29.535-27.034,29.535c-16.355,0-25.976-9.043-25.976-29.728v-36.174H700.63z"/>
			<path fill="#FFFFFF" d="M751.615,252.467c4.714-0.77,11.737-1.347,19.53-1.347c9.62,0,16.354,1.443,20.973,5.099
				c3.849,3.079,5.965,7.601,5.965,13.565c0,8.274-5.868,13.95-11.448,15.97v0.289c4.521,1.828,7.022,6.157,8.658,12.122
				c2.021,7.312,4.041,15.778,5.291,18.279h-15.008c-1.059-1.828-2.598-7.119-4.521-15.104c-1.731-8.082-4.521-10.294-10.486-10.39
				h-4.426v25.495h-14.527V252.467z M766.143,280.367h5.772c7.312,0,11.641-3.656,11.641-9.332c0-5.965-4.04-8.947-10.775-9.043
				c-3.56,0-5.579,0.289-6.638,0.481V280.367z"/>
			<path fill="#FFFFFF" d="M824.63,299.801l-4.618,16.644h-15.2l19.818-64.843h19.241l20.107,64.843H848.2l-5.002-16.644H824.63z
				 M841.081,288.833l-4.041-13.757c-1.154-3.849-2.309-8.659-3.271-12.507h-0.192c-0.962,3.849-1.924,8.755-2.982,12.507
				l-3.849,13.757H841.081z"/>
			<path fill="#FFFFFF" d="M872.633,316.444v-64.843h17.125l13.469,23.763c3.849,6.831,7.696,14.912,10.583,22.224h0.288
				c-0.962-8.563-1.25-17.317-1.25-27.034v-18.953h13.469v64.843h-15.394l-13.854-25.014c-3.849-6.927-8.081-15.297-11.256-22.897
				l-0.289,0.096c0.385,8.563,0.577,17.702,0.577,28.285v19.53H872.633z"/>
			<path fill="#FFFFFF" d="M986.633,314.616c-2.693,1.347-8.755,2.79-16.644,2.79c-22.416,0-33.961-13.95-33.961-32.421
				c0-22.127,15.778-34.442,35.404-34.442c7.601,0,13.372,1.539,15.97,2.886l-2.982,11.641c-2.982-1.25-7.119-2.405-12.314-2.405
				c-11.641,0-20.684,7.023-20.684,21.454c0,12.988,7.696,21.165,20.78,21.165c4.426,0,9.332-0.962,12.218-2.116L986.633,314.616z"
				/>
			<path fill="#FFFFFF" d="M1034.828,289.025h-23.859v15.393h26.649v12.026h-41.369v-64.843h40.022v12.026h-25.303v13.469h23.859
				V289.025z"/>
		</g>
		<path fill="#F2F2F2" d="M965.67,121.297H786.495c-5.297,0-9.631-4.334-9.631-9.631v-2.407c0-5.297,4.334-9.631,9.631-9.631H965.67
			c5.297,0,9.631,4.334,9.631,9.631v2.407C975.301,116.963,970.967,121.297,965.67,121.297z"/>
	</g>
	<path opacity="0.5" fill="#BDCCD4" d="M1530.78,1386.001c-273.605-56.294-500.818-30.854-579.472-35.648
		c-78.654-4.793-534.527-9.662-630.838,23.271c-96.311,32.934,67.588,77.878,257.717,57.011s307.074-16.635,609.769,5.327
		C1490.65,1457.922,1568.181,1393.696,1530.78,1386.001z"/>
	<g>
		<g>
			<path fill="#D54A41" d="M591.526,568.354c41.071,29.663,129.299,42.593,157.44,44.114s-15.622,79.101-15.622,79.101
				s-75.648,9.127-111.396,0C586.202,682.442,591.526,568.354,591.526,568.354z"/>
			<path fill="#303C60" d="M521.045,1337.557c0.507,20.283,12.067,32.352,30.93,46.396c19.775,14.725,20.79,16.339-6.591,19.958
				c-27.381,3.62-34.987-8.803-53.241-14.127c-18.254-5.325-6.592-18.255-7.606-30.424s-2.744-31.944-2.744-31.944L521.045,1337.557
				z"/>
			<path fill="#303C60" d="M680.768,1327.416c0,0,12.17,14.088,28.396,28.087s57.297,18.771,37.522,23.99
				s-41.928,2.402-62.289,5.333c-20.361,2.93-38.108,0.095-39.629-5.333s0-43.964,0-43.964L680.768,1327.416z"/>
			<path fill="#58556E" d="M736.807,440.036c25.454-24.167,72.242,6.642,76.654,27.124c11.35,52.689,16.371,107.171,2.562,128.576
				c-13.809,21.405-136.791,34.869-135.291,27.274c1.5-7.595,1.845-54.892,22.214-78.023c20.369-23.13,11.112-45.471,14.845-66.833
				C722.278,452.464,732.731,443.905,736.807,440.036z"/>
			<path fill="#7EC1D6" d="M684.239,594.045c-8.669,61.396-17.035,177.005-42.134,205.146s-39.07,95.255-39.07,95.255
				s81.115-44.296,114.313-153.205c10.415-34.165-14.999-113.941-21.162-121.547C690.021,612.088,684.239,594.045,684.239,594.045z"
				/>
			<g>
				<path fill="#F09959" d="M860.012,762.684c-5.012,6.087-18.444,35.581-25.254,35.581c-23.198,0-24.909,9.096-37.494,15.758
					c-16.162,8.557-12.74,21.677-11.599,22.438c1.141,0.761,35.531-5.265,47.077-12.786c9.586-6.245,16.396-9.651,21.072-16.496
					c4.676-6.846,31.135-26.621,31.135-26.621L860.012,762.684z"/>
				<path fill="#9BD6E8" d="M836.544,580.544c23.468,14.177,27.778,27.36,50.849,67.417c23.071,40.058,27.128,54.509,36.255,68.96
					s12.169,31.184-7.099,49.438c-18.405,17.437-26.997,24.555-37.1,21.828c-6.804-1.837-12.18-21.659-21.64-18.067
					s7.272-24.296,15.893-32.155c4.695-4.281,6.592-3.953,5.071-5.906c-1.521-1.953-30.424-23.503-54.509-54.688
					C800.179,646.188,836.544,580.544,836.544,580.544z"/>
				<g>
					<path fill="#7EC1D6" d="M910.21,730.358c-11.42-5.127-25.689-4.396-36.17-2.41c2.694,2.265,4.395,3.675,4.733,4.11
						c1.521,1.953-0.376,1.625-5.071,5.906c-1.663,1.517-3.63,3.781-5.651,6.42c7.986-4.232,16.736-8.037,23.905-9.082
						c18.254-2.662,19.396,2.281,28.902,8.366S928.845,738.725,910.21,730.358z"/>
					<path fill="#7EC1D6" d="M860.143,601.766c-6.286-8.588-12.981-14.808-23.599-21.222c0,0-36.365,65.643-12.279,96.827
						c7.646,9.9,15.775,18.823,23.362,26.462C848.119,682.823,850.328,635.858,860.143,601.766z"/>
				</g>
				<path fill="#9BD6E8" d="M747.234,558.847c-31.438,7.099-56.807,16.372-63.297,34.606c-3.15,8.851,15.085,154.905,33.339,171.13
					c35.231,31.316,93.298,2.028,93.298,2.028s26.367-65.664,36.827-175.891c2.723-9.945-60.152-29.466-70.293-31.495
					S747.234,558.847,747.234,558.847z"/>
				<path fill="#F09959" d="M757.819,1333.619c0,0-43.079,59.623-17.219,57.514c25.859-2.109,42.745-28.729,42.745-28.729
					s8.975,30.188,34.834,28.784c25.86-1.403,11.274-17.222,0-35.685c-10.648-17.438-11.214-35.732-11.214-35.732L757.819,1333.619z
					"/>
				<path fill="#F09959" d="M761.517,587.369c-10.667,0-19.395-8.728-19.395-19.395v-72.255c0-10.667,8.728-19.395,19.395-19.395
					c10.667,0,19.395,8.728,19.395,19.395v72.255C780.911,578.642,772.184,587.369,761.517,587.369z"/>
				<path fill="#E38540" d="M761.517,476.324c-10.667,0-19.395,8.728-19.395,19.395v32.711c12.565,18.024,27.26,29.161,38.79,35.783
					v-68.494C780.911,485.052,772.184,476.324,761.517,476.324z"/>
				
					<ellipse transform="matrix(0.9736 -0.2284 0.2284 0.9736 -92.291 190.4714)" fill="#F09959" cx="776.864" cy="494.016" rx="34.959" ry="48.067"/>
				<path fill="#F09959" d="M721.639,755.889c0,0-60.463,45.633-41.069,195.08c19.394,149.446,39.929,144.883,41.069,216.755
					c1.141,71.871,31.943,171.122,50.196,190.517c18.253,19.394,63.078-84.572,63.078-176.856c0-53.921,0.026-79.827,12.575-164.248
					s9.909-207.629-40.287-261.247C757.004,702.27,721.639,755.889,721.639,755.889z"/>
				<path fill="#E38540" d="M770.611,1090.109c-0.05-35.365-11.757-110.533-9.095-214.436l-77.12,102.784
					c18.178,121.682,36.177,122.11,37.242,189.266c0.865,54.459,18.759,124.629,35.32,163.874
					c10.763,3.864,17.993,8.396,19.905,14.094c2.561,7.625,4.258,11.847,5.272,13.072c0.363-0.234,0.729-0.489,1.098-0.767
					c0.884-6.366-3.733-38.847-8.788-86.104C765.901,1192.007,770.661,1125.475,770.611,1090.109z"/>
				<path fill="#9BD6E8" d="M694.472,702.508c10.055,59.084,4.019,67.07-10.075,116.125
					c-14.094,49.055-14.281,179.108-14.281,179.108s38.218,15.971,112.179,9.126s84.228-14.83,84.228-14.83
					s-8.41-126.631-19.035-164.278c-10.626-37.646-27.244-63.393-28.062-87.597C818.608,715.96,694.472,702.508,694.472,702.508z"/>
				<path fill="#3E6BAB" d="M740.601,1391.133c25.859-2.109,42.745-28.729,42.745-28.729s8.975,30.188,34.834,28.784
					c22.208-1.205,14.587-13.042,4.851-28.055c-0.887,3.373-3.637,6.529-10.936,6.248c-15.275-0.59-29.625-19.147-29.625-19.147
					s-26.659,20.536-36.546,19.072c-9.883-1.463,4.811-25.238,4.823-25.258C739.739,1361.04,721.64,1392.68,740.601,1391.133z"/>
			</g>
			<g>
				<path fill="#F09959" d="M891.729,1042.941c-3.042,34.227,0.132,60.086-6.019,88.229c-6.15,28.141-19.088,37.268-19.088,37.268
					l-11.401-131.58L891.729,1042.941z"/>
				<path fill="#7A4E34" d="M806.543,898.432c-24.59-52.101-27-69.214-12.93-81.383c14.071-12.169,16.353-28.902,39.551-22.817
					c23.197,6.085,30.804,19.395,42.212,24.339c11.409,4.943,9.127,35.747-5.324,44.113
					C855.601,871.05,806.543,898.432,806.543,898.432z"/>
				<path fill="#63ACC2" d="M787.853,1352.664c0,0-1.014,15.799,3.359,22.914c4.373,7.115,7.607,10.35-8.888,10.674
					c-16.495,0.323-21.023-3.882-22.316-13.908c-1.294-10.026-1.125-13.037,1.216-19.132
					C763.564,1347.116,787.853,1352.664,787.853,1352.664z"/>
				<path fill="#63ACC2" d="M873.475,1355.161c0,0,18.635,16.732,29.663,20.536c11.028,3.803-4.439,12.169-23.916,7.985
					c-19.476-4.183-17.916,1.521-27.804-3.042s-0.825-28.845-0.825-28.845L873.475,1355.161z"/>
				<path fill="#3E6BAB" d="M875.757,1093.141c0,0,0,127.017,1.521,176.455c1.521,49.438,2.541,82.903,1.555,88.396
					c-0.416,2.311-21.362-0.761-30.489,0s-28.456-113.496-36.475-175.104c-8.019-61.606-11.409-106.481-11.409-106.481
					L875.757,1093.141z"/>
				<path fill="#2E5B9A" d="M811.868,1182.889c3.775,29.001,10.056,69.666,16.599,104.51
					c8.998-39.717,26.745-110.284,47.371-151.078c-0.081-25.134-0.081-43.18-0.081-43.18l-47.28-10.507
					c-9.215,1.719-18.34,3.419-27.077,5.044C802.898,1104.719,806.244,1139.688,811.868,1182.889z"/>
				<path fill="#3E6BAB" d="M767.754,1065.76c-3.803,62.367-9.704,206.172-7.697,238.062c2.178,34.606-2.19,47.917-2.19,47.917
					s8.366,3.043,22.057,4.563c8.682,0.965,8.682,0.965,8.682,0.965s34.671-91.474,41.517-154.603
					c6.845-63.128,25.099-112.566,25.099-112.566L767.754,1065.76z"/>
				<path fill="#EDC055" d="M866.854,933.436c29.438,39.533,32.481,117.112,32.481,117.112s-12.007,9.127-23.497,4.563
					S866.854,933.436,866.854,933.436z"/>
				<g>
					<path fill="#F5CE5C" d="M835.445,912.483c34.987,8.005,49.438,48.315,50.199,80.26c0.76,31.944-5.324,117.891-5.324,120.933
						c0,3.043-68.453,9.127-93.552,3.803c-25.1-5.323-25.1-5.323-25.1-5.323s-6.845-127.018,0-158.202
						c6.845-31.184,51.72-45.635,51.72-45.635L835.445,912.483z"/>
				</g>
				<g>
					<path fill="#EDC055" d="M823.314,998.844c-1.902-11.599,13.615-13.5,20.498-12.549c6.883,0.95,8.519,8.557,11.409,9.507
						c2.89,0.951,6.883-3.49,10.496-0.89c3.612,2.602-0.571,10.017-5.135,10.397c-4.563,0.38-7.225-4.12-10.458-2.06
						c-3.232,2.06-1.901,3.391-2.472,3.391s-11.979,1.331-11.979,1.331s-4.944-3.232-8.367-2.853
						c-3.422,0.38-2.129,3.993-2.129,3.993s-5.667-0.381-4.336-4.373C822.173,1000.746,823.314,998.844,823.314,998.844z"/>
					<path fill="#EDC055" d="M849.174,1006.641c3.47-3.853,7.035-0.19,8.556,1.141s-2.687,3.955-6.084,3.993
						C848.248,1011.812,849.174,1006.641,849.174,1006.641z"/>
					<path fill="#EDC055" d="M826.736,1009.112c-0.38-2.853,5.324-2.282,7.036,0c1.711,2.281-3.803,4.563-5.514,3.993
						C826.546,1012.535,826.736,1009.112,826.736,1009.112z"/>
					<path fill="#EDC055" d="M817.229,1011.774c-0.38-1.141-15.021-7.226-13.31-12.74c1.711-5.514,11.409,6.37,11.409,6.37
						s-6.655-14.546-3.232-15.688c3.422-1.141,4.753,9.127,5.134,12.17C817.609,1004.929,817.229,1011.774,817.229,1011.774z"/>
					<path fill="#EDC055" d="M858.05,987.245c0,0,1.011-12.359,5.194-9.888c4.184,2.473-2.597,9.888-2.597,9.888
						s8.682-6.845,10.773-3.042c2.091,3.803-13.371,5.426-13.371,5.426V987.245z"/>
				</g>
				<path fill="#EDC055" d="M791.368,1065.76c3.079-38.79,11.373-92.791-12.206-131.581l-6.311-0.743
					c-5.27,5.791-9.448,12.616-11.183,20.518c-6.845,31.185,0,158.202,0,158.202s0,0,25.1,5.323c1.139,0.242,2.37,0.46,3.678,0.655
					C789.877,1106.896,789.558,1088.566,791.368,1065.76z"/>
				<path fill="#F09959" d="M825.178,934.179c-10.249,0-18.634-8.386-18.634-18.635v-34.226c0-10.249,8.385-18.635,18.634-18.635
					s18.634,8.386,18.634,18.635v34.226C846.512,933.436,837.194,935.716,825.178,934.179z"/>
				<path fill="#E38540" d="M843.812,917.047v-45.236c0-5.02-4.107-9.127-9.127-9.127H815.67c-5.02,0-9.127,4.107-9.127,9.127
					v29.018C821.319,914.192,834.802,917.091,843.812,917.047z"/>
				
					<ellipse transform="matrix(0.9905 -0.1372 0.1372 0.9905 -110.4519 123.3983)" fill="#FCA96A" cx="839.645" cy="862.684" rx="34.226" ry="44.757"/>
				<path fill="#FCA96A" d="M772.189,934.179c-34.098,15.212-37.14,125.496-38.662,142.229
					c-1.521,16.733,6.846,73.776,11.409,88.988s17.47,27.271,18.152,8.336s-4.462-28.871-4.462-28.871s6.845,14.45,9.127,6.845
					c2.281-7.605-9.888-19.015-9.888-25.859c0-6.846,9.888-47.156,9.888-60.086c0-12.931,19.015-54.763,19.015-88.988
					C786.769,942.545,772.189,934.179,772.189,934.179z"/>
				<path fill="#F5CE5C" d="M783.701,923.771c-31.159,12.688-40.651,49.197-50.356,84.184c-9.706,34.986-9.706,34.986-9.706,34.986
					s50.959,18.036,54.001,15.863c3.042-2.172,14.451-65.301,13.691-91.16C790.571,941.784,783.701,923.771,783.701,923.771z"/>
				
					<ellipse transform="matrix(0.9349 -0.3548 0.3548 0.9349 -256.6029 342.4165)" fill="#FCA96A" cx="805.273" cy="870.818" rx="7.915" ry="11.705"/>
				<path fill="#7A4E34" d="M802.36,854.697c0,0,9.471,29.357,11.391,18.672s-1.123-15.629,6.103-18.672
					c7.226-3.042-2.282-23.578,7.986-21.676c10.268,1.901,18.634,14.301,34.227,11.333c15.592-2.967,22.057-6.39,15.592-15.137
					c-6.465-8.746-59.706-17.113-59.706-17.113l-22.635,25.927L802.36,854.697z"/>
				<path fill="#2E5B9A" d="M851.418,1383.683c9.888,4.563,8.328-1.141,27.804,3.043c19.477,4.183,37.313-6.085,26.285-9.889
					c-0.259-0.089-0.528-0.19-0.798-0.291c-3.62,1.819-7.149,4.399-8.67,5.616c-2.536,2.027-9.127,0.507-18.195-1.015
					c-9.068-1.521-7.495,1.1-9.693-1.268c-2.192-2.361-11.111-8.586-21.276-8.603
					C846.509,1376.701,847.393,1381.825,851.418,1383.683z"/>
				<path fill="#2E5B9A" d="M759.201,1358.869c8.113,16.529,4.243,19.477,11.088,20.624s9.164-4.194,16.479-1.642
					s6.314,2.535,7.974,4.563s0.899,4.504-2.143,5.295c-3.042,0.79-18.761,0.983-24.846,0c-6.085-0.984-10.141-12.36-9.888-16.433
					C758.12,1367.203,759.201,1358.869,759.201,1358.869z"/>
			</g>
			<path fill="#58556E" d="M560.763,519.719c-12.014-16.875-24.081-62.795-13.354-67.488c10.726-4.692,8.045-12.067,18.771-25.81
				s53.965-19.106,66.703,4.022c12.737,23.128,18.198,25.474,18.652,37.876c0.454,12.402-30.048,43.239-30.048,43.239
				L560.763,519.719z"/>
			<path fill="#F09959" d="M844.082,789.12c-3.501,5.249-6.85,9.144-9.324,9.144c-23.198,0-24.909,9.097-37.494,15.759
				c-16.162,8.557-12.74,21.677-11.599,22.438c1.141,0.761,35.531-5.265,47.077-12.786c9.586-6.245,16.396-9.651,21.072-16.496
				c0.894-1.309,2.585-3.09,4.732-5.113C853.343,798.208,848.505,793.862,844.082,789.12z"/>
			<path fill="#F09959" d="M568.709,460.352c0,0-7.606,93.636-24.339,103.861c-16.733,10.226-48.677,48.255-44.114,130.398
				c4.563,82.143,10.648,117.574,16.733,149.296c6.084,31.723,120.172,12.392,132.341,0s25.86-125.716,0-183.141
				c-25.86-57.425-54.762-89.879-57.804-104.075c-3.042-14.197,16.732-71.24,16.732-71.24L568.709,460.352z"/>
			<path fill="#E38540" d="M591.215,553.62c-0.381-17.904,17.043-68.169,17.043-68.169l-39.55-25.1c0,0-1.659,20.412-5.129,43.216
				C568.709,535.269,578.977,547.438,591.215,553.62z"/>
			<path fill="#F09959" d="M640.92,486.655c3.811,27.505-5.664,49.039-25.467,51.783c-19.804,2.744-42.438-14.342-46.249-41.848
				s9.154-52.027,28.958-54.771C617.966,439.077,637.109,459.15,640.92,486.655z"/>
			<path fill="#F09959" d="M858.05,591.933c11.646,7.238,20.521,25.353,15.424,40.057s-12.16-4.163-19.92-14.958
				C845.794,606.237,849.34,586.519,858.05,591.933z"/>
			<path fill="#3E6BAB" d="M650.908,788.752c-7.986,96.049,19.021,312.805,19.208,361.859s19.779,183.192,19.779,183.192
				s-31.943,9.179-44.492,10.244c-12.549,1.065-48.793-121.565-54.158-186.592c-5.364-65.026-39.283-180.425-39.283-180.425
				l11.617-197.983L650.908,788.752z"/>
			<path fill="#2E5B9A" d="M650.908,788.752l-87.329-9.704l-11.617,197.983c0,0,33.919,115.398,39.283,180.425
				c0.07,0.847,0.147,1.708,0.228,2.579c0.652-100.224,29.792-143.73,60.584-249.849
				C649.405,863.582,648.323,819.843,650.908,788.752z"/>
			<path fill="#3E6BAB" d="M647.486,820.915c-41.069,139.18-78.716,270.374-103.814,357.076s-17.555,175.828-17.555,175.828
				l-42.21,3.367c0,0-47.471-142.913-15.528-220.265c31.943-77.353,16.749-123.951,22.816-196.221
				c6.845-81.525,18.354-141.097,18.354-141.097L647.486,820.915z"/>
			<path fill="#F37168" d="M649.331,660.767c-13.889-30.842-28.649-54.471-39.815-71.946c-4.926-0.69-11.168-1.311-18.255-1.451
				c-11.771-0.233-32.266-15.335-44.488-25.256c-0.779,0.885-1.579,1.597-2.402,2.1c-16.733,10.226-48.677,48.255-44.114,130.398
				c4.563,82.143-12.676,110.191-6.592,141.913c6.084,31.723,143.497,19.774,155.666,7.383S675.19,718.191,649.331,660.767z"/>
			<path fill="#F37168" d="M542.342,544.523l-12.353,32.579l78.27,31.817l9.039-7.759c0,0-12.081-17.593-9.039-28.242
				c3.042-10.648,6.592-13.692,0-16.227c-6.592-2.535-30.034-6.591-44.679-12.168C548.934,538.945,544.886,537.812,542.342,544.523z
				"/>
			<path fill="#D54A41" d="M663.306,727.263c-1.556-24.452-5.775-48.286-13.976-66.496c-3.022-6.711-6.085-13.06-9.144-19.098
				l-9.871-4.286c0,0-54.762-43.719-90.509-35.563c-35.748,8.156-37.269,141.322-16.733,155.919
				c20.536,14.598,82.143-22.46,101.158-25.681C636.579,729.967,653.179,728.227,663.306,727.263z"/>
			<path fill="#F37168" d="M802.117,672.537c-22.344-0.039-45.211-1.903-64.167-7.716c-57.044-17.494-163.821-61.217-184.822-58.358
				c-16.463,2.242-35.747,20.329-33.465,76.612s31.184,44.875,67.283,35.64c36.099-9.235,84.812-3.583,151.004,0
				c22.434,1.214,46.999-2.403,69.676-7.714C806.397,698.106,804.518,685.331,802.117,672.537z"/>
			<path fill="#F09959" d="M884.266,676.673c-3.866-2.098-36.778-0.381-68.244-1.183c1.958,10.986,7.047,29.175,8.228,40.271
				c33.729-9.83,60.655-10.798,60.655-10.798S891.272,680.476,884.266,676.673z"/>
			<path fill="#F37168" d="M785.004,670.064c20.167,0.32,53.615-2.194,58.212,0.859s12.74,38.887-3.376,43.463
				c-58.929,16.733-125.1,4.705-204.2-0.69c-79.101-5.395,89.585-52.93,89.585-52.93S768.219,669.797,785.004,670.064z"/>
			<path fill="#58556E" d="M560.763,519.719c13.434-6.637,6.759-19.541,7.931-28.096s-2.563-15.406,0.645-14.83
				c3.209,0.577,2.488,32.84,6.536,32.63c4.047-0.21,2.543-24.344,6.814-25.015c4.272-0.67,5.948-6.677,2.596-17.249
				c-3.352-10.572-0.67-19.957,8.38-11.577c9.05,8.379,29.162,27.821,40.894,25.139c11.731-2.682,11.061-14.749,10.056-16.089
				c-1.006-1.341-31.173-35.195-31.173-35.195l-59.664,34.189l-1.676,31.173L560.763,519.719z"/>
			<path fill="#F09959" d="M571.473,483.119c0.805,8.105,1.075,20.396,1.781,22.16c-5.315,2.168-12.119-2.188-15.195-9.729
				s-2.792-17.438,2.59-19.436C564.001,474.869,570.537,473.683,571.473,483.119z"/>
			<path fill="#58556E" d="M807.626,464.915c-8.461,27.381-55.617,27.761-57.898,35.367s-0.704,31.384-7.606,50.199
				c-11.028,30.063-18.114,45.762-33.465,50.325c-15.352,4.563-21.814-20.872-21.814-20.872s27.519-36.299,29.04-37.06
				c1.521-0.761,16.004-93.552,16.004-93.552s36.857-6.761,38.758-7.754s28.521,10.796,28.521,10.796L807.626,464.915z"/>
		</g>
		<path fill="#F09959" d="M849.269,678.114c5.867,0,35.91-16.822,41.614-17.348c5.705-0.526,28.142,5.583,28.142,5.583
			s-43.283,33.554-44.079,33.117C874.15,699.03,849.269,678.114,849.269,678.114z"/>
		<path fill="#E38540" d="M975.301,707.017l-32.698-3.183c0,0-17.508,15.507-33.466,19.111
			c-15.957,3.604-28.902-13.487-28.902-13.487l24.775-29.042l43.678-4.927l33.085,3.385L975.301,707.017z"/>
		<path fill="#F09959" d="M866.522,702.508c0,0,20.178,16.253,37.29,18.579c17.113,2.326,26.621-6.005,32.705-11.629
			c6.085-5.625-12.93-11.402-19.774-18.106c-6.846-6.704-1.901-17.801-1.901-17.801h-29.893L866.522,702.508z"/>
		<path fill="#E38540" d="M975.301,675.49l-33.078-3.63c0,0-13.69-12.088-20.536-11.093c-6.845,0.995-24.366,14.723-24.366,14.723
			s-14.996,14.033-9.766,15.554c5.229,1.521,20.441-2.904,22.343-6.396c1.901-3.492-3.803,1.21,13.311,0
			c17.112-1.21,19.015-4.232,19.015-4.232l33.078,2.642V675.49z"/>
		<path fill="#E38540" d="M876.291,711.007c4.324-6.652,10.353-10.607,21.029-4.71c10.676,5.897,13.785,14.199,11.816,16.648
			c-1.968,2.45-22.084-4.071-29.618-6.344C873.668,714.836,876.291,711.007,876.291,711.007z"/>
		<g>
			<path fill="#58556E" d="M1285.73,510.143c5.742-21.637,21.473-73.837-3.555-85.278s-37.541-28.246-62.568-19.665
				c-25.027,8.581-20.022,28.246-28.961,38.972s6.078,45.765,20.38,58.279S1285.73,510.143,1285.73,510.143z"/>
			<polygon fill="#F2E5DE" points="974.992,672.774 953.923,671.859 944.875,712.719 980.289,719.392 			"/>
			<path fill="#58556E" d="M1309.771,593.256c33.084,46.489,12.931,82.029-28.33,112.173c-41.26,30.144-138.39,39.55-179.459,41.366
				s-143.75-29.704-143.75-29.704l6.338-45.233c0,0,97.23,9.283,134.877,2.826c37.647-6.458,171.131-81.429,171.131-81.429H1309.771
				z"/>
			<path fill="#3A384D" d="M1232.631,613.975c-11.789,6.305-25.397,13.464-39.436,20.608
				c-13.633,35.475-17.463,71.854-83.606,95.988c-15.353,5.602-29.919,9.504-43.362,12.165c13.822,2.811,26.393,4.475,35.756,4.061
				c29.771-1.316,96.686,2.495,142.736-11.806C1243.334,699.587,1233.798,643.609,1232.631,613.975z"/>
			<polygon fill="#F09959" points="1271.339,465.887 1296.438,547.414 1244.719,611.05 1259.931,556.396 1244.719,500.492 			"/>
			<path fill="#E38540" d="M1271.339,465.887l-26.62,34.604l15.125,55.585c9.399-16.237,17.231-35.78,21.598-57.374
				L1271.339,465.887z"/>
			
				<ellipse transform="matrix(0.9521 0.3059 -0.3059 0.9521 208.2643 -354.7163)" fill="#F09959" cx="1235.933" cy="487.155" rx="38.092" ry="51.189"/>
			<path fill="#F37168" d="M1247.508,580.482c0,0-15.293,9.127-15.253,16.226c0.041,7.099,0,11.155,0,11.155
				s-13.143,20.124-23.283,46.063c-10.142,25.939-9.612,39.123-9.612,39.123l64.296-97.843L1247.508,580.482z"/>
			<path fill="#3A384D" d="M1338.003,1351.928c-0.508,20.282-22.877,34.605-33.489,39.993
				c-33.279,16.896-39.044,27.454-2.536,26.916c27.616-0.407,46.649-11.197,76.565-13.226c18.972-1.286,5.304-22.363,6.317-34.532
				c1.015-12.169-7.605-29.293-7.605-29.293L1338.003,1351.928z"/>
			<path fill="#3A384D" d="M1178.28,1341.786c0,0-6.719,9.251-22.944,23.25s-73.42,14.464-42.973,28.827
				c18.497,8.727,52.552,2.402,72.913,5.333c20.361,2.93,38.108,0.096,39.629-5.333c1.521-5.428-4.17-42.51-4.17-42.51
				L1178.28,1341.786z"/>
			<path fill="#58556E" d="M1208.14,803.123c7.985,96.048-19.021,312.804-19.207,361.858
				c-0.187,49.056-27.908,191.728-27.908,191.728s53.515,21.719,66.064,22.784c12.549,1.065,39.14-124.442,44.504-189.469
				s35.492-198.623,35.492-198.623l-11.616-197.982L1208.14,803.123z"/>
			<path fill="#3A384D" d="M1264.401,1245.621c3.317-20.319,5.885-39.753,7.191-55.597c5.364-65.026,35.492-198.623,35.492-198.623
				l-3.875-66.052l-96.187-1.368c-2.002,35.346-4.912,72.361-7.816,106.78C1236.154,1111.31,1255.439,1196.175,1264.401,1245.621z"
				/>
			<path fill="#58556E" d="M1211.563,835.285c37.201,201.572,64.595,281.727,89.693,368.429
				c25.098,86.702,19.38,175.779,19.38,175.779l69.59,8.884c0,0,27.205-157.791,0.445-237.085
				c-16.417-48.645-5.553-114.549-11.621-186.818c-6.845-81.525-12.781-164.869-12.781-164.869L1211.563,835.285z"/>
			<path fill="#3A384D" d="M1356.232,905.655l-120.262,51.942c0.54,2.484-0.536,14.744,0,17.181
				c58.908,4.909,96.177-0.671,144.428,10.999c-1.106-14.143-3.355-47.469-4.295-61.796L1356.232,905.655z"/>
			<path fill="#58556E" d="M1305.208,554.845c50.196,47.485,68.455,97.679,66.765,125.258
				c-3.423,55.833,7.203,270.535,7.203,270.535s-29.49,6.715-78.902,15.746c-49.412,9.03-97.084-4.177-97.084-4.177
				s-8.359-153.389-7.972-249.716C1195.454,653.765,1305.208,554.845,1305.208,554.845z"/>
			<path fill="#3A384D" d="M1354.357,955.905c1.3-25.39,10.387-204.104,8.975-206.931c-1.521-3.042-59.326-137.925-59.326-137.925
				c-30.93,42.092-32.883,129.813-32.413,176.969c0.423,42.486,13.217,157.823,15.747,180.249c4.277-0.474,8.599-1.092,12.934-1.884
				C1322.05,962.403,1340.514,958.749,1354.357,955.905z"/>
			<polygon fill="#F2E5DE" points="1301.256,541.946 1291.621,523.185 1244.719,561.214 1241.93,613.308 			"/>
			<path fill="#3A384D" d="M1293.143,584.031c0,0,19.132-8.775,36.751-2.674c-7.235-8.859-13.877-17.661-24.686-27.886
				c0,0-109.754,98.919-109.99,157.646c-0.058,14.353,0.294,28.898,0.932,43.261c0.362-29.422-3.89-50.683,24.991-89.088
				c25.598-34.04,80.115-61.992,80.115-61.992L1293.143,584.031z"/>
			<path fill="#58556E" d="M1301.763,537.275l13.797,26.369l-34.118,24.444l9.166,15.211c0,0-41.127,26.157-58.353,39.55
				c-28.861,22.441-39.002,75.551-39.002,75.551s4.056-53.11,39.002-97.152C1264.214,580.971,1301.763,537.275,1301.763,537.275z"/>
			<polygon fill="#BDCCD4" points="1254.546,953.362 1400.855,971.108 1390.943,1067.956 1251.792,1053.695 			"/>
			<path fill="#F09959" d="M1338.277,890.707l-14.705,53.927l-22.311,15.061l18.067,2.915c0,0-3.272,32.063-9.402,46.639
				c-6.13,14.574,0.462,19.433,25.308,2.429s31.735-25.263,30.065-45.182c-1.67-19.918-6.233-22.343-3.698-38.863
				s-23.831-40.325-23.831-40.325L1338.277,890.707z"/>
			<polygon fill="#F2E5DE" points="1322.58,917.896 1317.51,945.589 1365.599,953.362 1373.563,917.896 			"/>
			<path fill="#58556E" d="M1335.824,593.256c18.13,7.449,41.198,73.537,74.936,191.267c8.153,28.452-37.196,157.19-37.196,157.19
				s-57.936-3.694-58.655-12.987c-0.413-5.327,25.479-107.503,22.057-117.34c-3.423-9.838-23.4-39.85-40.526-106.85
				S1302.796,579.687,1335.824,593.256z"/>
			<path fill="#58556E" d="M1201.099,434.876c-17.96,45.05,21.047,40.402,37.458,26.458c16.411-13.944,18.534-1.894,18.201,14.659
				c-0.312,15.537,5.895,4.178,4.465,21.697c-1.431,17.52-2.56,18.347,3.194,12.269s7.546-28.246,7.546-28.246
				s-1.343,28.696,6.856,30.655c8.199,1.958,6.911-2.226,6.911-2.226l1.85-48.094l-36.152-40.402c0,0-46.377,0.357-46.428,1.788
				C1204.948,424.865,1201.099,434.876,1201.099,434.876z"/>
			<path fill="#F09959" d="M1271.963,481.713c5.565-12.156,17.83-6.432,14.559,7.868c-3.272,14.3-16.72,15.591-16.72,15.591
				L1271.963,481.713z"/>
		</g>
	</g>
	<g>
		<path fill="#93B1C2" d="M292.975,52.679c73.646,0,170.408-27.708,200.298-36.839c4.524-1.382,9.191,1.704,9.191,6.077v204.854
			c0,158.292-206.285,286.613-206.285,286.613S89.894,385.063,89.894,226.771V31.418c0-4.196,4.322-7.257,8.749-6.197
			C127.086,32.035,219.348,52.679,292.975,52.679z"/>
		<path opacity="0.7" fill="#9EC8FF" d="M296.179,86.378c55.253,0,123.945-18.122,158.449-32.417
			c10.294-4.265,21.95,2.633,21.95,12.991v164.387c0,138.428-180.398,250.646-180.398,250.646S115.781,369.767,115.781,231.339V74.1
			c0-9.945,10.818-16.824,20.983-13.356C170.939,72.403,240.406,86.378,296.179,86.378z"/>
		<path fill="#D6E7F0" d="M298.083,130.968v307.276c0,0-143.473-91.422-143.473-200.054V113.67c0-7.258,7.916-12.265,15.319-9.693
			C196.725,113.285,253.497,130.968,298.083,130.968z"/>
		<path fill="#D6E7F0" d="M298.083,130.968v307.276c0,0,148.595-91.422,148.595-200.054V113.382c0-7.183-7.767-12.195-15.135-9.755
			C403.738,112.833,343.236,130.968,298.083,130.968z"/>
		<g>
			<defs>
				<path id="SVGID_1_" d="M292.975,52.679c73.646,0,170.408-27.708,200.298-36.839c4.524-1.382,9.191,1.704,9.191,6.077v204.854
					c0,158.292-206.285,286.613-206.285,286.613S89.894,385.063,89.894,226.771V31.418c0-4.196,4.322-7.257,8.749-6.197
					C127.086,32.035,219.348,52.679,292.975,52.679z"/>
			</defs>
			<clipPath id="SVGID_2_">
				<use xlink:href="#SVGID_1_"  overflow="visible"/>
			</clipPath>
			<g clip-path="url(#SVGID_2_)">
				
					<linearGradient id="SVGID_3_" gradientUnits="userSpaceOnUse" x1="2166.7686" y1="-81.8145" x2="1694.2925" y2="672.6487" gradientTransform="matrix(-1 0 0 1 2063.5254 0)">
					<stop  offset="0" style="stop-color:#FFFFFF"/>
					<stop  offset="1" style="stop-color:#000000"/>
				</linearGradient>
				<path fill="url(#SVGID_3_)" d="M146.683,224.765c19.036,62.075,29.822,160.069,34.868,218.006
					c-53.195-49.594-106.01-108.1-108.671-138.672c-3.329-38.236-9.854-148.501-8.718-225.147
					C86.146,105.082,126.594,159.255,146.683,224.765z"/>
				
					<linearGradient id="SVGID_4_" gradientUnits="userSpaceOnUse" x1="2081.5732" y1="-135.1665" x2="1609.0969" y2="619.2969" gradientTransform="matrix(-1 0 0 1 2063.5254 0)">
					<stop  offset="0" style="stop-color:#FFFFFF"/>
					<stop  offset="1" style="stop-color:#000000"/>
				</linearGradient>
				<path fill="url(#SVGID_4_)" d="M246.266,348.801C230.656,276.408,185.807,95.738,65.708,39.7
					c1.76-23.863,5.052-39.268,10.558-39.602c22-1.333,48,11.333,48,11.333c117.333-0.667,174.667,177.333,180,208
					c5.333,30.667-0.667,301.473-12,308.736c-2.473,1.585-14.063-5.304-30.726-17.671
					C261.115,477.927,258.701,406.473,246.266,348.801z"/>
			</g>
		</g>
	</g>
</g>
<g>
</g>
<g>
</g>
<g>
</g>
<g>
</g>
<g>
</g>
<g>
</g>
<g>
</g>
<g>
</g>
<g>
</g>
<g>
</g>
<g>
</g>
<g>
</g>
<g>
</g>
<g>
</g>
<g>
</g>
</svg>
