<?xml version="1.0" encoding="utf-8"?>
<!-- Generator: Adobe Illustrator 16.0.0, SVG Export Plug-In . SVG Version: 6.00 Build 0)  -->
<!DOCTYPE svg PUBLIC "-//W3C//DTD SVG 1.1//EN" "http://www.w3.org/Graphics/SVG/1.1/DTD/svg11.dtd">
<svg version="1.1" id="Layer_1" xmlns="http://www.w3.org/2000/svg" xmlns:xlink="http://www.w3.org/1999/xlink" x="0px" y="0px"
	 width="265.186px" height="71.346px" viewBox="0 0 265.186 71.346" enable-background="new 0 0 265.186 71.346"
	 xml:space="preserve">
<g id="Group_290" transform="translate(-97.197 -290.314)">
	<g id="Group_44" transform="translate(224.126 305.551)">
		<path id="Path_179" d="M25.902,31.608h-25.9c0.307-2.588,1.232-5.063,2.7-7.217c1.505-2.256,4.327-4.916,8.468-7.981
			c1.796-1.212,3.428-2.651,4.854-4.282c0.638-0.79,1.009-1.763,1.06-2.776c0.01-0.922-0.372-1.805-1.051-2.429
			c-1.527-1.353-3.828-1.338-5.339,0.032c-0.845,1.044-1.339,2.327-1.41,3.667L0.633,9.922C0.832,7.911,1.469,5.968,2.5,4.23
			c0.943-1.396,2.273-2.486,3.827-3.137c2.183-0.82,4.508-1.192,6.837-1.092c2.407-0.1,4.813,0.252,7.09,1.037
			c1.619,0.639,3.009,1.751,3.986,3.191c0.964,1.422,1.47,3.105,1.45,4.823c-0.012,1.933-0.59,3.819-1.663,5.427
			c-1.653,2.247-3.704,4.173-6.052,5.681c-1.739,1.2-2.901,2.041-3.487,2.522s-1.275,1.11-2.067,1.886h13.48L25.902,31.608z"/>
	</g>
	<path id="Path_180" d="M141.349,306.082v8.564h4.75v6.314h-4.75v7.978c-0.054,0.647,0.041,1.3,0.276,1.906
		c0.32,0.497,0.893,0.774,1.482,0.718c0.912-0.055,1.812-0.239,2.672-0.548l0.636,5.953c-1.961,0.447-3.965,0.682-5.976,0.7
		c-1.626,0.1-3.252-0.183-4.748-0.823c-1.02-0.553-1.817-1.439-2.259-2.512c-0.583-1.755-0.831-3.604-0.73-5.45v-7.92h-3.18v-6.314
		h3.18v-4.142L141.349,306.082z"/>
	<path id="Path_181" d="M149.149,325.964c-0.099-3.194,1.165-6.281,3.477-8.488c2.318-2.227,5.447-3.34,9.389-3.342
		c4.509,0,7.914,1.309,10.219,3.925c3.945,4.812,3.658,11.816-0.668,16.289c-2.296,2.212-5.473,3.318-9.528,3.318
		c-3.159,0.148-6.269-0.828-8.775-2.756C150.565,332.737,149.043,329.426,149.149,325.964z M157.797,325.943
		c-0.126,1.58,0.306,3.155,1.22,4.451c1.415,1.696,3.938,1.925,5.634,0.51c0.179-0.148,0.343-0.313,0.492-0.489
		c0.913-1.335,1.337-2.945,1.2-4.557c0.119-1.549-0.308-3.091-1.208-4.357c-0.723-0.913-1.826-1.44-2.991-1.43
		c-1.206-0.024-2.356,0.511-3.114,1.45C158.111,322.804,157.675,324.371,157.797,325.943L157.797,325.943z"/>
	<path id="Path_182" d="M179.251,314.646h8.076v3.688c0.531-1.273,1.355-2.403,2.405-3.3c0.896-0.622,1.971-0.938,3.062-0.9
		c1.468,0.055,2.901,0.462,4.178,1.188l-2.67,6.149c-0.76-0.36-1.579-0.577-2.418-0.638c-1.063-0.035-2.064,0.498-2.629,1.4
		c-0.89,1.313-1.335,3.771-1.334,7.376v7.548h-8.67V314.646z"/>
	<path id="Path_183" d="M224.126,328.042h-17.3c0.055,1.123,0.446,2.203,1.123,3.101c0.808,0.962,2.011,1.5,3.266,1.462
		c0.847,0.001,1.68-0.219,2.416-0.636c0.583-0.378,1.091-0.858,1.5-1.419l8.5,0.783c-1.078,2.034-2.71,3.721-4.707,4.865
		c-1.837,0.982-4.473,1.474-7.907,1.474c-2.41,0.109-4.814-0.321-7.036-1.26c-1.772-0.9-3.248-2.291-4.251-4.007
		c-1.155-1.951-1.738-4.188-1.685-6.455c-0.129-3.197,1.1-6.3,3.381-8.543c2.253-2.176,5.365-3.265,9.337-3.266
		c2.624-0.122,5.239,0.379,7.631,1.463c1.828,0.936,3.317,2.419,4.262,4.242c1.063,2.256,1.564,4.735,1.463,7.227L224.126,328.042z
		 M215.35,323.909c-0.027-1.313-0.502-2.576-1.346-3.582c-1.735-1.559-4.405-1.415-5.964,0.319
		c-0.066,0.075-0.131,0.152-0.193,0.231c-0.602,0.901-0.947,1.949-1,3.031H215.35z"/>
	
		<linearGradient id="Path_184_1_" gradientUnits="userSpaceOnUse" x1="-61.6548" y1="734.3835" x2="-60.6553" y2="734.3835" gradientTransform="matrix(28.6135 0 0 -31.0879 2017.7583 23152.0293)">
		<stop  offset="0" style="stop-color:#0098FF"/>
		<stop  offset="1" style="stop-color:#00489A"/>
	</linearGradient>
	<path id="Path_184" fill="url(#Path_184_1_)" d="M253.596,306.082h14.266c2.325-0.087,4.645,0.303,6.814,1.145
		c1.681,0.724,3.155,1.853,4.293,3.285c1.154,1.474,1.991,3.17,2.459,4.982c0.519,1.965,0.775,3.988,0.764,6.021
		c0.11,2.624-0.274,5.245-1.136,7.727c-0.698,1.746-1.773,3.316-3.147,4.6c-1.217,1.166-2.701,2.014-4.323,2.469
		c-1.863,0.53-3.787,0.816-5.724,0.849h-14.266V306.082z"/>
	<path id="Path_185" d="M285.603,325.964c-0.098-3.194,1.166-6.281,3.478-8.488c2.318-2.227,5.448-3.34,9.391-3.342
		c4.509,0,7.914,1.309,10.218,3.925c3.943,4.812,3.657,11.814-0.666,16.289c-2.298,2.212-5.475,3.318-9.53,3.318
		c-3.159,0.148-6.269-0.828-8.776-2.756C287.02,332.736,285.498,329.426,285.603,325.964z M294.253,325.943
		c-0.126,1.58,0.306,3.155,1.22,4.451c1.41,1.696,3.929,1.928,5.625,0.518c0.181-0.15,0.349-0.316,0.5-0.497
		c0.913-1.335,1.337-2.945,1.2-4.557c0.119-1.549-0.309-3.091-1.208-4.357c-0.722-0.912-1.824-1.44-2.988-1.43
		c-1.207-0.025-2.357,0.511-3.115,1.45C294.568,322.804,294.132,324.371,294.253,325.943L294.253,325.943z"/>
	<path id="Path_186" d="M314.56,325.964c-0.098-3.194,1.166-6.28,3.478-8.488c2.318-2.227,5.448-3.34,9.391-3.342
		c4.507,0,7.913,1.309,10.217,3.925c3.942,4.813,3.655,11.814-0.668,16.289c-2.295,2.212-5.471,3.318-9.527,3.318
		c-3.159,0.148-6.27-0.828-8.776-2.756C315.978,332.736,314.455,329.426,314.56,325.964z M323.208,325.943
		c-0.125,1.58,0.306,3.155,1.219,4.451c1.415,1.696,3.938,1.925,5.634,0.51c0.178-0.148,0.343-0.313,0.492-0.489
		c0.913-1.335,1.338-2.944,1.202-4.557c0.118-1.549-0.309-3.091-1.208-4.357c-0.722-0.912-1.824-1.439-2.988-1.43
		c-1.207-0.024-2.357,0.511-3.116,1.45C323.524,322.805,323.088,324.371,323.208,325.943L323.208,325.943z"/>
	<path id="Path_187" d="M344.66,314.646h8.076v3.688c0.532-1.273,1.356-2.403,2.406-3.3c0.897-0.622,1.972-0.938,3.063-0.9
		c1.468,0.055,2.9,0.462,4.176,1.188l-2.672,6.149c-0.759-0.36-1.577-0.576-2.415-0.638c-1.063-0.036-2.066,0.497-2.63,1.4
		c-0.89,1.313-1.335,3.771-1.337,7.376v7.548h-8.669L344.66,314.646z"/>
	
		<linearGradient id="Path_188_1_" gradientUnits="userSpaceOnUse" x1="-66.6221" y1="738.3738" x2="-65.6221" y2="738.3738" gradientTransform="matrix(159.2545 0 0 -47.383 10708.2871 35300.3438)">
		<stop  offset="0" style="stop-color:#0098FF"/>
		<stop  offset="1" style="stop-color:#00489A"/>
	</linearGradient>
	<path id="Path_188" fill="url(#Path_188_1_)" d="M257.371,302.994c-2.216-2.228-4.435-4.452-6.657-6.676
		c-0.33-0.38-0.906-0.42-1.286-0.09c-0.381,0.331-0.42,0.907-0.09,1.287c0.032,0.037,0.067,0.071,0.105,0.103
		c0.328,0.33,0.663,0.651,1,0.979c0.6,0.588,1.197,1.179,1.792,1.771c-8.259-2.991-32.37-10.054-75.772-10.054
		c-21.631,0-37.566,2.167-55.058,7.462c-12.68,3.839-19.435,10.923-20.36,12.344c-0.9,1.338-1.384,2.913-1.388,4.526
		c-0.056,2.309,0.942,4.517,2.712,6c1.796,1.568,4.8,2.826,9.011,3.773c2.572,0.563,4.211,1.164,4.917,1.801
		c0.655,0.528,1.043,1.319,1.061,2.16c-0.014,0.876-0.424,1.699-1.115,2.236c-0.904,0.696-2.03,1.04-3.169,0.966
		c-1.635,0.092-3.214-0.61-4.24-1.886c-0.691-1.007-1.108-2.177-1.208-3.394l-9.137,0.572c0.171,2.921,1.399,5.679,3.456,7.76
		c2.034,2.034,5.694,3.052,10.979,3.052c2.558,0.084,5.104-0.359,7.484-1.3c1.884-0.792,3.492-2.124,4.62-3.828
		c1.087-1.632,1.663-3.552,1.652-5.513c0.022-1.618-0.406-3.211-1.238-4.6c-0.971-1.5-2.346-2.694-3.967-3.447
		c-2.889-1.266-5.917-2.187-9.021-2.745c-1.145-0.141-2.243-0.531-3.22-1.144c-0.426-0.315-0.684-0.808-0.7-1.337
		c0-4.243,6.987-8.719,16.899-11.464c26.944-7.46,37.601-7.39,55.773-7.816c37.956-0.884,63.183,5.631,69.633,7.514
		c0.486,0.183,0.877,0.328,1.034,0.384c-0.01,0.037-0.019,0.073-0.028,0.109c-0.651,0.008-1.3,0.007-1.954,0.025
		c-0.928,0.031-1.859,0.055-2.786,0.111c-0.5,0.017-0.892,0.436-0.874,0.936c0.017,0.5,0.436,0.892,0.936,0.874
		c0.1,0,0.2-0.01,0.3-0.012c3.025-0.188,6.062-0.125,9.076,0.187c0.586,0.071,0.9-0.076,1.106-0.483
		C257.844,303.739,257.727,303.259,257.371,302.994z"/>
	<g enable-background="new    ">
		<path d="M161.981,343.11v11.218h4.393v1.332h-6.032v-12.55H161.981z"/>
		<path d="M172.422,355.822c-2.791,0-4.916-1.98-4.916-5.113c0-3.115,2.196-5.078,4.987-5.078c2.809,0,4.987,1.963,4.987,5.078
			C177.481,353.842,175.231,355.822,172.422,355.822z M172.422,354.382c1.71,0,3.385-1.171,3.385-3.673
			c0-2.485-1.639-3.655-3.331-3.655c-1.729,0-3.295,1.17-3.295,3.655C169.181,353.211,170.711,354.382,172.422,354.382z"/>
		<path d="M180.233,345.793l3.079,8.354l3.061-8.354h1.747l-3.872,9.867h-1.908l-3.872-9.867H180.233z"/>
		<path d="M194.004,355.822c-2.809,0-4.879-1.98-4.879-5.113c0-3.115,1.999-5.078,4.879-5.078c2.863,0,4.735,2.017,4.735,4.718
			c0,0.36-0.018,0.648-0.054,0.99h-7.886c0.126,1.999,1.53,3.097,3.205,3.097c1.476,0,2.413-0.756,2.773-1.818h1.764
			C198.037,354.418,196.453,355.822,194.004,355.822z M190.817,350.007h6.23c0.018-1.927-1.422-2.989-3.115-2.989
			C192.329,347.017,190.997,348.08,190.817,350.007z"/>
		<path d="M219.945,350.078c0-2.017-1.081-3.043-2.701-3.043c-1.656,0-2.791,1.063-2.791,3.188v5.438h-1.621v-5.582
			c0-2.017-1.081-3.043-2.701-3.043c-1.657,0-2.791,1.063-2.791,3.188v5.438h-1.639v-9.867h1.639v1.423
			c0.648-1.045,1.818-1.603,3.115-1.603c1.621,0,2.971,0.72,3.619,2.196c0.576-1.422,1.98-2.196,3.493-2.196
			c2.25,0,3.997,1.404,3.997,4.231v5.815h-1.62V350.078z"/>
		<path d="M228.545,355.822c-2.791,0-4.915-1.98-4.915-5.113c0-3.115,2.196-5.078,4.987-5.078c2.809,0,4.987,1.963,4.987,5.078
			C233.604,353.842,231.354,355.822,228.545,355.822z M228.545,354.382c1.711,0,3.385-1.171,3.385-3.673
			c0-2.485-1.639-3.655-3.331-3.655c-1.729,0-3.295,1.17-3.295,3.655C225.305,353.211,226.835,354.382,228.545,354.382z"/>
		<path d="M236.356,345.793l3.079,8.354l3.062-8.354h1.746l-3.871,9.867h-1.908l-3.871-9.867H236.356z"/>
		<path d="M250.128,355.822c-2.81,0-4.88-1.98-4.88-5.113c0-3.115,1.999-5.078,4.88-5.078c2.862,0,4.734,2.017,4.734,4.718
			c0,0.36-0.018,0.648-0.054,0.99h-7.886c0.125,1.999,1.529,3.097,3.205,3.097c1.477,0,2.412-0.756,2.771-1.818h1.766
			C254.161,354.418,252.576,355.822,250.128,355.822z M246.94,350.007h6.23c0.018-1.927-1.424-2.989-3.115-2.989
			C248.452,347.017,247.12,348.08,246.94,350.007z"/>
		<path d="M260.513,355.822c-2.305,0-3.925-1.261-4.033-3.061h1.693c0.09,0.954,0.936,1.674,2.322,1.674
			c1.297,0,2.017-0.648,2.017-1.458c0-2.197-5.833-0.919-5.833-4.592c0-1.513,1.422-2.755,3.619-2.755
			c2.178,0,3.619,1.171,3.727,3.098h-1.639c-0.072-0.99-0.828-1.711-2.143-1.711c-1.207,0-1.927,0.576-1.927,1.368
			c0,2.341,5.726,1.063,5.798,4.592C264.114,354.597,262.692,355.822,260.513,355.822z"/>
		<path d="M277.974,344.442h-5.113v4.195h4.573v1.351h-4.573v4.321h5.113v1.351h-6.752v-12.567h6.752V344.442z"/>
		<path d="M281.05,345.793l3.079,8.354l3.062-8.354h1.746l-3.871,9.867h-1.908l-3.871-9.867H281.05z"/>
		<path d="M294.821,355.822c-2.81,0-4.88-1.98-4.88-5.113c0-3.115,1.999-5.078,4.88-5.078c2.862,0,4.734,2.017,4.734,4.718
			c0,0.36-0.018,0.648-0.054,0.99h-7.886c0.125,1.999,1.529,3.097,3.205,3.097c1.477,0,2.412-0.756,2.771-1.818h1.766
			C298.854,354.418,297.27,355.822,294.821,355.822z M291.634,350.007h6.23c0.018-1.927-1.424-2.989-3.115-2.989
			C293.145,347.017,291.813,348.08,291.634,350.007z"/>
		<path d="M303.353,355.66h-1.639v-9.867h1.639v1.603c0.558-1.099,1.62-1.782,3.187-1.782v1.692h-0.433
			c-1.566,0-2.754,0.702-2.754,2.989V355.66z"/>
		<path d="M315.233,345.793h1.691l-5.941,14.513h-1.692l1.944-4.754l-3.979-9.759h1.818l3.097,7.994L315.233,345.793z"/>
		<path d="M318.921,347.143h-1.278v-1.351h1.278v-2.484h1.639v2.484h2.574v1.351h-2.574v5.815c0,0.973,0.359,1.314,1.368,1.314
			h1.206v1.387h-1.477c-1.746,0-2.736-0.721-2.736-2.701V347.143z"/>
		<path d="M325.112,342.336h1.639v4.88c0.648-1.045,1.873-1.603,3.26-1.603c2.196,0,3.943,1.404,3.943,4.231v5.815h-1.621v-5.582
			c0-2.017-1.098-3.043-2.755-3.043c-1.675,0-2.827,1.045-2.827,3.169v5.456h-1.639V342.336z"/>
		<path d="M336.362,343.074c0-0.63,0.486-1.116,1.117-1.116c0.594,0,1.08,0.486,1.08,1.116c0,0.631-0.486,1.116-1.08,1.116
			C336.849,344.19,336.362,343.705,336.362,343.074z M336.633,345.793h1.639v9.867h-1.639V345.793z"/>
		<path d="M348.28,350.078c0-2.017-1.098-3.043-2.754-3.043c-1.675,0-2.827,1.045-2.827,3.169v5.456h-1.639v-9.867h1.639v1.404
			c0.647-1.026,1.837-1.584,3.169-1.584c2.287,0,4.033,1.404,4.033,4.231v5.815h-1.621V350.078z"/>
		<path d="M356.649,345.631c1.801,0,3.098,0.9,3.674,1.963v-1.801h1.656v10.083c0,2.719-1.818,4.646-4.717,4.646
			c-2.594,0-4.447-1.314-4.771-3.421h1.62c0.36,1.188,1.53,1.999,3.151,1.999c1.746,0,3.061-1.117,3.061-3.224v-2.07
			c-0.594,1.063-1.873,2.017-3.674,2.017c-2.646,0-4.681-2.07-4.681-5.132C351.969,347.611,354.003,345.631,356.649,345.631z
			 M356.974,347.053c-1.801,0-3.33,1.314-3.33,3.637c0,2.323,1.529,3.691,3.33,3.691s3.35-1.351,3.35-3.673
			C360.323,348.422,358.774,347.053,356.974,347.053z"/>
	</g>
	<rect id="Rectangle_18" x="259.758" y="310.276" width="9.298" height="18.1"/>
	
		<linearGradient id="Path_189_1_" gradientUnits="userSpaceOnUse" x1="-41.2852" y1="726.0544" x2="-40.2847" y2="726.0544" gradientTransform="matrix(6.557 0 0 -18.1 530.4641 13460.9229)">
		<stop  offset="0" style="stop-color:#0098FF"/>
		<stop  offset="1" style="stop-color:#0098FF"/>
	</linearGradient>
	<path id="Path_189" fill="url(#Path_189_1_)" d="M259.757,310.28v18.1l6.558-2.555v-12.838L259.757,310.28z"/>
	<ellipse id="Ellipse_6" cx="265.448" cy="318.708" rx="0.423" ry="0.706"/>
	<path id="Path_190" d="M257.529,330.087h9.548l1.979-0.399h-9.548L257.529,330.087z"/>
	<path id="Path_191" d="M257.504,331.667l-1.979,0.71h9.545l1.979-0.71"/>
	<path id="Path_192" d="M255.396,333.977l-1.979,0.731h9.548l1.979-0.731"/>
	<g id="Group_46" transform="translate(97.197 343.633)">
		<g id="Group_45">
			
				<linearGradient id="Path_193_1_" gradientUnits="userSpaceOnUse" x1="-161.1384" y1="372.4918" x2="-162.1384" y2="372.4918" gradientTransform="matrix(62.5886 0 0 -12.0805 10148.0078 4505.9097)">
				<stop  offset="0" style="stop-color:#0098FF"/>
				<stop  offset="1" style="stop-color:#00489A"/>
			</linearGradient>
			<path id="Path_193" fill="url(#Path_193_1_)" d="M62.385,0c0,0-8.777,0.219-10.679,0.22c-1.392,0-36.939-0.025-38.301,0.008
				c-0.844,0.021-2.157-0.251-2.199,0.55s35.447,0.569,36.309,0.605c0.572,0.024,1.145,0.046,1.091,0.476
				C48.563,2.251,47.99,2.217,47.5,2.219H18.095c-0.783,0-1.746-0.064-1.771,0.565c-0.025,0.63,0.905,0.601,1.721,0.601
				c2.3-0.006,29.015,0,31.311,0c0.591,0,1.291-0.028,1.253,0.462c-0.03,0.438-0.686,0.389-1.22,0.39c-3.08,0-35.463,0-38.545,0
				c-0.88,0-1.76,0.006-2.637,0c-0.711-0.006-1.324,0.101-1.35,0.564c-0.031,0.526,0.648,0.619,1.4,0.61c0.341,0,0.686,0,1.028,0
				c5.475,0,40.252,0,45.726,0c0.718,0,1.481,0,1.523,0.536c0.044,0.59-0.747,0.62-1.53,0.62c-2.74,0-20.125,0-22.866,0
				c-0.781,0-1.735-0.066-1.761,0.57c-0.026,0.637,0.923,0.593,1.71,0.594c2.2,0,19.051,0,21.251,0c0.604,0,1.457-0.1,1.427,0.444
				s-0.894,0.394-1.483,0.399C52.308,8.594,2.493,8.586,1.513,8.582c-0.8,0-1.554,0.065-1.514,0.642
				c0.039,0.537,0.813,0.543,1.52,0.544c2.4,0,53.626,0,56.022,0.01c0.786,0,1.733-0.044,1.692,0.608
				c-0.034,0.6-0.934,0.524-1.666,0.525c-4.35,0-33.118,0-37.472,0c-0.39-0.014-0.78-0.007-1.169,0.02
				c-0.512,0.054-0.937,0.218-0.927,0.548c0.012,0.354,0.379,0.564,1.009,0.591c0.386,0.018,0.779,0.01,1.17,0.01
				c8.8,0,33.608,0.007,42.407-0.01C62.589,10.54,62.385,0,62.385,0z"/>
			
				<linearGradient id="Path_194_1_" gradientUnits="userSpaceOnUse" x1="-125.4485" y1="102.0211" x2="-126.448" y2="102.0211" gradientTransform="matrix(4.5053 0 0 -1.2012 593.5748 129.7073)">
				<stop  offset="0" style="stop-color:#0098FF"/>
				<stop  offset="1" style="stop-color:#00489A"/>
			</linearGradient>
			<path id="Path_194" fill="url(#Path_194_1_)" d="M28.385,7.184c0.046-0.883-1.371-0.523-2.225-0.626
				c-0.867,0.1-2.301-0.251-2.279,0.6c0.017,0.834,1.427,0.556,2.307,0.56C27.023,7.721,28.347,7.976,28.385,7.184z"/>
			
				<linearGradient id="Path_195_1_" gradientUnits="userSpaceOnUse" x1="-110.0457" y1="94.0953" x2="-111.0452" y2="94.0953" gradientTransform="matrix(3.2169 0 0 -1.1703 364.2524 110.9258)">
				<stop  offset="0" style="stop-color:#0098FF"/>
				<stop  offset="1" style="stop-color:#00489A"/>
			</linearGradient>
			<path id="Path_195" fill="url(#Path_195_1_)" d="M8.571,1.388c0.813,0,1.7-0.018,1.682-0.618
				c-0.016-0.558-0.869-0.565-1.631-0.547c-0.752-0.02-1.561-0.019-1.585,0.559C7.011,1.359,7.806,1.385,8.571,1.388z"/>
		</g>
	</g>
</g>
</svg>
