<svg xmlns="http://www.w3.org/2000/svg" xmlns:xlink="http://www.w3.org/1999/xlink" width="265.186" height="71.346" viewBox="0 0 265.186 71.346">
  <defs>
    <linearGradient id="linear-gradient" y1="0.5" x2="1" y2="0.5" gradientUnits="objectBoundingBox">
      <stop offset="0" stop-color="#0098ff"/>
      <stop offset="1" stop-color="#00489a"/>
    </linearGradient>
    <linearGradient id="linear-gradient-3" y1="0.5" x2="1" y2="0.5" gradientUnits="objectBoundingBox">
      <stop offset="0" stop-color="#0098ff"/>
      <stop offset="1" stop-color="#0098ff"/>
    </linearGradient>
    <linearGradient id="linear-gradient-4" x1="1" y1="0.5" x2="0" y2="0.5" xlink:href="#linear-gradient"/>
    <linearGradient id="linear-gradient-5" x1="1" y1="0.5" x2="0" y2="0.5" xlink:href="#linear-gradient"/>
    <linearGradient id="linear-gradient-6" x1="1" y1="0.5" x2="0" y2="0.5" xlink:href="#linear-gradient"/>
  </defs>
  <g id="Group_47" data-name="Group 47" transform="translate(-97.197 -290.314)">
    <g id="Group_44" data-name="Group 44" transform="translate(224.126 305.551)">
      <path id="Path_179" data-name="Path 179" d="M214.55,332.9h-25.9a16.2,16.2,0,0,1,2.7-7.217q2.257-3.383,8.468-7.981a25.135,25.135,0,0,0,4.854-4.283,4.8,4.8,0,0,0,1.06-2.776,3.251,3.251,0,0,0-1.051-2.429,4,4,0,0,0-5.339.033,6.367,6.367,0,0,0-1.41,3.667l-8.651-.7a13.821,13.821,0,0,1,1.867-5.692,8.655,8.655,0,0,1,3.827-3.137,17.323,17.323,0,0,1,6.837-1.092,19.306,19.306,0,0,1,7.09,1.038,8.655,8.655,0,0,1,3.986,3.191,8.427,8.427,0,0,1,1.45,4.823,9.868,9.868,0,0,1-1.663,5.427,22.849,22.849,0,0,1-6.051,5.681q-2.609,1.8-3.488,2.522t-2.067,1.886h13.48Z" transform="translate(-188.648 -301.292)" fill="#fff"/>
    </g>
    <path id="Path_180" data-name="Path 180" d="M132.314,301.675v8.564h4.75v6.315h-4.75v7.977a4.289,4.289,0,0,0,.276,1.906,1.582,1.582,0,0,0,1.482.718,9.568,9.568,0,0,0,2.672-.548l.636,5.954a28.071,28.071,0,0,1-5.976.7,10.445,10.445,0,0,1-4.748-.824,5.038,5.038,0,0,1-2.258-2.511,14.744,14.744,0,0,1-.731-5.45v-7.92h-3.18v-6.315h3.18V306.1Z" transform="translate(9.035 4.407)" fill="#fff"/>
    <path id="Path_181" data-name="Path 181" d="M134.628,319.306a11.259,11.259,0,0,1,3.477-8.489q3.477-3.339,9.389-3.341,6.762,0,10.218,3.924a12.253,12.253,0,0,1-.668,16.289q-3.444,3.319-9.528,3.319a13.362,13.362,0,0,1-8.775-2.756A11.057,11.057,0,0,1,134.628,319.306Zm8.648-.021a6.786,6.786,0,0,0,1.22,4.451,4,4,0,0,0,6.126.021,7.027,7.027,0,0,0,1.2-4.557,6.643,6.643,0,0,0-1.208-4.357,3.77,3.77,0,0,0-2.991-1.43,3.9,3.9,0,0,0-3.115,1.45A6.711,6.711,0,0,0,143.276,319.286Z" transform="translate(14.521 6.658)" fill="#fff"/>
    <path id="Path_182" data-name="Path 182" d="M156.316,307.988h8.076v3.688a8.8,8.8,0,0,1,2.405-3.3,5.069,5.069,0,0,1,3.062-.9,9.122,9.122,0,0,1,4.178,1.188l-2.67,6.149a6.782,6.782,0,0,0-2.418-.637,2.982,2.982,0,0,0-2.629,1.4q-1.335,1.969-1.334,7.376V330.5h-8.67Z" transform="translate(22.935 6.658)" fill="#fff"/>
    <path id="Path_183" data-name="Path 183" d="M195.936,321.384h-17.3a5.6,5.6,0,0,0,1.123,3.1,4.1,4.1,0,0,0,3.266,1.462,4.891,4.891,0,0,0,2.416-.636,5.68,5.68,0,0,0,1.5-1.418l8.5.783a12.185,12.185,0,0,1-4.707,4.865q-2.756,1.474-7.907,1.474a16.2,16.2,0,0,1-7.037-1.26,10.358,10.358,0,0,1-4.251-4.007,12.111,12.111,0,0,1-1.684-6.455,11.339,11.339,0,0,1,3.381-8.543q3.379-3.264,9.337-3.266a16.626,16.626,0,0,1,7.631,1.463,9.864,9.864,0,0,1,4.261,4.242,15.48,15.48,0,0,1,1.463,7.227Zm-8.776-4.133a5.766,5.766,0,0,0-1.346-3.582,4.223,4.223,0,0,0-6.157.551,5.976,5.976,0,0,0-1,3.031Z" transform="translate(28.19 6.658)" fill="#fff"/>
    <path id="Path_184" data-name="Path 184" d="M209.881,301.675h14.265a17.082,17.082,0,0,1,6.815,1.144,11.085,11.085,0,0,1,4.293,3.285,13.61,13.61,0,0,1,2.459,4.983,23.075,23.075,0,0,1,.763,6.02,20.9,20.9,0,0,1-1.135,7.727,12.794,12.794,0,0,1-3.148,4.6,10.245,10.245,0,0,1-4.323,2.468,22.243,22.243,0,0,1-5.724.849H209.881Z" transform="translate(43.715 4.407)" fill="url(#linear-gradient)"/>
    <path id="Path_185" data-name="Path 185" d="M232.942,319.306a11.259,11.259,0,0,1,3.477-8.489q3.477-3.339,9.391-3.341,6.762,0,10.217,3.924a12.259,12.259,0,0,1-.666,16.289q-3.446,3.319-9.53,3.319a13.366,13.366,0,0,1-8.776-2.756A11.064,11.064,0,0,1,232.942,319.306Zm8.65-.021a6.786,6.786,0,0,0,1.22,4.451,3.994,3.994,0,0,0,6.125.021,7.027,7.027,0,0,0,1.2-4.557,6.643,6.643,0,0,0-1.208-4.357,3.766,3.766,0,0,0-2.988-1.43,3.9,3.9,0,0,0-3.116,1.45A6.719,6.719,0,0,0,241.592,319.286Z" transform="translate(52.661 6.658)" fill="#fff"/>
    <path id="Path_186" data-name="Path 186" d="M253.805,319.306a11.264,11.264,0,0,1,3.477-8.489q3.477-3.339,9.391-3.341,6.76,0,10.217,3.924a12.261,12.261,0,0,1-.668,16.289q-3.443,3.319-9.528,3.319a13.366,13.366,0,0,1-8.776-2.756A11.064,11.064,0,0,1,253.805,319.306Zm8.648-.021a6.794,6.794,0,0,0,1.219,4.451,4,4,0,0,0,6.126.021A7.027,7.027,0,0,0,271,319.2a6.651,6.651,0,0,0-1.208-4.357,3.768,3.768,0,0,0-2.988-1.43,3.907,3.907,0,0,0-3.117,1.45A6.727,6.727,0,0,0,262.453,319.286Z" transform="translate(60.755 6.658)" fill="#fff"/>
    <path id="Path_187" data-name="Path 187" d="M275.492,307.988h8.076v3.688a8.8,8.8,0,0,1,2.407-3.3,5.068,5.068,0,0,1,3.063-.9,9.117,9.117,0,0,1,4.176,1.188l-2.672,6.149a6.791,6.791,0,0,0-2.415-.637,2.98,2.98,0,0,0-2.63,1.4q-1.334,1.969-1.337,7.376V330.5h-8.669Z" transform="translate(69.168 6.658)" fill="#fff"/>
    <path id="Path_188" data-name="Path 188" d="M257.011,302.994q-3.323-3.341-6.657-6.676a.912.912,0,1,0-1.271,1.3c.328.33.663.651,1,.979q.9.883,1.792,1.771c-8.258-2.991-32.37-10.054-75.772-10.054-21.631,0-37.567,2.167-55.058,7.462-12.679,3.839-19.434,10.923-20.36,12.344a8.142,8.142,0,0,0-1.388,4.526,7.59,7.59,0,0,0,2.712,6q2.694,2.353,9.011,3.774,3.858.845,4.917,1.8a2.852,2.852,0,0,1,1.06,2.161,2.886,2.886,0,0,1-1.115,2.236,4.693,4.693,0,0,1-3.169.966,5.079,5.079,0,0,1-4.24-1.886,7,7,0,0,1-1.208-3.394l-9.137.573a12.036,12.036,0,0,0,3.456,7.759q3.052,3.052,10.98,3.052a18.682,18.682,0,0,0,7.484-1.3,10.345,10.345,0,0,0,4.62-3.828,9.848,9.848,0,0,0,1.653-5.512,8.718,8.718,0,0,0-1.239-4.6A9.478,9.478,0,0,0,121.116,319a40.221,40.221,0,0,0-9.022-2.745,7.871,7.871,0,0,1-3.22-1.144,1.733,1.733,0,0,1-.7-1.337c0-4.243,6.987-8.719,16.9-11.464,26.944-7.46,37.6-7.389,55.773-7.816,37.956-.884,63.183,5.631,69.633,7.514.486.182.877.328,1.034.383-.01.037-.019.074-.028.11-.652.008-1.3.007-1.954.025-.928.031-1.86.055-2.787.111a.905.905,0,0,0,.062,1.81c.1,0,.2-.01.3-.012a55.06,55.06,0,0,1,9.076.187c.586.071.9-.076,1.106-.484A.922.922,0,0,0,257.011,302.994Z" transform="translate(0.36)" fill-rule="evenodd" fill="url(#linear-gradient)"/>
    <text id="Love_moves_Everything" data-name="Love moves Everything" transform="translate(158.957 355.66)" fill="#fff" font-size="18" font-family="Poppins-ExtraLight, Poppins" font-weight="200"><tspan x="0" y="0">Love moves Everything</tspan></text>
    <rect id="Rectangle_18" data-name="Rectangle 18" width="9.298" height="18.1" transform="translate(259.758 310.276)"/>
    <path id="Path_189" data-name="Path 189" d="M214.32,304.7v18.1l6.557-2.555V307.407Z" transform="translate(45.437 5.58)" fill="url(#linear-gradient-3)"/>
    <ellipse id="Ellipse_6" data-name="Ellipse 6" cx="0.423" cy="0.706" rx="0.423" ry="0.706" transform="translate(265.025 318.002)"/>
    <path id="Path_190" data-name="Path 190" d="M212.715,319.082h9.548l1.979-.4h-9.548Z" transform="translate(44.814 11.005)"/>
    <path id="Path_191" data-name="Path 191" d="M213.25,320.108l-1.979.71h9.545l1.979-.71" transform="translate(44.254 11.559)"/>
    <path id="Path_192" data-name="Path 192" d="M211.731,321.773l-1.979.732H219.3l1.979-.732" transform="translate(43.665 12.204)"/>
    <g id="Group_46" data-name="Group 46" transform="translate(97.197 343.633)">
      <g id="Group_45" data-name="Group 45">
        <path id="Path_193" data-name="Path 193" d="M159.582,328.73s-8.777.218-10.679.219c-1.391,0-36.939-.025-38.3.008-.844.021-2.158-.251-2.2.55s35.448.569,36.309.605c.572.025,1.144.046,1.091.476-.043.393-.616.359-1.106.361H115.292c-.783,0-1.746-.064-1.771.566s.906.6,1.721.6c2.3-.006,29.015,0,31.311,0,.591,0,1.291-.028,1.253.462-.031.439-.686.389-1.22.39-3.08,0-35.463,0-38.545,0-.88,0-1.76.006-2.637,0-.711-.006-1.324.1-1.349.564-.032.527.648.619,1.4.611.341,0,.686,0,1.028,0,5.475,0,40.252,0,45.726,0,.718,0,1.481,0,1.523.536.044.59-.747.62-1.53.62-2.74,0-20.125,0-22.866,0-.781,0-1.735-.067-1.761.57s.923.593,1.71.594c2.2,0,19.051,0,21.251,0,.605,0,1.457-.1,1.427.444s-.894.394-1.484.4c-.974.018-50.789.01-51.769.006-.8,0-1.554.065-1.514.641.039.537.813.543,1.52.544,2.4,0,53.626,0,56.022.01.786,0,1.734-.044,1.693.608-.035.6-.934.525-1.666.526-4.35,0-33.119,0-37.472,0a11.263,11.263,0,0,0-1.169.019c-.512.054-.937.218-.927.548.012.354.379.564,1.009.591.386.017.779.01,1.17.01,8.8,0,33.608.006,42.407-.01C159.786,339.27,159.582,328.73,159.582,328.73Z" transform="translate(-97.197 -328.73)" fill="url(#linear-gradient-4)"/>
        <path id="Path_194" data-name="Path 194" d="M118.907,334.081c.046-.883-1.371-.523-2.225-.626-.867.1-2.3-.251-2.279.6.017.834,1.427.555,2.307.559C117.545,334.618,118.869,334.873,118.907,334.081Z" transform="translate(-90.522 -326.897)" fill="url(#linear-gradient-5)"/>
        <path id="Path_195" data-name="Path 195" d="M103.8,330.057c.812,0,1.7-.017,1.681-.618-.015-.558-.869-.565-1.631-.547-.752-.019-1.56-.018-1.585.559S103.035,330.054,103.8,330.057Z" transform="translate(-95.229 -328.669)" fill="url(#linear-gradient-6)"/>
      </g>
    </g>
  </g>
</svg>
