<?xml version="1.0" encoding="utf-8"?>
<!-- Generator: Adobe Illustrator 16.0.0, SVG Export Plug-In . SVG Version: 6.00 Build 0)  -->
<!DOCTYPE svg PUBLIC "-//W3C//DTD SVG 1.1//EN" "http://www.w3.org/Graphics/SVG/1.1/DTD/svg11.dtd">
<svg version="1.1" id="Layer_1" xmlns="http://www.w3.org/2000/svg" xmlns:xlink="http://www.w3.org/1999/xlink" x="0px" y="0px"
	 width="88.604px" height="73.255px" viewBox="0 0 88.604 73.255" enable-background="new 0 0 88.604 73.255" xml:space="preserve">
<g>
	<circle fill="#00A2FF" cx="36.627" cy="36.628" r="36.627"/>
</g>
<g>
	<path fill="#FFFFFF" d="M36.649,73.131c-20.149,0-36.542-16.393-36.542-36.542C0.107,16.44,16.5,0.047,36.649,0.047
		c20.149,0,36.542,16.393,36.542,36.542V64.21h-8.235V36.589c0-15.608-12.698-28.307-28.307-28.307S8.342,20.981,8.342,36.589
		c0,15.608,12.698,28.308,28.307,28.308V73.131z"/>
</g>
<g>
	<polygon fill="#FFFFFF" points="69.073,69.025 49.542,49.493 55.365,43.671 69.073,57.379 82.781,43.671 88.604,49.493 	"/>
</g>
<g>
	<path fill="#FFFFFF" d="M34.522,51.887v-3.81c-2.687-0.121-5.293-0.842-6.817-1.725l1.203-4.691
		c1.684,0.922,4.05,1.765,6.657,1.765c2.286,0,3.85-0.883,3.85-2.486c0-1.525-1.283-2.486-4.251-3.49
		c-4.291-1.442-7.218-3.448-7.218-7.338c0-3.529,2.486-6.296,6.778-7.138v-3.81h3.93v3.529c2.687,0.12,4.491,0.682,5.814,1.323
		l-1.163,4.532c-1.043-0.441-2.888-1.364-5.775-1.364c-2.606,0-3.448,1.123-3.448,2.246c0,1.324,1.403,2.166,4.812,3.449
		c4.772,1.684,6.697,3.89,6.697,7.499c0,3.569-2.526,6.617-7.138,7.419v4.091H34.522z"/>
</g>
<g>
</g>
<g>
</g>
<g>
</g>
<g>
</g>
<g>
</g>
<g>
</g>
</svg>
