<svg xmlns="http://www.w3.org/2000/svg" width="72" height="72" viewBox="0 0 72 72">
  <g id="Group_299" data-name="Group 299" transform="translate(-221 -2534)">
    <path id="Path_196" data-name="Path 196" d="M0,0H23V29H0Z" transform="translate(246 2542)" fill="#00a2ff"/>
    <path id="discount" d="M71.839,35.193a2.109,2.109,0,0,0-1.949-1.3H56.184V2.109A2.109,2.109,0,0,0,54.075,0H17.925a2.109,2.109,0,0,0-2.109,2.109V33.89H2.109a2.109,2.109,0,0,0-1.491,3.6l33.89,33.89a2.109,2.109,0,0,0,2.983,0l33.89-33.89A2.109,2.109,0,0,0,71.839,35.193ZM27.113,13.406a2.109,2.109,0,1,1,4.219,0v2.259a2.109,2.109,0,0,1-4.219,0Zm3.8,19.341a2.109,2.109,0,0,1-3.375-2.531L41.091,12.141a2.109,2.109,0,0,1,3.375,2.531Zm13.978-1.266a2.109,2.109,0,0,1-4.219,0V29.222a2.109,2.109,0,0,1,4.219,0Z" transform="translate(221 2534)" fill="#fff"/>
  </g>
</svg>
