<svg id="outline" xmlns="http://www.w3.org/2000/svg" xmlns:xlink="http://www.w3.org/1999/xlink" width="50.749" height="45.985" viewBox="0 0 50.749 45.985">
  <defs>
    <linearGradient id="linear-gradient" x1="0.5" x2="0.5" y2="1" gradientUnits="objectBoundingBox">
      <stop offset="0" stop-color="#0a4bff"/>
      <stop offset="1" stop-color="#7d46ff"/>
    </linearGradient>
  </defs>
  <path id="Path_252" data-name="Path 252" d="M15.876,92.6l14.459,12.588a.938.938,0,0,0,1.255-.02l2.265-2.1,4.551,4.551a.937.937,0,0,0,.367.227l6.274,2.091a.938.938,0,0,0,.587,0L55.28,106.8a.939.939,0,0,0,.583-.549l1.049-2.665,6.106-.055a3.288,3.288,0,0,0,3.285-3.285V67.285A3.288,3.288,0,0,0,63.018,64H28.295a3.288,3.288,0,0,0-3.285,3.285V83.663l-.434-.347L17.289,71.638a.938.938,0,0,0-1.735.5V91.9a.938.938,0,0,0,.322.708Zm38.4,12.55-8.931,2.9-5.771-1.924L35.244,101.8l4.574-4.27,3.191.8,6.009,1.717a.85.85,0,0,1-.233,1.667H44.777a.938.938,0,1,0,0,1.877H54.893ZM40.964,65.877h9.385V76.559l-4.273-2.136a.938.938,0,0,0-.839,0l-4.273,2.136ZM26.887,67.285a1.409,1.409,0,0,1,1.408-1.408H39.087v12.2a.938.938,0,0,0,1.358.839l5.211-2.606,5.211,2.606a.938.938,0,0,0,1.358-.839v-12.2H63.018a1.409,1.409,0,0,1,1.408,1.408v32.964a1.411,1.411,0,0,1-1.416,1.408l-11.635.06a2.725,2.725,0,0,0-1.842-3.472L43.51,96.524l-.015,0-.015,0-3.5-.879L26.887,85.165Zm-9.456,8.126,5.638,9.035a.937.937,0,0,0,.21.236L38.115,96.551l-7.184,6.671-13.5-11.754" transform="translate(-15.554 -64)" fill="url(#linear-gradient)"/>
  <path id="Path_253" data-name="Path 253" d="M219.976,222.631h7.508a2.815,2.815,0,0,0,0-5.631h-7.508a2.815,2.815,0,0,0,0,5.631Zm0-3.754h7.508a.938.938,0,1,1,0,1.877h-7.508a.938.938,0,0,1,0-1.877Z" transform="translate(-193.511 -199.052)" fill="url(#linear-gradient)"/>
  <path id="Path_254" data-name="Path 254" d="M338.1,298.385h7.508a.938.938,0,0,0,.938-.938v-7.508a.938.938,0,0,0-.938-.938H338.1a.938.938,0,0,0-.938.938v7.508A.938.938,0,0,0,338.1,298.385Zm.938-7.508h5.631v5.631h-5.631Z" transform="translate(-299.434 -262.605)" fill="url(#linear-gradient)"/>
  <path id="Path_255" data-name="Path 255" d="M128.938,111a.938.938,0,0,0-.938.938v.938a.938.938,0,0,0,1.877,0v-.938A.938.938,0,0,0,128.938,111Z" transform="translate(-114.809 -105.486)" fill="url(#linear-gradient)"/>
  <path id="Path_256" data-name="Path 256" d="M128.938,143a.938.938,0,0,0-.938.938v3.754a.938.938,0,0,0,1.877,0v-3.754A.938.938,0,0,0,128.938,143Z" transform="translate(-114.809 -133.733)" fill="url(#linear-gradient)"/>
</svg>
