<svg xmlns="http://www.w3.org/2000/svg" width="61.516" height="63.058" viewBox="0 0 61.516 63.058">
  <g id="box_1_" data-name="box (1)" transform="translate(0)">
    <path id="Path_499" data-name="Path 499" d="M35.558,0,50.905,7.9l15.411,7.834-15.411,7.9-15.347,7.9-15.347-7.9L4.8,15.732,20.211,7.9Z" transform="translate(-4.8)" fill="#d9ac80"/>
    <path id="Path_500" data-name="Path 500" d="M275.706,142.328V135.2L268,139.117v7.128l4.238-5.2Z" transform="translate(-225.748 -113.496)" fill="#d7baa4"/>
    <path id="Path_501" data-name="Path 501" d="M196.4,113.8v31.529l30.758-15.732V98L215.6,103.972l-.257.128v6.935l-3.211-1.22-4.238,5.2v-7.128Z" transform="translate(-165.642 -82.268)" fill="#a67e4f"/>
    <path id="Path_502" data-name="Path 502" d="M35.558,145.325V113.8l-15.347-7.9L4.8,98v31.593Z" transform="translate(-4.8 -82.268)" fill="#926e43"/>
    <path id="Path_503" data-name="Path 503" d="M76.8,40.717l30.694,15.8,7.449-3.789.257-.128L84.506,36.8l-3.853,1.991Z" transform="translate(-65.242 -30.892)" fill="#f2d3ba"/>
  </g>
</svg>
