<svg xmlns="http://www.w3.org/2000/svg" width="72.318" height="72" viewBox="0 0 72.318 72">
  <g id="Group_300" data-name="Group 300" transform="translate(-1107.578 -2534)">
    <g id="package" transform="translate(1107.578 2534)">
      <path id="Path_107" data-name="Path 107" d="M191.949,17.345l14.073-5.134L172.12,0l-13.8,4.969L192,17.208Zm0,0" transform="translate(-135.961 0)" fill="#fff"/>
      <path id="Path_108" data-name="Path 108" d="M32.549,51.066,19.117,55.9,52.585,68.428l13.841-5.05Zm0,0" transform="translate(-16.417 -43.853)" fill="#fff"/>
      <path id="Path_111" data-name="Path 111" d="M0,153.288l34.04,12.261V122.933L0,110.2Zm0,0" transform="translate(0 -94.63)" fill="#fff"/>
      <path id="Path_113" data-name="Path 113" d="M34.04,153.288,0,165.549V122.933L34.04,110.2Zm0,0" transform="translate(38 -95.63)" fill="#fff"/>
      <path id="Path_112" data-name="Path 112" d="M309.959,292.352A15.353,15.353,0,1,0,325.312,307.7,15.353,15.353,0,0,0,309.959,292.352Z" transform="translate(-252.994 -251.058)" fill="#00a2ff"/>
    </g>
    <path id="check" d="M6.521,13.374a.869.869,0,0,1-1.229,0L.382,8.464a1.3,1.3,0,0,1,0-1.844L1,6.005a1.3,1.3,0,0,1,1.844,0L5.906,9.07,14.188.788a1.3,1.3,0,0,1,1.844,0l.615.615a1.3,1.3,0,0,1,0,1.844Zm0,0" transform="translate(1156.688 2583.288)" fill="#fff"/>
  </g>
</svg>
