<?xml version="1.0" encoding="utf-8"?>
<!-- Generator: Adobe Illustrator 16.0.0, SVG Export Plug-In . SVG Version: 6.00 Build 0)  -->
<!DOCTYPE svg PUBLIC "-//W3C//DTD SVG 1.1//EN" "http://www.w3.org/Graphics/SVG/1.1/DTD/svg11.dtd">
<svg version="1.1" id="Layer_1" xmlns="http://www.w3.org/2000/svg" xmlns:xlink="http://www.w3.org/1999/xlink" x="0px" y="0px"
	 width="438.811px" height="576.702px" viewBox="78.351 132.594 438.811 576.702"
	 enable-background="new 78.351 132.594 438.811 576.702" xml:space="preserve">
<g>
	<g>
		<path stroke="#000000" stroke-width="7" stroke-miterlimit="10" d="M476.224,352.697h-20.928v-58.831
			c0-86.967-70.689-157.772-157.656-157.772S139.984,206.9,139.984,293.75v58.831h-20.812c-20.579,0-37.321,16.742-37.321,37.321
			v278.572c0,20.579,16.742,37.321,37.321,37.321H476.34c20.579,0,37.321-16.742,37.321-37.321V389.902
			C513.545,369.439,496.803,352.697,476.224,352.697L476.224,352.697z M187.42,293.75c0-60.807,49.413-110.22,110.22-110.22
			s110.22,49.413,110.22,110.22v58.714H187.42V293.75L187.42,293.75z M465.992,658.359H129.287V400.134h336.821v258.226H465.992z"/>
		<path stroke="#000000" stroke-width="7" stroke-miterlimit="10" d="M297.64,622.898c13.138,0,23.718-10.58,23.718-23.718v-61.156
			c0-13.138-10.58-23.718-23.718-23.718s-23.718,10.58-23.718,23.718v61.156C273.922,612.202,284.502,622.898,297.64,622.898z"/>
	</g>
</g>
</svg>
