<?xml version="1.0" encoding="utf-8"?>
<!-- Generator: Adobe Illustrator 16.0.0, SVG Export Plug-In . SVG Version: 6.00 Build 0)  -->
<!DOCTYPE svg PUBLIC "-//W3C//DTD SVG 1.1//EN" "http://www.w3.org/Graphics/SVG/1.1/DTD/svg11.dtd">
<svg version="1.1" id="Layer_1" xmlns="http://www.w3.org/2000/svg" xmlns:xlink="http://www.w3.org/1999/xlink" x="0px" y="0px"
	 width="15.125px" height="24px" viewBox="0 0 15.125 24" enable-background="new 0 0 15.125 24" xml:space="preserve">
<g id="phone" transform="translate(-71.6)">
	<g id="Group_31" transform="translate(71.6)">
		<path id="Path_128" d="M14.455,0.672L14.455,0.672C14.029,0.243,13.449,0.001,12.845,0H2.276C1.021,0.004,0.004,1.021,0,2.276
			v19.445C0.004,22.977,1.02,23.994,2.276,24h10.572c1.255-0.006,2.271-1.021,2.276-2.275V2.278
			C15.123,1.675,14.882,1.097,14.455,0.672z M7.562,22.455L7.562,22.455c-0.34,0-0.615-0.275-0.615-0.615s0.275-0.615,0.615-0.615
			S8.177,21.5,8.177,21.84l0,0C8.177,22.18,7.902,22.455,7.562,22.455z M13.317,18.595c0,0.822-0.666,1.488-1.487,1.488H3.293
			C2.471,20.086,1.803,19.422,1.8,18.6c0-0.002,0-0.003,0-0.005V4.1c0-0.822,0.667-1.488,1.488-1.488h8.54
			c0.821-0.002,1.489,0.663,1.491,1.484c0,0.001,0,0.002,0,0.004L13.317,18.595z"/>
	</g>
</g>
</svg>
