<svg height="512pt" viewBox="0 -80 512 512" width="512pt" xmlns="http://www.w3.org/2000/svg"><path d="m501.742188 145.371094-44.839844-14.949219-77.828125-77.828125c-2.8125-2.8125-6.628907-4.394531-10.605469-4.394531h-80.332031c-8.285157 0-15 6.714843-15 15v49.269531h-34.269531v-97.46875c0-8.285156-6.714844-15-15-15h-128.535157c-8.28125 0-15 6.714844-15 15v97.46875h-49.265625c-8.285156 0-15 6.714844-15 15v49.265625h-1.066406c-8.285156 0-15 6.714844-15 15v96.398437c0 8.285157 6.714844 15 15 15h35.015625c6.75 27.628907 31.703125 48.203126 61.382813 48.203126 29.679687 0 54.636718-20.574219 61.386718-48.203126h150.363282c6.753906 27.628907 31.707031 48.203126 61.386718 48.203126 29.679688 0 54.632813-20.574219 61.386719-48.203126h51.078125c8.285156 0 15-6.714843 15-15v-128.53125c0-6.457031-4.132812-12.191406-10.257812-14.230468zm-89.15625-16.839844h-61.25v-50.332031h10.917968zm-139.453126 48.203125h-98.53125v-34.265625h98.53125zm-162.800781-146.734375h98.535157v82.46875h-98.535157zm-64.265625 112.46875h98.535156v34.265625h-98.535156zm-16.066406 64.265625h243.132812v66.398437h-100.347656c-6.753906-27.628906-31.707031-48.199218-61.386718-48.199218-29.679688 0-54.632813 20.570312-61.386719 48.199218h-20.011719zm81.398438 114.601563c-18.304688 0-33.199219-14.894532-33.199219-33.203126 0-18.304687 14.894531-33.199218 33.199219-33.199218 18.308593 0 33.203124 14.894531 33.203124 33.199218 0 18.308594-14.894531 33.203126-33.203124 33.203126zm273.132812 0c-18.304688 0-33.199219-14.894532-33.199219-33.203126 0-18.304687 14.894531-33.199218 33.199219-33.199218 18.308594 0 33.203125 14.894531 33.203125 33.199218 0 18.308594-14.894531 33.203126-33.203125 33.203126zm97.46875-48.203126h-36.078125c-6.753906-27.628906-31.707031-48.199218-61.390625-48.199218-29.679688 0-54.632812 20.570312-61.382812 48.199218h-20.015626v-194.933593h18.199219v65.332031c0 8.285156 6.71875 15 15 15h110.03125l35.636719 11.878906zm0 0"/></svg>