<svg id="plane" xmlns="http://www.w3.org/2000/svg" width="51.082" height="50.271" viewBox="0 0 51.082 50.271">
  <path id="Path_450" data-name="Path 450" d="M403.942,213.712l-4.516,4.472L402,228.307l8.339-8.258Z" transform="translate(-359.26 -192.587)" fill="#2f374f"/>
  <path id="Path_451" data-name="Path 451" d="M158.354,1.58,150.1,9.756,160.231,12.4l4.523-4.48Z" transform="translate(-135.004 -1.58)" fill="#3b5a71"/>
  <path id="Path_452" data-name="Path 452" d="M3.127,286.406,0,289.5l11.4,7.283L17.8,285.5Z" transform="translate(0 -257.225)" fill="#4bb9ec"/>
  <path id="Path_453" data-name="Path 453" d="M107.963,335.308l7.275,11.336,3.127-3.1.917-14.53Z" transform="translate(-97.106 -296.411)" fill="#1982bf"/>
  <path id="Path_454" data-name="Path 454" d="M295.641,152.037l-11.5,12.3,14.409,22.988,5.537-5.483Z" transform="translate(-255.568 -137.054)" fill="#1982bf"/>
  <path id="Path_455" data-name="Path 455" d="M8.624,27.2,3.093,32.674,26.314,46.936,38.735,35.546Z" transform="translate(-2.782 -24.646)" fill="#4bb9ec"/>
  <path id="Path_456" data-name="Path 456" d="M133.079,4.427,94.326,42.8l-1.381-1.366,1.332-3.369a29.779,29.779,0,0,1,6.266-9.528L119.364,9.9a30.055,30.055,0,0,1,9.488-6.112l.348-.147a3.482,3.482,0,0,1,3.823.729Z" transform="translate(-83.598 -3.184)" fill="#edf5ff"/>
  <path id="Path_457" data-name="Path 457" d="M146.464,18.142a29.974,29.974,0,0,1-6.2,9.821l-18.843,18.66a30.651,30.651,0,0,1-9.725,6.1l-.057.024-3.344,1.3-1.624-1.608L145.428,14.06l.3.3A3.4,3.4,0,0,1,146.464,18.142Z" transform="translate(-95.948 -12.817)" fill="#d5e8fe"/>
</svg>
