<?xml version="1.0" encoding="utf-8"?>
<!-- Generator: Adobe Illustrator 16.0.0, SVG Export Plug-In . SVG Version: 6.00 Build 0)  -->
<!DOCTYPE svg PUBLIC "-//W3C//DTD SVG 1.1//EN" "http://www.w3.org/Graphics/SVG/1.1/DTD/svg11.dtd">
<svg version="1.1" xmlns="http://www.w3.org/2000/svg" xmlns:xlink="http://www.w3.org/1999/xlink" x="0px" y="0px"
	 width="2232.288px" height="1716.209px" viewBox="0 0 2232.288 1716.209" enable-background="new 0 0 2232.288 1716.209"
	 xml:space="preserve">
<g id="BG">
</g>
<g id="shadow">
	<rect x="1392.324" y="41.997" fill="#E6F6FF" width="839.964" height="785.454"/>
	<rect y="929.65" fill="#E6F6FF" width="565.565" height="508.242"/>
</g>
<g id="folder">
	<g>
		<path fill="#FFFFFF" d="M1283.637,532.082v-70.545c0-32.036,25.957-58.007,57.992-58.007h617.469
			c32.036,0,58.008,25.971,58.008,58.007v1247.029H419.896V532.082H1283.637z"/>
		<path fill="#0F4599" d="M1278.506,532.082v-70.545c0-32.036,25.957-58.007,57.992-58.007h617.469
			c32.036,0,58.007,25.971,58.007,58.007v1247.029H414.765V532.082H1278.506z"/>
		<polygon fill="#BAE2FF" points="1958.472,580.828 1958.472,1708.568 478.893,1708.568 478.893,575.286 		"/>
		<polygon fill="#1480CC" points="1877.238,580.828 1877.238,1708.568 397.659,1708.568 397.659,575.286 		"/>
		<path fill="#FFFFFF" d="M338.013,532.091h1461.716c30.005,0,52.097,20.303,56.409,48.375v1128.102H260.815l0.003-1099.48
			C260.456,568.57,297.023,532.091,338.013,532.091z"/>
		<g>
			<g>
				
					<rect x="875.09" y="302.8" transform="matrix(-1 -0.0028 0.0028 -1 2602.7417 1258.5094)" fill="#EBF3FF" width="854.324" height="649.265"/>
				
					<rect x="897.391" y="323.99" transform="matrix(-1 -0.0028 0.0028 -1 2603.6563 1248.5017)" fill="#3397FF" width="810.624" height="596.876"/>
				<polygon fill="#E3EEFF" points="1638.85,873.898 1117.917,872.439 1402.745,599.188 				"/>
				<polygon fill="#E3EEFF" points="1401.978,873.234 964.279,872.009 1201.785,646.174 				"/>
				<circle fill="#E3EEFF" cx="1240.048" cy="538.405" r="60.327"/>
			</g>
		</g>
		<g>
			<g>
				<polygon fill="#EBF3FF" points="760.556,873.095 1552.578,875.633 1554.449,186.855 762.427,184.317 				"/>
				<polygon fill="#3397FF" points="783.583,840.062 1530.629,842.47 1532.35,209.27 785.303,206.861 				"/>
			</g>
			<g>
				<rect x="1161.608" y="296.683" fill="#CCE5FF" width="297.524" height="26.139"/>
				<rect x="853.816" y="367.269" fill="#CCE5FF" width="605.318" height="26.139"/>
				<rect x="853.816" y="439.138" fill="#CCE5FF" width="605.318" height="26.139"/>
			</g>
		</g>
		<path fill="#66B8FF" d="M330.974,532.091H1792.69c30.004,0,52.096,20.303,56.409,48.375v1132.145H253.777l0.003-1103.523
			C253.417,568.57,289.984,532.091,330.974,532.091z"/>
		<rect x="1856.138" y="1702.079" fill="#FFFFFF" width="160.968" height="6.486"/>
		<polygon opacity="0.5" points="2017.105,1009.238 1958.472,1047.495 1881.002,1047.495 1856.138,1066.624 1856.138,1048.452 
			260.815,1048.452 260.815,1009.238 		"/>
		<g>
			<g>
				<rect x="228.315" y="822.067" fill="#61B3F2" width="1811.453" height="204.673"/>
				<rect x="228.315" y="822.067" fill="#2E97E6" width="1648.383" height="204.673"/>
			</g>
		</g>
		<g>
			<polygon fill="#0E0E0E" points="1420.995,822.067 1420.995,1026.669 1277.769,1026.669 1378.192,822.067 			"/>
			<g>
				<g>
					<path fill="#2475B3" d="M1371.494,924.178c0,28.314,4.948,53.939,13.264,72.377c8.113,18.876,19.396,30.114,31.863,30.114
						h38.034V822.137h-38.034C1391.683,822.137,1371.494,867.988,1371.494,924.178z M1407.518,957.892
						c-7.123-2.25-12.665-16.177-12.665-33.714c0-17.076,5.542-31.014,12.665-33.264c7.127,2.25,12.67,16.188,12.67,33.264
						C1420.188,941.715,1414.645,955.642,1407.518,957.892z"/>
					<g>
						<path fill="#3F9EE6" d="M1390.871,924.178c0,28.314,5.178,53.939,13.873,72.377c8.494,18.876,20.294,30.114,33.344,30.114
							h16.567V822.137h-16.567C1411.994,822.137,1390.871,867.988,1390.871,924.178z M1409.098,924.178
							c0-17.076,10.768-31.014,18.22-33.264c7.457,2.25,13.256,16.188,13.256,33.264c0,17.537-5.799,31.464-13.256,33.714
							C1419.865,955.642,1409.098,941.715,1409.098,924.178z"/>
					</g>
				</g>
				<g>
					<path fill="#2475B3" d="M1389.717,924.178c0,28.314,4.947,53.939,13.264,72.377c8.113,18.876,19.396,30.114,31.863,30.114
						h38.034V822.137h-38.034C1409.905,822.137,1389.717,867.988,1389.717,924.178z M1425.739,957.892
						c-7.122-2.25-12.664-16.177-12.664-33.714c0-17.076,5.542-31.014,12.664-33.264c7.128,2.25,12.67,16.188,12.67,33.264
						C1438.409,941.715,1432.867,955.642,1425.739,957.892z"/>
					<g>
						<path fill="#61B3F2" d="M1409.094,924.178c0,28.314,5.177,53.939,13.873,72.377c8.494,18.876,20.294,30.114,33.343,30.114
							h16.568V822.137h-16.568C1430.217,822.137,1409.094,867.988,1409.094,924.178z M1427.32,924.178
							c0-17.076,5.799-31.014,13.251-33.264c7.457,2.25,13.256,16.188,13.256,33.264c0,17.537-5.799,31.464-13.256,33.714
							C1433.119,955.642,1427.32,941.715,1427.32,924.178z"/>
					</g>
					<path fill="#1A5380" d="M1434.663,1028.003c-1.616,0-10.889-0.432-20.687-9.84c-11.123-10.681-24.382-34.804-24.382-89.08
						c0-51.705,12.091-78.323,22.233-91.548c11.168-14.561,22.32-16.63,22.789-16.711c0.728-0.121,1.413,0.362,1.539,1.086
						c0.124,0.724-0.359,1.411-1.082,1.538l0,0c-0.106,0.019-10.77,2.064-21.312,15.942c-9.811,12.915-21.506,38.959-21.506,89.692
						c0,53.214,12.76,76.717,23.463,87.063c9.726,9.399,18.997,9.207,19.074,9.192c0.747-0.027,1.351,0.549,1.378,1.281
						c0.027,0.733-0.541,1.351-1.274,1.38C1434.868,1028.001,1434.788,1028.003,1434.663,1028.003z"/>
				</g>
			</g>
			<g>
				<path fill="#E6E6E6" d="M1440.555,955.15c1.801,0.45,3.14,0.899,4.939,1.35c-0.45,0.45-0.45,0.45,0,0.45
					c72.377,21.576,125.866,88.104,125.866,167.668v170.865h57.539v-170.865c0-110.578-77.765-203.182-181.606-226.557
					c-2.249-0.9-4.499-1.351-6.738-1.789C1423.918,892.673,1422.568,952.462,1440.555,955.15z"/>
				<path fill="#E6E6E6" d="M1372.447,893.21v57.222c-74.165,9.548-134.054,64.573-149.978,136.479
					c-0.461,1.789-0.899,3.139-0.899,4.489c-0.9,4.049-1.35,7.638-1.8,11.688c-0.9,7.188-1.351,14.388-1.351,21.576v170.864h-57.089
					v-170.864C1161.331,1003.822,1254.197,904.811,1372.447,893.21z"/>
				<path fill="#999999" d="M1439.228,938.271c134.921,23.661,152.293,170.555,152.293,170.555v186.701h-20.237v-170.864
					c0-81.245-55.706-149.155-130.684-169.392c-5.732-1.859-9.303-18.637-9.303-18.637S1434.844,937.432,1439.228,938.271z"/>
				<path fill="#808080" d="M1372.447,938.271v12.16c-74.165,9.548-134.054,64.573-149.978,136.479
					C1225.695,1044.939,1260.496,953.219,1372.447,938.271z"/>
				<path fill="#666666" d="M1440.555,955.15c1.801,0.45,3.14,0.899,4.939,1.35c-1.35-3.6-8.661-11.767-9.562-28.843
					c-0.899-17.537,5.053-29.393,11.36-29.596c-2.249-0.9-4.499-1.351-6.738-1.789
					C1423.918,892.673,1422.568,952.462,1440.555,955.15z"/>
			</g>
			<g>
				<rect x="1111.43" y="1248.899" fill="#F7AF0C" width="566.844" height="463.357"/>
				<g>
					<path fill="#CC840A" d="M1403.382,1363.359c-1.8-0.454-3.6-0.454-5.399-0.454c-38.652,0-70.127,31.309-70.127,70.339
						c0,28.583,17.087,53.09,41.362,64.435v119.34c0,15.887,13.027,29.049,28.765,29.049c1.35,0,3.149,0,4.5-0.454h1.338
						c13.038-2.726,22.938-14.524,22.938-28.595v-119.34c24.264-10.891,41.352-35.852,41.352-64.435
						C1468.109,1396.031,1439.784,1366.085,1403.382,1363.359z"/>
					<path fill="#803D00" d="M1403.382,1363.359c-36.413,2.261-65.188,32.672-65.188,69.885c0,28.583,17.087,53.09,41.362,64.435
						v119.34c0,14.07,9.889,25.869,22.927,28.595h1.338c13.038-2.726,22.938-14.524,22.938-28.595v-119.34
						c24.264-10.891,41.352-35.852,41.352-64.435C1468.109,1396.031,1439.784,1366.085,1403.382,1363.359z"/>
				</g>
				<path fill="#E6950B" d="M1291.303,1712.257H1111.43v-463.357h49.902C1161.332,1248.899,1148.077,1590.788,1291.303,1712.257z"/>
				<path fill="#F7E4AD" d="M1556.57,1712.257c42.959-91.924,34.951-339.055,34.951-463.357h57.089v463.357H1556.57z"/>
			</g>
		</g>
	</g>
</g>
<g id="super_hero">
	<g>
		<g>
			<path fill="#4582E6" d="M971.92,1282.63c0,0-58.16-1.883-115.465,0.856c-59.529,2.907-118.203,10.774-109.82,31.306
				c1.881,4.619,2.224,9.063,1.197,13.514c-11.974,54.91-229.049,95.963-276.946,62.265
				c-35.752-25.146-134.283,7.183-174.652,24.632c-76.882-514.634-79.03-1040.73-10.948-1077.335
				c68.082-36.438,256.761,9.751,256.761,9.751s95.623,25.316,134.624,286.868C715.843,895.862,971.92,1282.63,971.92,1282.63z"/>
			<path fill="#3D73CC" d="M746.635,1314.792c1.881,4.619,2.224,9.063,1.197,13.514C688.987,1148.86,550.429,636.194,600.72,775.953
				c48.239,134.793,199.626,407.804,255.735,507.533C796.926,1286.394,738.252,1294.261,746.635,1314.792z"/>
			<g>
				<g>
					<g>
						<path fill="#002E73" d="M278.177,473.939c-55.936,68.424-66.2,85.016-118.544,88.612
							c17.62,11.117,28.054,26.168,35.238,42.422h0.171c15.396,33.698,17.62,73.043,44.475,95.106l-32.16,31.647l-8.21,8.211
							c0,0-1.197-1.027-3.25-2.907c-14.027-13.001-69.793-65.517-102.978-113.757c-19.501-28.052-31.304-54.567-23.093-71.16
							c13.343-48.24,47.555-147.284,134.624-176.877c57.135-62.093,113.07-28.737,132.914-2.907
							C363.878,406.885,337.192,480.78,278.177,473.939z"/>
						<path fill="#231F20" d="M239.517,700.08l-32.16,31.647l-11.46,5.304c-13.171-12.316-63.462-59.533-96.991-105.375
							c-2.053-2.736-4.105-5.643-5.987-8.382c16.592-0.171,69.963-1.537,101.951-18.301h0.171c1.369,2.907,2.566,5.813,3.593,8.72
							C210.95,645.17,214.884,679.896,239.517,700.08z"/>
						<path fill="#66B8FF" d="M198.635,613.694c-35.41,21.558-75.951,20.873-99.729,17.962c-2.053-2.736-4.105-5.643-5.987-8.382
							c16.592-0.171,69.963-1.537,101.951-18.301h0.171C196.411,607.881,197.608,610.787,198.635,613.694z"/>
					</g>
					<path fill="#231F20" d="M215.415,670.878c0,0,36.64,3.403,47.729,13.048c9.266,8.06,3.607,18.121,3.607,18.121
						c19.719,11.089,0.002,54.096-34.428,64.711s-56.988-54.239-56.988-54.239S180.582,673.188,215.415,670.878z"/>
				</g>
				<g>
					<g>
						<path fill="#231F20" d="M677.691,1714.541H553.393c-2.56-1.46-4.452-3.112-5.572-4.991
							c-6.403-92.445-15.62-136.955-15.62-136.955l86.569-3.524l19.596,68.773C667.368,1657.666,701.941,1700.189,677.691,1714.541z
							"/>
						<path fill="#231F20" d="M543.971,1716.209h147.363c3.737,0,2.482-20.494-1.254-20.494l-146.484,0.825
							C539.75,1696.54,540.125,1716.209,543.971,1716.209z"/>
					</g>
					<path fill="#002E73" d="M492.619,729.95c20.113,54.116,105.699,302.056,81.265,480.562
						c33.61,118.706,23.06,219.256,53.365,392.619l-88.222,4.647c-35.858-211.527-75.319-171.161-86.738-380.64
						c-72.693-164.248-110.395-319.851-129.735-480.05C303.743,626.321,452.012,562.903,492.619,729.95z"/>
					<g>
						<path fill="#231F20" d="M539.942,1616.791c0,0-6.604-62.948-48.109-183.204c-12.887-36.951-19.874-61.412-23.502-76.463
							c-3.636-15.227-4.085-21.045-4.085-21.045c21.881-25.316,49.65-63.462,74.313-109.305
							c26.995,42.251,59.124,84.506,59.124,84.506s0.816,9.919,2.278,26.169c6.507,68.081,24.013,248.037,34.562,286.183
							C647.56,1670.845,565.538,1697.702,539.942,1616.791z"/>
						<path fill="#66B8FF" d="M599.962,1337.449c-14.095-15.736-39.46-45.329-60.679-77.662
							c-9.62,34.897-50.021,77.152-70.951,97.337c-3.636-15.227-4.085-21.045-4.085-21.045
							c21.881-25.316,49.65-63.462,74.313-109.305c26.995,42.251,59.124,84.506,59.124,84.506S598.5,1321.199,599.962,1337.449z"/>
					</g>
				</g>
				<g>
					<path fill="#002E73" d="M388.284,752.893c-6.229,235.707-48.247,435.918-48.247,435.918
						c17.792,160.814-22.664,190.787-40.941,420.85l-79.736-1.059c-0.202-93.378-5.616-209.019-11.29-396.251
						c-50.199-195.678-26.02-339.797-7.302-456.772C220.742,622.712,401.033,578.74,388.284,752.893z"/>
					<path fill="#231F20" d="M299.096,1609.659c7.112,38.093,12.217,67.81,9.23,102.284l-193.114,3.759
						c0,0-19.115-18.617,4.918-46.542s69.673-11.769,99.229-60.56L299.096,1609.659z"/>
					<path fill="#231F20" d="M106.442,1716.209h205.172c3.737,0,2.756-20.494-0.98-20.494l-204.303,0.825
						C102.485,1696.54,102.597,1716.209,106.442,1716.209z"/>
					<g>
						<path fill="#231F20" d="M337.453,1349.594c0,0-1.383,6.845-3.734,18.476c-9.715,50.805-35.773,192.614-32.721,256.419
							c-36.248,43.278-83.365-4.79-83.365-4.79l-18.994-350.502l-1.3-23.604C248.466,1302.386,301.575,1332.663,337.453,1349.594z"
							/>
						<path fill="#66B8FF" d="M337.453,1349.594c0,0-1.383,6.845-3.734,18.476c-70.434-20.526-113.795-68.766-135.079-98.873
							l-1.3-23.604C248.466,1302.386,301.575,1332.663,337.453,1349.594z"/>
					</g>
				</g>
				<path fill="#002E73" d="M206.712,741.749c0,40.76,289.463,28.962,289.463-11.799c-0.966-67.248,8.307-122.591,20.956-168.345
					c86.784-85.022,81.608-151.017,59.615-186.823c-37.921-61.738-229.489-58.239-298.457-31.703
					c-27.39,10.541-64.166,53.472-75.929,121.915c-6.048,35.188,19.863,76.164,23.957,104.61
					C235.79,635.433,208.638,732.298,206.712,741.749z"/>
				<path fill="#F7A594" d="M387.156,371.088c14.282-11.344,71.254-28.847,86.406-41.254l-3.419-98.896l-56.017-5.454
					c-16.25,1.346-32.494,5.24-46.463,10.757l-12.609,65.119l-2.782,14.121C345.929,329.38,358.498,346.14,387.156,371.088z"/>
				<path fill="#E6836F" d="M451.292,253.329c-8.787,13.523-45.576,48.155-96.238,48.032l10.91-56.34L451.292,253.329z"/>
				<g>
					<g>
						<path fill="#F7A594" d="M327.31,123.054c-4.392,19.484-13.443,62.258-11.963,81.959c2.253,29.992,30.266,63.257,54.696,67.623
							c28.28,2.881,66.402-5.539,87.101-23.324c11.52-13.5,33.816-45.526,44.078-73.561C522.626,117.277,481.307,66,428.889,54.156
							C376.471,42.313,341.004,62.311,327.31,123.054z"/>
						<path fill="#73382A" d="M483.664,214.381c10.931-19.24-3.595-27.035-19.517-12.097c2.721-14.517,19.273-57.055,4.613-71.16
							c-16.559-16.366-89.425-9.244-128.571-50.06c0,0,29.177-63.973,124.945-26.193
							C573.296,112.222,483.664,214.381,483.664,214.381z"/>
						<path fill="#F7A594" d="M470.108,196.088c-8.28,10.07-8.629,23.429-0.781,29.838c7.849,6.409,20.923,3.441,29.204-6.629
							c8.28-10.07,8.629-23.429,0.78-29.838C491.463,183.051,478.388,186.019,470.108,196.088z"/>
					</g>
				</g>
				<path fill="#002E73" d="M355.47,295.659c9.574,17.096,108.055,8.206,116.945-6.156l5.471,54.711l-91.641,51.976l-47.873-52.66
					L355.47,295.659z"/>
				<path fill="#231F20" d="M517.308,114.096c-2.698-47.888-95.386-115.467-161.874-90.38
					c-44.845,16.921-34.328,64.529,4.721,73.518C394.585,105.16,489.945,63.887,517.308,114.096z"/>
				<path fill="#231F20" d="M347.16,23.867c0,0,1.969-13.656,9.342-23.867c-52.024,34.078-26.133,74.83-25.522,76.568
					c20.632-62.648,69.86-59.771,87.343-59.55C373.347-4.151,347.609,21.992,347.16,23.867z"/>
				<path fill="#66B8FF" d="M203.098,755.578c75.513,32.567,249.962,25.398,302.097,0.447l13.332,44.164
					c-113.429,26.736-221.948,27.488-324.972-0.835L203.098,755.578z"/>
				<g>
					<g>
						<path fill="#002E73" d="M708.393,652.016c-49.949,53.54-155.323,114.609-155.323,114.609l-32.331-46.528
							c33.528-18.476,52.003-66.373,83.991-99.215c10.948-11.289,23.435-20.698,38.488-26.857
							c-50.977-13.172-76.636-25.831-119.058-103.321c-59.357-4.105-72.187-81.763-39.857-110.675
							c24.291-21.725,85.53-44.473,130.349,27.029c80.056,44.986,114.268,143.175,118.544,193.127
							C737.131,614.379,726.354,632.684,708.393,652.016z"/>
					</g>
					<path fill="#231F20" d="M549.728,695.739c0,0-36.645-3.352-49.311,4.104c-10.583,6.23-6.858,17.156-6.858,17.156
						c-21.415,7.297-9.892,53.183,22.018,69.914c31.91,16.731,65.943-42.907,65.943-42.907S583.552,704.378,549.728,695.739z"/>
					<path fill="#231F20" d="M708.393,652.016c-3.079,3.249-6.329,6.669-9.75,9.918c-52.687,50.976-145.572,104.69-145.572,104.69
						l-32.331-46.528c28.909-15.911,46.529-53.544,71.333-84.678c3.934-5.128,8.21-9.919,12.658-14.538
						C617.217,628.236,654.508,647.906,708.393,652.016z"/>
					<path fill="#66B8FF" d="M708.393,652.016c-3.079,3.249-6.329,6.669-9.75,9.918c-45.16-2.222-87.583-18.472-106.57-26.515
						c3.934-5.128,8.21-9.919,12.658-14.538C617.217,628.236,654.508,647.906,708.393,652.016z"/>
				</g>
				<g>
					<g>
						<g>
							<g>
								<path fill="#D9FFFF" d="M415.052,452.542L415.052,452.542c0.02-0.169,0.029-0.244,0.031-0.261
									C415.079,452.313,415.052,452.542,415.052,452.542z"/>
								<path fill="#D9FFFF" d="M415.052,452.542L415.052,452.542c0.02-0.169,0.029-0.244,0.031-0.261
									C415.079,452.313,415.052,452.542,415.052,452.542z"/>
								<path fill="#D9FFFF" d="M324.63,439.571c0,0,0.027-0.229,0.031-0.261C324.659,439.328,324.65,439.402,324.63,439.571
									L324.63,439.571z"/>
								<path fill="#D9FFFF" d="M324.63,439.571c0,0,0.027-0.229,0.031-0.261C324.659,439.328,324.65,439.402,324.63,439.571
									L324.63,439.571z"/>
								<path fill="#FFFFFF" d="M372.998,418.553c9,14.155,24.548,26.97,41.995,34.037c-0.157,1.341-1.031,8.772-5.057,43.024
									c-5.371,45.691-47.018,62.223-53.479,64.75c-5.491-3.879-42.207-32.015-36.835-77.706
									c4.026-34.252,4.899-41.683,5.057-43.024C343.179,437.724,361.024,429.699,372.998,418.553z"/>
							</g>
						</g>
						<path fill="#F7AF0C" d="M368.25,442.82c-0.024,0.02-0.051,0.038-0.076,0.058c-8.688,6.869-20.163,11.625-32.387,13.395
							l-3.435,29.218c-1.571,13.37,1.817,26.131,10.07,37.929c5.191,7.42,10.938,12.475,14.134,14.982
							c0.144,0.112,0.288,0.227,0.42,0.329c3.541-1.429,10.576-4.731,17.612-10.697c10.708-9.078,16.933-20.459,18.504-33.828
							l3.435-29.22C385.086,459.81,375.064,451.946,368.25,442.82z"/>
					</g>
				</g>
			</g>
			<path fill="#66B8FF" d="M343.481,328.917c4.905,12.625,21.295,23.747,39.775,34.584c37.532-6.144,66.323-17.763,94.486-34.243
				c27.707-0.129,47.645,10.533,68.152,18.401l-163.619,26.628l-96.106-36.283C298.952,333.353,317.251,330.204,343.481,328.917z"/>
		</g>
		<g>
			<g>
				<g>
					<g>
						<path fill="#D9FFFF" d="M905.611,668.472L905.611,668.472c-0.009-0.805-0.013-1.16-0.014-1.241
							C905.6,667.379,905.611,668.472,905.611,668.472z"/>
						<path fill="#D9FFFF" d="M905.611,668.472L905.611,668.472c-0.009-0.805-0.013-1.16-0.014-1.241
							C905.6,667.379,905.611,668.472,905.611,668.472z"/>
						<path fill="#D9FFFF" d="M422.886,673.787c0,0-0.012-1.092-0.014-1.242C422.873,672.627,422.877,672.982,422.886,673.787
							L422.886,673.787z"/>
						<path fill="#D9FFFF" d="M422.886,673.787c0,0-0.012-1.092-0.014-1.242C422.873,672.627,422.877,672.982,422.886,673.787
							L422.886,673.787z"/>
						<path fill="#FFFFFF" d="M662.393,540.241c56.652,59.613,146.742,108.183,242.937,128.497
							c0.071,6.386,0.464,41.765,2.276,204.832c2.417,217.53-204.863,325.198-237.045,341.725
							c-31.381-14.129-242.692-118.886-245.11-336.416c-1.812-163.067-2.205-198.446-2.276-204.831
							C518.894,651.62,607.079,601.086,662.393,540.241z"/>
					</g>
				</g>
				<g>
					<path fill="#007880" d="M663.229,579.553c55.421,49.941,132.002,88.977,216.067,109.977l2.048,184.307
						c0.938,84.333-32.216,160.847-98.542,227.428c-43.58,43.745-89.525,71.001-112.848,83.275c-1.01-0.502-2.118-1.069-3.209-1.625
						l-3.992-602.929C662.909,579.84,663.075,579.7,663.229,579.553z"/>
					<path fill="#008F99" d="M662.752,579.986l3.992,602.929c-24.42-12.442-68.828-38.203-111.463-79.146
						c-67.787-65.102-102.634-140.868-103.569-225.202l-2.049-184.31C533.003,671.481,608.492,630.93,662.752,579.986z"/>
				</g>
			</g>
			<g>
				<path fill="#FFFFFF" d="M566.999,846.284l0.945,142.787c0.105,15.896,195.13,14.616,195.025-1.279l-0.945-142.788
					L566.999,846.284z M640.776,899.701c-0.087-13.247,10.581-24.005,23.888-24.093c13.307-0.087,24.207,10.53,24.294,23.777
					c0.064,9.683-5.753,18.126-14.081,21.927l0.269,40.562c0.036,5.391-4.34,9.896-9.845,9.932
					c-5.416,0.035-9.851-4.412-9.886-9.803l-0.268-40.47C646.68,917.843,640.841,909.476,640.776,899.701z"/>
				<path fill="#FFFFFF" d="M584.002,835.995l19.742-0.13l-0.064-9.614c-0.22-33.315,26.829-60.597,60.291-60.816
					c33.468-0.219,60.876,26.705,61.097,60.02l0.063,9.614l19.742-0.129l-0.063-9.614c-0.292-44.151-36.614-79.833-80.969-79.542
					c-44.348,0.291-80.194,36.446-79.901,80.596L584.002,835.995z"/>
			</g>
		</g>
	</g>
	<g>
	</g>
	<g>
	</g>
	<g>
	</g>
	<g>
	</g>
	<g>
	</g>
	<g>
	</g>
</g>
</svg>
