<?xml version="1.0" encoding="utf-8"?>
<!-- Generator: Adobe Illustrator 16.0.0, SVG Export Plug-In . SVG Version: 6.00 Build 0)  -->
<!DOCTYPE svg PUBLIC "-//W3C//DTD SVG 1.1//EN" "http://www.w3.org/Graphics/SVG/1.1/DTD/svg11.dtd">
<svg version="1.1" id="Слой_2" xmlns="http://www.w3.org/2000/svg" xmlns:xlink="http://www.w3.org/1999/xlink" x="0px" y="0px"
	 width="1818.812px" height="1343.009px" viewBox="0 0 1818.812 1343.009" enable-background="new 0 0 1818.812 1343.009"
	 xml:space="preserve">
<g>
	<ellipse opacity="0.2" fill="#FFFFFF" cx="1198.812" cy="1229.869" rx="620" ry="113.141"/>
	<path fill="#2C3A64" d="M1133.239,1255.894c0.241,0.121,0.52,0.229,0.845,0.351h167.571c-1.569-5.964-7.05-16.829-26.221-19.943
		c-26.003-4.226-71.067-19.327-81.123-52.598c-0.313-1.063-0.604-2.161-0.857-3.271c-7.979-35.54-66.021,10.89-66.021,10.89
		s-0.181,1.412-0.423,3.826C1125.658,1208.186,1122.217,1250.377,1133.239,1255.894z"/>
	<path fill="#2C3A64" d="M1354.865,654.05c0,0-108.979,387.114-141.808,536.82c0,0-80.886,16.23-93.466-9.193
		c0,0,26.063-421.561,74.006-475.106C1253.239,639.958,1354.865,654.05,1354.865,654.05z"/>
	<g>
		<path fill="#ED975D" d="M1363.872,261.684c0,0-2.858-17.317,1.603-31.74c4.461-14.423,23.119-52.459,17.214-65.675
			c-5.904-13.217-27.274-48.778-40.457-48.673s13.86,38.057,10.146,49.913c-3.713,11.856-4.943,12.818-9.523,11.773
			c-4.58-1.046-11.554-23.742-13.871-18.444s-0.97,40.424,3.387,49.193c4.357,8.769-4.579,58.215-4.579,58.215L1363.872,261.684z"/>
		<path fill="#FFA412" d="M1374.412,253.978c0,0-29.177-16.572-51.745-9.587c0,0-44.785,128.99-69.45,223.84
			c-47.346-116.824-76.475-233.334-76.475-233.334s-57.403,79.271-78.125,131.983c-20.721,52.712,103.117,237.645,151.172,252.157
			c50.153,15.146,41.023-0.027,69.32-16.22C1328.214,591.009,1357.326,532.218,1374.412,253.978z"/>
		<path fill="#2C3A64" d="M1506.419,1261.932c0.241,0.12,0.519,0.229,0.845,0.35h167.571c-1.57-5.964-7.051-16.828-26.221-19.942
			c-26.003-4.226-71.067-19.328-81.123-52.598c-0.314-1.063-0.604-2.161-0.857-3.271c-7.98-35.54-66.021,10.889-66.021,10.889
			s-0.182,1.412-0.423,3.827C1498.837,1214.223,1495.398,1256.415,1506.419,1261.932z"/>
		<path fill="#35488B" d="M1387.381,644.652c0,0-16.323,7.263-36.47,22.117c-2.29-11.672-5.594-19.25-5.594-19.25
			c-143.804-37.453-528.734-34.401-528.734-34.401s-82.759,20.728-58.457,141.197c22.363,110.86,391.951,59.527,511.334,26.269
			c2.793-0.778,5.496-1.593,8.113-2.442c-9.496,70.634,57.018,171.397,115.249,264.13c48.002,76.441,88.854,153.82,88.854,153.82
			c24.105,14.951,105.041,6.305,105.041,6.305C1535.564,1057.921,1387.381,644.652,1387.381,644.652z"/>
		<g>
			<path fill="#FFB27D" d="M1070.025,195.761c0,0,41.284,132.164,103.293,161.724c0,0,5.867-40.098-4.167-70.592
				c8.188-6.269,15.442-12.085,21.771-17.326c21.033-17.503,31.658-28.705,31.658-28.705l-9.218-64.444l-6.254-43.725
				c-10.084,11.557-20.491,21.011-30.879,28.771C1122.697,201.392,1070.025,195.761,1070.025,195.761z"/>
			<path fill="#ED975D" d="M1176.229,161.464c0,0-20.793,57.212,14.692,108.103c21.033-17.503,31.658-28.705,31.658-28.705
				l-9.218-64.444C1191.158,164.002,1176.229,161.464,1176.229,161.464z"/>
			<path fill="#FFB27D" d="M1238.307,253.384c0,0-91.425-60.657-52.774-117.01c38.651-56.353,52.882-102.134,112.888-65.789
				c60.007,36.345,56.48,65.546,48.155,87.493C1338.25,180.025,1263.084,267.71,1238.307,253.384z"/>
			<path fill="#2B478B" d="M1196.165,18.396c-0.399-1.535-2.11-3.453-6.742-6.049c0,0,4.987-0.552,10.139,1.813
				c4.288-6.234,13.639-16.406,26.447-13.716c0,0-7.745,0.314-12.047,7.069c19.936-7.297,53.114-3.462,128.322,41.169
				c99.116,58.82,32.246,109.245,14.971,110.698c-17.274,1.453-40.152-36.944-66.021-47.131
				c-25.867-10.187-48.494,24.013-59.391,24.889c-10.897,0.875-3.236-6.359-12.09-17.199c-8.853-10.84-19.356,7.85-22.182,21.964
				c-2.824,14.115-26.596,22.91-26.596,22.91s0,0-7.36-25.118c-7.36-25.117,13.691-105.915,28.576-118.044
				C1193.506,20.578,1194.823,19.485,1196.165,18.396z"/>
		</g>
		<path fill="#FFB93E" d="M1181.269,415.971c-27.457,65.038-52.565,106.568-55.85,111.997
			c-11.835,19.558-24.538,37.514-36.156,53.189c-0.366,0.502-0.732,0.99-1.099,1.492c-22.883,30.782-57.872,39.258-56.786,46.98
			c2.186,15.485-36.93,52.64-101.425,69.116c-74.837,19.123-161.563,28.325-183.481,3.026c-7.329-8.496-9.772-24.118-8.958-43.539
			c1.602-40.907,53.094-205.646,53.094-205.646c88.083-266.566,340.332-266.566,340.332-266.566s-4.943,63.858,56.973,86.021
			C1187.995,272.179,1202.458,365.779,1181.269,415.971z"/>
		<path fill="#FFB27D" d="M1329.414,605.644c0,0,37.879,13.392,48.269,19.895c10.389,6.504,34.305,39.235,36.995,50.71
			s5.848,45.197,3.886,50.841c-1.962,5.645-30.957-15.991-37.4-36.354c-6.444-20.363-23.003-25.843-22.369-24.748
			c0.634,1.096,9.11,27.165,7.321,28.289s-9.506,3.072-16.498-11.479c-6.993-14.551-20.847-25.186-18.229-40.222
			C1334.004,627.542,1329.414,605.644,1329.414,605.644z"/>
		<path fill="#FFA412" d="M1032.633,631.781c2.185,15.485-38.185,50.489-102.68,66.966c-53.8-107.03,48.493-352.048,48.493-352.048
			l110.816,234.459C1065.878,612.726,1031.534,623.936,1032.633,631.781z"/>
		<path fill="#FFA412" d="M1125.419,527.968c-11.835,19.558-24.538,37.514-36.156,53.189c-0.366,0.502-0.732,0.99-1.099,1.492
			c-15.201-5.862-30.293-17.549-37.894-28.298c-17.454-24.646-18.893-172.813-18.893-172.813S1102.835,469.812,1125.419,527.968z"/>
		<path fill="#FFB93E" d="M1343.948,608.972c0,0-172.838-48.382-261.55-69.553c7.818-104.666,33.438-421.121-127.747-294.444
			c0,0-12.18,339.138,65.921,407.83c0,0,250.72,5.312,298.461,2.386c0,0,14.028-7.264,17.513-12.104
			C1347.69,627.605,1343.948,608.972,1343.948,608.972z"/>
	</g>
	<g>
		<path fill="#82B378" d="M342.979,1116.728l6.376-0.57c-2.44-46.422-37.57-72.402-37.57-72.402
			c-24.598-21.8-32.591-45.74-32.591-45.74s41.51-48.428,2.559-79.188c0,0-28.451-17.226-51.65-15.826
			c0,0,32.872,55.122,22.237,60.604c-10.634,5.483-32.2-64.063-32.2-64.063s-64.746-6.278-85.574,3.735
			c0,0,55.349,45.294,43.692,47.99c-11.657,2.696-71.441-41.761-71.441-41.761s-60.26,10.255-57.046,47.016
			c3.213,36.76,23.977,48.111,33.103,47.134s62.51-21.356,63.672-13.879c1.163,7.478-30.971,31.915-53.473,33.058
			c0,0,42.484,46.854,70.719,33.331c28.235-13.521,30.646-34.956,48.247-42.995c17.601-8.039,32.625-8.02,25.358,0.18
			c-7.267,8.199-39.121,16.168-49.186,33.972c-10.065,17.805-19.096,29.813,10.117,25.417c29.212-4.396,76.698-25.771,78.782-50.248
			c0.091-1.072,0.177-2.081,0.261-3.061c0.045,1.942-0.261,3.061-0.261,3.061c6.094,1.086,18.751,12.301,27.896,21.09
			c1.408,1.543,3.485,3.608,6.464,6.365c1.116,1.126,2.047,2.078,2.742,2.795C332.76,1073.056,342.979,1116.728,342.979,1116.728z"
			/>
		<g>
			<path fill="#A8D29F" d="M424.329,937.112c0,0-66.033-36.979-35.218-87.163c0,0,24.652-30.815,51.065-38.739
				c0,0-14.087,74.837,0,76.598s9.685-84.521,9.685-84.521s69.555-33.456,96.848-30.815c0,0-43.141,73.076-29.054,71.315
				s62.511-75.718,62.511-75.718s71.315-13.206,82.761,29.055s-7.043,63.392-17.608,66.032
				c-10.565,2.642-78.359,1.762-76.598,10.565c1.761,8.805,47.543,22.892,73.076,14.968c0,0-28.174,69.554-65.152,66.032
				c-36.979-3.521-48.424-26.413-71.315-28.174c-22.891-1.761-39.62,4.402-28.173,10.565c11.445,6.163,50.185,2.02,68.673,17.737
				c18.489,15.719,33.457,25.404-0.88,32.447s-95.967,2.642-108.293-23.771C424.329,937.112,424.329,937.112,424.329,937.112z"/>
			<path fill="#82B378" d="M630.35,810.33c0,0-184.892,59.869-206.021,126.782c0,0,0.88,29.935-17.609,64.271
				c0,0-28.513,43.299-12.258,96.005l7.335-1.97c0,0-6.411-52.292,5.69-82.577c0.495-1.116,1.216-2.727,2.116-4.69
				c2.191-4.289,3.661-7.439,4.599-9.733c6.593-13.528,16.108-31.192,22.453-34.893C436.655,963.525,395.274,905.416,630.35,810.33z
				"/>
		</g>
		<g>
			<path fill="#A8D29F" d="M319.276,886.114c0,0,87.043-48.744,46.423-114.897c0,0-32.497-40.619-67.313-51.064
				c0,0,18.569,98.648,0,100.97s-12.767-111.415-12.767-111.415s-91.685-44.102-127.663-40.62c0,0,56.868,96.327,38.299,94.007
				c-18.569-2.321-82.401-99.81-82.401-99.81S19.848,645.875,4.76,701.583c-15.087,55.707,9.285,83.562,23.211,87.043
				s103.291,2.321,100.97,13.927c-2.321,11.605-62.671,30.175-96.328,19.729c0,0,37.138,91.686,85.882,87.044
				c48.744-4.643,63.832-34.817,94.006-37.139c30.175-2.321,52.226,5.803,37.139,13.927s-66.153,2.662-90.525,23.382
				s-44.102,33.486,1.161,42.771c45.262,9.285,126.502,3.482,142.75-31.335S319.276,886.114,319.276,886.114z"/>
			<path fill="#82B378" d="M342.488,970.835c-24.373-45.262-23.212-84.722-23.212-84.722
				C291.422,797.91,47.702,718.991,47.702,718.991c309.873,125.342,255.326,201.94,255.326,201.94
				c8.351,4.871,20.872,28.1,29.562,45.921c1.237,3.032,3.197,7.229,6.108,12.926c1.18,2.577,2.124,4.686,2.776,6.157
				c15.955,39.921,7.502,108.856,7.502,108.856l9.67,2.597C380.073,1027.912,342.488,970.835,342.488,970.835z"/>
		</g>
		<path fill="#ED7D2B" d="M151.708,1077.55c0,94.164,76.337,170.501,170.501,170.501c19.661,0,38.542-3.325,56.111-9.453
			c66.601-23.2,114.39-86.545,114.39-161.048H151.708z"/>
		<path fill="#F99746" d="M263.938,1077.55c0,63.884,15.302,128.942,67.302,158.144c8.644,4.854,37.588-0.402,47.081,2.904
			c66.601-23.2,114.39-86.545,114.39-161.048H263.938z"/>
		<path fill="#FFB176" d="M322.209,1248.051c6.935,0.867-27.951,0.002-20.772,0.002c94.165,0,170.495-76.34,170.495-170.505h-42.358
			C429.574,1164.544,406.381,1237.621,322.209,1248.051z"/>
		<path fill="#ED7D2B" d="M149.351,1256.734h345.717c0-5.812-2.357-11.073-6.162-14.879c-3.805-3.805-9.067-6.162-14.878-6.162
			H170.383C158.77,1235.693,149.351,1245.112,149.351,1256.734z"/>
		<path fill="#F99746" d="M311.333,1256.734h183.734c0-5.812-2.357-11.073-6.162-14.879c-3.805-3.805-9.067-6.162-14.878-6.162
			H332.366C320.752,1235.693,311.333,1245.112,311.333,1256.734z"/>
		<rect x="147.828" y="1077.548" fill="#DB6A1F" width="350.491" height="5.23"/>
	</g>
	<g>
		<path fill="#F99746" d="M1196.327,817.177v66.669c0,13.764-11.262,25.024-25.024,25.024H777.167
			c-13.763,0-25.024-11.261-25.024-25.024v-66.669c0-13.764,11.261-25.024,25.024-25.024h394.135
			C1185.065,792.153,1196.327,803.414,1196.327,817.177z"/>
		<path fill="#ED7D2B" d="M1196.327,871.709v12.137c0,13.764-11.262,25.024-25.024,25.024H777.167
			c-13.763,0-25.024-11.261-25.024-25.024v-13.138h437.01C1191.634,870.708,1194.053,871.063,1196.327,871.709z"/>
		<g>
			<path fill="#E8C6A7" d="M847.027,908.871l-17.768,67.295c0,0,0,0-0.021,0.021l-73.968,280.086h-7.778l42.75-232.373
				c0.042-0.229,0.104-0.459,0.146-0.709l21.146-114.925L847.027,908.871z"/>
		</g>
		<path fill="#C69D7B" d="M847.027,908.871l-17.768,67.295c0,0,0,0-0.021,0.021c-1.022,0.5-33.366,17.225-38.851,47.004
			l21.146-114.925L847.027,908.871z"/>
		<g>
			<path fill="#E8C6A7" d="M1196.327,1256.273h-7.778l-60.268-228.16c0-0.021,0-0.021,0-0.042l-13.701-51.884
				c-0.021-0.021-0.021-0.021-0.021-0.021l-17.768-67.295l35.493-0.604l12.096,65.71l9.05,49.215
				c0.042,0.25,0.104,0.479,0.146,0.709L1196.327,1256.273z"/>
		</g>
		<path fill="#E8C6A7" d="M1076.188,996.999c-0.042,0.021-0.083,0-0.125-0.083C1075.896,996.624,1075.938,996.686,1076.188,996.999z
			"/>
		<path fill="#C69D7B" d="M1144.38,973.976c-6.549,9.53-15.578,27.443-16.1,54.095l-13.701-51.884
			c-0.021-0.021-0.021-0.021-0.021-0.021l-17.768-67.295l35.493-0.604L1144.38,973.976z"/>
	</g>
</g>
<g>
</g>
<g>
</g>
<g>
</g>
<g>
</g>
<g>
</g>
<g>
</g>
</svg>
