<?xml version="1.0" encoding="utf-8"?>
<!-- Generator: Adobe Illustrator 16.0.0, SVG Export Plug-In . SVG Version: 6.00 Build 0)  -->
<!DOCTYPE svg PUBLIC "-//W3C//DTD SVG 1.1//EN" "http://www.w3.org/Graphics/SVG/1.1/DTD/svg11.dtd">
<svg version="1.1" id="_x2018_лой_x5F_1" xmlns="http://www.w3.org/2000/svg" xmlns:xlink="http://www.w3.org/1999/xlink"
	 x="0px" y="0px" width="2524.304px" height="1654.011px" viewBox="0 0 2524.304 1654.011"
	 enable-background="new 0 0 2524.304 1654.011" xml:space="preserve">
<g>
	<path fill="#EBF3FA" d="M180.979,1654.011c0,0-314.428-305.186-114.391-664.245s468.703-178.49,455.702-596.402
		C509.287-24.55,1140.168-60.455,1340.981,60.723s199.606,267.122,614.164,218.834c414.559-48.288,493.754,354.241,385.902,559.39
		c-153.023,291.072,424.703,243.065,60.672,815.064H180.979z"/>
	<g>
		<path opacity="0.3" fill="#AEC3FF" d="M1561.762,935.881c0,0,66.81-283.17,292.195-314.304c0,0,43.852-5.386,58.454,42.901
			c14.602,48.287-72.587,48.635-126.481,68.058C1732.036,751.959,1606.392,834.299,1561.762,935.881z"/>
		<path opacity="0.3" fill="#AEC3FF" d="M1556.642,882.887c0,0-23.433-234.556,141.044-317.801c0,0,32.178-15.682,56.089,17.466
			s-42.797,56.39-78.97,85.472C1638.632,697.106,1564.066,793.3,1556.642,882.887z"/>
	</g>
	<path fill="#CDE0FB" d="M340.587,1441.041c-34.797-79.287,91.421-147.414,91.421-147.414s166.324,53.834,190.204,39.07
		c23.88-14.763-133.215-73.793-133.215-73.793c38.76-37.926,187.387-72.682,187.387-72.682s100.254,138.35,119.766,118.162
		c19.512-20.188-95.02-117.972-95.02-117.972c50.509-20.562,126.704-3.683,126.704-3.683
		c109.715,39.064,53.887,177.931,53.887,177.931s35.778,47.196,106.849,77.144c0,0,0.003,0,0.003,0s14.29,4.589,34.191,15.923
		l-11.09,8.933c-3.302-2.244-6.615-4.314-9.944-6.184c-0.017-0.021-0.036-0.03-0.062-0.033c-0.048-0.027-0.097-0.053-0.145-0.08
		c-2.14-1.102-5.196-2.66-8.949-4.535c-0.005-0.002-0.01-0.005-0.015-0.007c-0.005-0.007-0.013-0.001-0.019-0.009
		c-8.73-3.904-14.966-6.96-19.264-9.331c-0.014-0.007-0.026-0.015-0.037-0.024c-26.923-12.644-63.399-27.992-77.737-25.825
		c0,0-0.164-2.715-1.724-6.999c0.55,2.232,1.123,4.559,1.724,6.999c13.781,55.971-75.677,139.204-137.299,170.951
		c-61.621,31.747-50.583-1.736-41.606-48.881s73.781-88.819,83.764-112.51s-23.427-12.431-56.498,18.678
		c-33.072,31.109-22.303,80.563-74.886,131.859c-52.583,51.296-182.258-20.878-182.258-20.878
		c49.153-19.469,102.19-97.959,93.98-113.703s-111.53,69.71-131.078,78.748C430.072,1529.935,375.384,1520.327,340.587,1441.041z"/>
	<path fill="#CDE0FB" d="M1929.704,1536.368c50.763-59.895-41.29-151.771-41.29-151.771s-158.475,3.73-175.405-15.281
		c-16.932-19.01,134.869-29.646,134.869-29.646c-23.866-42.991-144.031-111.666-144.031-111.666s-122.935,94.277-134.666,71.685
		c-11.729-22.594,113.112-77.925,113.112-77.925c-38.571-30.943-109.155-35.998-109.155-35.998
		c-105.457,5.549-92.887,140.679-92.887,140.679s-43.309,31.753-112.822,39.382c-0.001,0-0.003-0.001-0.003-0.001
		s-13.606,0.288-33.835,4.987l7.326,10.634c3.449-1.096,6.865-2.037,10.242-2.801c0.02-0.014,0.038-0.017,0.062-0.013
		c0.049-0.011,0.098-0.021,0.146-0.032c2.146-0.403,5.204-0.967,8.951-1.625c0.005,0,0.01-0.001,0.015-0.002
		c0.007-0.004,0.012,0.002,0.019-0.002c8.597-1.134,14.808-2.175,19.155-3.123c0.015-0.002,0.027-0.007,0.039-0.012
		c26.67-4.019,62.342-7.915,74.24-2.32c0,0,0.846-2.317,3.31-5.637c-1.055,1.798-2.155,3.672-3.31,5.637
		c-26.464,45.072,29.733,140.561,75.066,184.101s44.407,11.585,48.81-31.709c4.401-43.294-41.127-96.284-43.67-119.456
		s23.576-4.738,44.264,30.856s-1.472,75.784,30.946,133.973s163.791,29.034,163.791,29.034
		c-37.676-29.643-63.449-111.581-52.239-123.139c11.21-11.557,78.877,89.449,93.526,102.364
		C1828.929,1590.457,1878.941,1596.263,1929.704,1536.368z"/>
	<path opacity="0.5" fill="#CDE0FB" d="M666.829,376.143c52.321-87.794,204.317-13.232,204.317-13.232s62.313,196.714,92.87,209.537
		c30.557,12.822-20.435-178.589-20.435-178.589c63.014,11.237,198.309,130.21,198.309,130.21s-64.189,191.181-31.416,196.087
		c32.773,4.906,48.2-172.181,48.2-172.181c54.386,34.432,90.41,119.212,90.41,119.212
		c37.688,132.199-134.012,173.769-134.012,173.769s-20.815,66.735-0.861,155.553l0.001,0.003c0,0,5.39,16.877,8.144,43.769
		l-16.187-4.531c-0.107-4.711-0.39-9.313-0.876-13.794c0.009-0.031,0.004-0.055-0.011-0.082c-0.007-0.064-0.016-0.129-0.022-0.193
		c-0.408-2.813-1.006-6.816-1.778-11.709c-0.001-0.006-0.002-0.012-0.003-0.018c0.003-0.011-0.008-0.014-0.005-0.024
		c-2.234-11.065-3.574-19.151-4.242-24.906c-0.003-0.019-0.004-0.036-0.002-0.053c-6.312-34.536-16.573-80.106-28.485-92.397
		c0,0,2.496-2.018,5.542-6.454c-1.768,2.059-3.61,4.204-5.542,6.454c-44.328,51.617-185.634,22.73-258.387-14.709
		c-72.752-37.439-33.014-49.791,18.438-73.489c51.452-23.699,135.924,9.992,165.53,3.34c29.606-6.651-4.118-31.031-56.683-41.477
		c-52.564-10.447-92.697,33.808-178.035,18.455c-85.338-15.352-104.901-189.429-104.901-189.429
		c52.407,33.878,164.184,31.022,173.683,12.339c9.498-18.683-143.445-59.363-165.533-71.949
		C642.772,523.069,614.508,463.937,666.829,376.143z"/>
	<g>
		<g>
			<path fill="#F78248" d="M1251.023,536.827c0-5.673,1.011-10.916,3.038-15.731c2.023-4.811,4.888-8.981,8.587-12.507
				c3.699-3.521,8.145-6.274,13.342-8.252c5.193-1.974,11.051-2.966,17.569-2.966c6.515,0,12.418,0.992,17.701,2.966
				c5.284,1.979,9.775,4.731,13.475,8.252c3.699,3.525,6.56,7.696,8.586,12.507c2.023,4.815,3.038,10.058,3.038,15.731
				c0,5.673-1.015,10.875-3.038,15.601c-2.026,4.731-4.887,8.856-8.586,12.378c-3.699,3.526-8.19,6.278-13.475,8.253
				c-5.283,1.974-11.187,2.966-17.701,2.966c-6.519,0-12.376-0.992-17.569-2.966c-5.197-1.975-9.643-4.727-13.342-8.253
				c-3.699-3.521-6.563-7.647-8.587-12.378C1252.034,547.702,1251.023,542.5,1251.023,536.827z M1325.263,463.445h-63.407
				l-8.983-216.656h81.374L1325.263,463.445z"/>
		</g>
	</g>
	<g>
		<g>
			<path fill="#AEC3FF" d="M1059.569,325.033c0-4.354,0.776-8.378,2.332-12.074c1.553-3.692,3.751-6.893,6.59-9.599
				c2.839-2.703,6.25-4.815,10.24-6.334c3.986-1.515,8.481-2.276,13.484-2.276c5,0,9.53,0.761,13.585,2.276
				c4.056,1.519,7.503,3.631,10.342,6.334c2.839,2.706,5.034,5.906,6.589,9.599c1.553,3.696,2.332,7.719,2.332,12.074
				c0,4.354-0.779,8.347-2.332,11.974c-1.555,3.631-3.75,6.797-6.589,9.5c-2.839,2.706-6.286,4.818-10.342,6.334
				c-4.055,1.515-8.586,2.276-13.585,2.276c-5.003,0-9.499-0.761-13.484-2.276c-3.989-1.516-7.401-3.628-10.24-6.334
				c-2.839-2.703-5.038-5.869-6.59-9.5C1060.345,333.38,1059.569,329.387,1059.569,325.033z M1116.548,268.713h-48.665
				l-6.894-166.282h62.454L1116.548,268.713z"/>
		</g>
	</g>
	<g>
		<g>
			<path fill="#AEC3FF" d="M2004.943,605.992c0-4.354,0.776-8.378,2.332-12.073c1.553-3.692,3.751-6.893,6.591-9.599
				c2.838-2.703,6.25-4.815,10.239-6.334c3.985-1.515,8.481-2.276,13.484-2.276c4.999,0,9.53,0.761,13.585,2.276
				c4.057,1.519,7.503,3.631,10.342,6.334c2.839,2.706,5.034,5.907,6.59,9.599c1.553,3.695,2.332,7.719,2.332,12.073
				s-0.779,8.347-2.332,11.974c-1.556,3.631-3.751,6.797-6.59,9.5c-2.839,2.706-6.285,4.818-10.342,6.333
				c-4.055,1.515-8.586,2.276-13.585,2.276c-5.003,0-9.499-0.761-13.484-2.276c-3.989-1.516-7.401-3.628-10.239-6.333
				c-2.84-2.703-5.038-5.869-6.591-9.5C2005.72,614.338,2004.943,610.346,2004.943,605.992z M2061.922,549.671h-48.665
				l-6.895-166.282h62.454L2061.922,549.671z"/>
		</g>
	</g>
	<g>
		<g>
			<path fill="#AEC3FF" d="M1897.898,1029.152c-10.168,18.865-22.842,37.923-35.828,53.426v0.01
				c-13.601,16.238-27.523,28.58-39.272,32.758l-0.09,0.03c-0.614,0.212-1.218,0.413-1.822,0.574
				c-0.03,0.021-0.061,0.021-0.091,0.021c-0.01,0.01-0.01,0.01-0.01,0.01c-2.386,0.675-4.661,0.977-6.825,0.876
				c-38.557-1.731-79.197-84.442-79.197-84.442s1.057-9.806,8.557-16.731c6.543-6.04,11.577-7.621,11.577-7.621
				s41.526,42.645,51.674,45.715c6.383,1.923,14.769-27.855,26.788-65.255c12.03-37.398,54.262-46.62,54.262-46.62
				S1930.364,968.951,1897.898,1029.152z"/>
			<path fill="#94B0ED" d="M1862.07,1082.578v0.01c-13.601,16.238-27.523,28.58-39.272,32.758l-0.09,0.03l-1.822,0.574l-0.101,0.03
				c0,0,0,0,0.01-0.01c0.423-0.282,12.997-6.803,14.97-18.906c2.017-12.368-11.07-22.486,21.815-41.617
				C1876.743,1044.299,1862.07,1082.578,1862.07,1082.578z"/>
			<path fill="#24406D" d="M1831.967,1649.871h90.372c6.475-4.391-1.747-47.32-1.747-47.32s-24.665-9.358-28.925,9.673
				c-4.272,19.019-31.416,25.065-45.78,27.386C1836.057,1641.208,1832.95,1646.608,1831.967,1649.871z"/>
			<path fill="#FF9E55" d="M1969.777,1204.893c0,0-2.849,52.721-6.413,113.808c-2.566,43.802-5.486,91.912-7.992,127.942
				c-0.333,4.781-0.665,9.352-0.978,13.671c-0.09,1.339-0.19,2.668-0.292,3.996c-6.473,80.788-28.107,151.569-28.107,151.569
				c-25.408,5.355-36.885-4.439-36.885-4.439s-17.507-205.176-23.99-287.927c-4.771-60.916-8.839-149.606-8.839-149.606
				L1969.777,1204.893z"/>
			<path fill="#ED7D2B" d="M1963.364,1318.7c-2.566,43.802-5.486,91.912-7.992,127.942
				c-16.611-39.182-50.547-191.898-50.547-191.898L1963.364,1318.7z"/>
			<path fill="#24406D" d="M1965.996,1649.871h90.371c6.475-4.391-1.747-47.32-1.747-47.32s-24.664-9.358-28.924,9.673
				c-4.273,19.019-31.416,25.065-45.781,27.386C1970.085,1641.208,1966.979,1646.608,1965.996,1649.871z"/>
			<path fill="#FF9E55" d="M1880.83,1194.406c0,0,64.535,160.641,85.166,221.533c14.695,43.374,56.14,195.535,56.14,195.535
				s18.022,5.484,33.169-5.117c0,0,15.419-155.458-15.727-199.292c-16.524-23.257-4.106-241.751-71.104-243.622
				C1901.476,1161.573,1880.83,1194.406,1880.83,1194.406z"/>
			<path fill="#AEC3FF" d="M2012.975,1142.738c-0.271,22.843-0.522,39.614-0.463,43.853c0.182,13.821-8.657,16.942-17.769,19.047
				c0,0-8.416,1.812-19.036,3.614c-10.399,1.741-22.943,3.463-31.802,3.402c-45.313-0.362-83.234-13.701-83.234-13.701
				c-8.527,0-12.413-13.188-13.813-31.601c-0.946-12.463,2.899-136.751,3.383-167.787c0.332-22.259,12.554-42.825,15.967-45.835
				c31.641-27.977,125.012-24.453,141.814-5.154c4.157,4.771,5.365,50.788,5.506,101.193
				C2013.619,1082.216,2013.287,1116.483,2012.975,1142.738z"/>
			<path fill="#FFB27D" d="M1956.911,937.502c-11.919,12.916-51.955,11.003-50.768-0.271c0.161-1.39,0.423-9.645,0.554-10.923
				c0.101-1.027,0.201-2.034,0.282-2.98c0.271-2.778,0.493-5.234,0.674-7.358c0.534-6.182,0.705-9.533,0.705-9.533s0.02,0,0.04,0
				c1.147-0.322,26.89-7.631,39.694-10.661c4.299-1.017,7.147-1.551,7.098-1.179
				C1951.264,923.357,1960.817,933.264,1956.911,937.502z"/>
			<path fill="#ED975D" d="M1949.452,904.261c0,0-10.752,10.923-41.799,11.708c0.534-6.182,0.705-9.533,0.705-9.533s0.02,0,0.04,0
				c1.147-0.322,26.89-7.631,39.694-10.661C1950.348,896.7,1947.358,902.71,1949.452,904.261z"/>
			<path fill="#FFB27D" d="M1900.488,904.905c0,0,7.86,2.821,17.883,4.169c14.655,1.979,33.926,0.812,39.979-16.92
				c10.197-29.846,23.223-47.741-6.784-59.928c-16.063-6.524-26.341-6.871-33.32-4.38c-6.064,2.148-9.64,6.441-12.347,10.688
				C1900.073,847.669,1888.351,899.681,1900.488,904.905z"/>
			<path fill="#233862" d="M1908.158,815.437c-10.72,7.04-7.219,23.538,5.412,25.759c7.569,1.331,13.918,1.596,17.592,3.229
				c7.462,3.315,13.876,6.833,12.113,18.41c-0.599,3.938-2.519,8.733,7.616,6.353c1.66-0.389,2.857-0.274,3.681,0.22
				c4.204,2.494-1.168,14.584-2.789,17.201c0,0-2.331,8.66,2.844,12.876c0.626,0.504,10.792,4.947,35.29-32.544
				c3.852-5.885,7.527-19.143,1.58-31.908c-5.939-12.765-22.508-28.909-53.717-28.909
				C1929.655,806.124,1917.441,809.34,1908.158,815.437z"/>
			<path fill="#94B0ED" d="M2012.975,1142.738c-4.56,21.191-3.399,21.414-10.394,15.854c-28.5-22.652-20.17-34.519-13.838-54.149
				s-15.896-50.335,0-63.422c15.544-12.795,24.402,7.832,24.785,8.748C2013.619,1082.216,2013.287,1116.483,2012.975,1142.738z"/>
			<path fill="#FFB27D" d="M2012.276,1140.014c0,0-10.74,17.566-17.784,16.946s-16.546-3.247-22.034,1.989
				c-5.489,5.235-14.33,18.743-11.858,22.34c2.472,3.596,12.407,0.407,19.547-3.531c7.141-3.938,18.383,1.94,24.375-2.533
				c5.991-4.474,20.341-22.237,20.341-22.237L2012.276,1140.014z"/>
			<path fill="#AEC3FF" d="M2008.024,948.576c0,0,89.151,83.889,77.574,139.692c-5.275,25.427-21.645,46.88-65.268,81.61
				c0,0-20.638-14.262-25.168-25.838c0,0,39.597-55.772,38.066-65.269c-1.874-11.623-28.904-40.771-38.603-45.302
				S1985.82,958.312,2008.024,948.576z"/>
			<path fill="#FFB27D" d="M1994.492,1156.96c0,0-9.396-4.11-12.416-5.872c-3.021-1.762-2.35,1.09-1.427,2.517
				c0.923,1.426,3.439,4.614,7.131,4.949C1991.472,1158.89,1994.492,1156.96,1994.492,1156.96z"/>
		</g>
	</g>
	<g>
		<path fill="#163560" d="M426.896,974.667c-3.224-6.216,70.319-28.602,71.484,32.749c0,0,137.766-3.387,71.986-80.174
			c-22.772-26.584-20.43-48.563-19.747-69.023c0.692-20.463-14.185-79.932-65.177-73.943c0,0-13.354-5.434-30.02,3.212
			C417.521,807.15,332.62,997.292,426.896,974.667z"/>
		<path fill="#FFB27D" d="M652.126,1030.98c0,0,8.967-13.651,16.194-13.919c7.228-0.269,20.611-4.016,19.541-1.339
			s-9.369,2.944-10.171,4.551c-0.803,1.605,12.313,4.015,16.061,4.283c3.748,0.268,12.581,0,12.313,1.873
			c-0.268,1.874-15.921,9.637-26.965,8.566c-11.045-1.071-24.697,3.212-24.697,3.212L652.126,1030.98z"/>
		<path fill="#AEC3FF" d="M522.435,1035.397c0,0,4.875,9.652,13.716,20.742c10.656,13.347,27.086,28.765,47.716,31.809
			c9.853,1.453,19.49-0.667,28.347-4.602c0.024-0.008,0.032-0.008,0.032-0.008c25.055-11.122,43.894-36.699,43.894-36.699
			c4.417-12.046-2.811-20.213-2.811-20.213s-50.592,11.38-55.41,8.971c-4.818-2.409-34.441-68.128-39.777-79.073
			c-11.342-23.266-29.34-29.939-29.34-29.939L522.435,1035.397z"/>
		<path fill="#94B0ED" d="M536.151,1056.14c10.656,13.347,27.086,28.765,47.716,31.809c9.853,1.453,19.49-0.667,28.347-4.602
			c-0.979,0.128-26.002,3.22-35.976-14.624c-10.174-18.204-21.176-47.113-36.29-37.478
			C533.429,1035.405,533.718,1045.74,536.151,1056.14z"/>
		<path fill="#1D3356" d="M333.688,1581.505c0,0-15.437,14.088-12.425,24.099c3.012,10.01,16.943,16.683,18.826,28.917
			c1.883,12.235,9.413,18.908,16.19,18.908s32.312,0,32.312,0s4.989-8.609-7.06-11.204c-12.048-2.596-16.591-16.973-15.838-30.319
			s-1.129-31.142-1.129-31.142l-25.604-5.933L333.688,1581.505z"/>
		<path fill="#1D3356" d="M464.349,1587.485c0,0-5.554,59.683,1.224,63.02l86.735-0.178c0,0,0-10.011-13.932-12.235
			c-13.931-2.224-38.405-10.38-42.546-28.547C491.688,1591.379,464.349,1587.485,464.349,1587.485z"/>
		<path fill="#AEC3FF" d="M397.628,995.142c0,0-1.293,18.222,0,40.089c0.859,14.495,15.522,33.91,17.602,38.713
			c5.22,12.045,11.106,14.005,11.106,14.005l45.54,11.162l16.013,3.919l50.495-15.081c0,0,22.999-64.195,13.764-100.332
			c-9.235-36.137-23.344-61.231-23.344-61.231s-34.232-13.51-94.854-3.421L397.628,995.142z"/>
		<path fill="#F2CCAA" d="M410.958,1041.146c0.859,14.495,2.192,27.994,4.272,32.797c5.22,12.045,11.106,14.005,11.106,14.005
			l45.54,11.162l19.779-5.814c0,0-66.026-10.006-58.71-66.813L410.958,1041.146z"/>
		<path fill="#233862" d="M535.172,1097.691c0,0,25.006,77.836,26.612,104.336c1.606,26.5-47.801,376.46-49.789,388.67
			c-1.874,11.511-16.166,18.848-16.166,18.848s-6.574,3.878-15.956,1.229c-13.017-3.676-17.131-8.076-17.131-8.076
			s-19.463-249.589-7.418-338.746c12.045-89.158,12.187-166.26,12.187-166.26H535.172z"/>
		<path fill="#2B478B" d="M429.226,1095.371c0,0-38.145,51.18-41.701,85.777s-5.579,156.123-13.155,189.851
			s-35.411,98.635-35.411,203.832c0,0,2.893,6.029,11.827,9.241c2.856,1.027,6.684,2.023,10.4,2.876
			c7.368,1.689,14.926-1.912,18.289-8.682c18.819-37.89,78.763-160.093,81.836-185.46c2.175-17.951,21.103-136.763,62.388-206.479
			c9.912-16.737-6.083-83.298-6.083-83.298L429.226,1095.371z"/>
		<path fill="#233862" d="M539.167,1085.676c0,0-10.04,7.941-29.981,8.343c-23.821,0.479-82.847-6.072-82.847-6.072
			s-2.623,7.327-2.516,15.064c0,0,72.091,18.185,113.86,2.655C537.682,1105.666,543.069,1095.53,539.167,1085.676z"/>
		<g>
			<path fill="#FFFFFF" d="M504.03,1102.244c0-6.783,4.875-12.302,10.869-12.302c5.994,0,10.87,5.519,10.87,12.302
				c0,6.784-4.876,12.303-10.87,12.303C508.906,1114.547,504.03,1109.028,504.03,1102.244z M507.633,1102.244
				c0,4.798,3.26,8.699,7.266,8.699c4.008,0,7.268-3.901,7.268-8.699c0-4.797-3.26-8.699-7.268-8.699
				C510.893,1093.545,507.633,1097.447,507.633,1102.244z"/>
		</g>
		<path fill="#F78248" d="M356.391,1106.427l58.54,50.974c4.23,3.684,10.645,3.24,14.328-0.989l74.696-85.782
			c3.684-4.23,3.24-10.646-0.99-14.328l-58.54-50.975c-4.23-3.684-10.645-3.24-14.328,0.989l-74.696,85.783
			C351.717,1096.328,352.161,1102.743,356.391,1106.427z"/>
		<path fill="#FFB27D" d="M442.997,1099.992c0.831,0.221,31.095,3.777,31.1,10.03c0.006,7.23-8.87,16.919-17.231,16.462
			c-3.388-0.186-19.001-14.543-19.001-14.543L442.997,1099.992z"/>
		<path fill="#FFB27D" d="M458.537,919.652c3.443-8.352,5.453-21.07,5.396-36.813l2.287,0.45l38.443,7.612
			c0,0-0.875,12.099-0.9,23.496c0,0.095,0,0.189-0.001,0.283c-0.047,9.898,6.688,19.831-9.19,23.757
			C489.665,939.651,451.306,937.19,458.537,919.652z"/>
		<path fill="#E8945B" d="M504.664,890.902c0,0-0.875,12.099-0.901,23.496c-21.512-0.606-32.883-20.23-37.542-31.108
			L504.664,890.902z"/>
		<path fill="#FFB27D" d="M511.848,901.694c0,0-50.898,0.84-50.933-30.864c-0.035-31.705-6.628-52.949,25.867-54.826
			c32.496-1.876,38.823,10.214,41.408,20.794C530.776,847.378,525.086,900.659,511.848,901.694z"/>
		<path fill="#163560" d="M509.964,815.228c0,0-13.936,37.196-35.323,42.695c-21.386,5.5-30.664-0.23-30.664-0.23
			s16.405-13.032,19.809-35.78C463.787,821.912,499.452,797.524,509.964,815.228z"/>
		<path fill="#163560" d="M506.51,818.248c0,0,10.334,3.863,14.587,11.399c4.159,7.371,7.703,17.131,6.88,29.107
			c0,0,10.5-25.282-1.3-39.584C514.166,804.005,506.51,818.248,506.51,818.248z"/>
		<path fill="#FFB27D" d="M442.997,1099.992c0,0,7.253-2.33,12.1-1.651c4.847,0.679,8.434-0.097,8.434,1.261
			c0,1.356-6.258,1.99-7.588,2.643C454.612,1102.896,442.997,1099.992,442.997,1099.992z"/>
		<path fill="#AEC3FF" d="M433.949,922.964c0,0-36.13,2.533-49.98,36.2s-40.126,90.194-40.126,99.704
			c0,9.509,14.678,38.823,93.509,55.679c0,0,8.154-8.577,7.66-15.36c0,0-49.209-42.267-49.076-47.206
			c0.25-9.345,8.067-21.68,51.271-64.897C458.951,975.334,433.949,922.964,433.949,922.964z"/>
	</g>
	<g>
		<g>
			<path fill="#F78248" d="M1443.659,636.076h-390.434c-9.442,0-18.498,3.751-25.175,10.428L751.972,922.582
				c-6.677,6.677-10.428,15.732-10.428,25.175v390.434c0,9.442,3.751,18.498,10.428,25.175l276.078,276.078
				c6.677,6.678,15.733,10.428,25.175,10.428h390.434c9.442,0,18.498-3.75,25.175-10.428l276.079-276.078
				c6.677-6.677,10.428-15.732,10.428-25.175V947.757c0-9.442-3.751-18.498-10.428-25.175l-276.079-276.079
				C1462.157,639.827,1453.102,636.076,1443.659,636.076z"/>
			<g>
				<path fill="#FFE5D4" d="M1416.191,1599.12h-335.499c-13.666,0-26.514-5.322-36.178-14.983L807.28,1346.9
					c-9.663-9.661-14.985-22.51-14.985-36.176V975.223c0-13.666,5.323-26.515,14.986-36.178l237.232-237.232
					c9.666-9.665,22.514-14.987,36.179-14.987h335.499c13.667,0,26.516,5.322,36.179,14.987l237.234,237.234
					c9.663,9.663,14.985,22.51,14.985,36.176v335.502c0,13.666-5.322,26.514-14.985,36.176l-237.234,237.234
					C1442.707,1593.798,1429.859,1599.12,1416.191,1599.12z M1080.692,721.615c-4.373,0-8.485,1.703-11.579,4.797L831.881,963.646
					c-3.093,3.093-4.797,7.203-4.797,11.577v335.502c0,4.374,1.704,8.484,4.796,11.576l237.234,237.236
					c3.092,3.091,7.204,4.794,11.578,4.794h335.499c4.375,0,8.487-1.703,11.58-4.794l237.234-237.234
					c3.091-3.094,4.794-7.204,4.794-11.578V975.223c0-4.374-1.703-8.484-4.794-11.577l-237.234-237.235
					c-3.093-3.093-7.205-4.796-11.58-4.796H1080.692z"/>
			</g>
			<path fill="#FFE5D4" d="M1519.036,1155.742l-6.835-5.918c-17.171-14.868-43.385-12.982-58.253,4.188l-38.605,44.588
				c-5.517,6.372-15.983,2.47-15.983-5.958l0,0c0-3.534-0.194-7.025-0.563-10.467V901.469c0-18.436-15.084-33.52-33.52-33.52h-2.476
				c-18.436,0-33.52,15.084-33.52,33.52v182.695c0,4.432-3.594,8.025-8.026,8.025l0,0c-4.895,0-8.862-3.968-8.862-8.862V866.072
				c0-17.819-14.579-32.398-32.398-32.398h-4.718c-17.819,0-32.398,14.579-32.398,32.398v218.686c0,4.104-3.328,7.432-7.432,7.432
				l0,0c-5.223,0-9.457-4.233-9.457-9.456V908.398c0-18.436-15.083-33.52-33.52-33.52h-2.476c-18.436,0-33.52,15.084-33.52,33.52
				v175.748c0,4.442-3.601,8.043-8.043,8.043l0,0c-4.885,0-8.845-3.96-8.845-8.846V945.843c0-18.437-15.083-33.52-33.52-33.52
				h-2.476c-18.436,0-33.52,15.083-33.52,33.52v241.424c0,0.67,0.026,1.334,0.065,1.995c-0.039,1.123-0.065,2.249-0.065,3.381
				v132.886c0,54.011,44.19,98.2,98.201,98.2h132.886c34.543,0,65.066-18.078,82.583-45.24c5.29-8.203,11.015-16.119,17.405-23.499
				l122.077-140.995C1538.093,1196.823,1536.207,1170.609,1519.036,1155.742z"/>
		</g>
	</g>
</g>
<g>
</g>
<g>
</g>
<g>
</g>
<g>
</g>
<g>
</g>
<g>
</g>
</svg>
