<?xml version="1.0" encoding="utf-8"?>
<!-- Generator: Adobe Illustrator 16.0.0, SVG Export Plug-In . SVG Version: 6.00 Build 0)  -->
<!DOCTYPE svg PUBLIC "-//W3C//DTD SVG 1.1//EN" "http://www.w3.org/Graphics/SVG/1.1/DTD/svg11.dtd">
<svg version="1.1" id="Capa_1" xmlns="http://www.w3.org/2000/svg" xmlns:xlink="http://www.w3.org/1999/xlink" x="0px" y="0px"
	 width="602.28px" height="602.28px" viewBox="-3.5 119.805 602.28 602.28" enable-background="new -3.5 119.805 602.28 602.28"
	 xml:space="preserve">
<g>
	<g>
		<path stroke="#000000" stroke-width="7" stroke-miterlimit="10" d="M531.5,123.305H63.78C28.555,123.305,0,151.86,0,187.085
			v467.721c0,35.225,28.555,63.779,63.779,63.779H531.5c35.225,0,63.78-28.555,63.78-63.779V187.085
			C595.28,151.86,566.725,123.305,531.5,123.305z M552.759,654.806c0,11.741-9.519,21.26-21.26,21.26H63.78
			c-11.741,0-21.26-9.519-21.26-21.26V187.085c0-11.742,9.519-21.26,21.26-21.26H531.5c11.742,0,21.26,9.518,21.26,21.26
			L552.759,654.806L552.759,654.806z"/>
	</g>
</g>
<g>
	<g>
		<path stroke="#000000" stroke-width="7" stroke-miterlimit="10" d="M191.34,250.865h-63.78c-11.742,0-21.26,9.519-21.26,21.261
			c0,11.742,9.518,21.26,21.26,21.26h63.78c11.742,0,21.261-9.519,21.261-21.26C212.601,260.383,203.082,250.865,191.34,250.865z"/>
	</g>
</g>
<g>
	<g>
		<path stroke="#000000" stroke-width="7" stroke-miterlimit="10" d="M467.72,250.865H276.38c-11.742,0-21.26,9.519-21.26,21.261
			c0,11.742,9.518,21.26,21.26,21.26h191.34c11.742,0,21.261-9.519,21.261-21.26C488.981,260.383,479.461,250.865,467.72,250.865z"
			/>
	</g>
</g>
<g>
	<g>
		<path stroke="#000000" stroke-width="7" stroke-miterlimit="10" d="M191.34,399.686h-63.78c-11.742,0-21.26,9.519-21.26,21.26
			c0,11.742,9.518,21.26,21.26,21.26h63.78c11.742,0,21.261-9.519,21.261-21.261S203.082,399.686,191.34,399.686z"/>
	</g>
</g>
<g>
	<g>
		<path stroke="#000000" stroke-width="7" stroke-miterlimit="10" d="M467.72,399.686H276.38c-11.742,0-21.26,9.519-21.26,21.26
			c0,11.742,9.518,21.26,21.26,21.26h191.34c11.742,0,21.261-9.519,21.261-21.261S479.461,399.686,467.72,399.686z"/>
	</g>
</g>
<g>
	<g>
		<path stroke="#000000" stroke-width="7" stroke-miterlimit="10" d="M191.34,548.505h-63.78c-11.742,0-21.26,9.518-21.26,21.26
			s9.518,21.261,21.26,21.261h63.78c11.742,0,21.261-9.519,21.261-21.261S203.082,548.505,191.34,548.505z"/>
	</g>
</g>
<g>
	<g>
		<path stroke="#000000" stroke-width="7" stroke-miterlimit="10" d="M467.72,548.505H276.38c-11.742,0-21.26,9.518-21.26,21.26
			s9.518,21.261,21.26,21.261h191.34c11.742,0,21.261-9.519,21.261-21.261S479.461,548.505,467.72,548.505z"/>
	</g>
</g>
</svg>
