<svg id="shipment" xmlns="http://www.w3.org/2000/svg" width="62.227" height="35.127" viewBox="0 0 62.227 35.127">
  <g id="Group_179" data-name="Group 179" transform="translate(5.764 1.011)">
    <path id="Path_458" data-name="Path 458" d="M33.532,80.967h-4.4l4.4-2.1V77.269l-7.874,3.766a.725.725,0,0,0-.39.81.712.712,0,0,0,.693.564h7.572Z" transform="translate(-25.25 -75.218)" fill="#596c76"/>
    <path id="Path_459" data-name="Path 459" d="M405.3,127.882v-1.511h-1.42v1.656a1.231,1.231,0,0,0,.857,1.183.528.528,0,0,1,.372.529.539.539,0,0,1-.5.507.509.509,0,0,1-.382-.147.528.528,0,0,1-.16-.381.71.71,0,1,0-1.42,0,1.971,1.971,0,0,0,.595,1.42,1.906,1.906,0,0,0,1.344.551h.076a1.978,1.978,0,0,0,.635-3.805Z" transform="translate(-362.998 -119.597)" fill="#596c76"/>
    <path id="Path_460" data-name="Path 460" d="M296.995,60.411l-12.551-4.45c-.018-.006-.037-.012-.055-.016V57.47l8.3,2.941Z" transform="translate(-255.93 -55.945)" fill="#596c76"/>
  </g>
  <path id="Path_461" data-name="Path 461" d="M298.456,101.379H284.39v2.5h14.066a.3.3,0,0,0,.3-.3v-1.9A.3.3,0,0,0,298.456,101.379Z" transform="translate(-250.166 -95.997)" fill="#8d9ca8"/>
  <path id="Path_462" data-name="Path 462" d="M259.034,56.107V45.729a.3.3,0,0,0-.3-.3h-2.165a.3.3,0,0,0-.3.3V56.107h2.755Z" transform="translate(-224.716 -45.429)" fill="#9facba"/>
  <path id="Path_463" data-name="Path 463" d="M114.519,77.843V69.778a.3.3,0,0,0-.3-.3h-2.165a.3.3,0,0,0-.3.3v8.065Z" transform="translate(-97.999 -67.165)" fill="#9facba"/>
  <g id="Group_180" data-name="Group 180" transform="translate(12.335 10.582)">
    <path id="Path_464" data-name="Path 464" d="M94.4,160.8v-5.124l-.095-.231h-12.4a.3.3,0,0,0-.3.3V160.8Z" transform="translate(-81.614 -155.442)" fill="#faea5e"/>
    <path id="Path_465" data-name="Path 465" d="M84.645,160.7v-4.959a.3.3,0,0,1,.3-.3H81.909a.3.3,0,0,0-.3.3V160.7Z" transform="translate(-81.614 -155.442)" fill="#ffd600"/>
    <path id="Path_466" data-name="Path 466" d="M228.424,160.8v-5.055a.3.3,0,0,0-.3-.3h-12.4V160.8Z" transform="translate(-203.04 -155.442)" fill="#80d261"/>
    <path id="Path_467" data-name="Path 467" d="M215.732,155.442h3.031V160.7h-3.031Z" transform="translate(-203.04 -155.442)" fill="#68ca44"/>
    <path id="Path_468" data-name="Path 468" d="M162.748,215.469H175.63v-5.008l-.095-.347H162.843l-.095.337Z" transform="translate(-155.07 -204.855)" fill="#fd4755"/>
    <path id="Path_469" data-name="Path 469" d="M162.748,270.566H175.63V265l-.095-.213H162.843l-.095.18Z" transform="translate(-155.07 -254.27)" fill="#80d261"/>
  </g>
  <g id="Group_181" data-name="Group 181" transform="translate(2.804 15.84)">
    <path id="Path_470" data-name="Path 470" d="M42.323,215.47v-5.355h-12.4a.3.3,0,0,0-.3.3v4.959l.13.1Z" transform="translate(-29.631 -210.115)" fill="#fea613"/>
    <path id="Path_471" data-name="Path 471" d="M32.707,215.374v-4.959a.3.3,0,0,1,.3-.3H29.926a.3.3,0,0,0-.3.3v4.959Z" transform="translate(-29.631 -210.115)" fill="#fe9901"/>
    <path id="Path_472" data-name="Path 472" d="M163.748,210.114h3.057v5.355h-3.057Z" transform="translate(-151.056 -210.114)" fill="#fb2b3a"/>
    <path id="Path_473" data-name="Path 473" d="M306.137,215.469l.419-.639a.39.39,0,0,1,.327-.178h3.675v-4.238a.3.3,0,0,0-.3-.3h-12.4v5.355h8.271Z" transform="translate(-272.482 -210.114)" fill="#01c0fa"/>
    <path id="Path_474" data-name="Path 474" d="M297.866,210.114h3.039v5.259h-3.039Z" transform="translate(-272.481 -210.114)" fill="#08a9f1"/>
  </g>
  <g id="Group_182" data-name="Group 182" transform="translate(2.804 21.099)">
    <path id="Path_475" data-name="Path 475" d="M34.224,267.265a.4.4,0,0,1,.4.4v1.8a1.089,1.089,0,0,0,1.078,1.1h6.624v-5.779H29.631v2.479h4.593Z" transform="translate(-29.631 -264.786)" fill="#01c0fa"/>
    <path id="Path_476" data-name="Path 476" d="M29.631,264.787h3.076v2.383H29.631Z" transform="translate(-29.631 -264.787)" fill="#08a9f1"/>
    <path id="Path_477" data-name="Path 477" d="M299.264,270.567a1.067,1.067,0,0,0,.84-.409l2.022-2.554a.879.879,0,0,1,.693-.337h1.755l1.626-2.479h-8.334v5.779h1.4Z" transform="translate(-272.482 -264.788)" fill="#fea613"/>
    <path id="Path_478" data-name="Path 478" d="M299.264,270.469a.978.978,0,0,0,.767-.373l.874-1.1v-4.205h-3.039v5.683h1.4Z" transform="translate(-272.482 -264.786)" fill="#fe9901"/>
    <path id="Path_479" data-name="Path 479" d="M163.748,264.787h3.057v5.779h-3.057Z" transform="translate(-151.056 -264.787)" fill="#68ca44"/>
  </g>
  <path id="Path_480" data-name="Path 480" d="M379.846,259.586v-2.8a.491.491,0,0,0-.487-.5h-9.386a.485.485,0,0,0-.406.221l-2.017,3.076Z" transform="translate(-318.992 -236.008)" fill="#596c76"/>
  <path id="Path_481" data-name="Path 481" d="M371.7,259.586l2.017-3.076a.486.486,0,0,1,.406-.221h-4.152a.486.486,0,0,0-.406.221l-2.017,3.076Z" transform="translate(-318.993 -236.008)" fill="#465a61"/>
  <path id="Path_482" data-name="Path 482" d="M61.595,289.56H42.563a1.412,1.412,0,0,0-.985.373l-2.6,2.554a1.412,1.412,0,0,1-.985.373h-26.6a1.155,1.155,0,0,1-1.264-1v-1.8a.578.578,0,0,0-.632-.5H.632a.578.578,0,0,0-.632.5v2.505a1.233,1.233,0,0,0,.141.567l3.947,7.646c.815-.3,32.116.426,33.95.426s14.587-.947,15.16-.672l8.916-10.188c.291-.332-.009-.785-.519-.785Z" transform="translate(0 -266.078)" fill="#faea5e"/>
  <path id="Path_483" data-name="Path 483" d="M7.247,301.065l-3.189-7.933a1.522,1.522,0,0,1-.11-.567v-2.505a.5.5,0,0,1,.492-.5H.492a.5.5,0,0,0-.492.5v2.505a1.522,1.522,0,0,0,.11.567l3.074,7.646C3.818,300.48,6.277,300.82,7.247,301.065Z" transform="translate(0 -266.077)" fill="#ffd600"/>
  <g id="Group_188" data-name="Group 188" transform="translate(47.425 27.159)">
    <ellipse id="Ellipse_28" data-name="Ellipse 28" cx="1.869" cy="1.961" rx="1.869" ry="1.961" transform="translate(0 0)" fill="#99e6fc"/>
  </g>
  <path id="Path_487" data-name="Path 487" d="M384.526,329.754a1.963,1.963,0,0,1,1.165-1.816,1.787,1.787,0,0,0-.7-.145,1.964,1.964,0,0,0,0,3.923,1.786,1.786,0,0,0,.7-.145A1.963,1.963,0,0,1,384.526,329.754Z" transform="translate(-335.976 -300.634)" fill="#62dbfb"/>
  <g id="Group_193" data-name="Group 193" transform="translate(12.532 29.288)">
    <g id="Group_189" data-name="Group 189" transform="translate(20.441 0)">
      <ellipse id="Ellipse_29" data-name="Ellipse 29" cx="0.71" cy="0.721" rx="0.71" ry="0.721" fill="#596c76"/>
    </g>
    <g id="Group_190" data-name="Group 190" transform="translate(13.627 0)">
      <ellipse id="Ellipse_30" data-name="Ellipse 30" cx="0.71" cy="0.721" rx="0.71" ry="0.721" fill="#596c76"/>
    </g>
    <g id="Group_191" data-name="Group 191" transform="translate(6.814 0)">
      <ellipse id="Ellipse_31" data-name="Ellipse 31" cx="0.71" cy="0.721" rx="0.71" ry="0.721" fill="#596c76"/>
    </g>
    <g id="Group_192" data-name="Group 192" transform="translate(0 0)">
      <ellipse id="Ellipse_32" data-name="Ellipse 32" cx="0.71" cy="0.721" rx="0.71" ry="0.721" fill="#596c76"/>
    </g>
  </g>
</svg>
