<svg xmlns="http://www.w3.org/2000/svg" width="317.656" height="287.073" viewBox="0 0 317.656 287.073">
  <g id="Group_282" data-name="Group 282" transform="translate(-825 -238.259)">
    <g id="Path_675" data-name="Path 675" transform="translate(825 483.083)" fill="rgba(255,255,255,0.35)">
      <path d="M 144.4909057617188 41.74879455566406 C 124.9950103759766 41.74879455566406 106.0827255249023 41.19057846069336 88.27940368652344 40.08968734741211 C 71.08733367919922 39.02658081054688 55.64883422851563 37.50490188598633 42.39276123046875 35.56686401367188 C 29.15383338928223 33.63136672973633 18.76612091064453 31.37968635559082 11.51815605163574 28.8744010925293 C 4.310012817382813 26.38290023803711 0.5000129342079163 23.70297241210938 0.5000129342079163 21.1244010925293 C 0.5000129342079163 18.54582977294922 4.310012817382813 15.86590099334717 11.51815605163574 13.3744010925293 C 18.76612091064453 10.86911582946777 29.15383338928223 8.617436408996582 42.39276123046875 6.681936740875244 C 55.64883422851563 4.743901252746582 71.08733367919922 3.222222566604614 88.27940368652344 2.159115314483643 C 106.0827255249023 1.058222532272339 124.9950103759766 0.500008225440979 144.4909057617188 0.500008225440979 C 163.9868011474609 0.500008225440979 182.8990783691406 1.058222532272339 200.7024078369141 2.159115314483643 C 217.8944702148438 3.222222566604614 233.3329772949219 4.743901252746582 246.5890502929688 6.681936740875244 C 259.8279724121094 8.617436408996582 270.2156982421875 10.86911582946777 277.4636535644531 13.3744010925293 C 284.6717834472656 15.86590099334717 288.4818115234375 18.54582977294922 288.4818115234375 21.1244010925293 C 288.4818115234375 23.70297241210938 284.6717834472656 26.38290023803711 277.4636535644531 28.8744010925293 C 270.2156982421875 31.37968635559082 259.8279724121094 33.63136672973633 246.5890502929688 35.56686401367188 C 233.3329772949219 37.50490188598633 217.8944702148438 39.02658081054688 200.7024078369141 40.08968734741211 C 182.8990783691406 41.19057846069336 163.9868011474609 41.74879455566406 144.4909057617188 41.74879455566406 Z" stroke="none"/>
      <path d="M 144.4909057617188 1.000015258789063 C 125.0052490234375 1.000015258789063 106.1033325195313 1.557899475097656 88.31025695800781 2.658168792724609 C 71.13201904296875 3.720401763916016 55.70744323730469 5.240669250488281 42.46505737304688 7.176670074462891 C 29.25704956054688 9.107669830322266 18.89993286132813 11.35186195373535 11.68148803710938 13.84697723388672 C 8.08404541015625 15.09043884277344 5.337066650390625 16.38032341003418 3.516876220703125 17.68074798583984 C 1.8468017578125 18.87393951416016 0.999969482421875 20.03255462646484 0.999969482421875 21.1244010925293 C 0.999969482421875 22.21624755859375 1.8468017578125 23.37486267089844 3.516876220703125 24.56805419921875 C 5.337066650390625 25.86847877502441 8.08404541015625 27.15836334228516 11.68148803710938 28.40182495117188 C 18.89993286132813 30.89693832397461 29.25704956054688 33.14113235473633 42.46505737304688 35.0721321105957 C 55.70744323730469 37.00813293457031 71.13201904296875 38.52840042114258 88.31025695800781 39.59063339233398 C 106.1033325195313 40.69090270996094 125.0052490234375 41.24878692626953 144.4909057617188 41.24878692626953 C 163.9765625 41.24878692626953 182.8784484863281 40.69090270996094 200.6715698242188 39.59063339233398 C 217.8497924804688 38.52840042114258 233.2743225097656 37.00813293457031 246.5167083740234 35.0721321105957 C 259.7247619628906 33.14113235473633 270.0818176269531 30.89693832397461 277.30029296875 28.40182495117188 C 280.8977661132813 27.15836334228516 283.6447143554688 25.86851692199707 285.4649047851563 24.56805419921875 C 287.1349792480469 23.37486267089844 287.9817810058594 22.21624755859375 287.9817810058594 21.1244010925293 C 287.9817810058594 20.03255462646484 287.1349792480469 18.87393951416016 285.4649047851563 17.68074798583984 C 283.6447143554688 16.38028526306152 280.8977661132813 15.09043884277344 277.30029296875 13.84697723388672 C 270.0818176269531 11.35186195373535 259.7247619628906 9.107669830322266 246.5167083740234 7.176670074462891 C 233.2743225097656 5.240669250488281 217.8497924804688 3.720401763916016 200.6715698242188 2.658168792724609 C 182.8784484863281 1.557899475097656 163.9765625 1.000015258789063 144.4909057617188 1.000015258789063 M 144.4909057617188 1.52587890625e-05 C 224.291015625 1.52587890625e-05 288.9817810058594 9.457710266113281 288.9817810058594 21.1244010925293 C 288.9817810058594 32.79109191894531 224.291015625 42.24878692626953 144.4909057617188 42.24878692626953 C 64.6907958984375 42.24878692626953 -3.0517578125e-05 32.79109191894531 -3.0517578125e-05 21.1244010925293 C -3.0517578125e-05 9.457710266113281 64.6907958984375 1.52587890625e-05 144.4909057617188 1.52587890625e-05 Z" stroke="none" fill="#707070"/>
    </g>
    <g id="Group_280" data-name="Group 280" transform="translate(825.273 238.259)">
      <g id="Group_279" data-name="Group 279" transform="translate(0 0)">
        <g id="Group_244" data-name="Group 244" transform="translate(0)">
          <g id="Group_237" data-name="Group 237" transform="translate(0 116.681)">
            <g id="Group_228" data-name="Group 228" transform="translate(10.699 0.492)">
              <g id="Group_225" data-name="Group 225" transform="translate(27.421 0.892)">
                <path id="Path_567" data-name="Path 567" d="M-2667.917-435.793c2.436-9.315,8-15.932,12.433-14.779s6.047,9.64,3.61,18.955c-.337,1.287.548,1.343.842.219,2.692-10.293.906-19.671-3.99-20.945s-11.046,6.037-13.738,16.33C-2669.067-434.834-2668.253-434.506-2667.917-435.793Z" transform="translate(2668.827 452.487)" fill="#02ccc0"/>
              </g>
              <g id="Group_227" data-name="Group 227">
                <g id="Group_226" data-name="Group 226">
                  <path id="Path_568" data-name="Path 568" d="M-2689.438-355.079l-10.069,7.313-28.357-55.984,4.388-7.217,38.445,10.183Z" transform="translate(2743.804 419.936)" fill="#00b0a5"/>
                  <path id="Path_569" data-name="Path 569" d="M-2765.517-340.141l-44.3-11.531,15.885-49.828,38.952,10.14Z" transform="translate(2809.813 412.31)" fill="#02ccc0"/>
                  <path id="Path_570" data-name="Path 570" d="M-2685.256-400.784l-38.445-10.183,2.185,1.859-6.626-.018,38.952,10.14,1.053-1.292Z" transform="translate(2744.027 419.936)" fill="#008c83"/>
                  <path id="Path_571" data-name="Path 571" d="M-2682.624-439.028c2.634-10.07,8.651-17.223,13.44-15.977s6.536,10.421,3.9,20.492c-.364,1.391.593,1.452.91.237,2.91-11.128.979-21.265-4.313-22.643s-11.941,6.526-14.851,17.654C-2683.867-437.992-2682.988-437.637-2682.624-439.028Z" transform="translate(2708.155 457.075)" fill="#02ccc0"/>
                </g>
              </g>
              <path id="Path_572" data-name="Path 572" d="M-2562.069-358.1l-9.565,42.65,8.04,2.549,4.406-45.7Z" transform="translate(2617.959 377.762)" fill="#e6e6e6" style="mix-blend-mode: multiply;isolation: isolate"/>
            </g>
            <g id="Group_232" data-name="Group 232" transform="translate(0 0.359)">
              <g id="Group_229" data-name="Group 229" transform="translate(36.315 1.296)">
                <path id="Path_573" data-name="Path 573" d="M-2677.133-437.351c4.47-8.529,11.382-13.723,15.439-11.6s3.723,10.753-.747,19.282c-.617,1.178.232,1.432.771.4,4.939-9.424,5.308-18.963.825-21.306s-12.121,3.4-17.06,12.821C-2678.469-436.676-2677.751-436.173-2677.133-437.351Z" transform="translate(2678.109 451.098)" fill="#ff5b7e"/>
              </g>
              <g id="Group_231" data-name="Group 231">
                <g id="Group_230" data-name="Group 230">
                  <path id="Path_574" data-name="Path 574" d="M-2707.064-370.738l-11.457,4.86-15.034-60.929,5.9-6.044,35.168,18.572Z" transform="translate(2759.086 437.696)" fill="#e8486a"/>
                  <path id="Path_575" data-name="Path 575" d="M-2824.258-362.587l-40.565-21.2,26.688-44.977,35.672,18.644Z" transform="translate(2864.823 434.405)" fill="#ff5b7e"/>
                  <path id="Path_576" data-name="Path 576" d="M-2687.7-414.28l-35.168-18.572,1.71,2.3-6.453-1.509,35.672,18.644,1.317-1.022Z" transform="translate(2754.296 437.696)" fill="#c23c59"/>
                  <path id="Path_577" data-name="Path 577" d="M-2692.026-442.9c4.832-9.22,12.3-14.835,16.69-12.543s4.024,11.625-.807,20.844c-.667,1.273.251,1.548.834.436,5.339-10.188,5.739-20.5.892-23.032s-13.1,3.672-18.442,13.86C-2693.47-442.169-2692.693-441.626-2692.026-442.9Z" transform="translate(2726.485 457.76)" fill="#ff5b7e"/>
                </g>
              </g>
              <path id="Path_578" data-name="Path 578" d="M-2615.768-338.162l-18.916,39.4,7.26,4.293,14.577-43.542Z" transform="translate(2679.445 361.424)" fill="#e6e6e6" style="mix-blend-mode: multiply;isolation: isolate"/>
            </g>
            <g id="Group_236" data-name="Group 236" transform="translate(8.375 0)">
              <g id="Group_233" data-name="Group 233" transform="translate(30.142 1.743)">
                <path id="Path_579" data-name="Path 579" d="M-2666.087-444.294c4.514-4.64,9.964-6.664,12.172-4.521s.34,7.643-4.174,12.283c-.624.641-.125.967.42.407,4.988-5.127,7.053-11.2,4.613-13.573s-8.462-.132-13.45,5C-2667.077-444.115-2666.711-443.653-2666.087-444.294Z" transform="translate(2666.791 450.642)" fill="#feb546"/>
              </g>
              <g id="Group_235" data-name="Group 235">
                <g id="Group_234" data-name="Group 234">
                  <path id="Path_580" data-name="Path 580" d="M-2699.918-413.6l-8.314.938,1.981-42.145,4.959-2.766,19.107,18.7Z" transform="translate(2730.314 457.965)" fill="#eba741"/>
                  <path id="Path_581" data-name="Path 581" d="M-2799.684-414.3l-22.082-21.433,25.814-23.874,19.418,18.847Z" transform="translate(2821.766 459.605)" fill="#feb546"/>
                  <path id="Path_582" data-name="Path 582" d="M-2666.731-440.5l-19.107-18.7.661,1.812-3.87-2.208,19.418,18.847,1.045-.406Z" transform="translate(2714.86 459.605)" fill="#b88233"/>
                  <path id="Path_583" data-name="Path 583" d="M-2675.531-449.817c4.88-5.016,10.771-7.2,13.159-4.887s.367,8.262-4.513,13.279c-.674.693-.135,1.046.454.441,5.392-5.543,7.625-12.112,4.987-14.673s-9.148-.143-14.54,5.4C-2676.6-449.623-2676.205-449.124-2675.531-449.817Z" transform="translate(2704.586 457.248)" fill="#feb546"/>
                </g>
              </g>
              <path id="Path_584" data-name="Path 584" d="M-2665.578-364.792l-19.737,21.771,3.857,4.157,17.733-25.269Z" transform="translate(2711.855 383.233)" fill="#e6e6e6" style="mix-blend-mode: multiply;isolation: isolate"/>
            </g>
          </g>
          <g id="Group_243" data-name="Group 243" transform="translate(30.458)">
            <path id="Path_585" data-name="Path 585" d="M-2619.235-462.365c-.227.018-.5-.189-.678-.054-1.417,1.051-2.368,1.31-2.612,1.054-.291-.3-.139-.675-.277-.89-.273-.429-.6-.047-1.049-.435-.256-.221-.113-.569-.208-.816s-.267-.39-.652-.521-.251-.61-.281-.942-.428-.25-.591-.488c-.3-.442-.089-1.512,3.113-3.721l2.845-1.89,2.842-.237,1.251,3.368a8.764,8.764,0,0,0-1.237,2.805C-2617.157-463.724-2617.793-462.482-2619.235-462.365Z" transform="translate(2641.738 585.711)" fill="#ffc0bb"/>
            <path id="Path_586" data-name="Path 586" d="M-2553.39-198.373l-30.142,89.125s-10.348,8.956-9.9,3.729c.1-1.216,1.633-9.858,1.763-11.453,1.091-13.414,4.073-39.729,6.469-48.758,2.591-9.769,8.741-26,8.741-26Z" transform="translate(2615.771 365.863)" fill="#ffc0bb"/>
            <path id="Path_587" data-name="Path 587" d="M-2573.973,263.288l-9.41-7.818-9.666,4.119,2.8,2.654,10.583,3.049s4.291.057,4.494-.042A14.456,14.456,0,0,0-2573.973,263.288Z" transform="translate(2615.451 0.291)" fill="#ffc0bb"/>
            <path id="Path_588" data-name="Path 588" d="M-2576.365,280.346l2.375,2.05a1.445,1.445,0,0,1-1.131,2.534l-19.8-2.7a1.277,1.277,0,0,1-1.091-1.438l.566-4.141C-2582.832,282.645-2578.1,281.99-2576.365,280.346Z" transform="translate(2617.844 -16.767)" fill="#07085b"/>
            <g id="Group_238" data-name="Group 238" transform="translate(68.341 128.386)">
              <path id="Path_589" data-name="Path 589" d="M-2333.167-399.424s14.515,46.092,12.578,52.479c-1.239,4.088-24.372,68.387-24.739,68.269s-9.613-2.825-9.613-2.825,17.169-62.83,16.33-66.854-18.246-41.169-18.246-41.169Z" transform="translate(2356.857 399.424)" fill="#ffc0bb"/>
              <path id="Path_590" data-name="Path 590" d="M-2326.131,195.866l-6.4-11-10.918.57,1.785,3.592,9.25,6.763s4.173,1.589,4.406,1.566A15.023,15.023,0,0,0-2326.131,195.866Z" transform="translate(2346.056 -71.22)" fill="#ffc0bb"/>
              <path id="Path_591" data-name="Path 591" d="M-2335.2,198.227l1.588,2.851a1.5,1.5,0,0,1-2.011,2.073L-2354,193.432a1.328,1.328,0,0,1-.553-1.794l2.035-3.844C-2342.337,198.161-2337.484,199.211-2335.2,198.227Z" transform="translate(2355.122 -73.581)" fill="#07085b"/>
              <path id="Path_592" data-name="Path 592" d="M-2317.171-136.863a417.1,417.1,0,0,0-13.07,54.768l16.7-36Z" transform="translate(2335.418 187.931)" fill="#ffc0bb"/>
            </g>
            <g id="Group_241" data-name="Group 241">
              <path id="Path_593" data-name="Path 593" d="M-2629.565-1003.576s9.538-4.768,7.409-18.256c-.672-4.254-4.694-5.725-3.992-11.385s2.523-12.608-3.319-19.018-11.227-7.166-18.536-7.276c-7.622-.115-20.9,5.1-24.1,14.346s-15.011,1.3-27.476,10.031-8.719,22.626-5.482,29.791c9.97,22.068,28.213,25.643,50.276,20.186s3.949-9.361,4.151-9.705S-2629.565-1003.576-2629.565-1003.576Z" transform="translate(2708.226 1059.513)" fill="#f46c0f"/>
              <g id="Group_240" data-name="Group 240" transform="translate(46.356 7.452)">
                <path id="Path_594" data-name="Path 594" d="M-2419.7-883.414l.656-7.814-8.823.672-2.476,9.675c-.3,1.147,3.354,1.713,4.43,2.212,1.252.58,2.418-2.593,4.361-2.844A2.144,2.144,0,0,0-2419.7-883.414Z" transform="translate(2438.051 916.507)" fill="#ffc0bb"/>
                <g id="Group_239" data-name="Group 239" transform="translate(9.408 25.279)" opacity="0.6">
                  <path id="Path_595" data-name="Path 595" d="M-2412.377-885.8l.455-5.426-8.823.672-.773,3.022A15.78,15.78,0,0,0-2412.377-885.8Z" transform="translate(2421.519 891.228)" fill="#fc8d84"/>
                </g>
                <path id="Path_596" data-name="Path 596" d="M-2441.661-999.4a12.351,12.351,0,0,0,.529-2.23,23.47,23.47,0,0,0,.1-5.986c-.039-.389-.056-.779-.066-1.17a12.7,12.7,0,0,0-1.06-4.783,12.778,12.778,0,0,0-13.208-7.535,12.72,12.72,0,0,0-10.958,15.119,2.755,2.755,0,0,0-2.469.3c-1.35.957-1.472,3.1-.274,4.783s3.265,2.273,4.615,1.316a2.431,2.431,0,0,0,.488-.465,11.948,11.948,0,0,0,13.794,8.39,11.438,11.438,0,0,0,6.969-4.681,5.488,5.488,0,0,0,.343-.48A11.02,11.02,0,0,0-2441.661-999.4Z" transform="translate(2469.892 1021.197)" fill="#ffc0bb"/>
                <path id="Path_597" data-name="Path 597" d="M-2394.734-947.307a1.109,1.109,0,0,1-.85,1.321,1.11,1.11,0,0,1-1.323-.848,1.11,1.11,0,0,1,.85-1.321A1.113,1.113,0,0,1-2394.734-947.307Z" transform="translate(2411.123 962.383)" fill="#333"/>
                <path id="Path_598" data-name="Path 598" d="M-2346.077-954.583a1.11,1.11,0,0,1-.851,1.321,1.113,1.113,0,0,1-1.323-.848,1.111,1.111,0,0,1,.851-1.321A1.112,1.112,0,0,1-2346.077-954.583Z" transform="translate(2371.93 968.243)" fill="#333"/>
                <path id="Path_599" data-name="Path 599" d="M-2406.1-959.934a10.446,10.446,0,0,0-1.662-.177,5.476,5.476,0,0,0-1.545.183,5.065,5.065,0,0,0-1.421.616l-.175.1c-.058.034-.108.079-.165.116l-.338.238c-.226.163-.43.356-.683.523a4.857,4.857,0,0,1,.394-.792,4,4,0,0,1,.582-.686,3.614,3.614,0,0,1,1.6-.892,3.792,3.792,0,0,1,1.831-.031A3.508,3.508,0,0,1-2406.1-959.934Z" transform="translate(2423.333 972.575)" fill="#f46c0f"/>
                <path id="Path_600" data-name="Path 600" d="M-2358.569-967.526a3.507,3.507,0,0,1,1.241-1.266,3.779,3.779,0,0,1,1.744-.557,3.623,3.623,0,0,1,1.8.332,4.023,4.023,0,0,1,.771.463,4.864,4.864,0,0,1,.627.624c-.293-.076-.548-.195-.814-.277l-.4-.115c-.066-.017-.128-.044-.194-.058l-.2-.038a5.081,5.081,0,0,0-1.544-.129,5.5,5.5,0,0,0-1.523.321A10.461,10.461,0,0,0-2358.569-967.526Z" transform="translate(2380.221 979.439)" fill="#f46c0f"/>
                <path id="Path_601" data-name="Path 601" d="M-2367.613-959.026a8.543,8.543,0,0,0,.131,2.391,6.587,6.587,0,0,0,.337,1.18,3.1,3.1,0,0,0,.711,1.115l.149.117.132.1a1.226,1.226,0,0,1,.177.137.9.9,0,0,1,.24.335,1.074,1.074,0,0,1-.062.865,3.3,3.3,0,0,1-1.653,1.413,2.71,2.71,0,0,0,2.17-1.12,1.631,1.631,0,0,0,.226-1.395,1.277,1.277,0,0,0-.164-.346,1.474,1.474,0,0,0-.235-.293,1.872,1.872,0,0,0-.283-.229,1.1,1.1,0,0,1-.1-.081l-.083-.066a2.95,2.95,0,0,1-.566-.841,9.831,9.831,0,0,1-.423-1.045C-2367.158-957.514-2367.375-958.264-2367.613-959.026Z" transform="translate(2387.533 971.118)" fill="#f99893"/>
              </g>
              <path id="Path_602" data-name="Path 602" d="M-2442.03-1027.706s-5.875,12.221-17.823,14.035l-2-8.565s3.956-4.569,4.472-5.156,8.531-3.35,8.531-3.35l6.678.96Z" transform="translate(2509.775 1036.337)" fill="#f46c0f"/>
            </g>
            <path id="Path_603" data-name="Path 603" d="M-2573.3-800.57s-13.737,47.929-27.715,65.191l4.628,3.163s26.869-34.667,30.98-49.958S-2573.3-800.57-2573.3-800.57Z" transform="translate(2621.869 850.934)" fill="#ffc0bb"/>
            <path id="Path_604" data-name="Path 604" d="M-2579.214-855s36.509-.776,29.848,30.051c0,0-2.961,10.6-2.467,14.058s5.18,12.774,4.687,21.554,27.135,22.59,29.355,31.222c0,0-9.621,5.672-13.568,10.6s-13.074,25.9-41.689,26.635-40.209,2.219-40.209,2.219,1.233-10.358,14.307-25.647,10.114-57.71,21.708-68.067C-2577.241-812.376-2591.795-852.748-2579.214-855Z" transform="translate(2631.728 894.782)" fill="#07085b"/>
            <path id="Path_605" data-name="Path 605" d="M-2598.949-740.765c13.074-15.29,10.114-57.71,21.708-68.067,0,0-12.787-35.471-4.029-41.775,0,.007,11.923,33.883,17.35,38.816,0,0-10.013,20.222-10.557,30.087s7.35,23.313,3.156,31.263-7.872,36.151,24.432,24.64c-6.149,4.536-14.55,8.165-26.158,8.465-28.614.739-40.209,2.219-40.209,2.219S-2612.023-725.475-2598.949-740.765Z" transform="translate(2631.728 891.239)" fill="#02ccc0" opacity="0.3" style="mix-blend-mode: multiply;isolation: isolate"/>
            <g id="Group_242" data-name="Group 242" transform="translate(52.315 81.759)">
              <path id="Path_606" data-name="Path 606" d="M-2438.471-637.232a.97.97,0,0,1-.763-1.147h0a.973.973,0,0,1,1.141-.758c13.356,2.574,23.133,1.321,26.054.825a.972.972,0,0,1,1.112.739l0,.006a.97.97,0,0,1-.777,1.174,60.912,60.912,0,0,1-10.3.788A87.031,87.031,0,0,1-2438.471-637.232Zm27.335-1.25h0l.217.947Z" transform="translate(2439.254 639.154)" fill="#ff5b7e"/>
            </g>
            <path id="Path_607" data-name="Path 607" d="M-2391.907-909.016a3.856,3.856,0,0,0,3.862,2.924,3.848,3.848,0,0,0,3.838-2.948Z" transform="translate(2453.43 938.307)" fill="#fff"/>
            <path id="Path_608" data-name="Path 608" d="M-2202.392-1007.736a.287.287,0,0,0,.459-.211c.1-1.761.468-7.3.922-7.377.541-.09.337,4.869.808,5.059s.549-4.653,1.141-4.656.375,4.41.625,4.5.912-4.119,1.259-4.331.189,4.365.463,4.556,1.434-2.93,1.713-2.862.477.067-.121,7.841l-.366,3.051-1.644,2.33-3.335-.794s-5.4-8.455-5.238-8.833C-2205.547-1009.828-2205.206-1009.831-2202.392-1007.736Z" transform="translate(2303.448 1023.919)" fill="#ffc0bb"/>
            <path id="Path_609" data-name="Path 609" d="M-2403.087-948.247s-8.451,29.685-10.34,30.555-18.911-3.45-25.9-6.776-15.031-5.771-17.112-2.139,6.858,20.176,39.056,21.092c0,0,12.493,2.263,16.029-13.675a166.339,166.339,0,0,0,3.713-30.261Z" transform="translate(2505.637 970.858)" fill="#ffc0bb"/>
          </g>
        </g>
        <g id="Group_278" data-name="Group 278" transform="translate(86.688 13.41)">
          <g id="Group_245" data-name="Group 245" transform="translate(45.244)">
            <path id="Path_610" data-name="Path 610" d="M-1748.894-698.757a.268.268,0,0,0-.07-.465c-3.069-1.116-3.243-1.382-3.042-1.691.209-.324,8.965-1.607,8.965-1.607l19.683-22.578c2.407-4.212,15.666-27.23,18.753-28.716.852-.41,3.192-1.9,5.093-1.972l-.87,20.112c-3.939,5.65-10.46,14.346-15.765,19.12-5.764,5.885-16.615,13.64-21.268,16.484l-5.87,5.216c-5.742,4.445-4.4,1.425-4.689,1.31s-.861-1.074-1.057-1.224-.39-1.186-.78-1.456S-1750.21-697.774-1748.894-698.757Z" transform="translate(1752.063 801.45)" fill="#ffc0bb"/>
            <path id="Path_611" data-name="Path 611" d="M-1471.788-896.6s-.325,7.527-3.319,12.174c-2.578,4-6.112,11.094.52,15.5s16.187-1.578,16.323-2.019,3.336-5.4,3.078-9.373,1.517-8.718-1.757-12.077S-1471.788-896.6-1471.788-896.6Z" transform="translate(1531.617 914.874)" fill="#07085b"/>
            <path id="Path_612" data-name="Path 612" d="M-1409.992-957.218a27.553,27.553,0,0,1-2.711-14.056c.08-1.717.739-6.622-2.617-11.257-4.858-6.708-10.916-8.931-17.636-7.716-7.778,1.406-12.406,10.8-11.938,16.59l14.253.278-3.925.783c-9.393,24.335-3.461,25.238-1.877,28.366s11.374,6.343,19.053,5C-1405.029-941.4-1406.687-950.286-1409.992-957.218Z" transform="translate(1504.664 990.564)" fill="#07085b"/>
            <path id="Path_613" data-name="Path 613" d="M-1389.038-834.429l.439,11.634s-4.388,3.587-12.02-1.238c0,0,1.516-1.69,1.407-6.1C-1399.324-834.641-1389.038-834.429-1389.038-834.429Z" transform="translate(1468.974 864.798)" fill="#ffc0bb"/>
            <path id="Path_614" data-name="Path 614" d="M-1385.1-834.429l.189,4.852c-1.806,2.986-5.276,4.373-10.82,3.517a13.422,13.422,0,0,0,.457-4.075C-1395.389-834.641-1385.1-834.429-1385.1-834.429Z" transform="translate(1465.038 864.798)" fill="#fc8d84" opacity="0.6"/>
            <path id="Path_615" data-name="Path 615" d="M-1444.206-906.585a2.714,2.714,0,0,1-1.954,3.248,2.716,2.716,0,0,1-2.74-2.62,2.715,2.715,0,0,1,1.955-3.248A2.715,2.715,0,0,1-1444.206-906.585Z" transform="translate(1507.892 925.042)" fill="#f99893"/>
            <path id="Path_616" data-name="Path 616" d="M-1436.354-940.182a23.422,23.422,0,0,1,.236-5.95c.061-.383.1-.77.131-1.157a12.637,12.637,0,0,1,1.318-4.691,12.683,12.683,0,0,1,13.514-6.744A12.646,12.646,0,0,1-1411.14-943.1a2.733,2.733,0,0,1,2.432.433c1.284,1.026,1.286,3.158,0,4.763s-3.363,2.074-4.648,1.049a2.419,2.419,0,0,1-.458-.489,11.858,11.858,0,0,1-14.142,7.559A11.654,11.654,0,0,1-1436.354-940.182Z" transform="translate(1497.837 965.077)" fill="#ffc0bb"/>
            <path id="Path_617" data-name="Path 617" d="M-1412.89-898.253a1.109,1.109,0,0,1-.85,1.321,1.112,1.112,0,0,1-1.349-1.088,1.1,1.1,0,0,1,.649-1.006A1.114,1.114,0,0,1-1412.89-898.253Z" transform="translate(1480.631 916.911)" fill="#333"/>
            <path id="Path_618" data-name="Path 618" d="M-1363.79-888.13a1.11,1.11,0,0,1-.85,1.321,1.112,1.112,0,0,1-1.349-1.088,1.1,1.1,0,0,1,.649-1.006A1.114,1.114,0,0,1-1363.79-888.13Z" transform="translate(1441.08 908.757)" fill="#333"/>
            <path id="Path_619" data-name="Path 619" d="M-1393.441-898.178c-.2.689-.4,1.368-.631,2.027a8.268,8.268,0,0,1-.407.951,2.585,2.585,0,0,1-.563.781l-.086.064a1.21,1.21,0,0,1-.1.073,1.554,1.554,0,0,0-.248.186,1.208,1.208,0,0,0-.209.237,1.082,1.082,0,0,0-.15.283,1.4,1.4,0,0,0,.135,1.194,2.147,2.147,0,0,0,.816.784,2.994,2.994,0,0,0,1.031.344,4.155,4.155,0,0,1-.9-.535,2.121,2.121,0,0,1-.619-.762,1.059,1.059,0,0,1-.046-.862.787.787,0,0,1,.105-.182.816.816,0,0,1,.146-.158,1.2,1.2,0,0,1,.181-.129c.063-.044.167-.116.247-.176a2.873,2.873,0,0,0,.661-.946,6.359,6.359,0,0,0,.357-1.037A8.972,8.972,0,0,0-1393.441-898.178Z" transform="translate(1465.184 916.147)" fill="#f99893"/>
            <path id="Path_620" data-name="Path 620" d="M-1367.019-903.458a11.291,11.291,0,0,1,1.655.136,5.593,5.593,0,0,1,1.468.446,5.2,5.2,0,0,1,1.279.831c.217.154.381.367.591.55s.368.416.594.619a4.671,4.671,0,0,0-.236-.852,3.8,3.8,0,0,0-.447-.779,3.56,3.56,0,0,0-1.42-1.159,3.713,3.713,0,0,0-1.8-.337A3.4,3.4,0,0,0-1367.019-903.458Z" transform="translate(1441.909 920.845)" fill="#07085b"/>
            <path id="Path_621" data-name="Path 621" d="M-1417.138-913.208a3.394,3.394,0,0,0-1.294-1.21,3.72,3.72,0,0,0-1.77-.459,3.573,3.573,0,0,0-1.779.445,3.766,3.766,0,0,0-.735.516,4.6,4.6,0,0,0-.576.671c.291-.087.538-.216.8-.308.268-.075.507-.2.77-.246a5.218,5.218,0,0,1,1.511-.21,5.672,5.672,0,0,1,1.518.22A11.463,11.463,0,0,1-1417.138-913.208Z" transform="translate(1487.237 929.598)" fill="#07085b"/>
            <path id="Path_622" data-name="Path 622" d="M-1373.155-953.248a3.692,3.692,0,0,1,1.563.026l.67-.1-.159-.841-.257-.12.551-2.282-.32-2.383s-2.08-6.809-2.171-6.991-2.479-2.94-2.632-3.092-4.537-.831-4.537-.831-6.8-3.977-6.906.518,4.542,8.376,4.876,8.284c-.569-1.2.2-3.835.2-3.835C-1379.94-959.3-1374.11-954.08-1373.155-953.248Z" transform="translate(1458.289 975.199)" fill="#07085b"/>
            <path id="Path_623" data-name="Path 623" d="M-1397.046-853a3.5,3.5,0,0,1-3.758,2.273,3.489,3.489,0,0,1-3.185-3.02Z" transform="translate(1471.688 880.359)" fill="#fff"/>
            <path id="Path_624" data-name="Path 624" d="M-1534.7-786.9s-10.689,10.369-12.992,15.3c0,0,5.246,16.335,7.631,18.472l6.872-5.64Z" transform="translate(1587.445 826.512)" fill="#feb546"/>
            <path id="Path_625" data-name="Path 625" d="M-1238.642-691.249a.268.268,0,0,1,.1-.459c3.143-.887,3.336-1.14,3.158-1.462-.185-.338-8.822-2.263-8.822-2.263l-17.966-23.966c-2.09-4.378-13.618-28.31-16.587-30.019-.82-.472-3.043-2.134-4.933-2.342l-.614,20.121c3.513,5.925,9.375,15.077,14.314,20.229,5.316,6.293,15.566,14.827,20,18.006l5.47,5.634c3.383,3.5,4.284,1.745,4.579,1.652s.938-1.007,1.144-1.143.477-1.154.885-1.395S-1237.4-690.172-1238.642-691.249Z" transform="translate(1375.281 798.207)" fill="#ffc0bb"/>
            <path id="Path_626" data-name="Path 626" d="M-1299.906-754.933l9.7,13.029s-8.881,14.139-10.854,16.935l-2.3-3.576s-6.742-10.235-6.084-11.385S-1299.906-754.933-1299.906-754.933Z" transform="translate(1395.569 800.763)" fill="#feb546"/>
            <path id="Path_627" data-name="Path 627" d="M-1426.933-302.937s12.656,46.636,17.733,50.97c3.249,2.773,57.427,44.431,57.672,44.133s6.569-7.563,6.569-7.563-48.364-43.639-49.829-47.48-6.856-44.5-6.856-44.5Z" transform="translate(1490.17 440.259)" fill="#ffc0bb"/>
            <path id="Path_628" data-name="Path 628" d="M-1456.8-790.437s27.752,1.849,33.548,3.576c0,0,.123,5.493-1.171,6.6s-14.3,5.95-18.376,6.273-7.033,3.281-10.115-1.22-3.886-5.61-3.886-6.782Z" transform="translate(1514.231 829.361)" fill="#ffc0bb"/>
            <path id="Path_629" data-name="Path 629" d="M-1067.047,169.531l-.551-12.715,9.5-5.41.437,3.987-4.138,10.684s-2.654,3.589-2.865,3.7A15.1,15.1,0,0,1-1067.047,169.531Z" transform="translate(1200.724 70.705)" fill="#ffc0bb"/>
            <path id="Path_630" data-name="Path 630" d="M-1494.831-210.556l15.331,92.825s8.763,10.51,9.165,5.28c.094-1.217-.017-9.992.113-11.588,1.093-13.413,2.406-39.864,1.5-49.162-.978-10.058-4.422-27.069-4.422-27.069Z" transform="translate(1544.862 362.266)" fill="#ffc0bb"/>
            <path id="Path_631" data-name="Path 631" d="M-1064.767,169.531l.2,3.259a1.5,1.5,0,0,0,2.812.66l10.227-18.1a1.328,1.328,0,0,0-.5-1.809l-3.788-2.139C-1058.791,165.624-1062.311,169.127-1064.767,169.531Z" transform="translate(1198.445 70.705)" fill="#07085b"/>
            <path id="Path_632" data-name="Path 632" d="M-1512.569-789.749s-6.414,27.138,0,48.183c0,0-7.647,11.181-7.647,24.252s7.647,63.627,7.647,63.627,21.954-1.233,33.3-5.425V-691.42l5.181,29.348,5.18-2.22s7.154-48.006-11.347-74.436c0,0,6.661-16.689,7.153-18.416,0,0-.987-17.017,3.455-26.388,0,0-5.057-3.329-4.688-3.329s-4.44,7.645-15.664,7.275-17.885-10.851-17.885-10.851Z" transform="translate(1565.31 829.361)" fill="#feb546"/>
            <path id="Path_633" data-name="Path 633" d="M-1468.685,268.707l10.551-6.193,8.871,5.627-3.189,2.166-10.936,1.3s-4.245-.639-4.429-.768A14.414,14.414,0,0,1-1468.685,268.707Z" transform="translate(1523.802 -18.793)" fill="#ffc0bb"/>
            <path id="Path_634" data-name="Path 634" d="M-1482.68,292.009l-2.675,1.639a1.445,1.445,0,0,0,.706,2.684l19.973.531a1.276,1.276,0,0,0,1.309-1.241l.11-4.179C-1476.671,295.323-1481.23,293.914-1482.68,292.009Z" transform="translate(1537.797 -42.095)" fill="#07085b"/>
            <path id="Path_635" data-name="Path 635" d="M-1495.055-742.716c-20.721-7.152-12.828-47.721-12.828-47.721l-4.687.688s-6.414,27.138,0,48.183c0,0-7.647,11.181-7.647,24.252s7.647,63.627,7.647,63.627,21.954-1.233,33.3-5.425C-1508.622-657.879-1495.055-742.716-1495.055-742.716Z" transform="translate(1565.31 829.361)" fill="#feb546" opacity="0.3" style="mix-blend-mode: multiply;isolation: isolate"/>
            <path id="Path_636" data-name="Path 636" d="M-1261.666-78.566A417.181,417.181,0,0,1-1221.1-39.5l-33.489-21.3Z" transform="translate(1357.047 255.948)" fill="#ffc0bb"/>
          </g>
          <g id="Group_261" data-name="Group 261" transform="translate(0 101.262)">
            <g id="Group_252" data-name="Group 252" transform="translate(10.712 0.474)">
              <g id="Group_249" data-name="Group 249" transform="translate(27.368 0.89)">
                <g id="Group_248" data-name="Group 248">
                  <g id="Group_247" data-name="Group 247">
                    <g id="Group_246" data-name="Group 246">
                      <path id="Path_637" data-name="Path 637" d="M-1787.986-446.212c2.425-9.319,7.983-15.942,12.414-14.794s6.059,9.633,3.634,18.951c-.335,1.287.55,1.342.842.218,2.679-10.3.881-19.672-4.016-20.94s-11.038,6.051-13.717,16.347C-1789.135-445.252-1788.321-444.925-1787.986-446.212Z" transform="translate(1788.896 462.92)" fill="#f46c0f"/>
                    </g>
                  </g>
                </g>
              </g>
              <g id="Group_251" data-name="Group 251">
                <g id="Group_250" data-name="Group 250">
                  <path id="Path_638" data-name="Path 638" d="M-1809.458-365.43l-10.06,7.325-28.427-55.949,4.379-7.222,38.457,10.135Z" transform="translate(1863.828 430.265)" fill="#d65f0d"/>
                  <path id="Path_639" data-name="Path 639" d="M-1885.3-350.456l-44.31-11.476,15.822-49.848,38.965,10.092Z" transform="translate(1929.607 422.617)" fill="#f46c0f"/>
                  <path id="Path_640" data-name="Path 640" d="M-1805.359-411.14l-38.457-10.135,2.187,1.857-6.627-.01,38.965,10.092,1.052-1.293Z" transform="translate(1864.079 430.265)" fill="#c7580d"/>
                  <path id="Path_641" data-name="Path 641" d="M-1802.69-449.435c2.621-10.074,8.63-17.234,13.42-15.993s6.55,10.413,3.928,20.487c-.362,1.391.595,1.451.911.236,2.9-11.131.953-21.266-4.341-22.637s-11.933,6.541-14.829,17.672C-1803.932-448.4-1803.052-448.043-1802.69-449.435Z" transform="translate(1828.168 467.497)" fill="#f46c0f"/>
                </g>
              </g>
              <path id="Path_642" data-name="Path 642" d="M-1681.907-368.655l-9.512,42.661,8.043,2.539,4.349-45.71Z" transform="translate(1737.746 388.29)" fill="#e6e6e6" style="mix-blend-mode: multiply;isolation: isolate"/>
            </g>
            <g id="Group_256" data-name="Group 256" transform="translate(0 0.34)">
              <g id="Group_253" data-name="Group 253" transform="translate(36.272 1.294)">
                <path id="Path_643" data-name="Path 643" d="M-1797.219-447.771c4.459-8.534,11.365-13.737,15.425-11.622s3.736,10.749-.723,19.283c-.616,1.179.234,1.432.772.4,4.927-9.43,5.285-18.969.8-21.307s-12.117,3.412-17.044,12.842C-1798.554-447.094-1797.835-446.592-1797.219-447.771Z" transform="translate(1798.195 461.536)" fill="#ff5b7e"/>
              </g>
              <g id="Group_255" data-name="Group 255">
                <g id="Group_254" data-name="Group 254">
                  <path id="Path_644" data-name="Path 644" d="M-1827.109-381.074l-11.451,4.874-15.11-60.91,5.892-6.051,35.191,18.528Z" transform="translate(1879.151 448.029)" fill="#e8486a"/>
                  <path id="Path_645" data-name="Path 645" d="M-1944.092-372.885l-40.592-21.151,26.632-45.01,35.7,18.6Z" transform="translate(1984.684 444.714)" fill="#ff5b7e"/>
                  <path id="Path_646" data-name="Path 646" d="M-1807.823-424.634l-35.191-18.528,1.713,2.3-6.455-1.5,35.7,18.6,1.316-1.024Z" transform="translate(1874.388 448.029)" fill="#c23c59"/>
                  <path id="Path_647" data-name="Path 647" d="M-1812.113-453.307c4.82-9.226,12.286-14.851,16.674-12.564s4.039,11.62-.781,20.845c-.666,1.274.252,1.548.834.435,5.326-10.194,5.713-20.507.863-23.033s-13.1,3.689-18.425,13.883C-1813.556-452.575-1812.779-452.032-1812.113-453.307Z" transform="translate(1846.527 468.187)" fill="#ff5b7e"/>
                </g>
              </g>
              <path id="Path_648" data-name="Path 648" d="M-1735.6-348.679l-18.866,39.427,7.266,4.284,14.522-43.56Z" transform="translate(1799.243 371.923)" fill="#e6e6e6" style="mix-blend-mode: multiply;isolation: isolate"/>
            </g>
            <g id="Group_260" data-name="Group 260" transform="translate(8.341)">
              <g id="Group_257" data-name="Group 257" transform="translate(30.123 1.724)">
                <path id="Path_649" data-name="Path 649" d="M-1786.221-454.708c4.508-4.646,9.955-6.677,12.167-4.536s.349,7.643-4.159,12.288c-.623.642-.124.968.42.407,4.982-5.134,7.039-11.213,4.6-13.578s-8.462-.122-13.444,5.012C-1787.211-454.528-1786.844-454.066-1786.221-454.708Z" transform="translate(1786.925 461.069)" fill="#feb546"/>
              </g>
              <g id="Group_259" data-name="Group 259">
                <g id="Group_258" data-name="Group 258">
                  <path id="Path_650" data-name="Path 650" d="M-1819.815-423.946l-8.313.948,1.928-42.148,4.956-2.772,19.13,18.681Z" transform="translate(1850.237 468.31)" fill="#eba741"/>
                  <path id="Path_651" data-name="Path 651" d="M-1919.69-424.622l-22.109-21.405,25.784-23.906,19.442,18.823Z" transform="translate(1941.799 469.934)" fill="#feb546"/>
                  <path id="Path_652" data-name="Path 652" d="M-1786.893-450.861l-19.13-18.681.663,1.811-3.872-2.2,19.442,18.823,1.044-.408Z" transform="translate(1835.016 469.934)" fill="#b88233"/>
                  <path id="Path_653" data-name="Path 653" d="M-1795.67-460.223c4.873-5.022,10.762-7.217,13.152-4.9s.377,8.262-4.5,13.284c-.673.694-.134,1.046.454.44,5.385-5.55,7.609-12.122,4.968-14.679s-9.148-.131-14.533,5.418C-1796.74-460.028-1796.343-459.529-1795.67-460.223Z" transform="translate(1824.704 467.65)" fill="#feb546"/>
                </g>
              </g>
              <path id="Path_654" data-name="Path 654" d="M-1785.534-375.251l-19.71,21.8,3.862,4.152,17.7-25.291Z" transform="translate(1831.804 393.667)" fill="#e6e6e6" style="mix-blend-mode: multiply;isolation: isolate"/>
            </g>
          </g>
          <g id="Group_277" data-name="Group 277" transform="translate(161.223 105.788)">
            <g id="Group_265" data-name="Group 265" transform="translate(0 0.492)">
              <g id="Group_262" data-name="Group 262" transform="translate(12.301 0.892)">
                <path id="Path_655" data-name="Path 655" d="M-1073.538-423.066c-2.692-10.293-8.842-17.6-13.737-16.33s-6.681,10.652-3.99,20.945c.294,1.124,1.178,1.067.842-.219-2.436-9.315-.82-17.8,3.61-18.955s10,5.463,12.433,14.779C-1074.043-421.56-1073.229-421.889-1073.538-423.066Z" transform="translate(1092.518 439.541)" fill="#02ccc0"/>
              </g>
              <g id="Group_264" data-name="Group 264">
                <g id="Group_263" data-name="Group 263">
                  <path id="Path_656" data-name="Path 656" d="M-1151.356-342.133l10.069,7.313,28.357-55.984-4.388-7.217-38.445,10.183Z" transform="translate(1155.763 406.989)" fill="#00b0a5"/>
                  <path id="Path_657" data-name="Path 657" d="M-1124.991-327.2l44.3-11.531-15.885-49.828-38.952,10.14Z" transform="translate(1139.467 399.364)" fill="#02ccc0"/>
                  <path id="Path_658" data-name="Path 658" d="M-1155.763-387.838l38.445-10.183-2.184,1.859,6.626-.018-38.952,10.14-1.054-1.292Z" transform="translate(1155.763 406.989)" fill="#008c83"/>
                  <path id="Path_659" data-name="Path 659" d="M-1065.155-426.32c-2.91-11.128-9.559-19.031-14.851-17.654s-7.223,11.515-4.313,22.643c.318,1.215,1.274,1.154.91-.237-2.634-10.07-.886-19.245,3.9-20.491s10.807,5.906,13.44,15.976C-1065.7-424.692-1064.822-425.047-1065.155-426.32Z" transform="translate(1099.306 444.129)" fill="#02ccc0"/>
                </g>
              </g>
              <path id="Path_660" data-name="Path 660" d="M-1152.881-345.159l9.565,42.65-8.04,2.549-4.406-45.7Z" transform="translate(1155.763 364.816)" fill="#e6e6e6" style="mix-blend-mode: multiply;isolation: isolate"/>
            </g>
            <g id="Group_272" data-name="Group 272" transform="translate(2.872 0.359)">
              <g id="Group_269" data-name="Group 269" transform="translate(9.884 1.296)">
                <g id="Group_268" data-name="Group 268">
                  <g id="Group_267" data-name="Group 267">
                    <g id="Group_266" data-name="Group 266">
                      <path id="Path_661" data-name="Path 661" d="M-1069.983-424.808c-4.939-9.424-12.577-15.164-17.06-12.821s-4.114,11.882.825,21.306c.539,1.029,1.388.775.771-.4-4.47-8.529-4.8-17.161-.747-19.282s10.969,3.074,15.439,11.6C-1070.137-423.227-1069.418-423.73-1069.983-424.808Z" transform="translate(1090.177 438.152)" fill="#07085b"/>
                    </g>
                  </g>
                </g>
              </g>
              <g id="Group_271" data-name="Group 271">
                <g id="Group_270" data-name="Group 270">
                  <path id="Path_662" data-name="Path 662" d="M-1126.418-357.793l11.457,4.86,15.034-60.929-5.9-6.044-35.168,18.572Z" transform="translate(1140.994 424.751)" fill="#06074a"/>
                  <path id="Path_663" data-name="Path 663" d="M-1097.408-349.642l40.565-21.2-26.688-44.977-35.672,18.644Z" transform="translate(1123.441 421.46)" fill="#07085b"/>
                  <path id="Path_664" data-name="Path 664" d="M-1140.994-401.334l35.168-18.572-1.71,2.3,6.453-1.508-35.672,18.644-1.317-1.022Z" transform="translate(1140.994 424.751)" fill="#040536"/>
                  <path id="Path_665" data-name="Path 665" d="M-1061.873-430.388c-5.339-10.188-13.6-16.393-18.442-13.86s-4.447,12.845.892,23.032c.583,1.112,1.5.838.834-.436-4.832-9.22-5.193-18.552-.808-20.844s11.858,3.323,16.69,12.543C-1062.039-428.679-1061.262-429.223-1061.873-430.388Z" transform="translate(1094.847 444.814)" fill="#07085b"/>
                </g>
              </g>
              <path id="Path_666" data-name="Path 666" d="M-1138.073-325.216l18.915,39.4-7.26,4.293-14.576-43.542Z" transform="translate(1140.994 348.477)" fill="#e6e6e6" style="mix-blend-mode: multiply;isolation: isolate"/>
            </g>
            <g id="Group_276" data-name="Group 276" transform="translate(12.967)">
              <g id="Group_273" data-name="Group 273" transform="translate(3.228 1.743)">
                <path id="Path_667" data-name="Path 667" d="M-1058.021-431.756c-4.988-5.128-11.01-7.364-13.45-5s-.375,8.445,4.613,13.573c.545.56,1.043.234.42-.407-4.514-4.64-6.383-10.14-4.174-12.283s7.658-.12,12.172,4.521C-1057.817-430.708-1057.451-431.17-1058.021-431.756Z" transform="translate(1072.496 437.697)" fill="#ff5b7e"/>
              </g>
              <g id="Group_275" data-name="Group 275">
                <g id="Group_274" data-name="Group 274">
                  <path id="Path_668" data-name="Path 668" d="M-1071.361-400.65l8.314.938-1.98-42.145-4.96-2.765-19.107,18.7Z" transform="translate(1089.095 445.019)" fill="#e8486a"/>
                  <path id="Path_669" data-name="Path 669" d="M-1051.047-401.353l22.082-21.433-25.814-23.874-19.418,18.847Z" transform="translate(1077.094 446.66)" fill="#ff5b7e"/>
                  <path id="Path_670" data-name="Path 670" d="M-1089.095-427.56l19.107-18.7-.661,1.812,3.87-2.208-19.418,18.847-1.045-.406Z" transform="translate(1089.095 446.66)" fill="#c23c59"/>
                  <path id="Path_671" data-name="Path 671" d="M-1053.5-437.311c-5.392-5.543-11.9-7.96-14.54-5.4s-.406,9.13,4.986,14.673c.589.605,1.128.252.454-.441-4.88-5.016-6.9-10.961-4.513-13.279s8.279-.129,13.158,4.887C-1053.276-436.178-1052.879-436.677-1053.5-437.311Z" transform="translate(1073.025 444.302)" fill="#ff5b7e"/>
                </g>
              </g>
              <path id="Path_672" data-name="Path 672" d="M-1087.242-351.846l19.737,21.771-3.857,4.157-17.733-25.269Z" transform="translate(1089.095 370.287)" fill="#e6e6e6" style="mix-blend-mode: multiply;isolation: isolate"/>
            </g>
          </g>
          <path id="Path_673" data-name="Path 673" d="M-1747.982-458.644c1.021-.678,4.844-.957,5.37-.175.639.949.214,4.913-1.051,5.421C-1744.8-453.04-1749.359-457.73-1747.982-458.644Z" transform="translate(1794.227 562.623)" fill="#ffc0bb"/>
          <path id="Path_674" data-name="Path 674" d="M-1065.906-438.378c-1.006-.7-4.823-1.061-5.366-.29-.658.935-.32,4.908.935,5.442C-1069.2-432.843-1064.549-437.434-1065.906-438.378Z" transform="translate(1249.193 546.359)" fill="#ffc0bb"/>
        </g>
      </g>
    </g>
  </g>
</svg>
