<svg xmlns="http://www.w3.org/2000/svg" xmlns:xlink="http://www.w3.org/1999/xlink" width="113.335" height="107.194" viewBox="0 0 113.335 107.194">
  <defs>
    <linearGradient id="linear-gradient" x1="0.5" x2="0.5" y2="1" gradientUnits="objectBoundingBox">
      <stop offset="0" stop-color="#0a4bff"/>
      <stop offset="1" stop-color="#7d46ff"/>
    </linearGradient>
  </defs>
  <g id="Group_297" data-name="Group 297" transform="translate(-916.496 -967.007)">
    <path id="Path_545" data-name="Path 545" d="M7788.974,968.664c-.485,0-27.038,14.247-27.685,14.247s0,27.685,0,27.685l27.685,13.924,28.657-13.924s.486-27.523,0-27.685S7788.974,968.664,7788.974,968.664Z" transform="translate(-6813)" fill="url(#linear-gradient)"/>
    <g id="Group_209" data-name="Group 209" transform="translate(0 10)">
      <g id="delivery-box_2_" data-name="delivery-box (2)" transform="translate(979.588 1004.18)">
        <path id="Path_533" data-name="Path 533" d="M24.822,43.524a1.028,1.028,0,0,1-.478-.118L.557,30.987A1.035,1.035,0,0,1,0,30.07V6.784a1.034,1.034,0,0,1,1.5-.925l23.787,11.9a1.037,1.037,0,0,1,.571.925v23.8a1.035,1.035,0,0,1-.5.886A1.02,1.02,0,0,1,24.822,43.524ZM2.07,29.443,23.787,40.782V19.326L2.07,8.459Z" transform="translate(0.002 6.151)" stroke="#000" stroke-width="1"/>
        <path id="Path_534" data-name="Path 534" d="M12.543,43.525a1.033,1.033,0,0,1-1.035-1.035v-23.8a1.037,1.037,0,0,1,.571-.925L35.866,5.86a1.037,1.037,0,0,1,1.5.925V30.071a1.035,1.035,0,0,1-.557.917L13.021,43.407a1.028,1.028,0,0,1-.478.118Zm1.035-24.2V40.782L35.295,29.444V8.46ZM36.33,30.071h.021Z" transform="translate(12.314 6.15)" stroke="#000" stroke-width="1"/>
        <path id="Path_535" data-name="Path 535" d="M1.036,13.971a1.034,1.034,0,0,1-.464-1.96L24.392.109a1.039,1.039,0,0,1,.925,0L49.1,12.011a1.035,1.035,0,0,1-.925,1.853L24.856,2.191,1.5,13.861a1.031,1.031,0,0,1-.464.11Z" transform="translate(0.001 0)" stroke="#000" stroke-width="1"/>
        <path id="Path_536" data-name="Path 536" d="M30.83,28.106a1.035,1.035,0,0,1-1.035-1.035V16.326L6.58,4.71a1.036,1.036,0,0,1,.927-1.853l23.787,11.9a1.042,1.042,0,0,1,.571.927V27.071a1.035,1.035,0,0,1-1.035,1.035Z" transform="translate(6.43 2.941)" stroke="#000" stroke-width="1"/>
      </g>
      <g id="delivery-box_2_2" data-name="delivery-box (2)" transform="translate(946.536 957.517)">
        <path id="Path_533-2" data-name="Path 533" d="M29.514,50.666a1.222,1.222,0,0,1-.569-.14L.662,35.758A1.231,1.231,0,0,1,0,34.668V6.98a1.23,1.23,0,0,1,1.779-1.1L30.063,20.031a1.233,1.233,0,0,1,.679,1.1v28.3a1.231,1.231,0,0,1-.593,1.053A1.213,1.213,0,0,1,29.514,50.666ZM2.461,33.922,28.284,47.4V21.892L2.461,8.971Z" transform="translate(0.003 8.401)" fill="#fff" stroke="#fff" stroke-width="1"/>
        <path id="Path_534-2" data-name="Path 534" d="M12.739,50.667a1.229,1.229,0,0,1-1.231-1.231v-28.3a1.233,1.233,0,0,1,.679-1.1L40.471,5.881a1.233,1.233,0,0,1,1.782,1.1V34.669a1.231,1.231,0,0,1-.662,1.09L13.307,50.527a1.222,1.222,0,0,1-.569.14Zm1.231-28.774V47.406L39.792,33.923V8.972ZM41.022,34.669h.025Z" transform="translate(16.818 8.4)" fill="#fff" stroke="#fff" stroke-width="1"/>
        <path id="Path_535-2" data-name="Path 535" d="M1.232,16.612a1.23,1.23,0,0,1-.551-2.331L29,.13a1.235,1.235,0,0,1,1.1,0L58.388,14.281a1.231,1.231,0,1,1-1.1,2.2L29.555,2.606,1.783,16.482a1.225,1.225,0,0,1-.551.13Z" transform="translate(0.001 0)" fill="#fff" stroke="#fff" stroke-width="1"/>
        <path id="Path_536-2" data-name="Path 536" d="M35.523,32.9a1.231,1.231,0,0,1-1.231-1.231V18.893L6.688,5.081a1.232,1.232,0,0,1,1.1-2.2L36.074,17.03a1.239,1.239,0,0,1,.679,1.1V31.669A1.231,1.231,0,0,1,35.523,32.9Z" transform="translate(8.781 4.017)" fill="#fff" stroke="#fff" stroke-width="1"/>
      </g>
      <g id="delivery-box_2_3" data-name="delivery-box (2)" transform="translate(917.001 1004.634)">
        <path id="Path_533-3" data-name="Path 533" d="M29.514,50.666a1.222,1.222,0,0,1-.569-.14L.662,35.758A1.231,1.231,0,0,1,0,34.668V6.98a1.23,1.23,0,0,1,1.779-1.1L30.063,20.031a1.233,1.233,0,0,1,.679,1.1v28.3a1.231,1.231,0,0,1-.593,1.053A1.213,1.213,0,0,1,29.514,50.666ZM2.461,33.922,28.284,47.4V21.892L2.461,8.971Z" transform="translate(0.003 8.401)" stroke="#000" stroke-width="1"/>
        <path id="Path_534-3" data-name="Path 534" d="M12.739,50.667a1.229,1.229,0,0,1-1.231-1.231v-28.3a1.233,1.233,0,0,1,.679-1.1L40.471,5.881a1.233,1.233,0,0,1,1.782,1.1V34.669a1.231,1.231,0,0,1-.662,1.09L13.307,50.527a1.222,1.222,0,0,1-.569.14Zm1.231-28.774V47.406L39.792,33.923V8.972ZM41.022,34.669h.025Z" transform="translate(16.818 8.4)" stroke="#000" stroke-width="1"/>
        <path id="Path_535-3" data-name="Path 535" d="M1.232,16.612a1.23,1.23,0,0,1-.551-2.331L29,.13a1.235,1.235,0,0,1,1.1,0L58.388,14.281a1.231,1.231,0,1,1-1.1,2.2L29.555,2.606,1.783,16.482a1.225,1.225,0,0,1-.551.13Z" transform="translate(0.001 0)" stroke="#000" stroke-width="1"/>
        <path id="Path_536-3" data-name="Path 536" d="M35.523,32.9a1.231,1.231,0,0,1-1.231-1.231V18.893L6.688,5.081a1.232,1.232,0,0,1,1.1-2.2L36.074,17.03a1.239,1.239,0,0,1,.679,1.1V31.669A1.231,1.231,0,0,1,35.523,32.9Z" transform="translate(8.781 4.017)" stroke="#000" stroke-width="1"/>
      </g>
    </g>
  </g>
</svg>
