<svg id="boxes" xmlns="http://www.w3.org/2000/svg" width="72" height="72" viewBox="0 0 72 72">
  <path id="Path_103" data-name="Path 103" d="M71.028,23.646,37.278.4a2.255,2.255,0,0,0-2.553,0L.975,23.646A2.246,2.246,0,0,0,0,25.5V69a3,3,0,0,0,3,3H69a3,3,0,0,0,3-3V25.5A2.251,2.251,0,0,0,71.028,23.646Z" fill="#fff"/>
  <path id="Path_104" data-name="Path 104" d="M16.75,19v2.25a2.25,2.25,0,1,1-4.5,0V19H7a1.5,1.5,0,0,0-1.5,1.5v12A1.5,1.5,0,0,0,7,34H22a1.5,1.5,0,0,0,1.5-1.5v-12A1.5,1.5,0,0,0,22,19Z" transform="translate(11 38)" fill="#00a2ff"/>
  <path id="Path_105" data-name="Path 105" d="M23.75,19v2.25a2.25,2.25,0,1,1-4.5,0V19H14a1.5,1.5,0,0,0-1.5,1.5v12A1.5,1.5,0,0,0,14,34H29a1.5,1.5,0,0,0,1.5-1.5v-12A1.5,1.5,0,0,0,29,19Z" transform="translate(25 38)" fill="#00a2ff"/>
  <path id="Path_106" data-name="Path 106" d="M20.25,13v2.25a2.25,2.25,0,0,1-4.5,0V13H10.5A1.5,1.5,0,0,0,9,14.5v12A1.5,1.5,0,0,0,10.5,28h15A1.5,1.5,0,0,0,27,26.5v-12A1.5,1.5,0,0,0,25.5,13Z" transform="translate(18 26)" fill="#00a2ff"/>
</svg>
