<?xml version="1.0" encoding="utf-8"?>
<!-- Generator: Adobe Illustrator 16.0.0, SVG Export Plug-In . SVG Version: 6.00 Build 0)  -->
<!DOCTYPE svg PUBLIC "-//W3C//DTD SVG 1.1//EN" "http://www.w3.org/Graphics/SVG/1.1/DTD/svg11.dtd">
<svg version="1.1" xmlns="http://www.w3.org/2000/svg" xmlns:xlink="http://www.w3.org/1999/xlink" x="0px" y="0px"
	 width="389.266px" height="345.145px" viewBox="0 0 389.266 345.145" enable-background="new 0 0 389.266 345.145"
	 xml:space="preserve">
<g id="Background_Complete">
	<g>
		<g>
			<g>
				<polygon fill="#E6E6E6" points="113.528,213.25 58.948,213.25 55.635,175.027 110.215,175.027 				"/>
				<polygon fill="#F0F0F0" points="116.355,213.25 61.775,213.25 58.462,175.027 113.043,175.027 				"/>
				<polygon fill="#FFFFFF" points="69.236,205.042 67.417,183.235 105.581,183.235 107.4,205.042 				"/>
			</g>
			<g>
				<rect x="140.704" y="213.25" fill="#E6E6E6" width="7.791" height="86.729"/>
				<rect x="145.543" y="213.25" fill="#F0F0F0" width="5.41" height="86.729"/>
				<rect x="75.544" y="213.25" fill="#F0F0F0" width="75.409" height="9.572"/>
				<rect x="70.419" y="222.822" fill="#E6E6E6" width="7.791" height="77.157"/>
				<rect x="75.258" y="222.822" fill="#F0F0F0" width="5.411" height="77.157"/>
				<rect x="14.962" y="222.822" fill="#E6E6E6" width="7.791" height="77.157"/>
				<rect x="19.801" y="222.822" fill="#F0F0F0" width="5.41" height="77.157"/>
				<rect x="91.4" y="222.822" fill="#E6E6E6" width="7.791" height="77.157"/>
				<rect x="96.239" y="222.822" fill="#F0F0F0" width="5.411" height="77.157"/>
				<rect x="14.962" y="213.25" fill="#E6E6E6" width="60.582" height="9.572"/>
			</g>
		</g>
		<g>
			<rect x="12.895" fill="#E6E6E6" width="226.229" height="129.78"/>
			<rect x="15.72" fill="#F0F0F0" width="229.45" height="129.78"/>
			<rect x="12.895" y="129.78" fill="#E6E6E6" width="226.229" height="11.236"/>
			<rect x="25.793" y="129.78" fill="#F0F0F0" width="229.45" height="11.236"/>
			<rect x="24.186" y="8.466" fill="#FAFAFA" width="212.519" height="112.849"/>
			<polygon fill="#FFFFFF" points="39.797,121.314 89.483,8.466 112.938,8.466 63.252,121.314 			"/>
			<path fill="#F0F0F0" d="M28.104,112.889c-0.334,0-0.604-0.271-0.604-0.605v-98.31c0-0.334,0.271-0.604,0.604-0.604
				s0.604,0.271,0.604,0.604v98.31C28.709,112.618,28.438,112.889,28.104,112.889z"/>
			<polygon fill="#FFFFFF" points="68.29,121.314 117.978,8.466 127.121,8.466 77.435,121.314 			"/>
			<rect x="235.629" y="8.466" fill="#E6E6E6" width="1.075" height="112.849"/>
			<polygon opacity="0.6" fill="#EBEBEB" points="247.172,21.23 20.943,21.23 20.164,11.756 246.393,11.756 			"/>
			<polygon opacity="0.6" fill="#EBEBEB" points="247.172,36.767 20.943,36.767 20.164,27.294 246.393,27.294 			"/>
			<polygon opacity="0.6" fill="#EBEBEB" points="247.172,52.305 20.943,52.305 20.164,42.831 246.393,42.831 			"/>
			<polygon opacity="0.6" fill="#EBEBEB" points="247.172,67.842 20.943,67.842 20.164,58.368 246.393,58.368 			"/>
			<polygon opacity="0.6" fill="#EBEBEB" points="247.172,83.379 20.943,83.379 20.164,73.905 246.393,73.905 			"/>
			<polygon opacity="0.6" fill="#EBEBEB" points="247.172,98.916 20.943,98.916 20.164,89.443 246.393,89.443 			"/>
		</g>
		<g>
			<g>
				<rect x="309.311" fill="#EBEBEB" width="60.917" height="60.917"/>
				<rect x="306.609" fill="#E0E0E0" width="2.701" height="60.917"/>
				<rect x="317.563" y="8.253" fill="#FFFFFF" width="44.411" height="44.412"/>
				
					<rect x="329.26" y="19.949" transform="matrix(-0.7071 0.7071 -0.7071 -0.7071 601.5532 -188.2656)" fill="#F5F5F5" width="21.019" height="21.019"/>
			</g>
			<g>
				<rect x="288.32" y="80.099" fill="#EBEBEB" width="60.917" height="60.917"/>
				<rect x="285.619" y="80.099" fill="#E0E0E0" width="2.701" height="60.917"/>
				<rect x="296.572" y="88.352" fill="#FFFFFF" width="44.412" height="44.412"/>
				<path fill="#F5F5F5" d="M315.625,120.025h6.307c3.487,0,6.314-2.827,6.314-6.314v-6.306c0-3.488-2.827-6.315-6.314-6.315h-6.307
					c-3.487,0-6.314,2.827-6.314,6.315v6.306C309.311,117.198,312.138,120.025,315.625,120.025z"/>
			</g>
		</g>
		<g>
			<g>
				<rect x="236.423" y="170.618" fill="#F0F0F0" width="15.19" height="125.275"/>
				<rect x="238.527" y="295.893" fill="#F0F0F0" width="145.859" height="4.089"/>
				<rect x="251.613" y="170.618" fill="#FAFAFA" width="134.879" height="125.275"/>
				<path fill="#F0F0F0" d="M360.085,243.822h-82.064c-8.056,0-14.609-6.554-14.609-14.61s6.554-14.61,14.609-14.61h82.064
					c8.056,0,14.609,6.554,14.609,14.61S368.141,243.822,360.085,243.822z M278.021,215.583c-7.515,0-13.629,6.114-13.629,13.628
					s6.114,13.628,13.629,13.628h82.064c7.515,0,13.629-6.114,13.629-13.628s-6.114-13.628-13.629-13.628H278.021z"/>
				<path fill="#F0F0F0" d="M360.085,280.168h-82.064c-8.056,0-14.609-6.554-14.609-14.61s6.554-14.61,14.609-14.61h82.064
					c8.056,0,14.609,6.554,14.609,14.61S368.141,280.168,360.085,280.168z M278.021,251.93c-7.515,0-13.629,6.114-13.629,13.628
					s6.114,13.628,13.629,13.628h82.064c7.515,0,13.629-6.114,13.629-13.628s-6.114-13.628-13.629-13.628H278.021z"/>
				<path fill="#EBEBEB" d="M331.436,226.061H306.67c-1.677,0-3.048-1.372-3.048-3.048l0,0c0-1.676,1.371-3.048,3.048-3.048h24.766
					c1.677,0,3.048,1.372,3.048,3.048l0,0C334.483,224.689,333.112,226.061,331.436,226.061z"/>
				<path fill="#F0F0F0" d="M360.085,207.476h-82.064c-8.056,0-14.609-6.554-14.609-14.61s6.554-14.61,14.609-14.61h82.064
					c8.056,0,14.609,6.554,14.609,14.61S368.141,207.476,360.085,207.476z M278.021,179.237c-7.515,0-13.629,6.114-13.629,13.628
					s6.114,13.628,13.629,13.628h82.064c7.515,0,13.629-6.114,13.629-13.628s-6.114-13.628-13.629-13.628H278.021z"/>
				<path fill="#EBEBEB" d="M331.436,189.715H306.67c-1.677,0-3.048-1.372-3.048-3.048l0,0c0-1.677,1.371-3.048,3.048-3.048h24.766
					c1.677,0,3.048,1.372,3.048,3.048l0,0C334.483,188.343,333.112,189.715,331.436,189.715z"/>
				<path fill="#EBEBEB" d="M331.436,262.407H306.67c-1.677,0-3.048-1.372-3.048-3.048l0,0c0-1.677,1.371-3.048,3.048-3.048h24.766
					c1.677,0,3.048,1.372,3.048,3.048l0,0C334.483,261.036,333.112,262.407,331.436,262.407z"/>
			</g>
			<rect x="251.613" y="164.25" fill="#F0F0F0" width="137.652" height="6.368"/>
			<rect x="233.446" y="164.25" fill="#E6E6E6" width="18.167" height="6.368"/>
		</g>
	</g>
</g>
<g id="Background_Simple" display="none">
	<g display="inline">
		<path fill="#407BFF" d="M170.307,249.884c87.389,14.162,194.08,4.801,214.479-94.937
			c18.507-90.489-64.759-166.124-158.239-137.005c-40.32,12.56-59.114,51.142-102.401,57.67
			C80.874,82.138,25.896,66.296,8.269,121.88C-19.026,207.945,112.8,240.565,170.307,249.884z"/>
		<path opacity="0.9" fill="#FFFFFF" d="M170.307,249.884c87.389,14.162,194.08,4.801,214.479-94.937
			c18.507-90.489-64.759-166.124-158.239-137.005c-40.32,12.56-59.114,51.142-102.401,57.67
			C80.874,82.138,25.896,66.296,8.269,121.88C-19.026,207.945,112.8,240.565,170.307,249.884z"/>
	</g>
</g>
<g id="Shadow_1_">
	<ellipse id="_x3C_Path_x3E__212_" fill="#F5F5F5" cx="193.889" cy="333.821" rx="193.889" ry="11.324"/>
</g>
<g id="Terms_and_Conditions">
	<g>
		<g>
			<path fill="#407BFF" d="M357.531,65.812H206.813c0,0-27.155,24.965-27.155,85.786c0,52.27,20.586,123.134,12.858,152.15
				c-5.828,21.888-34.101,25.645-47.644,26.169h143.456c0,0,47.179,2.847,54.905-26.169s-12.858-99.881-12.858-152.15
				C330.376,90.777,357.531,65.812,357.531,65.812z"/>
			<path opacity="0.7" fill="#FFFFFF" d="M357.531,65.812H206.813c0,0-27.155,24.965-27.155,85.786
				c0,52.27,20.586,123.134,12.858,152.15c-5.828,21.888-34.101,25.645-47.644,26.169h143.456c0,0,47.179,2.847,54.905-26.169
				s-12.858-99.881-12.858-152.15C330.376,90.777,357.531,65.812,357.531,65.812z"/>
		</g>
		<g opacity="0.8">
			<path opacity="0.8" fill="#407BFF" d="M316.528,129.913h-120.54c3.41-26.74,12.601-42.3,17.67-49.1h116.181
				C324.188,92.713,318.809,108.923,316.528,129.913z"/>
			<path opacity="0.3" fill="#407BFF" d="M315.519,144.093h-120.71c0.1-2.43,0.24-4.79,0.44-7.07h120.64
				C315.719,139.323,315.599,141.683,315.519,144.093z"/>
			<path opacity="0.3" fill="#407BFF" d="M232.655,158.263h-37.887c-0.07-2.26-0.11-4.48-0.11-6.67v-0.39h37.897v0.39
				C232.556,153.793,232.586,156.023,232.655,158.263z"/>
			<path opacity="0.3" fill="#407BFF" d="M316.238,172.433H195.619c-0.211-2.38-0.381-4.74-0.511-7.06h120.67
				C315.898,167.713,316.049,170.063,316.238,172.433z"/>
			<path opacity="0.3" fill="#407BFF" d="M317.568,186.613h-120.52c-0.28-2.37-0.54-4.73-0.78-7.07h120.57
				C317.059,181.893,317.309,184.253,317.568,186.613z"/>
			<path opacity="0.3" fill="#407BFF" d="M319.309,200.783H198.869c-0.33-2.36-0.641-4.72-0.94-7.06h120.479
				C318.688,196.073,318.988,198.423,319.309,200.783z"/>
			<path opacity="0.3" fill="#407BFF" d="M321.299,214.953h-120.38c-0.351-2.36-0.7-4.71-1.04-7.06h120.41
				C320.619,210.243,320.959,212.603,321.299,214.953z"/>
			<path opacity="0.3" fill="#407BFF" d="M323.429,229.133h-120.37c-0.189-1.29-0.39-2.6-0.59-3.91c-0.16-1.05-0.32-2.1-0.48-3.16
				h120.37C322.719,224.423,323.068,226.783,323.429,229.133z"/>
			<path opacity="0.3" fill="#407BFF" d="M205.158,243.303c-0.33-2.33-0.67-4.68-1.029-7.06h120.38c0.35,2.36,0.71,4.71,1.05,7.06
				H205.158z"/>
			<path opacity="0.3" fill="#407BFF" d="M207.068,257.473c-0.279-2.31-0.59-4.67-0.91-7.06h100.397c0.34,2.38,0.659,4.74,0.96,7.06
				H207.068z"/>
			<path opacity="0.3" fill="#407BFF" d="M208.549,271.653c-0.19-2.311-0.41-4.67-0.66-7.07h120.52c0.271,2.42,0.521,4.78,0.73,7.07
				H208.549z"/>
			<path opacity="0.3" fill="#407BFF" d="M209.238,285.823c-0.01-2.28-0.09-4.64-0.22-7.061h63.59c0.16,2.47,0.25,4.83,0.28,7.061
				H209.238z"/>
		</g>
		<path fill="#407BFF" d="M299.903,322.263c-7.651,1.39-15.401,0.329-23.093-0.044c-3.688-0.178-7.397-0.193-11.064,0.296
			c-3.592,0.48-7.176,1.416-10.807,1.101c1.199-0.646,2.32-1.408,3.373-2.291c0.233-0.195,0.078-0.542-0.165-0.627
			c-11.29-3.961-21.572,6.828-32.815,4.301c3.183-2.361,7.675-2.408,10.396-5.504c0.211-0.241,0.072-0.635-0.266-0.641
			c-10.073-0.157-19.587,3.748-29.544,4.617c-0.478,0.042-0.482,0.792,0,0.75c9.652-0.843,18.898-4.528,28.629-4.609
			c-2.906,2.596-7.347,2.692-10.31,5.309c-0.215,0.19-0.094,0.556,0.166,0.627c11.333,3.129,21.659-7.687,32.853-4.342
			c-1.174,0.914-2.428,1.683-3.786,2.31c-0.282,0.13-0.221,0.634,0.09,0.686c3.689,0.618,7.297-0.169,10.935-0.749
			c4.082-0.65,8.197-0.684,12.316-0.484c7.767,0.376,15.566,1.421,23.292,0.017C300.577,322.9,300.376,322.177,299.903,322.263z"/>
	</g>
</g>
<g id="Character">
	<g>
		<g>
			<path fill="#FFB573" d="M95.765,102.711c0.635,0.808,1.44,1.761,2.185,2.64c0.764,0.893,1.55,1.773,2.353,2.633
				c1.61,1.718,3.239,3.412,4.96,4.979c3.435,3.113,7.121,5.924,10.981,7.698c0.481,0.217,0.963,0.424,1.447,0.598
				c0.252,0.103,0.471,0.174,0.678,0.238c0.21,0.073,0.426,0.142,0.657,0.191c0.902,0.226,1.891,0.392,2.934,0.457
				c2.089,0.115,4.342-0.025,6.617-0.377c2.279-0.333,4.589-0.852,6.895-1.464c2.294-0.599,4.646-1.344,6.842-2.115l2.022,3.965
				c-4.481,2.756-9.132,4.898-14.297,6.357c-2.575,0.712-5.279,1.225-8.161,1.317c-1.44,0.042-2.938-0.026-4.468-0.299
				c-0.382-0.057-0.767-0.142-1.154-0.24c-0.396-0.09-0.773-0.189-1.105-0.299c-0.7-0.204-1.378-0.442-2.047-0.694
				c-5.332-2.066-9.769-5.234-13.76-8.684c-1.986-1.741-3.9-3.538-5.672-5.46c-0.89-0.958-1.758-1.933-2.606-2.929
				c-0.866-1.012-1.641-1.978-2.508-3.149L95.765,102.711z"/>
			<path fill="#407BFF" d="M85.602,99.885c-0.22,5.601,1.952,15.694,1.952,15.694l13.862-1.679c0,0,0.508-14.774-2.179-18.345
				C94.725,89.555,85.81,94.595,85.602,99.885z"/>
			<path fill="#FFB573" d="M140.507,119.638l6.496-5.94l0.826,6.396c0,0-2.69,3.604-5.741,2.09L140.507,119.638z"/>
			<polygon fill="#FFB573" points="150.26,114.042 153.011,117.647 147.829,120.094 147.003,113.697 			"/>
			<g>
				<path fill="#263238" d="M148.623,97.852c0.688-0.042,1.066-0.004,1.561,0.005c0.25,0.003,0.471,0.015,0.625,0.043l0.521,0.069
					c0.607,0.116,0.994,0.289,1.238,0.499c0.238,0.211,0.251,0.481,0.342,0.73l0.231,0.759l0.928,3.036l1.855,6.073l3.71,12.145
					c2.45,8.103,4.999,16.179,7.362,24.305c4.852,16.218,9.446,32.502,13.953,48.81c4.504,16.308,8.748,32.683,13.104,49.029
					c4.421,16.33,8.264,32.809,9.65,49.924c0.222,2.731-1.813,5.125-4.545,5.347c-2.141,0.174-4.076-1.048-4.919-2.895
					c-7.098-15.636-11.74-31.908-15.805-48.33c-4.129-16.405-8.37-32.781-12.351-49.224c-3.979-16.445-7.869-32.911-11.503-49.445
					c-1.879-8.25-3.573-16.549-5.364-24.822l-2.654-12.418l-1.327-6.209l-0.663-3.104l-0.166-0.776
					c-0.042-0.262-0.162-0.504-0.056-0.805c0.111-0.302,0.365-0.641,0.84-1.037l0.423-0.314c0.121-0.1,0.308-0.216,0.525-0.341
					c0.428-0.247,0.74-0.465,1.361-0.762C147.861,97.97,148.248,97.875,148.623,97.852z"/>
				<g>
					<path fill="#407BFF" d="M202.752,295.748c-0.169-0.561-0.737-0.901-1.304-0.754l-2.2,0.57l-2.201,0.57
						c-0.566,0.147-0.897,0.72-0.772,1.292c1.374,6.292,0.031,10.809,1.466,16.345c1.511,5.833,8.08,8.818,8.08,8.818l-0.215-2.484
						l1.02,2.276c0,0,4.293-5.799,2.782-11.632C207.973,305.212,204.605,301.916,202.752,295.748z"/>
					<path opacity="0.3" fill="#FFFFFF" d="M202.752,295.748c-0.169-0.561-0.737-0.901-1.304-0.754l-2.2,0.57l-2.201,0.57
						c-0.566,0.147-0.897,0.72-0.772,1.292c1.374,6.292,0.031,10.809,1.466,16.345c1.511,5.833,8.08,8.818,8.08,8.818l-0.215-2.484
						l1.02,2.276c0,0,4.293-5.799,2.782-11.632C207.973,305.212,204.605,301.916,202.752,295.748z"/>
				</g>
				<circle fill="#263238" cx="203.13" cy="310.55" r="1.377"/>
				<path fill="#263238" d="M205.684,320.407c-0.167,0.043-0.337-0.057-0.38-0.224l-2.476-9.556
					c-0.043-0.167,0.057-0.336,0.224-0.38c0.167-0.043,0.337,0.057,0.38,0.224l2.476,9.555
					C205.951,320.194,205.851,320.364,205.684,320.407z"/>
				<path fill="#407BFF" d="M197.588,261.399l-13.479,3.492c-0.773,0.2-1.571-0.269-1.772-1.043l0,0
					c-0.2-0.774,0.269-1.572,1.043-1.773l13.478-3.492c0.774-0.201,1.572,0.269,1.773,1.043l0,0
					C198.831,260.4,198.361,261.198,197.588,261.399z"/>
			</g>
			<path fill="#263238" d="M129.163,78.384c-0.241,0.602-0.118,1.227,0.274,1.397c0.394,0.17,0.906-0.179,1.148-0.78
				c0.24-0.601,0.118-1.227-0.274-1.397C129.919,77.434,129.404,77.783,129.163,78.384z"/>
			<path fill="#263238" d="M130.124,77.562l1.61,0.209C131.734,77.771,130.541,78.578,130.124,77.562z"/>
			<path fill="#ED893E" d="M129.436,79.188c0,0-0.02,3.03,0.602,4.766c-1.09,0.397-2.303-0.526-2.303-0.526L129.436,79.188z"/>
			<path fill="#263238" d="M131.58,74.724c-0.06-0.013-0.117-0.041-0.167-0.083c-1.3-1.118-2.651-0.791-2.708-0.776
				c-0.205,0.052-0.413-0.07-0.466-0.274c-0.053-0.204,0.067-0.412,0.271-0.466c0.072-0.018,1.786-0.452,3.401,0.938
				c0.16,0.138,0.179,0.379,0.041,0.539C131.857,74.711,131.713,74.754,131.58,74.724z"/>
			<path fill="#FFB573" d="M107.96,78.073c0.433,4.865-1.195,12.84-4.872,15.554c0,0,2.77,5.12,11.641,6.311
				c9.754,1.309,5.172-4.181,5.172-4.181c-5.189-1.977-4.636-5.879-3.317-9.437L107.96,78.073z"/>
			<path fill="#FFB573" d="M134.533,104.058c0.763,4.548,1.713,9.256,2.705,13.842c0.526,2.294,1.062,4.588,1.683,6.843
				c0.574,2.273,1.237,4.502,1.932,6.711c0.374,1.085,0.713,2.196,1.113,3.261l0.6,1.599l0.147,0.393l0.035,0.114
				c0.026,0.067,0.043,0.132,0.074,0.182c0.088,0.194,0.307,0.48,0.939,0.732c0.611,0.244,1.491,0.404,2.454,0.467
				c1.945,0.11,4.176-0.136,6.398-0.523c2.217-0.393,4.544-0.934,6.713-1.54l1.833,4.056c-1.149,0.689-2.242,1.244-3.399,1.798
				c-1.145,0.555-2.319,1.056-3.53,1.504c-2.428,0.889-4.964,1.632-7.853,1.873c-1.448,0.115-3.004,0.096-4.72-0.321
				c-1.679-0.399-3.68-1.345-5.087-3.065c-0.355-0.415-0.656-0.867-0.925-1.326c-0.134-0.23-0.245-0.463-0.363-0.698l-0.198-0.444
				l-0.777-1.75c-0.514-1.169-0.961-2.344-1.429-3.521c-0.86-2.362-1.679-4.731-2.395-7.112c-0.719-2.386-1.341-4.781-1.951-7.18
				c-1.197-4.82-2.161-9.586-2.889-14.582L134.533,104.058z"/>
			<path fill="#FFB573" d="M158.334,136.42l3.859-3.062l1.734,5.947c0,0-5.281,3.819-6.692-0.672L158.334,136.42z"/>
			<polygon fill="#FFB573" points="165.675,134.416 167.056,138.75 163.928,139.305 162.193,133.358 			"/>
			<polygon fill="#FFB573" points="93.556,324.995 101.624,325.589 104.021,307.061 95.952,306.466 			"/>
			<polygon fill="#FFB573" points="41.881,301.454 48.871,305.705 60.496,291.183 53.506,286.932 			"/>
			<path fill="#407BFF" d="M53.745,307.841c-0.093,0.026-0.19,0.038-0.292,0.036c-1.028-0.022-2.189-1.567-2.791-2.487
				c-0.041-0.064-0.041-0.147,0.002-0.211c0.044-0.064,0.121-0.095,0.196-0.081c0.328,0.066,3.215,0.672,3.595,1.637
				c0.085,0.214,0.052,0.436-0.095,0.641C54.186,307.62,53.979,307.775,53.745,307.841z M51.251,305.576
				c0.844,1.198,1.655,1.907,2.21,1.919c0.228,0.004,0.421-0.107,0.589-0.343c0.091-0.126,0.074-0.215,0.05-0.277
				C53.899,306.366,52.4,305.853,51.251,305.576z"/>
			<path fill="#407BFF" d="M53.318,305.343c-0.869,0.245-1.996,0.275-2.546,0.127c-0.065-0.018-0.116-0.068-0.134-0.133
				c-0.019-0.065-0.001-0.135,0.046-0.184c0.066-0.069,1.655-1.698,2.819-1.649c0.319,0.013,0.583,0.143,0.783,0.386
				c0.312,0.381,0.195,0.688,0.099,0.838C54.208,305.003,53.804,305.207,53.318,305.343z M51.222,305.163
				c0.976,0.106,2.54-0.175,2.843-0.643c0.051-0.078,0.087-0.192-0.074-0.388c-0.129-0.158-0.293-0.239-0.501-0.247
				C52.791,303.857,51.778,304.65,51.222,305.163z"/>
			<path fill="#263238" d="M50.968,304.146l-6.631-6.385c-0.241-0.232-0.594-0.258-0.848-0.062l-5.658,4.367
				c-0.587,0.453-0.601,1.404-0.035,1.93c2.35,2.187,3.59,3.128,6.506,5.936c1.794,1.727,4.241,4.432,6.719,6.817
				c2.423,2.333,4.898,0.134,4.074-1.075c-3.696-5.419-3.145-7.455-3.479-10.226C51.555,304.949,51.32,304.486,50.968,304.146z"/>
			<path fill="#407BFF" d="M105.127,325.851c-0.889,0-1.852-0.152-2.534-0.289c-0.08-0.016-0.14-0.081-0.151-0.161
				s0.029-0.159,0.102-0.196c0.37-0.19,3.643-1.838,4.609-1.287c0.188,0.106,0.296,0.282,0.31,0.509
				c0.024,0.381-0.101,0.694-0.369,0.929C106.67,325.728,105.929,325.851,105.127,325.851z M103.232,325.291
				c1.78,0.296,3.107,0.218,3.609-0.222c0.178-0.155,0.255-0.357,0.238-0.617c-0.006-0.099-0.041-0.159-0.115-0.201
				C106.432,323.952,104.574,324.655,103.232,325.291z"/>
			<path fill="#407BFF" d="M102.631,325.566c-0.04,0-0.08-0.013-0.112-0.037c-0.056-0.04-0.085-0.106-0.078-0.175
				c0.016-0.144,0.388-3.443,2.194-3.443c0.051,0,0.104,0.002,0.156,0.008c0.523,0.053,0.673,0.318,0.708,0.53
				c0.146,0.912-1.807,2.661-2.791,3.1C102.684,325.561,102.657,325.566,102.631,325.566z M104.642,322.294
				c-1.164,0-1.623,1.917-1.767,2.736c1.006-0.6,2.334-1.974,2.246-2.521c-0.007-0.043-0.028-0.176-0.368-0.21
				C104.715,322.296,104.678,322.294,104.642,322.294z"/>
			<path fill="#263238" d="M102.127,324.44h-9.069c-0.329,0-0.604,0.229-0.658,0.551l-1.217,7.175
				c-0.127,0.745,0.495,1.449,1.257,1.436c3.164-0.054,4.692-0.24,8.681-0.24c2.453,0,7.522,0.255,10.911,0.255
				c3.313,0,3.654-3.351,2.252-3.654c-6.292-1.361-8.733-3.237-10.819-5.027C103.088,324.614,102.61,324.44,102.127,324.44z"/>
			<g>
				<polygon opacity="0.2" points="104.018,307.065 102.688,317.363 94.712,316.027 95.946,306.471 				"/>
				<polygon opacity="0.2" points="53.502,286.935 60.494,291.188 55.683,297.193 48.54,293.127 				"/>
			</g>
			<path fill="#407BFF" d="M89.486,142.242c6.316,0.845,19.716,2.646,32.674,4.39c12.66-45.819,8.928-47.076,8.926-47.077
				c-0.997-0.597-2.951-1.199-4.448-1.741c-1.541-0.557-3.099-1.068-4.669-1.533c-3.143-0.93-6.339-1.674-9.568-2.23
				c-6.272-1.083-12.676-1.442-19.029-1.067c-1.24,0.074-2.509,0.777-3.206,1.825c-0.134,0.199-0.249,0.41-0.351,0.627
				c-0.354,0.757-0.488,1.606-0.393,2.436C92.209,121.979,91.318,129.907,89.486,142.242z"/>
			<path opacity="0.2" d="M125.342,113.611c-0.896,6.397,0.745,11.579,1.768,14.044c2.172-8.943,3.348-15.042,3.934-19.201
				C128.551,108.274,125.957,109.23,125.342,113.611z"/>
			<path fill="#407BFF" d="M130.803,99.421c5.594,3.206,9.482,10.834,10.655,15.266l-11.916,10.918c0,0-6.182-14.371-5.685-18.836
				C124.361,102.25,128.687,98.209,130.803,99.421z"/>
			<path fill="#FFB573" d="M109.727,68.019c-2.509,7.58-3.732,10.73-1.526,16.136c3.318,8.131,13.152,9.845,17.869,3.238
				c4.246-5.947,7.636-17.344,1.593-23.414C121.708,57.999,112.235,60.438,109.727,68.019z"/>
			<path fill="#FFB573" d="M122.158,74.744c-0.566,1.337-0.568,3.003-0.239,4.349c0.496,2.023,2.007,2.166,2.926,0.875
				c0.827-1.161,1.566-3.614,0.561-5.295C124.414,73.017,122.806,73.215,122.158,74.744z"/>
			<path fill="#263238" d="M112.444,58.583c-5.394-3-15.111,5.778-17.556,20.109c-1.751,10.264,20.161,15.224,33.997,15.058
				c-0.914-2.417-6.664-9.697-2.994-16.703c2.666-5.091,5.708-3.917,5.905-9.839C132.045,59.75,122.166,54.75,112.444,58.583z"/>
			<path fill="#263238" d="M124.742,61.805c6.274-0.611,12.591,5.556,7.901,11.707c0,0-3.422-3.04-8.237-1.984
				C121.542,72.155,124.742,61.805,124.742,61.805z"/>
			<path fill="#263238" d="M113.535,145.471c0,0-12.687,53.625-18.615,84.43c-6.257,32.5-36.271,66.359-36.271,66.359l-10.194-5.684
				c0,0,18.885-30.907,25.012-61.252c12.438-61.601,4.018-74.009,16.021-87.08L113.535,145.471z"/>
			<polygon fill="#407BFF" points="59.658,297.217 46.932,290.121 48.79,286.361 63.066,292.929 			"/>
			<path opacity="0.2" d="M106.793,157.127c-9.864,8.563-8.797,38.955-7.766,52.651c4.141-19.473,9.115-41.157,12.032-53.706
				C110.021,155.295,108.606,155.553,106.793,157.127z"/>
			<path fill="#263238" d="M121.676,146.658c0,0,5.708,63.661,2.594,87.945c-3.238,25.259-19.721,80.214-19.721,80.214
				l-11.638-1.502c0,0,9.454-54.457,11.134-79.465c1.832-27.263-6.297-90.403-6.297-90.403L121.676,146.658z"/>
			<polygon fill="#407BFF" points="107.023,315.48 90.437,313.339 90.691,308.44 108.687,310.185 			"/>
			<g>
				<path fill="#407BFF" d="M89.202,140.275l-1.782,2.706c-0.139,0.21,0.105,0.476,0.484,0.526l34.268,4.599
					c0.294,0.04,0.554-0.071,0.592-0.252l0.604-2.864c0.041-0.199-0.196-0.403-0.519-0.446l-33.089-4.441
					C89.517,140.07,89.291,140.14,89.202,140.275z"/>
				<path opacity="0.5" d="M89.202,140.275l-1.782,2.706c-0.139,0.21,0.105,0.476,0.484,0.526l34.268,4.599
					c0.294,0.04,0.554-0.071,0.592-0.252l0.604-2.864c0.041-0.199-0.196-0.403-0.519-0.446l-33.089-4.441
					C89.517,140.07,89.291,140.14,89.202,140.275z"/>
			</g>
			<path fill="#263238" d="M93.256,144.544l-0.887-0.119c-0.176-0.023-0.301-0.132-0.277-0.241l0.816-3.716
				c0.023-0.109,0.188-0.178,0.364-0.154l0.886,0.119c0.177,0.024,0.302,0.132,0.278,0.241l-0.816,3.716
				C93.596,144.498,93.432,144.567,93.256,144.544z"/>
			<path fill="#263238" d="M115.637,147.6l-0.886-0.119c-0.177-0.023-0.302-0.132-0.277-0.241l0.816-3.716
				c0.023-0.109,0.188-0.178,0.364-0.154l0.886,0.119c0.177,0.024,0.302,0.132,0.277,0.241l-0.815,3.717
				C115.978,147.554,115.813,147.623,115.637,147.6z"/>
		</g>
	</g>
</g>
</svg>
