<svg xmlns="http://www.w3.org/2000/svg" xmlns:xlink="http://www.w3.org/1999/xlink" width="64.165" height="45.985" viewBox="0 0 64.165 45.985">
  <defs>
    <linearGradient id="linear-gradient" x1="0.5" x2="0.5" y2="1" gradientUnits="objectBoundingBox">
      <stop offset="0" stop-color="#0a4bff"/>
      <stop offset="1" stop-color="#7d46ff"/>
    </linearGradient>
  </defs>
  <g id="truck_1_" data-name="truck (1)" transform="translate(0)">
    <g id="Group_61" data-name="Group 61" transform="translate(8.555 33.152)">
      <g id="Group_60" data-name="Group 60">
        <path id="Path_244" data-name="Path 244" d="M74.684,337.067a6.417,6.417,0,1,0,6.417,6.417A6.423,6.423,0,0,0,74.684,337.067Zm0,10.694a4.278,4.278,0,1,1,4.278-4.278A4.282,4.282,0,0,1,74.684,347.761Z" transform="translate(-68.267 -337.067)" fill="url(#linear-gradient)"/>
      </g>
    </g>
    <g id="Group_63" data-name="Group 63" transform="translate(44.916 33.152)">
      <g id="Group_62" data-name="Group 62">
        <path id="Path_245" data-name="Path 245" d="M364.817,337.067a6.417,6.417,0,1,0,6.417,6.417A6.423,6.423,0,0,0,364.817,337.067Zm0,10.694a4.278,4.278,0,1,1,4.278-4.278A4.282,4.282,0,0,1,364.817,347.761Z" transform="translate(-358.4 -337.067)" fill="url(#linear-gradient)"/>
      </g>
    </g>
    <g id="Group_65" data-name="Group 65" transform="translate(40.638 11.764)">
      <g id="Group_64" data-name="Group 64" transform="translate(0 0)">
        <path id="Path_246" data-name="Path 246" d="M347.624,181.863,338,166.891a1.07,1.07,0,0,0-.9-.491H325.336a1.069,1.069,0,0,0-1.069,1.069V194.2a1.068,1.068,0,0,0,1.069,1.069h4.278v-2.139h-3.208v-24.6h10.11l9.139,14.217v10.38h-5.347v2.139h6.417a1.068,1.068,0,0,0,1.069-1.069V182.441A1.067,1.067,0,0,0,347.624,181.863Z" transform="translate(-324.267 -166.4)" fill="url(#linear-gradient)"/>
      </g>
    </g>
    <g id="Group_67" data-name="Group 67" transform="translate(44.916 16.041)">
      <g id="Group_66" data-name="Group 66">
        <path id="Path_247" data-name="Path 247" d="M360.54,210.158v-7.486H369.1v-2.139H359.47A1.069,1.069,0,0,0,358.4,201.6v9.625a1.068,1.068,0,0,0,1.069,1.069h16.041v-2.139H360.54Z" transform="translate(-358.401 -200.533)" fill="url(#linear-gradient)"/>
      </g>
    </g>
    <g id="Group_69" data-name="Group 69" transform="translate(0 4.278)">
      <g id="Group_68" data-name="Group 68" transform="translate(0 0)">
        <path id="Path_248" data-name="Path 248" d="M41.707,106.667H1.069A1.07,1.07,0,0,0,0,107.736v34.221a1.069,1.069,0,0,0,1.069,1.069H9.625v-2.139H2.139V108.806h38.5v32.083H20.319v2.139H41.707a1.068,1.068,0,0,0,1.069-1.069V107.736A1.069,1.069,0,0,0,41.707,106.667Z" transform="translate(0 -106.667)" fill="url(#linear-gradient)"/>
      </g>
    </g>
    <g id="Group_71" data-name="Group 71" transform="translate(1.069 34.221)">
      <g id="Group_70" data-name="Group 70" transform="translate(0 0)">
        <rect id="Rectangle_46" data-name="Rectangle 46" width="6.417" height="2.139" fill="url(#linear-gradient)"/>
      </g>
    </g>
    <g id="Group_73" data-name="Group 73" transform="translate(22.458 34.221)">
      <g id="Group_72" data-name="Group 72" transform="translate(0 0)">
        <rect id="Rectangle_47" data-name="Rectangle 47" width="18.18" height="2.139" fill="url(#linear-gradient)"/>
      </g>
    </g>
    <g id="Group_75" data-name="Group 75" transform="translate(58.818 34.221)">
      <g id="Group_74" data-name="Group 74" transform="translate(0 0)">
        <rect id="Rectangle_48" data-name="Rectangle 48" width="4.278" height="2.139" fill="url(#linear-gradient)"/>
      </g>
    </g>
    <g id="Group_77" data-name="Group 77" transform="translate(4.278 8.555)">
      <g id="Group_76" data-name="Group 76" transform="translate(0 0)">
        <rect id="Rectangle_49" data-name="Rectangle 49" width="37.43" height="2.139" fill="url(#linear-gradient)"/>
      </g>
    </g>
    <g id="Group_79" data-name="Group 79" transform="translate(13.902 38.499)">
      <g id="Group_78" data-name="Group 78">
        <rect id="Rectangle_50" data-name="Rectangle 50" width="2.139" height="2.139" fill="url(#linear-gradient)"/>
      </g>
    </g>
    <g id="Group_81" data-name="Group 81" transform="translate(50.263 38.499)">
      <g id="Group_80" data-name="Group 80">
        <rect id="Rectangle_51" data-name="Rectangle 51" width="2.139" height="2.139" fill="url(#linear-gradient)"/>
      </g>
    </g>
    <g id="Group_83" data-name="Group 83" transform="translate(4.278 0)">
      <g id="Group_82" data-name="Group 82" transform="translate(0 0)">
        <rect id="Rectangle_52" data-name="Rectangle 52" width="14.972" height="2.139" fill="url(#linear-gradient)"/>
      </g>
    </g>
    <g id="Group_85" data-name="Group 85" transform="translate(0 0)">
      <g id="Group_84" data-name="Group 84" transform="translate(0 0)">
        <rect id="Rectangle_53" data-name="Rectangle 53" width="2.139" height="2.139" fill="url(#linear-gradient)"/>
      </g>
    </g>
  </g>
</svg>
